<svg width="237" height="237" viewBox="0 0 237 237" fill="none" xmlns="http://www.w3.org/2000/svg">
<path d="M90.9046 3.26193C27.316 18.4353 -11.9243 82.2585 3.26649 145.799C4.62938 151.491 6.39038 156.978 8.49596 162.265L42.7595 172.733L53.3717 217.143C59.03 220.862 64.9868 224.114 71.204 226.815L52.5294 148.668L52.4912 148.676L52.5142 148.591V148.584H52.5218L77.628 55.0948L125.069 108.688L130.314 114.61L130.306 114.595C130.367 114.549 131.791 116.523 134.417 118.872C137.894 121.267 141.982 121.986 146.752 120.846C151.017 119.829 154.218 117.564 156.346 114.036C158.482 110.516 159.018 106.568 157.977 102.191C157.556 100.431 156.928 98.8781 156.093 97.5314C155.251 96.1847 154.172 95.014 152.839 94.0346C151.507 93.0475 149.892 92.2134 148 91.5324C146.102 90.8514 143.904 90.2928 141.4 89.8567L131.791 88.3111C118.147 86.0309 110.123 79.8559 107.711 69.7785C106.088 62.9761 107.328 56.6788 111.432 50.8634C115.528 45.0175 121.447 41.161 129.188 39.3169C139.624 36.8225 148.988 39.9597 157.28 48.7209L147.763 57.926C144.83 54.827 142.296 52.9523 140.16 52.3096C137.909 51.5291 135.237 51.4985 132.151 52.2407C128.353 53.1437 125.467 54.9724 123.484 57.7194C121.485 60.4204 120.873 63.3817 121.638 66.5801C122.695 70.9952 126.83 73.7651 134.035 74.8975L143.942 76.4356C152.005 77.6445 158.245 79.9936 162.671 83.4522C167.088 86.9184 170.044 91.7544 171.529 97.9676C173.52 106.293 172.387 113.83 168.13 120.578C163.85 127.381 157.563 131.773 149.279 133.755C147.25 134.237 145.275 134.543 143.353 134.673L165.389 226.899C170.587 224.657 175.572 222.079 180.311 219.171L162.249 143.595L214.621 93.3076L230.011 157.712C237.377 136.938 239.046 113.883 233.548 90.8514C218.35 27.296 154.493 -11.9115 90.9046 3.26193Z" fill="#00609C"/>
<path d="M127.22 130.839C125.36 129.699 123.629 128.345 122.044 126.753L118.936 123.065L111.723 114.518L106.486 115.765L83.3705 121.282L72.8426 123.792L67.2533 145.14L52.5294 148.653L71.204 226.8C93.929 236.694 119.931 239.571 145.895 233.373C152.686 231.751 159.179 229.547 165.381 226.876L143.345 134.65C137.832 135.025 132.764 133.946 128.139 131.406C127.817 131.237 127.526 131.031 127.22 130.839Z" fill="#12284C"/>
<path d="M52.5067 148.576L52.5146 148.584V148.576H52.5067Z" fill="#12284C"/>
<path d="M98.2245 106.055L103.492 104.793L83.6845 81.501L75.9053 111.381L86.617 108.825L98.2245 106.055Z" fill="#12284C"/>
<path d="M162.242 143.587L180.304 219.163C203.626 204.87 221.045 182.994 230.003 157.705L214.613 93.2999L162.242 143.587Z" fill="#12284C"/>
<path d="M53.3718 217.136L42.7596 172.725L8.49609 162.257C17.6764 185.274 33.61 204.151 53.3718 217.136Z" fill="#12284C"/>
<path d="M86.617 108.825L75.9054 111.381L83.6845 81.501L103.492 104.793L98.2245 106.048L86.617 108.825ZM162.663 83.4369C158.237 79.9706 151.997 77.6292 143.935 76.4202L134.027 74.8822C126.814 73.7498 122.68 70.9799 121.631 66.5648C120.865 63.3664 121.485 60.4052 123.476 57.7041C125.459 54.9571 128.354 53.136 132.144 52.2255C135.229 51.4909 137.901 51.5139 140.152 52.2943C142.289 52.9447 144.823 54.8117 147.755 57.9107L157.273 48.7057C148.98 39.9521 139.616 36.8148 129.18 39.3017C121.439 41.1457 115.521 45.0022 111.425 50.8481C107.313 56.6635 106.073 62.9608 107.703 69.7632C110.115 79.8406 118.139 86.0232 131.784 88.2958L141.393 89.8414C143.896 90.2776 146.094 90.8361 147.993 91.5171C149.892 92.1981 151.5 93.0322 152.832 94.0192C154.164 94.9987 155.244 96.1694 156.086 97.5161C156.92 98.8628 157.556 100.416 157.969 102.176C159.018 106.553 158.475 110.501 156.339 114.021C154.202 117.548 151.01 119.813 146.745 120.831C141.982 121.971 137.894 121.244 134.41 118.857C131.776 116.508 130.36 114.526 130.298 114.579L130.306 114.595L125.061 108.672L77.6204 55.0795L52.5143 148.569V148.584L52.4913 148.668L52.5296 148.66L67.2534 145.148L72.8427 123.8L83.3706 121.29L106.486 115.773L111.723 114.526L118.936 123.073L122.044 126.761C123.629 128.353 125.36 129.707 127.22 130.847C127.527 131.038 127.825 131.245 128.139 131.421C132.764 133.961 137.832 135.04 143.345 134.665C145.267 134.535 147.242 134.237 149.271 133.747C157.556 131.773 163.842 127.381 168.122 120.571C172.372 113.814 173.512 106.277 171.522 97.9599C170.036 91.7467 167.081 86.9031 162.663 83.4369Z" fill="#FFCD00"/>
<path d="M48.2112 187.608L45.4778 183.981L44.5973 188.465L48.2112 187.608ZM49.3444 189.115L44.2451 190.332L43.6096 193.538L41.6725 193.997L44.5437 179.948L53.2493 191.235L51.2815 191.701L49.3444 189.115Z" fill="white"/>
<path d="M58.8616 179.198L57.6136 180.407C57.2307 180.002 56.8939 179.757 56.6106 179.665C56.312 179.566 55.9598 179.558 55.554 179.658C55.0563 179.78 54.6735 180.017 54.4132 180.377C54.1528 180.736 54.0686 181.119 54.1681 181.54C54.3059 182.121 54.8495 182.481 55.799 182.634L57.1006 182.833C58.1572 182.994 58.9841 183.3 59.5584 183.759C60.1403 184.218 60.5308 184.853 60.7222 185.664C60.9825 186.758 60.837 187.753 60.278 188.641C59.7115 189.536 58.8922 190.11 57.7973 190.37C56.7637 190.615 55.8372 190.515 55.018 190.064C54.2064 189.612 53.5862 188.847 53.1575 187.776L54.8802 186.942C55.1329 187.623 55.3856 188.067 55.6612 188.289C56.1512 188.717 56.7561 188.84 57.4681 188.671C58.0271 188.541 58.4482 188.243 58.7315 187.776C59.0148 187.309 59.0836 186.797 58.9458 186.215C58.8922 185.986 58.808 185.779 58.7008 185.603C58.5936 185.427 58.4481 185.274 58.272 185.144C58.0959 185.014 57.8816 184.907 57.6366 184.815C57.3839 184.723 57.1006 184.654 56.7714 184.593L55.508 184.386C53.7164 184.088 52.6597 183.277 52.3382 181.953C52.1238 181.058 52.2846 180.231 52.8282 179.466C53.3642 178.701 54.1452 178.188 55.1635 177.951C56.5417 177.637 57.7667 178.051 58.8616 179.198Z" fill="white"/>
<path d="M67.8734 177.048L66.6254 178.257C66.2426 177.852 65.9057 177.607 65.6224 177.515C65.3238 177.416 64.9716 177.408 64.5658 177.507C64.0681 177.63 63.6853 177.867 63.425 178.227C63.1647 178.586 63.0804 178.969 63.1799 179.39C63.3178 179.971 63.8614 180.331 64.8108 180.484L66.1124 180.683C67.169 180.844 67.996 181.15 68.5702 181.609C69.1521 182.068 69.5426 182.703 69.734 183.514C69.9943 184.608 69.8488 185.603 69.2899 186.491C68.7233 187.386 67.904 187.96 66.8092 188.22C65.7755 188.465 64.8491 188.365 64.0298 187.914C63.2182 187.462 62.5981 186.697 62.1693 185.626L63.892 184.792C64.1447 185.473 64.3973 185.917 64.6729 186.139C65.163 186.567 65.7679 186.69 66.48 186.521C67.0389 186.391 67.4599 186.093 67.7432 185.626C68.0265 185.159 68.0955 184.646 67.9576 184.065C67.904 183.835 67.8199 183.629 67.7127 183.453C67.6055 183.277 67.46 183.124 67.2839 182.994C67.1078 182.864 66.8934 182.757 66.6484 182.665C66.3957 182.573 66.1124 182.504 65.7832 182.443L64.5198 182.236C62.7282 181.938 61.6716 181.127 61.35 179.803C61.1356 178.908 61.2964 178.081 61.84 177.316C62.376 176.551 63.157 176.038 64.1753 175.801C65.5535 175.487 66.7862 175.901 67.8734 177.048Z" fill="white"/>
<path d="M72.368 180.361C72.6819 181.678 73.3863 182.649 74.4659 183.284C75.5455 183.92 76.6634 184.103 77.8119 183.828C79.0599 183.529 80.0093 182.848 80.6601 181.777C81.3109 180.698 81.4871 179.535 81.1885 178.28C80.8822 177.01 80.2084 176.054 79.1518 175.395C78.1028 174.73 76.9543 174.554 75.7139 174.845C74.4736 175.143 73.5319 175.824 72.8887 176.888C72.2455 177.951 72.0694 179.107 72.368 180.361ZM70.5534 180.767C70.1552 179.091 70.4233 177.507 71.365 176.015C72.2991 174.523 73.6314 173.567 75.3464 173.161C77.0462 172.756 78.6388 173.016 80.1472 173.934C81.6555 174.86 82.6126 176.168 83.0184 177.867C83.4242 179.581 83.1638 181.173 82.2221 182.657C81.2803 184.149 79.9404 185.098 78.2023 185.511C76.6634 185.878 75.155 185.679 73.6849 184.907C72.0464 184.05 71.0051 182.672 70.5534 180.767Z" fill="white"/>
<path d="M92.6046 169.947L93.1099 172.075C91.8618 171.455 90.6827 171.279 89.5725 171.539C88.3474 171.83 87.421 172.518 86.7931 173.597C86.1576 174.669 85.9892 175.839 86.2955 177.102C86.5941 178.349 87.2678 179.306 88.3168 179.956C89.3657 180.614 90.499 180.798 91.7241 180.507C92.3596 180.354 92.8726 180.124 93.2631 179.811C93.4851 179.65 93.7071 179.451 93.9292 179.214C94.1512 178.977 94.381 178.701 94.6183 178.38L95.1389 180.545C94.2507 181.372 93.2401 181.922 92.1069 182.19C90.4071 182.596 88.8145 182.351 87.3291 181.448C85.8437 180.537 84.9019 179.237 84.4961 177.546C84.1362 176.031 84.3124 174.561 85.0321 173.138C85.9203 171.394 87.3444 170.284 89.2969 169.817C90.3688 169.565 91.4714 169.611 92.6046 169.947Z" fill="white"/>
<path d="M96.3257 168.386L99.1663 180.285L97.3746 180.713L94.5264 168.815L96.3257 168.386Z" fill="white"/>
<path d="M107.007 173.574L104.273 169.947L103.393 174.431L107.007 173.574ZM108.14 175.089L103.048 176.306L102.413 179.512L100.476 179.971L103.347 165.923L112.052 177.209L110.085 177.676L108.14 175.089Z" fill="white"/>
<path d="M113.53 166.068L115.965 176.275L114.173 176.704L111.731 166.497L108.997 167.147L108.592 165.456L115.85 163.727L116.256 165.41L113.53 166.068Z" fill="white"/>
<path d="M124.242 163.512L119.464 164.645L120.146 167.507L124.785 166.397L125.184 168.088L120.551 169.19L121.501 173.169L126.271 172.029L126.677 173.72L120.107 175.288L117.267 163.39L123.836 161.821L124.242 163.512Z" fill="white"/>
<path d="M130.245 171.08L131.056 170.889C131.86 170.697 132.511 170.452 133.009 170.154C133.499 169.848 133.912 169.442 134.249 168.953C134.938 167.935 135.13 166.78 134.823 165.487C134.509 164.186 133.82 163.229 132.756 162.625C131.799 162.089 130.551 162.005 129.02 162.365L128.208 162.556L130.245 171.08ZM128.843 173.199L126.003 161.301L128.499 160.704C129.693 160.421 130.673 160.314 131.424 160.383C132.228 160.436 132.993 160.666 133.736 161.079C135.229 161.905 136.202 163.229 136.63 165.05C137.067 166.879 136.783 168.509 135.773 169.947C135.267 170.667 134.686 171.218 134.035 171.608C133.43 171.983 132.526 172.32 131.317 172.61L128.843 173.199Z" fill="white"/>
<path d="M149.118 157.659L147.87 158.868C147.487 158.462 147.151 158.217 146.867 158.126C146.569 158.026 146.216 158.018 145.811 158.118C145.313 158.24 144.93 158.477 144.67 158.837C144.409 159.197 144.325 159.579 144.425 160C144.563 160.582 145.106 160.941 146.056 161.094L147.357 161.293C148.414 161.454 149.241 161.76 149.815 162.219C150.397 162.678 150.787 163.313 150.979 164.124C151.239 165.219 151.094 166.213 150.535 167.101C149.968 167.996 149.149 168.57 148.054 168.83C147.02 169.075 146.094 168.976 145.275 168.524C144.463 168.073 143.843 167.308 143.414 166.236L145.137 165.402C145.39 166.083 145.642 166.527 145.918 166.749C146.408 167.17 147.013 167.3 147.725 167.132C148.284 167.001 148.705 166.703 148.988 166.236C149.271 165.77 149.34 165.257 149.202 164.675C149.149 164.446 149.065 164.239 148.958 164.063C148.85 163.887 148.705 163.734 148.529 163.604C148.353 163.474 148.138 163.367 147.893 163.275C147.641 163.183 147.357 163.114 147.028 163.053L145.765 162.847C143.973 162.548 142.916 161.737 142.602 160.406C142.388 159.51 142.549 158.684 143.092 157.919C143.628 157.154 144.409 156.641 145.428 156.404C146.798 156.098 148.023 156.511 149.118 157.659Z" fill="white"/>
<path d="M154.891 156.197L157.326 166.405L155.535 166.833L153.092 156.626L150.359 157.276L149.953 155.585L157.219 153.856L157.617 155.539L154.891 156.197Z" fill="white"/>
<path d="M160.427 153.091L162.142 160.253C162.387 161.278 162.732 161.982 163.176 162.372C163.834 162.938 164.623 163.107 165.527 162.893C166.438 162.678 167.058 162.166 167.395 161.362C167.617 160.827 167.609 160.038 167.364 158.998L165.649 151.836L167.448 151.407L169.278 159.067C169.577 160.322 169.431 161.446 168.85 162.441C168.183 163.558 167.219 164.262 165.932 164.568C164.654 164.874 163.467 164.675 162.38 163.987C161.407 163.359 160.764 162.426 160.465 161.171L158.635 153.512L160.427 153.091Z" fill="white"/>
<path d="M174.339 160.559L175.151 160.368C175.955 160.176 176.606 159.931 177.103 159.633C177.593 159.327 178.007 158.921 178.351 158.432C179.041 157.414 179.232 156.259 178.926 154.965C178.612 153.665 177.923 152.708 176.858 152.104C175.901 151.568 174.653 151.484 173.122 151.843L172.31 152.035L174.339 160.559ZM172.946 162.678L170.105 150.78L172.601 150.183C173.796 149.9 174.776 149.793 175.526 149.862C176.33 149.915 177.096 150.145 177.838 150.558C179.331 151.384 180.304 152.708 180.733 154.529C181.169 156.358 180.886 157.988 179.875 159.426C179.37 160.146 178.788 160.697 178.137 161.087C177.532 161.462 176.621 161.798 175.419 162.089L172.946 162.678Z" fill="white"/>
<path d="M188.351 148.209L183.581 149.349L184.262 152.203L188.895 151.101L189.3 152.785L184.668 153.894L185.618 157.865L190.388 156.733L190.793 158.416L184.224 159.985L181.376 148.086L187.945 146.518L188.351 148.209Z" fill="white"/>
<path d="M192.96 157.896L189.921 145.194L200.77 152.195L198.795 143.932L200.594 143.503L203.611 156.121L192.769 149.142L194.76 157.467L192.96 157.896Z" fill="white"/>
<path d="M206.941 143.771L209.384 153.978L207.585 154.407L205.15 144.199L202.409 144.85L202.011 143.166L209.269 141.429L209.675 143.12L206.941 143.771Z" fill="white"/>
<path d="M217.822 141.261L216.573 142.47C216.191 142.065 215.854 141.82 215.57 141.728C215.272 141.628 214.92 141.621 214.514 141.72C214.016 141.843 213.633 142.08 213.373 142.439C213.113 142.799 213.028 143.182 213.128 143.602C213.266 144.184 213.809 144.544 214.759 144.697L216.061 144.896C217.117 145.056 217.936 145.362 218.518 145.821C219.1 146.281 219.491 146.916 219.682 147.734C219.942 148.829 219.797 149.823 219.238 150.711C218.671 151.606 217.852 152.18 216.757 152.44C215.724 152.685 214.797 152.586 213.978 152.134C213.166 151.683 212.546 150.918 212.117 149.846L213.84 149.012C214.093 149.693 214.345 150.137 214.621 150.359C215.111 150.787 215.716 150.91 216.428 150.742C216.987 150.611 217.408 150.313 217.691 149.846C217.975 149.38 218.044 148.867 217.906 148.285C217.852 148.056 217.768 147.849 217.661 147.673C217.554 147.497 217.408 147.344 217.232 147.214C217.056 147.084 216.841 146.977 216.596 146.885C216.351 146.793 216.06 146.724 215.731 146.663L214.468 146.457C212.676 146.158 211.62 145.347 211.306 144.016C211.091 143.12 211.252 142.294 211.796 141.529C212.332 140.764 213.113 140.251 214.131 140.014C215.502 139.7 216.734 140.113 217.822 141.261Z" fill="white"/>
<path d="M95.5141 190.982L96.6932 195.925C96.8617 196.629 97.099 197.119 97.4052 197.387C97.8646 197.777 98.4007 197.892 99.0285 197.746C99.6564 197.593 100.085 197.241 100.315 196.69C100.468 196.315 100.46 195.772 100.292 195.061L99.1127 190.118L100.353 189.819L101.616 195.106C101.823 195.971 101.724 196.752 101.318 197.44C100.858 198.205 100.192 198.703 99.3042 198.909C98.4236 199.124 97.6043 198.986 96.854 198.504C96.1802 198.075 95.7438 197.425 95.537 196.56L94.2737 191.273L95.5141 190.982Z" fill="white"/>
<path d="M108.37 188.381L108.722 189.85C107.864 189.421 107.045 189.299 106.279 189.482C105.437 189.681 104.794 190.156 104.365 190.898C103.929 191.64 103.814 192.444 104.02 193.316C104.227 194.173 104.694 194.831 105.414 195.29C106.134 195.741 106.922 195.872 107.765 195.665C108.201 195.558 108.553 195.405 108.829 195.191C108.982 195.076 109.135 194.938 109.288 194.777C109.442 194.617 109.602 194.425 109.763 194.203L110.123 195.696C109.511 196.269 108.814 196.644 108.033 196.828C106.861 197.111 105.759 196.935 104.733 196.315C103.707 195.688 103.056 194.793 102.78 193.622C102.527 192.574 102.658 191.564 103.148 190.577C103.76 189.368 104.74 188.602 106.096 188.281C106.831 188.113 107.589 188.143 108.37 188.381Z" fill="white"/>
<path d="M117.872 186.942L117.006 187.776C116.738 187.493 116.509 187.325 116.317 187.263C116.11 187.194 115.873 187.187 115.59 187.256C115.245 187.34 114.985 187.501 114.801 187.753C114.617 187.998 114.564 188.266 114.633 188.556C114.725 188.954 115.1 189.207 115.758 189.314L116.662 189.452C117.389 189.559 117.956 189.773 118.362 190.087C118.76 190.401 119.035 190.844 119.166 191.403C119.349 192.16 119.242 192.841 118.859 193.454C118.469 194.073 117.902 194.471 117.144 194.647C116.432 194.816 115.789 194.747 115.23 194.433C114.671 194.119 114.242 193.599 113.944 192.857L115.13 192.283C115.306 192.75 115.483 193.063 115.666 193.209C116.003 193.499 116.424 193.591 116.907 193.477C117.297 193.385 117.581 193.178 117.78 192.857C117.971 192.535 118.025 192.176 117.925 191.778C117.887 191.617 117.833 191.479 117.757 191.357C117.68 191.235 117.581 191.127 117.458 191.036C117.336 190.944 117.19 190.867 117.022 190.806C116.846 190.745 116.646 190.691 116.424 190.653L115.552 190.515C114.311 190.309 113.584 189.75 113.369 188.832C113.224 188.212 113.331 187.646 113.706 187.118C114.081 186.59 114.617 186.238 115.314 186.07C116.264 185.863 117.114 186.146 117.872 186.942Z" fill="white"/>
<path d="M124.602 189.383L122.718 186.881L122.106 189.98L124.602 189.383ZM125.383 190.431L121.868 191.273L121.432 193.484L120.099 193.806L122.083 184.111L128.093 191.9L126.738 192.222L125.383 190.431Z" fill="white"/>
<path d="M128.974 191.678L126.876 182.909L134.364 187.745L133.001 182.037L134.241 181.739L136.324 190.454L128.843 185.633L130.214 191.38L128.974 191.678Z" fill="white"/>
<path d="M142.235 187.279L142.794 187.149C143.353 187.019 143.797 186.85 144.142 186.644C144.478 186.429 144.769 186.154 144.999 185.817C145.474 185.113 145.604 184.318 145.397 183.422C145.183 182.519 144.708 181.861 143.973 181.448C143.315 181.081 142.449 181.02 141.393 181.272L140.834 181.402L142.235 187.279ZM141.278 188.74L139.318 180.53L141.041 180.117C141.868 179.918 142.541 179.849 143.054 179.895C143.606 179.933 144.142 180.094 144.647 180.377C145.681 180.951 146.347 181.861 146.645 183.124C146.944 184.386 146.753 185.511 146.056 186.506C145.704 187.003 145.305 187.386 144.854 187.654C144.433 187.914 143.812 188.143 142.978 188.342L141.278 188.74Z" fill="white"/>
<path d="M148.337 178.38L150.297 186.59L149.057 186.888L147.097 178.678L148.337 178.38Z" fill="white"/>
<path d="M154.991 178.02L151.699 178.808L152.166 180.782L155.366 180.017L155.642 181.18L152.449 181.945L153.1 184.692L156.4 183.904L156.675 185.067L152.143 186.146L150.183 177.936L154.715 176.857L154.991 178.02Z" fill="white"/>
<path d="M161.377 179.428L164.769 178.617L164.83 178.892C164.975 179.512 165.036 180.071 165.006 180.583C164.968 181.058 164.83 181.525 164.585 181.991C164.026 183.032 163.161 183.69 161.982 183.973C160.833 184.249 159.746 184.065 158.727 183.437C157.709 182.802 157.058 181.899 156.783 180.729C156.499 179.535 156.675 178.426 157.311 177.4C157.946 176.367 158.858 175.709 160.052 175.426C160.695 175.273 161.323 175.258 161.943 175.388C162.54 175.526 163.161 175.824 163.819 176.291L163.138 177.347C162.25 176.612 161.323 176.36 160.351 176.589C159.478 176.796 158.827 177.27 158.375 178.012C157.923 178.739 157.809 179.55 158.023 180.438C158.245 181.349 158.75 182.03 159.547 182.466C160.289 182.871 161.024 182.986 161.736 182.81C162.349 182.665 162.847 182.328 163.23 181.8C163.62 181.272 163.766 180.706 163.689 180.117L161.637 180.606L161.377 179.428Z" fill="white"/>
<path d="M167.073 178.219C167.288 179.13 167.77 179.803 168.52 180.239C169.271 180.683 170.036 180.805 170.833 180.614C171.698 180.407 172.349 179.941 172.8 179.198C173.252 178.456 173.367 177.653 173.16 176.788C172.954 175.916 172.479 175.25 171.759 174.799C171.032 174.34 170.243 174.217 169.386 174.424C168.528 174.63 167.877 175.097 167.433 175.832C166.989 176.559 166.867 177.354 167.073 178.219ZM165.818 178.502C165.542 177.347 165.726 176.253 166.376 175.22C167.02 174.187 167.938 173.529 169.125 173.245C170.297 172.962 171.399 173.146 172.433 173.781C173.474 174.416 174.133 175.319 174.416 176.497C174.699 177.676 174.516 178.778 173.865 179.803C173.214 180.828 172.287 181.486 171.093 181.777C170.029 182.03 168.995 181.892 167.969 181.356C166.851 180.775 166.131 179.818 165.818 178.502Z" fill="white"/>
</svg>
