<svg width="237" height="237" viewBox="0 0 237 237" fill="none" xmlns="http://www.w3.org/2000/svg">
<path d="M118.395 236.638C183.783 236.638 236.79 183.665 236.79 118.319C236.79 52.9732 183.783 0 118.395 0C53.0072 0 0 52.9732 0 118.319C0 183.665 53.0072 236.638 118.395 236.638Z" fill="#00609C"/>
<path d="M158.551 194.178C159.721 190.284 136.011 179.725 105.594 170.594C75.1756 161.462 49.5683 157.215 48.3979 161.108C47.2276 165.002 70.9374 175.561 101.355 184.693C131.773 193.825 157.381 198.071 158.551 194.178Z" fill="#1C122D"/>
<path d="M102.515 174.773L102.538 174.781C102.485 174.911 102.439 175.041 102.393 175.171C101.734 177.352 137.621 188.133 138.279 185.945C139.642 181.408 129.023 174.2 120.432 171.621C117.683 170.795 114.996 170.397 112.553 170.381L119.789 146.324L111.787 143.922L102.515 174.773Z" fill="#FFCD00" stroke="#160E23" stroke-width="1.5907" stroke-miterlimit="10" stroke-linecap="round" stroke-linejoin="round"/>
<path d="M174.55 105.921L84.3203 78.8324L68.6516 130.957L158.882 158.045L174.55 105.921Z" fill="#FFCD00" stroke="#160E23" stroke-width="1.5907" stroke-miterlimit="10" stroke-linecap="round" stroke-linejoin="round"/>
<path d="M174.557 105.938L84.3229 78.8435L74.5913 65.5677L164.825 92.6549L174.557 105.938Z" fill="#FFCD00" stroke="#160E23" stroke-width="1.5907" stroke-miterlimit="10" stroke-linecap="round" stroke-linejoin="round"/>
<path d="M58.918 117.684L68.6496 130.967L84.3227 78.8435L74.5911 65.5677L58.918 117.684Z" fill="#160E23" stroke="#160E23" stroke-width="1.5907" stroke-miterlimit="10" stroke-linecap="round" stroke-linejoin="round"/>
<path d="M102.515 174.773L102.492 174.766C102.469 174.903 102.438 175.034 102.392 175.171C101.734 177.352 65.8471 166.578 66.5055 164.398C67.8684 159.86 80.701 159.699 89.2994 162.278C92.0482 163.104 94.5136 164.252 96.5579 165.584L103.793 141.527L111.795 143.929L102.515 174.773Z" fill="#FFCD00" stroke="#160E23" stroke-width="1.5907" stroke-miterlimit="10" stroke-linecap="round" stroke-linejoin="round"/>
<path d="M101.673 130.111C111.424 130.111 119.329 122.211 119.329 112.466C119.329 102.721 111.424 94.8213 101.673 94.8213C91.9216 94.8213 84.0166 102.721 84.0166 112.466C84.0166 122.211 91.9216 130.111 101.673 130.111Z" fill="white" stroke="#160E23" stroke-width="1.5907" stroke-miterlimit="10" stroke-linecap="round" stroke-linejoin="round"/>
<path d="M101.673 119.031C105.301 119.031 108.242 116.091 108.242 112.465C108.242 108.839 105.301 105.9 101.673 105.9C98.0448 105.9 95.1035 108.839 95.1035 112.465C95.1035 116.091 98.0448 119.031 101.673 119.031Z" fill="#160E23"/>
<path d="M84.7593 107.392C87.5616 98.0571 97.4157 92.7621 106.749 95.5703C116.09 98.3708 121.389 108.219 118.579 117.546L84.7593 107.392Z" fill="#FFCD00" stroke="#160E23" stroke-width="1.5907" stroke-miterlimit="10" stroke-linecap="round" stroke-linejoin="round"/>
<path d="M141.533 142.078C151.285 142.078 159.189 134.179 159.189 124.433C159.189 114.688 151.285 106.789 141.533 106.789C131.782 106.789 123.877 114.688 123.877 124.433C123.877 134.179 131.782 142.078 141.533 142.078Z" fill="white" stroke="#160E23" stroke-width="1.5907" stroke-miterlimit="10" stroke-linecap="round" stroke-linejoin="round"/>
<path d="M141.533 130.998C145.161 130.998 148.103 128.059 148.103 124.433C148.103 120.807 145.161 117.867 141.533 117.867C137.905 117.867 134.964 120.807 134.964 124.433C134.964 128.059 137.905 130.998 141.533 130.998Z" fill="#160E23"/>
<path d="M124.62 119.36C127.43 110.024 137.276 104.729 146.61 107.538C155.951 110.346 161.249 120.186 158.439 129.513L124.62 119.36Z" fill="#FFCD00" stroke="#160E23" stroke-width="1.5907" stroke-miterlimit="10" stroke-linecap="round" stroke-linejoin="round"/>
<path d="M123.203 137.64C123.203 137.64 119.628 138.573 115.891 137.448C112.163 136.331 109.689 133.584 109.689 133.584" fill="#FFCD00"/>
<path d="M123.203 137.64C123.203 137.64 119.628 138.573 115.891 137.448C112.163 136.331 109.689 133.584 109.689 133.584" stroke="#160E23" stroke-width="1.5907" stroke-miterlimit="10" stroke-linecap="round" stroke-linejoin="round"/>
<path d="M71.5054 200.414L77.3781 199.052C77.983 198.869 78.4041 198.7 78.6414 198.547C78.8788 198.394 79.0243 198.211 79.0932 197.989C79.1621 197.759 79.1315 197.545 79.0013 197.361C78.8712 197.17 78.6721 197.002 78.3964 196.849C78.1284 196.696 77.8069 196.558 77.4393 196.451C77.0259 196.328 76.5741 196.252 76.0765 196.229C75.5711 196.206 75.0505 196.237 74.4992 196.321C73.9556 196.405 73.4273 196.558 72.9296 196.757C72.9143 196.765 72.8989 196.78 72.876 196.795C72.853 196.81 72.83 196.818 72.8147 196.81L73.9249 193.061C75.0428 192.931 75.9922 192.87 76.7809 192.877C77.5695 192.885 78.4194 193.031 79.3305 193.306C80.2417 193.581 81.015 193.956 81.6352 194.438C82.2554 194.92 82.6995 195.464 82.9598 196.091C83.2202 196.711 83.2508 197.346 83.0594 197.996C82.8373 198.739 82.3779 199.32 81.6888 199.733C80.9997 200.147 80.0886 200.376 78.963 200.437L76.3751 200.759L76.3368 200.935L79.2846 201.822C79.8818 202.006 80.4331 202.075 80.9232 202.052C81.4208 202.021 81.8343 201.899 82.1788 201.685L80.8236 206.031L70.7397 203.001L71.5054 200.414Z" fill="#FFCD00"/>
<path d="M87.2932 208.227C86.2213 207.905 85.3178 207.393 84.5828 206.681C83.8477 205.977 83.35 205.113 83.0974 204.103C82.8447 203.092 82.906 201.975 83.2735 200.759C83.6333 199.55 84.1999 198.593 84.9733 197.874C85.7466 197.155 86.6347 196.703 87.6378 196.527C88.6408 196.351 89.6821 196.42 90.754 196.742C91.8413 197.071 92.7601 197.583 93.4951 198.287C94.2301 198.991 94.7202 199.848 94.9729 200.866C95.2255 201.884 95.1643 203.001 94.7967 204.217C94.4369 205.426 93.8703 206.383 93.1046 207.102C92.339 207.821 91.4508 208.265 90.4478 208.449C89.4294 208.625 88.3805 208.556 87.2932 208.227ZM88.3192 204.814C88.9624 205.005 89.5596 205.097 90.1109 205.074C90.6698 205.059 91.1445 204.914 91.5427 204.646C91.9408 204.378 92.2164 203.988 92.3696 203.49C92.5227 202.985 92.4998 202.519 92.316 202.082C92.1246 201.646 91.803 201.264 91.3512 200.935C90.8995 200.606 90.3559 200.346 89.7127 200.154C89.0695 199.963 88.4723 199.879 87.9134 199.909C87.3545 199.94 86.8797 200.078 86.4893 200.33C86.0988 200.583 85.8231 200.965 85.67 201.486C85.5169 201.991 85.5322 202.457 85.7083 202.894C85.8844 203.33 86.206 203.712 86.6577 204.041C87.1324 204.363 87.6761 204.623 88.3192 204.814Z" fill="#FFCD00"/>
<path d="M94.4064 207.293L100.279 205.931C100.884 205.748 101.305 205.579 101.542 205.426C101.78 205.273 101.925 205.09 101.994 204.868C102.063 204.638 102.032 204.424 101.902 204.24C101.772 204.049 101.573 203.881 101.297 203.728C101.022 203.575 100.708 203.437 100.34 203.33C99.9269 203.207 99.4752 203.131 98.9698 203.108C98.4645 203.085 97.9438 203.115 97.3926 203.2C96.8413 203.284 96.3206 203.437 95.8306 203.643C95.8153 203.651 95.8 203.659 95.777 203.674C95.754 203.689 95.7311 203.697 95.7157 203.689L96.8259 199.94C97.9438 199.81 98.8933 199.749 99.6819 199.756C100.471 199.772 101.32 199.917 102.232 200.185C103.143 200.453 103.916 200.835 104.536 201.317C105.156 201.799 105.6 202.35 105.861 202.97C106.121 203.59 106.152 204.225 105.96 204.875C105.738 205.618 105.279 206.199 104.59 206.612C103.901 207.026 102.99 207.255 101.864 207.324L99.2761 207.645L99.2378 207.821L102.186 208.709C102.783 208.885 103.334 208.961 103.824 208.931C104.322 208.9 104.735 208.778 105.08 208.564L103.725 212.91L93.6484 209.88L94.4064 207.293Z" fill="#FFCD00"/>
<path d="M110.195 215.106C109.123 214.784 108.219 214.272 107.484 213.56C106.749 212.848 106.251 211.991 105.999 210.981C105.746 209.971 105.807 208.854 106.175 207.638C106.535 206.429 107.101 205.472 107.875 204.753C108.648 204.034 109.536 203.582 110.539 203.406C111.542 203.23 112.583 203.299 113.655 203.62C114.75 203.949 115.661 204.462 116.396 205.166C117.131 205.87 117.622 206.727 117.874 207.745C118.127 208.762 118.066 209.88 117.698 211.096C117.338 212.305 116.772 213.262 116.006 213.981C115.24 214.693 114.352 215.144 113.349 215.328C112.331 215.504 111.282 215.427 110.195 215.106ZM111.221 211.685C111.864 211.877 112.461 211.969 113.012 211.953C113.564 211.938 114.046 211.793 114.444 211.525C114.842 211.257 115.118 210.867 115.271 210.369C115.424 209.864 115.401 209.398 115.217 208.961C115.026 208.525 114.704 208.143 114.26 207.814C113.809 207.485 113.265 207.224 112.622 207.033C111.979 206.842 111.381 206.758 110.822 206.788C110.263 206.819 109.789 206.957 109.398 207.209C109.008 207.462 108.732 207.852 108.579 208.365C108.426 208.87 108.441 209.336 108.617 209.772C108.793 210.209 109.115 210.591 109.567 210.92C110.026 211.234 110.577 211.494 111.221 211.685Z" fill="#FFCD00"/>
<path d="M19.2871 96.2284C19.601 95.884 19.9609 95.4326 20.3743 94.8817C20.7801 94.3307 21.1553 93.7951 21.4922 93.2748L23.1614 90.9716C23.4906 90.459 23.7816 89.9157 24.0572 89.3418C24.3252 88.7679 24.5396 88.2629 24.7004 87.8191L30.0677 89.426V89.4795C29.9528 89.9616 29.8456 90.5125 29.7537 91.1247C29.6619 91.7444 29.6159 92.3336 29.6159 92.9075L29.7537 95.7463C29.7461 96.3661 29.7614 97.0165 29.7997 97.6975C29.8303 98.3785 29.8839 98.9524 29.9605 99.4115L26.3465 98.325C26.4001 98.0724 26.4537 97.774 26.5073 97.4297C26.5609 97.0854 26.5992 96.6875 26.6298 96.236L26.6069 95.9453L24.0266 95.1724L23.8352 95.4173C23.7433 95.555 23.5978 95.8305 23.3834 96.2437C23.1537 96.6875 23.0006 97.0471 22.9164 97.3073L19.2871 96.2284ZM26.6528 94.5526L26.5456 92.9458C26.5303 92.7239 26.5303 92.502 26.5533 92.2801C26.5762 92.0658 26.6069 91.8439 26.6451 91.6144C26.6375 91.5532 26.6298 91.4919 26.6451 91.4384C26.6528 91.3772 26.6605 91.3083 26.6605 91.2394L26.4997 91.1935C26.4614 91.2853 26.4231 91.3695 26.3925 91.4307C26.3619 91.4996 26.3236 91.5608 26.2853 91.6297C26.1934 91.8133 26.1015 91.9893 26.002 92.1576C25.9101 92.326 25.7953 92.5096 25.6651 92.6856L24.6927 93.9711L26.6528 94.5526Z" fill="#FFCD00"/>
<path d="M34.7002 101.072C34.0494 100.881 33.3067 100.567 32.4645 100.146C31.6222 99.7252 30.9255 99.312 30.3589 98.9142L31.5304 95.5015C31.9132 96.1213 32.4721 96.6645 33.1842 97.1236C33.9039 97.5828 34.6543 97.9271 35.4429 98.1643C35.7645 98.2638 36.0631 98.3326 36.3311 98.3632C36.5991 98.4015 36.8211 98.3938 37.0049 98.3479C37.1886 98.302 37.2958 98.2025 37.3494 98.0419C37.3877 97.9041 37.3494 97.7664 37.2269 97.644C37.0967 97.5215 36.9283 97.4068 36.6986 97.292C36.4765 97.1849 36.1473 97.0318 35.7109 96.8482C34.9222 96.5192 34.2714 96.2054 33.7508 95.9223C33.2301 95.6392 32.809 95.2566 32.5028 94.7822C32.1888 94.3078 32.1352 93.7339 32.342 93.0606C32.5257 92.4408 32.8856 91.974 33.4139 91.6526C33.9345 91.3389 34.5777 91.1706 35.3357 91.1629C36.0937 91.1553 36.913 91.2777 37.7858 91.5455C38.4137 91.7368 39.0492 91.9893 39.6923 92.3183C40.3278 92.6397 40.8485 92.9611 41.2543 93.2595L40.2589 96.5727C39.9527 96.1825 39.5009 95.7999 38.9114 95.4173C38.3142 95.0347 37.6863 94.7439 37.0202 94.5374C36.6986 94.4379 36.4 94.3767 36.132 94.3461C35.864 94.3154 35.642 94.3308 35.4659 94.3843C35.2898 94.4379 35.1826 94.5297 35.1443 94.6598C35.0907 94.8434 35.1366 95.0118 35.2745 95.1724C35.4199 95.3331 35.619 95.4785 35.887 95.6163C36.155 95.754 36.5225 95.9147 36.9895 96.106C37.7782 96.4273 38.4137 96.7334 38.896 97.0089C39.3784 97.2843 39.7613 97.6516 40.0522 98.1107C40.3432 98.5622 40.3967 99.0978 40.213 99.7023C40.0216 100.33 39.6617 100.796 39.1334 101.087C38.6051 101.378 37.9696 101.523 37.2192 101.516C36.4689 101.508 35.6343 101.347 34.7002 101.072Z" fill="#FFCD00"/>
<path d="M46.7314 100.113C48.3081 94.8683 42.4687 88.4795 33.6887 85.8436C24.9088 83.2077 16.5131 85.323 14.9364 90.5681C13.3597 95.8133 19.1991 102.202 27.979 104.838C36.759 107.474 45.1547 105.359 46.7314 100.113Z" stroke="#FFCD00" stroke-width="1.8921" stroke-miterlimit="10"/>
<path d="M53.4818 71.7886C52.3104 73.4873 50.8786 74.8799 49.1788 75.9588C47.479 77.0377 45.6491 77.5886 43.6736 77.6193C41.7059 77.6499 39.7611 77.0071 37.8546 75.6987C35.9251 74.3749 34.6311 72.791 33.965 70.9393C33.2989 69.0876 33.1687 67.1746 33.5592 65.2081C33.9573 63.234 34.7383 61.3976 35.9098 59.6989C36.7137 58.5282 37.5942 57.4646 38.536 56.5234C39.4778 55.5746 40.343 54.84 41.1316 54.3197L46.943 58.4517C46.1697 58.6812 45.3198 59.1556 44.3934 59.8902C43.4669 60.6247 42.6936 61.4358 42.0734 62.3387C41.3537 63.3794 40.8483 64.397 40.5574 65.3918C40.2664 66.3865 40.2128 67.2894 40.4119 68.1081C40.6033 68.9269 41.0627 69.5849 41.7824 70.0823C42.5251 70.5873 43.3138 70.771 44.1637 70.6179C45.0135 70.4649 45.8328 70.067 46.6214 69.4166C47.4101 68.7662 48.1451 67.9475 48.8342 66.9451C49.6535 65.7591 50.2354 64.5195 50.5799 63.2187C50.9245 61.9255 51.047 60.7166 50.9398 59.5994L57.2719 63.9456C56.8278 65.3153 56.3224 66.6161 55.7712 67.8403C55.2199 69.057 54.4542 70.3731 53.4818 71.7886Z" fill="#FFCD00"/>
<path d="M58.2596 64.9862C57.7849 64.2211 57.1034 63.3182 56.2076 62.2775C55.3118 61.2369 54.4083 60.2651 53.4742 59.3469L49.3855 55.3374C48.4591 54.4192 47.4637 53.5316 46.4071 52.6593C45.3505 51.787 44.4393 51.1213 43.666 50.6622L49.2554 44.9769C49.7301 45.7421 50.4192 46.6374 51.3227 47.6627C52.2262 48.688 53.145 49.6598 54.0791 50.5704L58.1677 54.5799C59.1018 55.4981 60.0819 56.3933 61.1232 57.2809C62.1645 58.1685 63.0756 58.8419 63.8489 59.301L58.2596 64.9862Z" fill="#FFCD00"/>
<path d="M66.8812 56.4928C66.3835 55.8653 65.725 55.1231 64.8981 54.2661C64.0712 53.4091 63.2213 52.5827 62.3484 51.7946C62.2182 51.6722 62.0957 51.565 61.9962 51.4732C61.8967 51.3814 61.7895 51.2896 61.6746 51.1977L56.6672 47.7009C55.6182 46.798 54.5157 45.9334 53.3595 45.107C52.2033 44.2806 51.2003 43.6302 50.3428 43.1634L56.9122 38.4882C57.3103 39.0468 57.7774 39.6207 58.321 40.2098C58.8646 40.799 59.4466 41.3653 60.0667 41.9085L65.5259 45.9487C65.7173 46.1246 65.9088 46.293 66.1002 46.4537C66.2916 46.6144 66.4753 46.7903 66.6515 46.974C66.9118 47.1729 67.1798 47.3948 67.4478 47.6397C67.7234 47.8922 67.9837 48.1371 68.2364 48.3896L68.5197 48.183C68.3972 47.8386 68.267 47.5249 68.1368 47.2418C68.0067 46.951 67.8689 46.6832 67.731 46.4231C67.6239 46.1706 67.5167 45.9104 67.4171 45.6579C67.3176 45.4054 67.2181 45.1376 67.1109 44.8545L65.0359 38.3734C64.676 37.5011 64.3009 36.7206 63.9104 36.0167C63.5199 35.3127 63.1753 34.7236 62.8767 34.2415L69.3772 29.6122C69.5533 30.561 69.8443 31.7241 70.2578 33.0937C70.6712 34.4634 71.1229 35.7795 71.6283 37.0497L73.2821 42.8956C73.7722 44.1275 74.3311 45.3518 74.9436 46.5914C75.5638 47.8233 76.1227 48.8104 76.6281 49.5526L66.8812 56.4928Z" fill="#FFCD00"/>
<path d="M80.2877 47.6015C80.104 46.7216 79.7747 45.635 79.2924 44.3572C78.81 43.0793 78.2893 41.8474 77.7304 40.669L75.265 35.4965C74.706 34.3181 74.0782 33.1397 73.3814 31.9614C72.6923 30.783 72.0568 29.8418 71.4902 29.1455L78.6952 25.7175C78.8789 26.5975 79.2158 27.6764 79.7135 28.9542C80.2112 30.2244 80.7395 31.4487 81.3061 32.6271L83.7715 37.792C84.3305 38.9704 84.9506 40.1564 85.6244 41.3424C86.2982 42.5284 86.9184 43.4772 87.4926 44.1735L80.2877 47.6015Z" fill="#FFCD00"/>
<path d="M98.6101 40.998C96.6193 41.5489 94.6286 41.6943 92.6379 41.4342C90.6395 41.174 88.8784 40.4165 87.3548 39.1769C85.8234 37.9373 84.7515 36.2004 84.1313 33.9661C83.5035 31.7165 83.5341 29.6658 84.2079 27.8217C84.8893 25.9777 86.0148 24.4244 87.5845 23.1695C89.1541 21.9146 90.9381 21.0117 92.9288 20.4607C94.2994 20.0782 95.6469 19.8333 96.9792 19.7109C98.3115 19.5961 99.4446 19.5885 100.386 19.6879L102.186 26.5821C101.451 26.2608 100.494 26.0848 99.3068 26.0465C98.1277 26.0083 97.0098 26.1383 95.9532 26.4291C94.7358 26.7658 93.6945 27.2249 92.8293 27.7988C91.9641 28.3726 91.3515 29.0307 90.9687 29.7882C90.5935 30.5381 90.517 31.3415 90.7543 32.1832C90.9917 33.0479 91.4894 33.6906 92.2321 34.1191C92.9748 34.5476 93.8629 34.7695 94.8889 34.7772C95.9149 34.7848 97.0098 34.6318 98.1736 34.3027C99.5595 33.9202 100.808 33.3386 101.91 32.5658C103.013 31.793 103.878 30.9513 104.506 30.0254L106.565 37.4247C105.34 38.1898 104.123 38.8632 102.913 39.4447C101.703 40.0262 100.264 40.5389 98.6101 40.998Z" fill="#FFCD00"/>
<path d="M111.734 37.8302C111.956 36.9426 112.155 35.8178 112.331 34.4634C112.5 33.1091 112.614 31.7853 112.653 30.4998L112.844 24.7763C112.882 23.5138 112.867 22.19 112.783 20.8127C112.699 19.4354 112.576 18.2953 112.415 17.4L129.589 17.9663L130.34 25.4114C129.995 25.1053 129.467 24.8758 128.739 24.7151C128.012 24.5544 126.917 24.4473 125.462 24.4014L119.505 24.2024L119.429 26.5974L124.099 26.7505C125.638 26.804 126.833 26.804 127.698 26.7505L127.599 29.7882C126.825 29.6428 125.631 29.551 124.015 29.4974L119.345 29.3444L119.276 31.5022L124.444 31.6705C126.488 31.7394 127.981 31.6935 128.923 31.5251C129.865 31.3645 130.577 31.1196 131.052 30.8059L129.773 38.4194L111.734 37.8302Z" fill="#FFCD00"/>
<path d="M130.339 38.3505C130.768 37.5624 131.228 36.5294 131.718 35.2515C132.208 33.9737 132.636 32.7111 132.989 31.4563L134.551 25.947C134.903 24.6921 135.209 23.3913 135.462 22.0446C135.707 20.6979 135.86 19.5808 135.913 18.6779L142.85 20.6673L146.901 32.979L147.268 33.0861L148.218 29.7423C148.578 28.6098 148.891 27.309 149.152 25.8475C149.412 24.3861 149.558 23.2842 149.588 22.542L157.352 24.738C156.908 25.5262 156.441 26.5515 155.943 27.8293C155.446 29.1072 155.024 30.3697 154.672 31.6246L151.112 44.2117L145.063 42.5054L140.867 29.6352L140.477 29.5204L139.55 32.8106C139.198 34.0502 138.877 35.4505 138.57 37.0114C138.272 38.5724 138.103 39.7508 138.065 40.5236L130.339 38.3505Z" fill="#FFCD00"/>
<path d="M160.529 50.5627C158.669 49.4226 157.229 48.0223 156.211 46.3772C155.193 44.7321 154.68 42.9645 154.68 41.0822C154.68 39.1999 155.246 37.3482 156.372 35.5194C157.482 33.7136 158.906 32.3822 160.629 31.5328C162.352 30.6835 164.197 30.3468 166.165 30.5305C168.132 30.7141 170.039 31.3722 171.884 32.5046C173.262 33.354 174.426 34.2186 175.383 35.0986C176.34 35.9862 177.098 36.8202 177.665 37.6007L174.158 43.1941C173.89 42.4825 173.354 41.7326 172.55 40.9521C171.746 40.1717 170.874 39.4907 169.932 38.9091C168.737 38.1746 167.627 37.6925 166.601 37.4629C165.575 37.2334 164.672 37.2564 163.875 37.5395C163.087 37.8226 162.459 38.3429 161.984 39.1004C161.578 39.7661 161.395 40.4548 161.433 41.1664C161.471 41.878 161.739 42.5743 162.222 43.263C162.704 43.944 163.385 44.5638 164.266 45.0994C164.664 45.3442 165.062 45.5508 165.468 45.7192C165.866 45.8875 166.249 46.0023 166.609 46.0635C166.969 46.1247 167.29 46.1553 167.574 46.14L168.523 44.602L167.106 43.7297C166.793 43.5384 166.417 43.3318 165.989 43.1252C165.56 42.9186 165.223 42.7503 164.978 42.6202L166.494 40.3247L175.506 45.8646L170.973 53.2255C169.939 53.4168 168.822 53.4168 167.619 53.2408C166.417 53.0572 165.215 52.7358 164.013 52.2767C162.796 51.8176 161.64 51.2437 160.529 50.5627Z" fill="#FFCD00"/>
<path d="M167.658 53.8912C168.599 53.5775 169.733 53.1183 171.065 52.5139C172.397 51.917 173.645 51.3049 174.809 50.6928L180.307 48.1294C181.447 47.5096 182.565 46.8057 183.653 46.0175C184.747 45.2294 185.666 44.5101 186.424 43.8597L194.732 52.4067L194.67 52.5062C193.958 53.279 193.193 54.1896 192.381 55.2379C191.57 56.2862 190.865 57.3421 190.268 58.4057L187.588 63.8231C186.937 64.9709 186.286 66.1952 185.643 67.5036C185 68.8121 184.502 69.9292 184.158 70.8551L178.561 65.0933C178.928 64.6878 179.334 64.1828 179.794 63.5936C180.253 63.0044 180.735 62.3004 181.264 61.497L181.516 60.9231L177.527 56.8141L176.922 57.0743C176.616 57.235 176.057 57.5946 175.23 58.1455C174.342 58.7424 173.684 59.2397 173.262 59.6453L167.658 53.8912ZM183.094 58.4134L184.564 55.3144C184.763 54.8783 185 54.4651 185.26 54.0825C185.528 53.6999 185.819 53.3173 186.126 52.9347C186.164 52.8123 186.225 52.6975 186.302 52.598C186.378 52.4986 186.463 52.3761 186.547 52.2384L186.302 51.9859C186.133 52.1236 185.988 52.2307 185.85 52.3226C185.72 52.4067 185.582 52.4909 185.444 52.5751C185.084 52.8199 184.724 53.0495 184.372 53.2714C184.02 53.4933 183.622 53.7075 183.193 53.9065L180.054 55.2838L183.094 58.4134Z" fill="#FFCD00"/>
<path d="M187.19 77.9177C186.08 76.043 185.452 74.1377 185.314 72.2018C185.176 70.2659 185.544 68.4678 186.432 66.8074C187.313 65.1393 188.676 63.762 190.521 62.6754C192.351 61.5889 194.219 61.0762 196.141 61.1298C198.063 61.1833 199.854 61.7419 201.508 62.8208C203.17 63.8997 204.548 65.3688 205.65 67.2282C206.477 68.6208 207.105 69.9293 207.534 71.1536C207.963 72.3778 208.254 73.472 208.391 74.4285L202.68 77.7417C202.772 76.9842 202.649 76.0736 202.304 75.01C201.96 73.9464 201.5 72.9364 200.934 71.9799C200.222 70.7786 199.464 69.8298 198.66 69.1488C197.864 68.4678 197.044 68.0699 196.217 67.9475C195.39 67.825 194.587 67.9934 193.821 68.4525C193.147 68.8504 192.665 69.3707 192.374 70.0211C192.083 70.6715 191.983 71.4137 192.09 72.2401C192.198 73.0665 192.512 73.9311 193.04 74.8187C193.277 75.2243 193.538 75.5916 193.813 75.9206C194.089 76.2573 194.372 76.5327 194.663 76.7546C194.954 76.9765 195.23 77.1525 195.482 77.2749L197.044 76.3491L196.194 74.9182C196.003 74.5968 195.766 74.2449 195.482 73.8623C195.199 73.4797 194.977 73.1736 194.824 72.9441L197.228 71.6203L202.626 80.7182L195.184 85.1256C194.181 84.8119 193.193 84.2992 192.213 83.58C191.233 82.8607 190.314 82.019 189.472 81.0473C188.614 80.0831 187.856 79.0348 187.19 77.9177Z" fill="#FFCD00"/>
<path d="M192.558 86.3652C193.469 86.2886 194.602 86.1203 195.942 85.8448C197.282 85.5694 198.568 85.248 199.801 84.8807L205.283 83.2279C206.493 82.8607 207.741 82.4169 209.019 81.9042C210.298 81.3839 211.339 80.9018 212.143 80.458L217.113 96.9016L210.29 99.9929C210.467 99.5721 210.52 98.9905 210.436 98.256C210.352 97.5214 210.107 96.4501 209.678 95.0499L207.955 89.3493L205.658 90.038L207.013 94.5143C207.457 95.9834 207.84 97.1235 208.162 97.9193L205.252 98.7992C205.138 98.0188 204.847 96.8557 204.379 95.31L203.024 90.8338L200.957 91.4612L202.45 96.4119C203.04 98.3707 203.568 99.7633 204.02 100.605C204.479 101.447 204.931 102.036 205.383 102.388L197.756 103.62L192.558 86.3652Z" fill="#FFCD00"/>
<path d="M198.576 104.018C199.456 104.209 200.574 104.354 201.937 104.469C203.3 104.576 204.632 104.63 205.941 104.622L211.669 104.592C212.955 104.584 214.287 104.523 215.658 104.4C217.028 104.278 218.154 104.117 219.027 103.918L219.073 113.062L210.995 116.375C210.819 116.475 210.643 116.559 210.459 116.628C210.275 116.697 210.107 116.758 209.946 116.819C209.502 116.98 209.027 117.148 208.529 117.324C208.032 117.5 207.48 117.661 206.883 117.798V118.12C207.664 118.273 208.3 118.426 208.797 118.594C209.295 118.755 209.915 118.977 210.658 119.245C210.734 119.306 210.803 119.344 210.865 119.359C210.926 119.382 210.979 119.405 211.041 119.444L219.126 122.734L219.172 131.702C218.292 131.51 217.174 131.357 215.811 131.235C214.448 131.112 213.108 131.059 211.806 131.067L206.079 131.097C204.77 131.105 203.438 131.174 202.075 131.304C200.712 131.434 199.594 131.602 198.713 131.801L198.675 123.828C199.556 123.996 200.681 124.142 202.052 124.264C203.422 124.387 204.755 124.44 206.041 124.433L210.895 124.41V124.058L198.652 118.801L198.645 116.903L210.834 111.555V111.264L205.987 111.287C204.663 111.294 203.323 111.363 201.968 111.493C200.612 111.624 199.502 111.792 198.622 111.991L198.576 104.018Z" fill="#FFCD00"/>
<path d="M197.963 131.771C198.775 132.199 199.816 132.666 201.095 133.156C202.373 133.645 203.629 134.066 204.869 134.418L210.382 135.979C211.6 136.323 212.886 136.622 214.241 136.874C215.596 137.127 216.737 137.28 217.648 137.333L212.97 153.861L205.558 152.798C205.934 152.537 206.286 152.078 206.615 151.413C206.944 150.747 207.312 149.714 207.71 148.306L209.333 142.575L207.029 141.924L205.758 146.424C205.336 147.9 205.053 149.064 204.892 149.913L201.967 149.087C202.289 148.367 202.672 147.235 203.116 145.674L204.387 141.175L202.304 140.585L200.896 145.559C200.337 147.526 200.03 148.987 199.961 149.936C199.893 150.885 199.954 151.635 200.145 152.17L193.055 149.102L197.963 131.771Z" fill="#FFCD00"/>
<path d="M193.04 149.783C193.69 150.395 194.571 151.107 195.681 151.91C196.791 152.713 197.902 153.448 199.027 154.114L203.95 157.037C205.076 157.702 206.255 158.33 207.488 158.919C208.72 159.508 209.769 159.937 210.627 160.22L206.913 166.41L193.966 167.152L193.775 167.481L196.768 169.257C197.771 169.899 198.943 170.534 200.29 171.162C201.638 171.789 202.664 172.218 203.376 172.432L199.257 179.364C198.614 178.729 197.733 178.018 196.631 177.207C195.52 176.403 194.402 175.669 193.285 175.003L182.029 168.323L185.237 162.921L198.767 162.186L198.974 161.834L196.033 160.09C194.931 159.432 193.66 158.758 192.22 158.07C190.789 157.373 189.694 156.914 188.951 156.677L193.04 149.783Z" fill="#FFCD00"/>
<path d="M177.773 172.432C178.255 173.189 178.929 174.1 179.809 175.164C180.69 176.227 181.578 177.214 182.489 178.125L186.976 182.639L188.905 180.726C189.441 180.191 189.893 179.655 190.245 179.112C190.597 178.569 190.858 177.941 191.026 177.222L195.659 183.496L183.178 195.885L176.953 191.194C177.589 191.056 178.201 190.804 178.799 190.437C179.388 190.069 179.947 189.625 180.46 189.12L182.267 187.33L177.78 182.815C176.861 181.889 175.874 180.987 174.825 180.107C173.776 179.227 172.872 178.546 172.114 178.064L177.773 172.432Z" fill="#FFCD00"/>
</svg>
