<svg width="279" height="279" viewBox="0 0 279 279" fill="none" xmlns="http://www.w3.org/2000/svg">
<path d="M250.082 51.6339L225.856 103.543L278.687 125.726L230.236 156.302L262.677 203.513L205.375 203.054L207.128 260.305L159.167 228.955L129.673 278.057L106.282 225.772L54.9059 251.153L63.512 194.53L6.56941 188.118L44.4393 145.138L0 108.976L55.1126 93.2747L37.2956 38.8479L92.1479 55.4215L106.604 0L143.784 43.5766L185.927 4.76702L193.629 61.52L250.082 51.6339Z" fill="#BFDCE1"/>
<path d="M106.075 79.1342C104.383 79.7387 102.661 79.9912 100.915 79.8841C99.1692 79.7846 97.5919 79.2413 96.1831 78.2543C94.7742 77.2749 93.7329 75.8287 93.0515 73.9311C92.3624 72.0181 92.2552 70.2353 92.7299 68.5901C93.2046 66.945 94.0851 65.5294 95.3714 64.3358C96.6578 63.1498 98.1432 62.2469 99.8353 61.6424C100.999 61.2292 102.155 60.9231 103.311 60.7395C104.46 60.5558 105.448 60.4716 106.267 60.5023L108.265 66.3788C107.607 66.1492 106.765 66.0498 105.731 66.0957C104.697 66.1416 103.74 66.3176 102.844 66.639C101.803 67.0139 100.93 67.473 100.218 68.0239C99.506 68.5748 99.0084 69.187 98.7327 69.868C98.4494 70.5413 98.4418 71.2376 98.7021 71.9569C98.9624 72.6915 99.4371 73.2194 100.111 73.5485C100.785 73.8775 101.566 74.0076 102.462 73.954C103.35 73.8928 104.291 73.6938 105.279 73.3342C106.458 72.9134 107.507 72.3318 108.411 71.5896C109.314 70.8551 110.019 70.0593 110.509 69.2176L112.767 75.515C111.757 76.2572 110.738 76.9152 109.72 77.4968C108.686 78.0859 107.477 78.6292 106.075 79.1342Z" fill="#160E23"/>
<path d="M121.259 75.8745C119.452 76.0505 117.798 75.8592 116.289 75.3083C114.789 74.7497 113.541 73.8162 112.561 72.5231C111.581 71.2223 110.991 69.5848 110.8 67.6107C110.608 65.6518 110.861 63.9378 111.565 62.461C112.27 60.9842 113.311 59.8288 114.689 58.9872C116.06 58.1455 117.645 57.6328 119.436 57.4568C121.228 57.2808 122.866 57.4721 124.367 58.0307C125.86 58.5893 127.101 59.5228 128.081 60.8312C129.061 62.1397 129.65 63.7695 129.842 65.7283C130.033 67.7025 129.78 69.4241 129.076 70.8856C128.372 72.3547 127.338 73.5025 125.983 74.3442C124.62 75.1859 123.043 75.6986 121.259 75.8745ZM120.814 71.3753C121.473 71.3065 122.047 71.0616 122.545 70.6408C123.043 70.2199 123.41 69.6384 123.647 68.8962C123.892 68.1539 123.961 67.2969 123.862 66.3175C123.762 65.3381 123.525 64.5117 123.142 63.8307C122.759 63.1497 122.285 62.66 121.718 62.3463C121.151 62.0325 120.539 61.9101 119.88 61.979C119.191 62.0479 118.602 62.2927 118.112 62.7059C117.622 63.1191 117.262 63.693 117.032 64.4352C116.802 65.1698 116.734 66.0344 116.825 67.0138C116.925 67.9933 117.155 68.8196 117.53 69.5006C117.905 70.1817 118.372 70.679 118.931 71.0004C119.49 71.3141 120.118 71.4365 120.814 71.3753Z" fill="#160E23"/>
<path d="M129.987 74.1759C130.301 73.4643 130.623 72.5308 130.96 71.3907C131.289 70.2506 131.565 69.1181 131.787 68.0086L132.759 63.1192C132.981 62.025 133.157 60.8772 133.287 59.6835C133.417 58.4899 133.479 57.5028 133.463 56.7223L141.273 58.2756L142.69 65.736C142.743 65.9044 142.782 66.0727 142.812 66.2411C142.835 66.4094 142.866 66.5624 142.889 66.7078C142.942 67.121 143.004 67.5495 143.073 68.001C143.134 68.4524 143.18 68.9498 143.187 69.4854L143.463 69.5389C143.731 68.9039 143.976 68.3835 144.198 67.9856C144.42 67.5878 144.719 67.0981 145.079 66.5165C145.14 66.463 145.186 66.4094 145.216 66.3635C145.239 66.3176 145.278 66.2717 145.324 66.2258L149.542 59.9131L157.199 61.4358C156.885 62.1474 156.556 63.0809 156.219 64.221C155.882 65.3611 155.599 66.4936 155.377 67.6031L154.404 72.4925C154.182 73.6097 154.006 74.7575 153.884 75.9435C153.761 77.1295 153.708 78.1089 153.723 78.8894L146.909 77.535C147.207 76.8158 147.529 75.8822 147.873 74.7345C148.218 73.5867 148.493 72.4619 148.715 71.3601L149.542 67.2205L149.244 67.1593L142.621 76.678L140.998 76.3567L138.563 65.0321L138.31 64.9785L137.483 69.1181C137.261 70.2506 137.085 71.406 136.963 72.5767C136.84 73.7551 136.786 74.7345 136.802 75.515L129.987 74.1759Z" fill="#160E23"/>
<path d="M153.654 78.8741C154.19 78.3079 154.81 77.535 155.507 76.5709C156.203 75.6068 156.839 74.635 157.429 73.6556L159.986 69.3783C160.56 68.4142 161.111 67.3965 161.64 66.3176C162.168 65.2387 162.551 64.3282 162.796 63.5859L169.633 67.6643L168.462 75.1707C168.454 75.3467 168.439 75.515 168.408 75.6833C168.378 75.8517 168.347 76.0047 168.324 76.1501C168.24 76.5556 168.156 76.9841 168.064 77.4279C167.972 77.8794 167.842 78.3538 167.673 78.8664L167.911 79.0118C168.378 78.4992 168.783 78.0936 169.128 77.7952C169.472 77.4968 169.917 77.1295 170.445 76.701C170.521 76.6704 170.583 76.6321 170.621 76.6015C170.659 76.5633 170.705 76.5403 170.766 76.5097L176.853 71.9723L183.561 75.9741C183.025 76.5403 182.405 77.3055 181.7 78.2696C180.996 79.2337 180.353 80.1979 179.771 81.1773L177.213 85.4546C176.631 86.434 176.08 87.4517 175.567 88.5306C175.054 89.6018 174.671 90.5124 174.426 91.2546L168.462 87.6966C168.982 87.1227 169.595 86.3499 170.307 85.3781C171.011 84.4063 171.655 83.4422 172.229 82.4857L174.396 78.8664L174.135 78.7058L164.702 85.4546L163.286 84.6052L164.787 73.12L164.565 72.9899L162.398 76.6168C161.808 77.6039 161.257 78.6369 160.744 79.7005C160.231 80.7717 159.856 81.6746 159.611 82.4169L153.654 78.8741Z" fill="#160E23"/>
<path d="M180.031 98.7992C178.883 97.5061 178.086 96.1823 177.642 94.828C177.198 93.4736 177.167 92.1422 177.558 90.8261C177.948 89.51 178.806 88.2551 180.154 87.0615L183.063 84.4752C183.913 83.7253 184.748 82.9066 185.559 82.0419C186.371 81.1696 187.014 80.4198 187.466 79.7847L192.098 84.9955C191.401 85.3857 190.574 85.9367 189.61 86.6406C188.652 87.3446 187.749 88.0715 186.914 88.8137L185.222 90.3135C184.648 90.8185 184.235 91.3388 183.974 91.8821C183.714 92.4177 183.614 92.9457 183.683 93.466C183.745 93.9863 183.99 94.4837 184.403 94.9504C184.839 95.4478 185.322 95.7538 185.835 95.8916C186.348 96.0216 186.884 95.9911 187.443 95.7921C188.002 95.5932 188.568 95.2412 189.135 94.7285L190.827 93.2288C191.677 92.4713 192.511 91.6678 193.331 90.8032C194.15 89.9385 194.785 89.181 195.23 88.5383L199.877 93.7644C199.18 94.1317 198.353 94.6673 197.396 95.3713C196.432 96.0752 195.528 96.8098 194.678 97.5597L191.769 100.146C190.498 101.271 189.196 101.967 187.864 102.235C186.532 102.503 185.199 102.357 183.89 101.783C182.581 101.21 181.294 100.215 180.031 98.7992Z" fill="#160E23"/>
<path d="M186.662 105.617C187.42 105.433 188.361 105.127 189.472 104.706C190.582 104.286 191.654 103.819 192.672 103.321L197.151 101.125C198.17 100.628 199.188 100.062 200.206 99.442C201.225 98.8222 202.036 98.2636 202.649 97.7739L205.397 103.421L199.777 113.207L199.923 113.506L202.641 112.174C203.583 111.746 204.609 111.195 205.711 110.514C206.814 109.833 207.61 109.282 208.108 108.869L211.201 115.166C210.436 115.335 209.494 115.633 208.376 116.054C207.258 116.475 206.194 116.942 205.175 117.439L194.946 122.458L192.534 117.554L198.438 107.354L198.277 107.033L195.605 108.341C194.602 108.831 193.499 109.435 192.312 110.154C191.125 110.866 190.268 111.44 189.74 111.868L186.662 105.617Z" fill="#160E23"/>
<path d="M194.763 123.553C195.551 123.537 196.524 123.423 197.703 123.216C198.874 123.009 200.015 122.757 201.11 122.458L205.926 121.165C207.021 120.874 208.131 120.522 209.257 120.117C210.375 119.711 211.286 119.321 211.967 118.939L213.767 125.642C212.978 125.657 212.005 125.779 210.834 126.009C209.663 126.231 208.529 126.491 207.434 126.789L202.618 128.082C201.524 128.373 200.406 128.718 199.288 129.108C198.162 129.498 197.259 129.881 196.57 130.256L194.763 123.553Z" fill="#160E23"/>
<path d="M197.412 135.03C198.185 135.13 199.173 135.176 200.375 135.176C201.577 135.176 202.733 135.122 203.851 135.015L209.371 134.495L209.149 132.138C209.088 131.48 208.973 130.883 208.805 130.347C208.636 129.812 208.353 129.284 207.97 128.779L214.754 129.138L216.186 144.381L209.586 145.972C209.846 145.467 210.015 144.916 210.091 144.312C210.168 143.707 210.183 143.095 210.122 142.468L209.915 140.264L204.395 140.784C203.261 140.892 202.113 141.052 200.941 141.274C199.77 141.496 198.813 141.726 198.07 141.963L197.412 135.03Z" fill="#160E23"/>
<path d="M197.802 151.68C198.453 151.933 199.188 152.17 200.007 152.4C200.827 152.629 201.669 152.813 202.526 152.935L203.836 153.127L209.425 150.602C210.704 150.089 211.982 149.515 213.261 148.903C214.54 148.283 215.604 147.717 216.454 147.189L215.382 154.535C214.762 154.665 214.065 154.833 213.292 155.04C212.518 155.246 211.745 155.468 210.972 155.713L208.981 156.677L208.943 156.952L210.604 158.429C211.24 158.896 211.89 159.34 212.557 159.753C213.223 160.166 213.858 160.534 214.471 160.84L213.391 168.208C212.71 167.458 211.844 166.594 210.788 165.622C209.731 164.643 208.682 163.732 207.641 162.875L202.978 158.904L201.669 158.712C200.827 158.59 199.992 158.521 199.157 158.498C198.323 158.475 197.542 158.49 196.814 158.536L197.802 151.68Z" fill="#160E23"/>
<path d="M156.992 128.121C156.043 130.768 155.813 133.622 155.285 136.392C154.534 140.333 152.766 143.608 149.764 146.278C146.457 149.209 142.467 151.321 139.428 154.557C131.656 162.852 133.792 173.626 139.68 182.349C139.987 182.8 140.301 183.229 140.63 183.649C139.535 183.037 138.478 182.326 137.483 181.53C137.047 181.178 136.625 180.811 136.212 180.428C134.237 178.584 132.537 176.342 131.189 173.87C130.11 171.904 129.252 169.8 128.655 167.634C127.46 163.28 127.323 158.682 128.563 154.542C129.949 149.905 133.119 146.056 137.1 143.378C141.189 140.624 145.875 138.504 148.761 134.349C150.576 131.74 151.005 128.618 152.069 125.718C153.149 122.78 155.637 120.247 158.386 118.831C165.338 115.243 173.086 117.852 179.296 121.655C179.817 121.976 180.353 122.298 180.896 122.588" fill="#160E23"/>
<path d="M156.992 128.121C156.043 130.768 155.813 133.622 155.285 136.392C154.534 140.333 152.766 143.608 149.764 146.278C146.457 149.209 142.467 151.321 139.428 154.557C131.656 162.852 133.792 173.626 139.68 182.349C139.987 182.8 140.301 183.229 140.63 183.649C139.535 183.037 138.478 182.326 137.483 181.53C137.047 181.178 136.625 180.811 136.212 180.428C134.237 178.584 132.537 176.342 131.189 173.87C130.11 171.904 129.252 169.8 128.655 167.634C127.46 163.28 127.323 158.682 128.563 154.542C129.949 149.905 133.119 146.056 137.1 143.378C141.189 140.624 145.875 138.504 148.761 134.349C150.576 131.74 151.005 128.618 152.069 125.718C153.149 122.78 155.637 120.247 158.386 118.831C165.338 115.243 173.086 117.852 179.296 121.655C179.817 121.976 180.353 122.298 180.896 122.588" stroke="black" stroke-width="1.1367" stroke-miterlimit="10" stroke-linecap="round" stroke-linejoin="round"/>
<path d="M174.197 120.239C171.088 119.711 167.865 119.895 164.787 120.92C161.272 122.091 158.271 124.57 156.992 128.113C156.043 130.761 155.813 133.615 155.285 136.377C154.534 140.318 152.766 143.592 149.764 146.263C146.457 149.194 142.468 151.305 139.428 154.542C139.183 154.802 138.953 155.062 138.731 155.323C138.394 155.72 138.08 156.118 137.789 156.524C137.491 156.929 137.223 157.343 136.97 157.756C136.886 157.894 136.802 158.031 136.725 158.169C136.488 158.59 136.266 159.011 136.067 159.432C135.936 159.715 135.814 159.998 135.691 160.289C135.577 160.572 135.469 160.862 135.37 161.153C135.217 161.589 135.087 162.026 134.972 162.462C134.819 163.051 134.696 163.64 134.612 164.229C133.685 170.312 135.921 176.74 139.696 182.326C140.002 182.777 140.316 183.205 140.645 183.626C148.945 194.17 165.614 195.571 175.667 186.412C177.987 184.3 179.893 181.667 180.751 178.645C183.048 170.496 177.52 161.199 183.377 153.876C187.029 149.324 190.98 144.358 191.118 138.229C191.202 134.257 189.548 130.347 186.93 127.348C183.622 123.606 179.051 121.058 174.197 120.239ZM162.643 135.436C162.696 135.283 162.758 135.122 162.819 134.969C164.358 131.266 168.041 129.276 171.05 130.523C172.91 131.296 174.082 133.133 174.327 135.306C175.69 134.709 177.16 134.617 178.507 135.168C181.517 136.415 182.703 140.432 181.164 144.128C181.057 144.396 180.927 144.656 180.797 144.909C179.097 148.107 175.728 149.729 172.941 148.581C171.073 147.809 169.917 145.964 169.664 143.791C168.301 144.388 166.831 144.48 165.491 143.921C162.597 142.743 161.387 139.009 162.643 135.436Z" fill="white" stroke="black" stroke-width="1.1367" stroke-miterlimit="10" stroke-linecap="round" stroke-linejoin="round"/>
<path d="M172.933 148.581C171.065 147.809 169.901 145.965 169.656 143.799C171.341 143.057 172.849 141.534 173.707 139.484C173.776 139.308 173.844 139.132 173.906 138.956C176.532 140.746 179.48 143.6 180.789 144.916C179.089 148.107 175.72 149.737 172.933 148.581Z" fill="white" stroke="black" stroke-width="1.1367" stroke-miterlimit="10" stroke-linecap="round" stroke-linejoin="round"/>
<path d="M169.656 143.799C168.293 144.396 166.823 144.488 165.483 143.929C162.604 142.735 161.387 139.001 162.643 135.436C165.682 135.619 168.684 136.346 171.456 137.586C171.655 137.67 171.854 137.762 172.053 137.861C172.627 138.137 173.255 138.512 173.898 138.956C173.837 139.132 173.768 139.308 173.699 139.484C172.857 141.534 171.341 143.057 169.656 143.799Z" fill="white" stroke="black" stroke-width="1.1367" stroke-miterlimit="10" stroke-linecap="round" stroke-linejoin="round"/>
<path d="M163.095 167.275C168.478 167.275 172.842 162.914 172.842 157.534C172.842 152.154 168.478 147.793 163.095 147.793C157.712 147.793 153.348 152.154 153.348 157.534C153.348 162.914 157.712 167.275 163.095 167.275Z" fill="#160E23" stroke="black" stroke-width="1.1367" stroke-miterlimit="10" stroke-linecap="round" stroke-linejoin="round"/>
<path d="M168.057 165.998L167.995 165.951C168.01 165.944 168.018 165.936 168.033 165.928C168.049 165.951 168.057 165.975 168.057 165.998Z" fill="black" stroke="black" stroke-width="0.6479" stroke-miterlimit="10" stroke-linecap="round" stroke-linejoin="round"/>
<path d="M168.041 165.928C168.025 165.936 168.018 165.943 168.002 165.951C163.822 168.392 158.378 167.397 155.361 163.456C153.493 161.023 152.957 157.993 153.623 155.223C154.603 155.636 155.637 155.889 156.586 156.379C157.498 156.845 158.347 157.473 158.968 158.299C159.305 158.751 159.557 159.256 159.741 159.791C159.84 160.067 159.917 160.342 159.978 160.625C160.078 161.1 160.085 161.589 160.116 162.071C160.131 162.301 160.185 163.762 160.69 163.418C160.798 163.349 160.843 163.212 160.866 163.089C160.958 162.584 160.836 162.033 160.813 161.528C160.798 161.214 160.775 160.893 160.798 160.579C160.798 160.556 160.798 160.533 160.805 160.518C160.813 160.426 161.004 160.289 161.119 160.281C162.949 160.22 164.817 161.061 166.104 162.347C167.114 163.365 167.627 164.581 168.041 165.928Z" fill="white" stroke="black" stroke-width="1.1367" stroke-miterlimit="10" stroke-linecap="round" stroke-linejoin="round"/>
<path d="M106.313 95.1187C105.164 98.3095 104.896 101.745 104.261 105.081C103.357 109.825 101.229 113.781 97.6073 116.995C93.6258 120.522 88.8175 123.071 85.1576 126.973C75.7935 136.966 78.3661 149.951 85.4638 160.457C85.8314 161 86.2065 161.513 86.6123 162.026C85.2877 161.283 84.0167 160.426 82.8223 159.47C82.294 159.049 81.7886 158.605 81.2833 158.138C78.9097 155.919 76.8578 153.218 75.2269 150.234C73.9253 147.87 72.8916 145.329 72.1719 142.72C70.7324 137.471 70.564 131.931 72.057 126.95C73.7262 121.364 77.5469 116.727 82.3399 113.506C87.2632 110.193 92.9061 107.637 96.3899 102.625C98.572 99.4878 99.0927 95.7232 100.379 92.2263C101.681 88.6912 104.682 85.6382 107.99 83.9242C116.366 79.601 125.7 82.7458 133.172 87.3216C133.8 87.7042 134.451 88.0944 135.102 88.4464" fill="#160E23"/>
<path d="M106.313 95.1187C105.164 98.3095 104.896 101.745 104.261 105.081C103.357 109.825 101.229 113.781 97.6073 116.995C93.6258 120.522 88.8175 123.071 85.1576 126.973C75.7935 136.966 78.3661 149.951 85.4638 160.457C85.8314 161 86.2065 161.513 86.6123 162.026C85.2877 161.283 84.0167 160.426 82.8223 159.47C82.294 159.049 81.7886 158.605 81.2833 158.138C78.9097 155.919 76.8578 153.218 75.2269 150.234C73.9253 147.87 72.8916 145.329 72.1719 142.72C70.7324 137.471 70.564 131.931 72.057 126.95C73.7262 121.364 77.5469 116.727 82.3399 113.506C87.2632 110.193 92.9061 107.637 96.3899 102.625C98.572 99.4878 99.0927 95.7232 100.379 92.2263C101.681 88.6912 104.682 85.6382 107.99 83.9242C116.366 79.601 125.7 82.7458 133.172 87.3216C133.8 87.7042 134.451 88.0944 135.102 88.4464" stroke="black" stroke-width="1.3694" stroke-miterlimit="10" stroke-linecap="round" stroke-linejoin="round"/>
<path d="M127.04 85.6305C123.295 84.9954 119.414 85.2173 115.708 86.4492C111.481 87.8571 107.852 90.849 106.321 95.1187C105.172 98.3094 104.904 101.745 104.269 105.081C103.365 109.825 101.237 113.781 97.615 116.995C93.6336 120.522 88.8252 123.07 85.1653 126.973C84.8667 127.287 84.5911 127.6 84.3231 127.914C83.9173 128.388 83.5421 128.87 83.1899 129.36C82.83 129.85 82.5084 130.34 82.2022 130.845C82.1026 131.013 82.0031 131.174 81.9036 131.342C81.6126 131.847 81.3523 132.36 81.1073 132.865C80.9465 133.209 80.801 133.546 80.6555 133.89C80.5177 134.234 80.3876 134.586 80.265 134.931C80.0813 135.459 79.9282 135.979 79.7903 136.507C79.6066 137.211 79.4611 137.93 79.3539 138.642C78.236 145.972 80.9235 153.716 85.4716 160.449C85.8391 160.992 86.2143 161.505 86.6201 162.018C96.612 174.72 116.703 176.403 128.816 165.369C131.611 162.829 133.915 159.653 134.941 156.019C137.713 146.202 131.052 135 138.111 126.185C142.506 120.698 147.276 114.715 147.437 107.338C147.544 102.548 145.538 97.8427 142.391 94.231C138.402 89.6859 132.889 86.6175 127.04 85.6305ZM113.12 103.933C113.189 103.742 113.258 103.559 113.334 103.367C115.187 98.9063 119.62 96.5036 123.25 98.011C125.493 98.9445 126.902 101.156 127.193 103.773C128.831 103.054 130.608 102.946 132.223 103.612C135.845 105.112 137.277 109.948 135.424 114.409C135.293 114.73 135.14 115.044 134.98 115.35C132.928 119.199 128.87 121.158 125.508 119.773C123.265 118.839 121.864 116.62 121.557 114.003C119.919 114.722 118.143 114.83 116.527 114.164C113.074 112.733 111.611 108.234 113.12 103.933Z" fill="white" stroke="black" stroke-width="1.3694" stroke-miterlimit="10" stroke-linecap="round" stroke-linejoin="round"/>
<path d="M125.524 119.773C123.28 118.839 121.871 116.628 121.573 114.011C123.602 113.116 125.424 111.279 126.45 108.808C126.534 108.593 126.618 108.387 126.695 108.173C129.857 110.33 133.41 113.766 134.987 115.35C132.935 119.199 128.877 121.165 125.524 119.773Z" fill="white" stroke="black" stroke-width="1.3694" stroke-miterlimit="10" stroke-linecap="round" stroke-linejoin="round"/>
<path d="M134.987 115.35C133.402 113.758 129.85 110.33 126.688 108.173C127.2 106.68 127.354 105.165 127.193 103.773C128.831 103.054 130.608 102.946 132.223 103.612C135.845 105.112 137.277 109.948 135.424 114.409C135.294 114.738 135.148 115.051 134.987 115.35Z" fill="white" stroke="black" stroke-width="1.3694" stroke-miterlimit="10" stroke-linecap="round" stroke-linejoin="round"/>
<path d="M121.573 114.011C119.934 114.73 118.158 114.837 116.542 114.172C113.074 112.741 111.612 108.234 113.128 103.941C116.787 104.163 120.401 105.043 123.747 106.527C123.992 106.635 124.23 106.742 124.467 106.856C125.164 107.186 125.914 107.645 126.688 108.173C126.611 108.387 126.534 108.593 126.443 108.808C125.424 111.279 123.602 113.116 121.573 114.011Z" fill="white" stroke="black" stroke-width="1.3694" stroke-miterlimit="10" stroke-linecap="round" stroke-linejoin="round"/>
<path d="M119.383 110.009C120.736 110.009 121.833 108.913 121.833 107.56C121.833 106.208 120.736 105.112 119.383 105.112C118.03 105.112 116.933 106.208 116.933 107.56C116.933 108.913 118.03 110.009 119.383 110.009Z" fill="black"/>
<path d="M129.099 115.579C130.452 115.579 131.549 114.483 131.549 113.131C131.549 111.779 130.452 110.682 129.099 110.682C127.746 110.682 126.649 111.779 126.649 113.131C126.649 114.483 127.746 115.579 129.099 115.579Z" fill="black"/>
<path d="M113.663 142.292C120.15 142.292 125.409 137.037 125.409 130.554C125.409 124.071 120.15 118.816 113.663 118.816C107.177 118.816 101.918 124.071 101.918 130.554C101.918 137.037 107.177 142.292 113.663 142.292Z" fill="#160E23" stroke="black" stroke-width="1.3694" stroke-miterlimit="10" stroke-linecap="round" stroke-linejoin="round"/>
<path d="M119.643 140.754L119.574 140.7C119.59 140.692 119.605 140.685 119.62 140.669C119.628 140.7 119.635 140.723 119.643 140.754Z" fill="black" stroke="black" stroke-width="0.7805" stroke-miterlimit="10" stroke-linecap="round" stroke-linejoin="round"/>
<path d="M119.62 140.67C119.605 140.677 119.59 140.693 119.574 140.7C114.536 143.638 107.982 142.445 104.345 137.693C102.094 134.762 101.443 131.105 102.255 127.776C103.434 128.281 104.682 128.58 105.831 129.161C106.933 129.72 107.959 130.477 108.694 131.48C109.1 132.023 109.406 132.635 109.628 133.278C109.743 133.607 109.843 133.944 109.912 134.28C110.034 134.854 110.042 135.436 110.072 136.017C110.088 136.293 110.149 138.053 110.769 137.639C110.899 137.555 110.953 137.395 110.983 137.242C111.098 136.637 110.945 135.971 110.922 135.359C110.907 134.977 110.876 134.594 110.899 134.219C110.899 134.196 110.899 134.166 110.907 134.143C110.915 134.035 111.144 133.867 111.282 133.86C113.487 133.791 115.738 134.801 117.285 136.346C118.51 137.578 119.122 139.047 119.62 140.67Z" fill="white" stroke="black" stroke-width="1.3694" stroke-miterlimit="10" stroke-linecap="round" stroke-linejoin="round"/>
<path d="M126.687 108.173C125.914 107.637 125.156 107.186 124.467 106.856C124.23 106.742 123.992 106.635 123.747 106.527C120.401 105.035 116.787 104.155 113.127 103.941C113.196 103.75 113.265 103.566 113.342 103.375C115.195 98.914 119.628 96.5113 123.257 98.0187C125.501 98.9522 126.909 101.164 127.2 103.78C127.354 105.165 127.2 106.68 126.687 108.173Z" fill="white" stroke="black" stroke-width="1.3694" stroke-miterlimit="10" stroke-linecap="round" stroke-linejoin="round"/>
<path d="M167.942 139.828C169.05 139.828 169.948 138.93 169.948 137.823C169.948 136.716 169.05 135.818 167.942 135.818C166.834 135.818 165.936 136.716 165.936 137.823C165.936 138.93 166.834 139.828 167.942 139.828Z" fill="black"/>
<path d="M176.448 144.335C177.556 144.335 178.454 143.437 178.454 142.33C178.454 141.223 177.556 140.325 176.448 140.325C175.34 140.325 174.442 141.223 174.442 142.33C174.442 143.437 175.34 144.335 176.448 144.335Z" fill="black"/>
<path d="M173.906 138.955C173.263 138.512 172.635 138.137 172.061 137.861C171.862 137.762 171.663 137.678 171.464 137.586C168.684 136.346 165.683 135.619 162.651 135.436C162.704 135.283 162.766 135.122 162.827 134.969C164.366 131.266 168.049 129.276 171.058 130.523C172.918 131.296 174.09 133.133 174.335 135.306C174.457 136.461 174.327 137.716 173.906 138.955Z" fill="white" stroke="black" stroke-width="1.1367" stroke-miterlimit="10" stroke-linecap="round" stroke-linejoin="round"/>
<path d="M180.789 144.916C179.472 143.6 176.525 140.754 173.898 138.955C174.32 137.716 174.457 136.461 174.32 135.306C175.682 134.709 177.153 134.617 178.5 135.168C181.509 136.415 182.696 140.432 181.157 144.128C181.05 144.403 180.927 144.664 180.789 144.916Z" fill="white" stroke="black" stroke-width="1.1367" stroke-miterlimit="10" stroke-linecap="round" stroke-linejoin="round"/>
<path d="M130.791 147.235C129.268 149.477 128.364 152.086 127.208 154.55C125.554 158.047 123.119 160.686 119.674 162.454C115.884 164.398 111.642 165.408 108.028 167.703C98.7711 173.58 98.1739 184.162 101.581 193.719C101.757 194.209 101.949 194.691 102.155 195.165C101.283 194.323 100.463 193.413 99.7282 192.426C99.399 191.99 99.1004 191.546 98.8018 191.087C97.4006 188.891 96.3516 186.389 95.6855 183.756C95.1495 181.66 94.8509 179.487 94.8203 177.321C94.7514 172.968 95.7238 168.637 97.883 165.071C100.295 161.069 104.177 158.238 108.541 156.7C113.02 155.108 117.905 154.259 121.611 151.068C123.931 149.071 125.087 146.255 126.779 143.799C128.494 141.312 131.434 139.545 134.336 138.887C141.694 137.203 148.302 141.504 153.187 146.546C153.6 146.967 154.022 147.403 154.458 147.801" fill="#160E23"/>
<path d="M130.791 147.235C129.268 149.477 128.364 152.086 127.208 154.55C125.554 158.047 123.119 160.686 119.674 162.454C115.884 164.398 111.642 165.408 108.028 167.703C98.7711 173.58 98.1739 184.162 101.581 193.719C101.757 194.209 101.949 194.691 102.155 195.165C101.283 194.323 100.463 193.413 99.7282 192.426C99.399 191.99 99.1004 191.546 98.8018 191.087C97.4006 188.891 96.3516 186.389 95.6855 183.756C95.1495 181.66 94.8509 179.487 94.8203 177.321C94.7514 172.968 95.7238 168.637 97.883 165.071C100.295 161.069 104.177 158.238 108.541 156.7C113.02 155.108 117.905 154.259 121.611 151.068C123.931 149.071 125.087 146.255 126.779 143.799C128.494 141.312 131.434 139.545 134.336 138.887C141.694 137.203 148.302 141.504 153.187 146.546C153.6 146.967 154.022 147.403 154.458 147.801" stroke="black" stroke-width="1.0962" stroke-miterlimit="10" stroke-linecap="round" stroke-linejoin="round"/>
<path d="M148.754 144.006C145.975 142.766 142.92 142.169 139.803 142.384C136.243 142.629 132.836 144.228 130.791 147.227C129.268 149.469 128.364 152.078 127.208 154.542C125.554 158.039 123.12 160.679 119.674 162.446C115.884 164.39 111.642 165.4 108.028 167.696C107.737 167.879 107.454 168.07 107.186 168.262C106.78 168.553 106.39 168.851 106.015 169.157C105.639 169.463 105.287 169.785 104.95 170.114C104.835 170.221 104.728 170.335 104.621 170.443C104.299 170.779 103.993 171.116 103.702 171.468C103.511 171.697 103.327 171.935 103.151 172.172C102.975 172.409 102.799 172.654 102.638 172.899C102.393 173.266 102.163 173.649 101.957 174.024C101.673 174.536 101.421 175.057 101.191 175.592C98.8632 181.048 99.3992 187.59 101.581 193.719C101.757 194.209 101.949 194.691 102.156 195.165C107.37 207.003 122.607 212.321 134.199 206.176C136.871 204.761 139.29 202.756 140.814 200.147C144.926 193.084 141.993 183.076 149.229 177.65C153.731 174.276 158.623 170.588 160.224 164.895C161.257 161.207 160.652 157.151 158.93 153.731C156.755 149.416 153.095 145.942 148.754 144.006ZM134.314 155.422C134.405 155.292 134.497 155.162 134.589 155.032C136.917 151.941 140.837 150.969 143.341 152.851C144.895 154.022 145.546 156.019 145.247 158.108C146.664 157.878 148.057 158.146 149.183 158.988C151.694 160.878 151.832 164.91 149.504 167.994C149.336 168.216 149.16 168.43 148.976 168.637C146.618 171.215 143.08 171.919 140.753 170.175C139.199 169.004 138.555 167.007 138.846 164.918C137.43 165.148 136.036 164.88 134.918 164.038C132.514 162.24 132.277 158.46 134.314 155.422Z" fill="white" stroke="black" stroke-width="1.0962" stroke-miterlimit="10" stroke-linecap="round" stroke-linejoin="round"/>
<path d="M140.76 170.175C139.206 169.004 138.555 167.007 138.846 164.918C140.599 164.627 142.376 163.571 143.662 161.857C143.769 161.712 143.876 161.559 143.976 161.413C145.997 163.717 148.064 167.083 148.976 168.637C146.625 171.215 143.088 171.927 140.76 170.175Z" fill="white" stroke="black" stroke-width="1.0962" stroke-miterlimit="10" stroke-linecap="round" stroke-linejoin="round"/>
<path d="M148.984 168.637C148.073 167.091 146.005 163.724 143.984 161.413C144.681 160.357 145.102 159.217 145.255 158.108C146.671 157.878 148.065 158.146 149.19 158.988C151.702 160.878 151.84 164.91 149.512 167.994C149.344 168.223 149.167 168.438 148.984 168.637Z" fill="white" stroke="black" stroke-width="1.0962" stroke-miterlimit="10" stroke-linecap="round" stroke-linejoin="round"/>
<path d="M138.846 164.918C137.429 165.147 136.036 164.88 134.918 164.038C132.514 162.232 132.284 158.452 134.313 155.422C137.108 156.325 139.734 157.725 142.031 159.546C142.2 159.676 142.36 159.807 142.521 159.944C142.996 160.342 143.486 160.84 143.984 161.413C143.884 161.566 143.777 161.712 143.67 161.857C142.383 163.571 140.599 164.635 138.846 164.918Z" fill="white" stroke="black" stroke-width="1.0962" stroke-miterlimit="10" stroke-linecap="round" stroke-linejoin="round"/>
<path d="M138.532 160.908C139.615 160.908 140.492 160.031 140.492 158.95C140.492 157.868 139.615 156.991 138.532 156.991C137.45 156.991 136.572 157.868 136.572 158.95C136.572 160.031 137.45 160.908 138.532 160.908Z" fill="black"/>
<path d="M144.887 167.221C145.97 167.221 146.847 166.344 146.847 165.262C146.847 164.18 145.97 163.303 144.887 163.303C143.805 163.303 142.927 164.18 142.927 165.262C142.927 166.344 143.805 167.221 144.887 167.221Z" fill="black"/>
<path d="M129.421 185.57C134.614 185.57 138.823 181.363 138.823 176.174C138.823 170.984 134.614 166.777 129.421 166.777C124.228 166.777 120.019 170.984 120.019 176.174C120.019 181.363 124.228 185.57 129.421 185.57Z" fill="#160E23" stroke="black" stroke-width="1.0962" stroke-miterlimit="10" stroke-linecap="round" stroke-linejoin="round"/>
<path d="M132.017 185.272L131.97 185.218C131.986 185.218 132.001 185.21 132.009 185.203C132.017 185.226 132.017 185.249 132.017 185.272Z" fill="black" stroke="black" stroke-width="0.6248" stroke-miterlimit="10" stroke-linecap="round" stroke-linejoin="round"/>
<path d="M132.016 185.203C132.001 185.21 131.986 185.21 131.978 185.218C127.484 186.496 122.645 184.254 120.769 179.854C119.613 177.13 119.835 174.169 121.129 171.751C121.94 172.378 122.851 172.86 123.625 173.541C124.367 174.199 125.011 174.988 125.386 175.906C125.593 176.411 125.707 176.946 125.753 177.482C125.776 177.758 125.784 178.041 125.776 178.316C125.761 178.783 125.646 179.242 125.554 179.693C125.516 179.908 125.21 181.285 125.769 181.086C125.884 181.04 125.96 180.933 126.014 180.818C126.22 180.374 126.243 179.823 126.343 179.349C126.404 179.051 126.458 178.752 126.55 178.461C126.557 178.438 126.565 178.423 126.573 178.4C126.603 178.316 126.818 178.232 126.917 178.255C128.64 178.637 130.187 179.869 131.075 181.377C131.771 182.586 131.955 183.841 132.016 185.203Z" fill="white" stroke="black" stroke-width="1.0962" stroke-miterlimit="10" stroke-linecap="round" stroke-linejoin="round"/>
<path d="M143.984 161.421C143.486 160.855 142.996 160.35 142.521 159.952C142.361 159.814 142.2 159.684 142.031 159.554C139.734 157.733 137.108 156.325 134.313 155.43C134.405 155.3 134.497 155.17 134.589 155.04C136.917 151.948 140.837 150.976 143.341 152.859C144.895 154.029 145.546 156.027 145.247 158.116C145.102 159.217 144.673 160.365 143.984 161.421Z" fill="white" stroke="black" stroke-width="1.0962" stroke-miterlimit="10" stroke-linecap="round" stroke-linejoin="round"/>
</svg>
