<?xml version="1.0" encoding="utf-8"?>
<!-- Generator: Adobe Illustrator 23.0.6, SVG Export Plug-In . SVG Version: 6.00 Build 0)  -->
<svg version="1.1" id="Layer_1" xmlns="http://www.w3.org/2000/svg" xmlns:xlink="http://www.w3.org/1999/xlink" x="0px" y="0px"
	 viewBox="0 0 407.4 165.9" style="enable-background:new 0 0 407.4 165.9;" xml:space="preserve">
<style type="text/css">
	.st0{fill:#00609C;}
	.st1{fill:#BFDCE1;}
</style>
<path class="st0" d="M366.9,164.6L22.5,61.7C5.8,56.7-3.7,39.2,1.3,22.5C6.3,5.8,23.8-3.7,40.5,1.3l344.4,102.9
	c16.7,5,26.2,22.5,21.2,39.2C401.1,160.1,383.6,169.5,366.9,164.6z"/>
<path class="st1" d="M36.7,42.7c-1.8-0.5-3.8-1.3-6.1-2.5c-2.3-1.1-4.2-2.1-5.5-3.1l2.4-7.1c1.1,1.4,2.5,2.7,4.4,3.9
	c1.9,1.1,4,2.1,6.4,2.8c0.9,0.3,1.7,0.5,2.4,0.6c0.7,0.1,1.2,0.1,1.6,0.1c0.4-0.1,0.7-0.3,0.8-0.6c0.1-0.3,0-0.7-0.4-1
	c-0.4-0.3-0.9-0.6-1.5-0.9c-0.6-0.3-1.5-0.6-2.7-1c-2.2-0.9-4-1.6-5.4-2.3c-1.4-0.7-2.6-1.6-3.4-2.7c-0.9-1.1-1.1-2.4-0.6-3.9
	c0.4-1.3,1.2-2.3,2.5-2.8c1.3-0.6,2.8-0.8,4.7-0.7s3.9,0.5,6.2,1.2c1.7,0.5,3.4,1.2,5.1,2c1.7,0.8,3.1,1.7,4.3,2.5l-2,6.6
	c-1-1-2.2-1.9-3.8-2.8c-1.6-0.9-3.3-1.6-5.1-2.1c-0.9-0.3-1.7-0.5-2.4-0.6c-0.7-0.1-1.3-0.1-1.7-0.1c-0.4,0.1-0.7,0.3-0.8,0.6
	c-0.1,0.4,0,0.7,0.4,1.1c0.4,0.3,1,0.6,1.7,1c0.7,0.3,1.7,0.7,2.9,1.1c2.2,0.8,3.9,1.5,5.3,2.2c1.4,0.7,2.5,1.5,3.3,2.6
	c0.9,1,1.1,2.3,0.7,3.7c-0.4,1.3-1.2,2.3-2.4,2.9s-2.8,0.9-4.6,0.8C41.3,43.8,39.2,43.4,36.7,42.7z"/>
<path class="st1" d="M50.6,46.4c0.5-0.7,1-1.7,1.6-2.9c0.5-1.2,1-2.5,1.4-3.7l1.6-5.4c0.4-1.2,0.6-2.4,0.9-3.8
	c0.2-1.3,0.3-2.5,0.3-3.4l20.9,6.3l-1.1,7.2c-0.3-0.4-0.9-0.8-1.8-1.2c-0.9-0.4-1.9-0.8-3.1-1.2l-8.7-2.6l-0.6,2.2l6.4,1.9
	c1.5,0.5,2.7,0.7,3.5,0.9l-0.9,3.1c-0.7-0.3-1.9-0.7-3.4-1.2L61,40.6l-0.6,2.1l8.6,2.6c1.5,0.4,2.7,0.7,3.8,0.8c1.1,0.1,2,0,2.6-0.2
	l-3.3,7L50.6,46.4z"/>
<path class="st1" d="M75.4,53.8c0.5-0.8,1.1-1.7,1.6-3c0.5-1.2,1-2.4,1.3-3.7l1.6-5.4c0.4-1.2,0.7-2.5,0.9-3.8
	c0.2-1.3,0.3-2.4,0.3-3.3l14.2,4.2c1.9,0.6,3.5,1.3,4.7,2.3c1.3,1,2.1,2.1,2.7,3.5c0.5,1.4,0.5,2.8,0.1,4.3
	c-0.5,1.6-1.2,2.8-2.1,3.8c-1,0.9-2.1,1.5-3.5,1.8c-1.4,0.2-2.9,0.1-4.5-0.4c-1.3-0.4-2.5-1-3.4-1.7c-0.9-0.7-1.6-1.5-2.1-2.4
	c-0.5-0.9-0.7-1.9-0.7-2.9l-0.3-0.1l-0.7,2.2c-0.4,1.3-0.7,2.5-0.9,3.8c-0.2,1.3-0.3,2.3-0.3,3.2L75.4,53.8z M90.8,48.9
	c0.7,0.2,1.4,0.3,2,0.3c0.7,0,1.2-0.2,1.7-0.4c0.5-0.3,0.8-0.7,0.9-1.2c0.1-0.5,0.1-0.9,0-1.4c-0.2-0.4-0.5-0.8-1-1.2
	c-0.5-0.3-1.2-0.6-2-0.9l-0.9-0.3c-0.8-0.3-1.5-0.5-2.1-0.6c-0.7-0.1-1.3-0.3-2-0.4L87,44.1c-0.2,0.7-0.1,1.3,0.1,2
	c0.3,0.6,0.7,1.2,1.3,1.7C89.1,48.2,89.9,48.6,90.8,48.9z"/>
<path class="st1" d="M107,63.2c0.5-0.7,1-1.7,1.6-3c0.5-1.2,1-2.5,1.3-3.7l1.8-6l-3-0.9c-1.1-0.3-2.1-0.6-3-0.7
	c-0.8-0.1-1.7-0.2-2.4-0.1l3.4-6.6l20.8,6.2l-0.8,7.4c-0.5-0.5-1.2-0.9-2-1.2c-0.8-0.4-1.8-0.7-2.9-1l-2.9-0.9l-1.8,6
	c-0.4,1.2-0.7,2.5-0.9,3.8c-0.2,1.3-0.3,2.4-0.3,3.3L107,63.2z"/>
<path class="st1" d="M132.4,65.9l12.8-1.6c1.1-0.2,1.9-0.4,2.4-0.7c0.5-0.2,0.8-0.6,0.9-1c0.1-0.4,0-0.8-0.3-1.1
	c-0.3-0.4-0.8-0.7-1.4-1c-0.6-0.3-1.3-0.6-2.2-0.9c-0.9-0.3-1.9-0.4-3-0.5c-1.1-0.1-2.3-0.1-3.4-0.1c-1.2,0.1-2.3,0.2-3.3,0.5
	c0,0,0,0-0.1,0c-0.1,0-0.1,0-0.1,0.1l1.9-6.5c2.3-0.1,4.3-0.1,6.1,0c1.8,0.1,3.6,0.5,5.6,1.1c2,0.6,3.8,1.4,5.2,2.3
	c1.4,0.9,2.5,2,3.1,3.1c0.7,1.1,0.8,2.3,0.4,3.5c-0.4,1.3-1.2,2.2-2.4,2.8c-1.2,0.6-2.9,0.9-5,0.9l-6.9,0.1l-0.1,0.3l7.4,2.2
	c1.1,0.3,2.2,0.5,3.2,0.4c1-0.1,1.9-0.3,2.5-0.7l-2.4,7.8l-22.4-6.7L132.4,65.9z"/>
<path class="st1" d="M167.4,81.7c-2.4-0.7-4.5-1.6-6.2-2.6c-1.7-1-3-2.1-3.8-3.3c-0.8-1.2-1-2.3-0.7-3.4c0.3-0.9,0.9-1.5,1.8-1.9
	c0.9-0.4,2.1-0.6,3.5-0.6c1.4,0,2.9,0.1,4.4,0.5l0.1-0.3c-1.4-0.5-2.6-1.1-3.6-1.8c-1-0.7-1.7-1.4-2.2-2.2c-0.4-0.8-0.5-1.6-0.3-2.4
	c0.3-1,1-1.8,2.2-2.3c1.2-0.5,2.7-0.7,4.5-0.7c1.8,0,3.9,0.4,6.2,1.1c2.3,0.7,4.3,1.5,5.8,2.5c1.6,1,2.7,2,3.4,3.1
	c0.7,1.1,0.9,2.1,0.6,3.1c-0.2,0.8-0.8,1.4-1.6,1.8c-0.8,0.4-1.8,0.6-3,0.7c-1.2,0-2.5-0.1-4-0.5l-0.1,0.3c1.4,0.6,2.7,1.3,3.9,2
	c1.1,0.8,2,1.6,2.6,2.4c0.6,0.9,0.7,1.7,0.5,2.6c-0.3,1.1-1.1,1.9-2.4,2.5c-1.3,0.5-2.9,0.8-4.9,0.7C172,82.8,169.8,82.4,167.4,81.7
	z M170.7,70.6c0.7,0.2,1.4,0.3,2.1,0.4c0.6,0,1.2,0,1.6-0.2c0.4-0.2,0.6-0.4,0.7-0.7c0.1-0.5-0.1-0.9-0.7-1.5
	c-0.6-0.5-1.5-1-2.6-1.3c-1.1-0.3-2.1-0.5-3-0.4c-0.8,0.1-1.3,0.4-1.5,0.8c-0.1,0.3,0,0.7,0.3,1c0.3,0.4,0.7,0.7,1.2,1
	C169.3,70.1,169.9,70.4,170.7,70.6z M169.1,76.1c0.9,0.3,1.7,0.4,2.4,0.5c0.7,0,1.3,0,1.7-0.2c0.4-0.2,0.7-0.4,0.8-0.8
	c0.1-0.4,0-0.7-0.3-1.1c-0.3-0.4-0.7-0.7-1.3-1.1c-0.6-0.4-1.3-0.7-2.2-0.9c-0.8-0.2-1.6-0.4-2.3-0.4c-0.7,0-1.3,0-1.7,0.2
	c-0.5,0.1-0.7,0.4-0.8,0.8c-0.1,0.4,0,0.8,0.2,1.1c0.3,0.4,0.7,0.7,1.3,1.1C167.4,75.5,168.2,75.8,169.1,76.1z"/>
<path class="st1" d="M184.3,76.9l10.8,3.2l-1.2,3.9l-10.8-3.2L184.3,76.9z"/>
<path class="st1" d="M205.7,93.2c-2.1-0.6-4.1-1.4-6-2.2c-1.9-0.9-3.6-1.7-5-2.6l1.8-6l0.1,0.1c1.2,1,2.6,2,4.1,2.8
	c1.5,0.8,3.1,1.4,4.6,1.9c1,0.3,1.9,0.5,2.7,0.6c0.8,0.1,1.6,0.1,2.3,0c0.7-0.1,1.1-0.4,1.2-0.9c0.1-0.4,0-0.8-0.2-1.1
	c-0.3-0.3-0.7-0.6-1.3-0.9c-0.6-0.3-1.4-0.6-2.4-0.9l-5.5-1.6l0.8-2.6l5.5,1.6c1,0.3,1.8,0.5,2.5,0.6c0.7,0.1,1.2,0.1,1.6-0.1
	c0.4-0.1,0.6-0.4,0.8-0.7c0.2-0.6-0.2-1.2-1.2-1.8c-1-0.6-2.3-1.1-3.8-1.6c-1.3-0.4-2.7-0.6-4.2-0.8c-1.5-0.2-3-0.2-4.3-0.1
	c0,0-0.1,0-0.1,0c0,0-0.1,0-0.1,0l1.7-5.7c1.5,0.1,3.2,0.2,5,0.6c1.9,0.3,3.7,0.7,5.5,1.3c2.1,0.6,3.9,1.4,5.4,2.3
	c1.6,0.9,2.7,1.9,3.5,3c0.8,1.1,1,2.2,0.6,3.4c-0.2,0.8-0.8,1.5-1.6,1.9c-0.8,0.4-1.8,0.7-3,0.7c-1.2,0-2.5-0.2-3.9-0.6l-1.3-0.4
	l-0.1,0.3l0.8,0.2c1.6,0.5,2.9,1.1,4,1.7c1.1,0.7,1.9,1.4,2.3,2.2c0.5,0.8,0.6,1.6,0.3,2.5c-0.4,1.2-1.2,2.2-2.5,2.8
	c-1.3,0.6-2.9,0.9-4.8,0.8C209.6,94.1,207.7,93.8,205.7,93.2z"/>
<path class="st1" d="M231.2,100.8c-2.4-0.7-4.5-1.8-6.2-3.1c-1.7-1.4-2.9-3-3.6-4.8c-0.7-1.8-0.7-3.8-0.1-5.9
	c0.6-2.1,1.7-3.7,3.3-4.8c1.6-1.2,3.5-1.9,5.6-2.1c2.2-0.2,4.4,0.1,6.8,0.8c2.4,0.7,4.4,1.8,6.1,3.1c1.7,1.4,2.9,3,3.6,4.8
	c0.7,1.8,0.7,3.8,0.1,5.9c-0.6,2.1-1.7,3.7-3.3,4.8c-1.6,1.2-3.5,1.8-5.7,2C235.9,101.8,233.6,101.5,231.2,100.8z M233,94.9
	c1.4,0.4,2.8,0.7,4,0.7c1.2,0,2.2-0.2,3.1-0.6c0.9-0.4,1.4-1.1,1.7-2c0.2-0.8,0.1-1.6-0.4-2.5c-0.5-0.8-1.2-1.5-2.3-2.2
	c-1-0.6-2.3-1.1-3.7-1.6c-1.4-0.4-2.8-0.7-4-0.7c-1.2,0-2.3,0.2-3.1,0.6c-0.8,0.4-1.3,1.1-1.6,2c-0.2,0.8-0.1,1.6,0.3,2.4
	c0.5,0.8,1.2,1.5,2.3,2.2C230.3,93.9,231.6,94.4,233,94.9z"/>
<path class="st1" d="M260,88.1l2.6,0.8l-6.2,20.8l-2.6-0.8L260,88.1z"/>
<path class="st1" d="M268.9,105l7.6,2.3l1.7-5.6c-1.2,0.1-2.5,0-3.7-0.1c-1.2-0.2-2.5-0.4-3.7-0.7l1.7-5.5c1.1,0.2,2.2,0.4,3.3,0.4
	c1.1,0,2.2,0,3.2-0.2c1-0.2,2-0.5,2.8-0.9l4.7,1.4c-0.4,0.7-0.8,1.7-1.3,3.2l-2.9,9.8l6.1,1.8l-1.8,6l-19.5-5.8L268.9,105z"/>
<path class="st1" d="M291.1,108.8l10.8,3.2l-1.2,3.9l-10.8-3.2L291.1,108.8z"/>
<path class="st1" d="M312.5,125.1c-2.1-0.6-4.1-1.4-6-2.2c-1.9-0.9-3.6-1.7-5-2.6l1.8-6l0.1,0.1c1.2,1,2.6,2,4.1,2.8
	c1.5,0.8,3.1,1.4,4.6,1.9c1,0.3,1.9,0.5,2.7,0.6c0.8,0.1,1.6,0.1,2.3,0c0.7-0.1,1.1-0.4,1.2-0.9c0.1-0.4,0-0.8-0.2-1.1
	c-0.3-0.3-0.7-0.6-1.3-0.9s-1.4-0.6-2.4-0.9l-5.5-1.6l0.8-2.6l5.5,1.6c1,0.3,1.8,0.5,2.5,0.6c0.7,0.1,1.2,0.1,1.6-0.1
	c0.4-0.1,0.7-0.4,0.8-0.7c0.2-0.6-0.2-1.2-1.2-1.8c-1-0.6-2.3-1.1-3.8-1.6c-1.3-0.4-2.7-0.6-4.2-0.8c-1.5-0.2-3-0.2-4.3-0.1
	c0,0-0.1,0-0.1,0c0,0-0.1,0-0.1,0l1.7-5.7c1.5,0.1,3.2,0.2,5,0.6c1.9,0.3,3.7,0.7,5.5,1.3c2.1,0.6,3.9,1.4,5.4,2.3
	c1.6,0.9,2.7,1.9,3.5,3c0.8,1.1,1,2.2,0.6,3.4c-0.2,0.8-0.8,1.5-1.6,1.9c-0.8,0.4-1.8,0.7-3,0.7c-1.2,0-2.5-0.2-3.9-0.6l-1.3-0.4
	l-0.1,0.3l0.8,0.2c1.6,0.5,3,1.1,4,1.7c1.1,0.7,1.9,1.4,2.3,2.2c0.5,0.8,0.6,1.6,0.3,2.5c-0.4,1.2-1.2,2.2-2.5,2.8
	c-1.3,0.6-2.9,0.9-4.8,0.8C316.4,126,314.4,125.6,312.5,125.1z"/>
<path class="st1" d="M324.4,134.1c0.5-0.8,1-1.7,1.5-2.9c0.5-1.2,0.9-2.4,1.3-3.7l1.6-5.2c0.4-1.2,0.7-2.5,0.9-3.8
	c0.2-1.3,0.4-2.5,0.4-3.4l8.7,2.6c-0.4,0.4-0.8,0.9-1.1,1.4c-0.3,0.5-0.6,1-0.7,1.6l-0.1,0.2l0.4,0.1c0.9-1.1,2-1.8,3.5-2.1
	c1.4-0.3,3-0.3,4.7,0.2c1.6,0.5,2.9,1.2,3.9,2.2c1,1,1.6,2.1,1.9,3.4c0.3,1.3,0.2,2.6-0.2,4c-0.4,1.4-1.1,2.6-2,3.5
	c-0.9,0.9-2.1,1.5-3.4,1.8c-1.4,0.3-2.9,0.2-4.5-0.3c-1.7-0.5-3-1.3-4-2.4c-1-1.1-1.6-2.3-1.8-3.6l-0.4-0.1l-0.6,2.1
	c-0.4,1.2-0.7,2.5-0.9,3.8c-0.2,1.3-0.3,2.4-0.3,3.3L324.4,134.1z M339.3,128.5c0.8,0.2,1.6,0.3,2.3,0.2c0.7-0.1,1.3-0.3,1.8-0.6
	c0.5-0.4,0.8-0.8,1-1.5c0.2-0.6,0.2-1.2-0.1-1.7c-0.2-0.5-0.6-1-1.1-1.5c-0.5-0.4-1.2-0.8-2-1c-0.8-0.2-1.5-0.3-2.2-0.3
	c-0.7,0.1-1.3,0.3-1.8,0.6c-0.5,0.4-0.8,0.8-1,1.4c-0.2,0.6-0.2,1.2,0,1.8c0.2,0.6,0.6,1.1,1.1,1.5
	C337.9,127.9,338.6,128.3,339.3,128.5z"/>
<path class="st1" d="M350.8,136c0.5-0.8,1-1.7,1.4-2.4c0.4-0.8,0.7-1.7,1.1-2.9l0.7-2.2c0.3-1.1,0.6-2.2,0.7-3.2
	c0.1-1,0.2-2,0.2-2.9l8.5,2.6c-0.3,0.3-0.7,0.8-1,1.3s-0.5,1.1-0.7,1.6l-0.1,0.4l0.3,0.1c0.9-1.1,1.9-1.9,3.2-2.3
	c1.2-0.4,2.6-0.3,4.1,0.1c1.7,0.5,2.9,1.3,3.7,2.3c0.8,1,1.2,2.2,1.2,3.5l0.3,0.1c0.5-0.7,1.2-1.3,2.1-1.7c0.8-0.4,1.7-0.6,2.6-0.7
	c0.9-0.1,1.9,0.1,2.9,0.4c2.1,0.6,3.6,1.7,4.3,3.1c0.7,1.4,0.8,3.1,0.2,5l-0.5,1.8c-0.3,1.1-0.6,2.2-0.7,3.3c-0.2,1-0.2,2-0.2,3
	l-8.7-2.6c0.6-0.8,1-1.7,1.4-2.5c0.4-0.8,0.8-1.8,1.1-2.9l0.4-1.3c0.3-0.9,0.3-1.6,0-2.3c-0.2-0.7-0.8-1.1-1.7-1.4
	c-0.6-0.2-1.2-0.2-1.7-0.1c-0.6,0.1-1.1,0.4-1.5,0.8c-0.4,0.4-0.7,0.9-0.9,1.5l-0.3,1c-0.3,1.1-0.6,2.2-0.7,3.1
	c-0.1,1-0.2,1.9-0.2,2.9l-8.6-2.6c0.5-0.8,1-1.6,1.3-2.4c0.4-0.8,0.8-1.8,1.1-3.1l0.4-1.3c0.3-0.9,0.3-1.6,0-2.3
	c-0.2-0.7-0.8-1.1-1.7-1.4c-0.6-0.2-1.2-0.2-1.8-0.1c-0.5,0.1-1,0.4-1.4,0.8c-0.4,0.4-0.7,0.9-0.9,1.6l-0.3,1.1
	c-0.3,1-0.5,2-0.7,3.1c-0.2,1.1-0.2,2-0.2,2.8L350.8,136z"/>
</svg>
