<?xml version="1.0" encoding="utf-8"?>
<!-- Generator: Adobe Illustrator 23.0.6, SVG Export Plug-In . SVG Version: 6.00 Build 0)  -->
<svg version="1.1" id="Layer_1" xmlns="http://www.w3.org/2000/svg" xmlns:xlink="http://www.w3.org/1999/xlink" x="0px" y="0px"
	 viewBox="0 0 341 292.7" style="enable-background:new 0 0 341 292.7;" xml:space="preserve">
<style type="text/css">
	.st0{fill:#BFDCE1;}
	.st1{fill:#FFFFFF;}
	.st2{fill:none;stroke:#12284C;stroke-width:3;stroke-miterlimit:10;}
	.st3{fill:#12284C;}
</style>
<g>
	<path class="st0" d="M280.9,17.9L339,163.7c5.8,14.5-1.4,31.1-15.9,36.9l-19.1,7.6c-4.2,1.7-7.4,5.3-8.5,9.7l-8.3,33.6
		c-2.3,9.4-13.2,13.7-21.4,8.5l-29.2-18.7c-3.8-2.5-8.6-2.9-12.9-1.2L97,290.7c-14.5,5.8-31.1-1.3-36.9-15.8L2,129
		C-3.8,114.5,3.4,98,17.9,92.2L244,2C258.5-3.8,275.1,3.4,280.9,17.9z"/>
	<path class="st1" d="M280.9,17.9L339,163.7c5.8,14.5-1.4,31.1-15.9,36.9l-19.1,7.6c-4.2,1.7-7.4,5.3-8.5,9.7l-8.3,33.6
		c-2.3,9.4-13.2,13.7-21.4,8.5l-29.1-18.6c-3.8-2.5-8.6-2.9-12.9-1.2L97,290.7c-14.5,5.8-31.1-1.3-36.9-15.8L2,129.1
		C-3.8,114.6,3.4,98,17.9,92.2L244,2C258.5-3.8,275.1,3.4,280.9,17.9z"/>
	<path class="st2" d="M246.3,226.3c-8.7-5.5-19.5-6.6-29-2.8L90.4,274.2c-5.4,2.2-11.6-0.5-13.8-5.9L18.5,122.5
		c-2.2-5.4,0.5-11.6,5.9-13.8l226.2-90.2c5.4-2.2,11.6,0.5,13.8,5.9l58.1,145.8c2.2,5.4-0.5,11.6-5.9,13.8l-19.1,7.6
		c-9.6,3.8-16.7,12-19.2,22l-4.9,19.8c-1.1,4.3-6.1,6.3-9.9,3.9L246.3,226.3z"/>
	<path class="st3" d="M53.6,160.4c-0.2-1.6-0.7-3.6-1.4-5.9c-0.7-2.3-1.5-4.6-2.3-6.7l-2.5-6.3c-0.8-2.1-1.8-4.2-2.9-6.4
		c-1.1-2.2-2.1-3.9-3-5.3l20.6-8.2l5.2,9.1c-0.7-0.2-1.5-0.2-2.6,0c-1.1,0.2-2.5,0.7-4.2,1.4l-5.9,2.4l2,5l3.8-1.5
		c2.2-0.9,3.8-1.6,4.9-2.1l1.9,4.7c-1.2,0.3-2.9,0.9-5.2,1.8l-3.6,1.4l0.4,0.9c0.8,2,1.8,4.1,2.8,6.2c1.1,2.1,2.1,3.8,3,5.1
		L53.6,160.4z"/>
	<path class="st3" d="M100,142.7c-1.6,0.6-3.1,0.8-4.3,0.4c-1.3-0.4-2.3-1-3.2-2c-0.9-0.9-1.9-2.2-2.9-3.8c-0.8-1.2-1.5-2.1-2-2.7
		c-0.6-0.6-1.2-1.1-1.9-1.5s-1.5-0.3-2.3,0c-0.2,0.1-0.3,0.2-0.5,0.3c-0.2,0.1-0.3,0.2-0.4,0.4l0.6,1.4l0.2,0.5c0.8,2,1.7,4,2.7,5.9
		c0.9,1.9,1.9,3.6,2.8,4.9L78,150.7c-0.3-1.7-0.9-3.6-1.5-5.7c-0.7-2.1-1.5-4.4-2.5-6.9l-2.4-5.9c-1-2.6-2-4.9-3-7
		c-1-2.1-1.9-3.7-2.7-4.9l13.9-5.5c2.1-0.8,4.1-1.3,5.9-1.4c1.9-0.1,3.5,0.3,4.9,1.1c1.4,0.8,2.5,2.1,3.1,3.8
		c0.7,1.7,0.8,3.3,0.4,4.7c-0.4,1.5-1.2,2.8-2.5,3.9c-1.3,1.1-2.9,2.1-4.8,2.9l-0.2,0.1l0.1,0.3l0.3-0.1c0.8-0.3,1.6-0.4,2.2-0.3
		c0.7,0.1,1.2,0.4,1.6,0.7c0.4,0.3,0.9,0.8,1.5,1.4c0.4,0.3,0.7,0.6,1.1,0.8c0.4,0.2,0.8,0.3,1.2,0.3c0.4,0,0.8-0.1,1.2-0.2
		c1.1-0.4,1.9-1.1,2.4-2c0.5-0.9,0.8-1.9,0.8-3.1l4.4,10.9c-0.1,0.8-0.4,1.7-1.1,2.5C101.8,141.7,101,142.3,100,142.7z M84,129.1
		c0.7-0.3,1.2-0.6,1.7-1c0.4-0.4,0.7-0.9,0.8-1.5c0.1-0.6,0-1.2-0.3-1.8c-0.2-0.6-0.6-1.1-1.1-1.4c-0.5-0.3-1-0.5-1.6-0.5
		c-0.6,0-1.2,0.1-1.9,0.4l-3.1,1.2l2.3,5.9L84,129.1z"/>
	<path class="st3" d="M106.7,139.2c-0.2-1.6-0.7-3.6-1.4-5.9c-0.7-2.3-1.5-4.6-2.3-6.6l-2.5-6.3c-0.8-2.1-1.8-4.2-2.9-6.4
		s-2.1-4-3.1-5.3l20.4-8.1l5.1,9.1c-0.6-0.2-1.5-0.2-2.5,0c-1,0.2-2.5,0.7-4.3,1.4l-5.7,2.3l1.8,4.4l4.3-1.7
		c2.2-0.9,3.8-1.6,4.9-2.2l1.8,4.5c-1.2,0.3-2.9,0.9-5.1,1.8l-4.3,1.7l2,5.1l5-2c2.4-1,4.1-1.8,5.2-2.5c1.1-0.7,1.9-1.4,2.3-2.1
		l2.4,10.5L106.7,139.2z"/>
	<path class="st3" d="M132.2,129.1c-0.2-1.6-0.7-3.6-1.4-5.9s-1.5-4.6-2.3-6.6l-2.5-6.3c-0.8-2.1-1.8-4.2-2.9-6.4
		c-1.1-2.2-2.1-4-3.1-5.3l20.4-8.1l5.1,9.1c-0.6-0.2-1.5-0.2-2.5,0c-1,0.2-2.5,0.7-4.3,1.4l-5.7,2.3l1.8,4.4l4.3-1.7
		c2.2-0.9,3.8-1.6,4.9-2.2l1.8,4.5c-1.2,0.3-2.9,0.9-5.1,1.8l-4.3,1.7l2,5.1l5-2c2.4-1,4.1-1.8,5.2-2.5c1.1-0.7,1.9-1.4,2.3-2.1
		l2.4,10.5L132.2,129.1z"/>
	<path class="st3" d="M83.5,197.9c-2.7,1.1-5.3,1.4-7.9,1c-2.6-0.4-5-1.5-7.2-3.4c-2.2-1.9-3.9-4.5-5.3-7.8
		c-1.3-3.2-1.8-6.3-1.4-9.2c0.3-2.9,1.3-5.4,3-7.6c1.7-2.2,3.9-3.8,6.7-4.9c1.8-0.7,3.5-1.2,5.1-1.4c1.5-0.2,2.9-0.3,4.1-0.2
		l3.5,8.8c-0.9-0.4-2.1-0.6-3.4-0.5c-1.3,0.1-2.7,0.4-3.9,0.9c-1.7,0.7-2.9,1.5-3.9,2.6c-0.9,1-1.5,2.2-1.6,3.6
		c-0.2,1.4,0.1,2.8,0.7,4.4c0.6,1.6,1.4,2.9,2.3,3.8c0.9,0.9,1.9,1.4,3,1.6c1.1,0.2,2.2,0,3.4-0.4c0.4-0.2,0.8-0.3,1.1-0.5
		c0.3-0.2,0.6-0.4,0.9-0.6c0.3-0.2,0.5-0.4,0.6-0.6l-2.1-5.1l-1.3,0.5c-0.4,0.1-0.9,0.4-1.5,0.7c-0.6,0.3-1,0.6-1.4,0.9l-1.5-4.3
		l12.6-5l5.7,14.3c-0.6,1.2-1.4,2.4-2.4,3.4c-1,1.1-2.2,2-3.6,2.9C86.4,196.6,85,197.3,83.5,197.9z"/>
	<path class="st3" d="M119.9,183.6c-1.6,0.6-3.1,0.8-4.3,0.4c-1.2-0.4-2.3-1-3.2-2c-0.9-0.9-1.9-2.2-2.9-3.8c-0.8-1.2-1.5-2.1-2-2.7
		c-0.6-0.6-1.2-1.1-1.9-1.5c-0.7-0.3-1.5-0.3-2.3,0c-0.2,0.1-0.3,0.2-0.5,0.3c-0.2,0.1-0.3,0.2-0.4,0.4l0.6,1.4l0.2,0.5
		c0.8,2,1.7,4,2.7,5.9c0.9,1.9,1.9,3.6,2.8,4.9l-10.5,4.2c-0.3-1.7-0.9-3.6-1.5-5.7c-0.7-2.1-1.5-4.4-2.5-6.9l-2.4-5.9
		c-1-2.6-2-4.9-3-7c-1-2.1-1.9-3.7-2.7-4.9l13.9-5.5c2.1-0.8,4.1-1.3,5.9-1.4c1.9-0.1,3.5,0.3,4.9,1.1c1.4,0.8,2.5,2.1,3.1,3.8
		c0.7,1.7,0.8,3.3,0.4,4.7c-0.4,1.5-1.2,2.8-2.5,3.9c-1.3,1.1-2.9,2.1-4.8,2.9l-0.2,0.1l0.1,0.3l0.3-0.1c0.8-0.3,1.6-0.4,2.2-0.3
		c0.7,0.1,1.2,0.4,1.6,0.7c0.4,0.3,0.9,0.8,1.5,1.4c0.4,0.3,0.7,0.6,1.1,0.8c0.4,0.2,0.8,0.3,1.2,0.3c0.4,0,0.8-0.1,1.2-0.2
		c1.1-0.4,1.9-1.1,2.4-2c0.5-0.9,0.8-1.9,0.8-3.1l4.4,10.9c-0.1,0.8-0.4,1.7-1.1,2.5C121.7,182.6,120.9,183.2,119.9,183.6z
		 M103.9,170c0.7-0.3,1.2-0.6,1.7-1c0.4-0.4,0.7-0.9,0.8-1.5c0.1-0.6,0-1.2-0.3-1.8c-0.2-0.6-0.6-1.1-1.1-1.4
		c-0.5-0.3-1-0.5-1.6-0.5c-0.6,0-1.2,0.1-1.9,0.4l-3.1,1.2l2.3,5.9L103.9,170z"/>
	<path class="st3" d="M140.1,175.4c-2.5,1-4.8,1.4-6.9,1.3c-2.1-0.1-4.1-0.9-5.8-2.2c-1.7-1.4-3.1-3.4-4.2-6l-2.8-7.1
		c-0.8-2.1-1.8-4.2-2.9-6.4c-1.1-2.2-2.1-3.9-3.1-5.3l10.8-4.3c0.2,1.6,0.7,3.6,1.4,5.9c0.7,2.3,1.5,4.6,2.3,6.7l2.1,5.3
		c0.4,1.1,0.9,1.9,1.5,2.6c0.6,0.6,1.2,1.1,1.9,1.3c0.7,0.2,1.4,0.1,2.2-0.2c0.8-0.3,1.3-0.8,1.7-1.4c0.4-0.6,0.5-1.3,0.5-2.2
		c0-0.9-0.3-1.8-0.7-2.9L136,155c-0.8-2.1-1.8-4.3-2.9-6.5c-1.1-2.2-2.1-3.9-3-5.2l10.9-4.3c0.2,1.6,0.7,3.6,1.4,6
		c0.7,2.3,1.5,4.5,2.3,6.6l2.8,7.1c1,2.5,1.4,4.9,1.1,7.1c-0.3,2.2-1.1,4.1-2.6,5.7C144.6,173.1,142.6,174.4,140.1,175.4z"/>
	<path class="st3" d="M156.6,168.2c-0.2-1.6-0.7-3.6-1.4-6c-0.7-2.4-1.4-4.6-2.3-6.6l-2.5-6.3c-0.8-2.1-1.8-4.2-2.9-6.4
		c-1.1-2.2-2.1-3.9-3.1-5.3l14.4-5.7c1.9-0.8,3.8-1.2,5.5-1.3c1.8-0.1,3.3,0.2,4.7,1c1.4,0.8,2.4,1.9,3.1,3.6
		c0.6,1.5,0.7,2.9,0.4,4.2c-0.3,1.4-1,2.6-2,3.6c-1,1.1-2.3,1.9-3.9,2.6l-0.1,0l0.2,0.5l0.5-0.2c1.7-0.7,3.4-1,4.9-0.9
		c1.6,0.1,3,0.5,4.2,1.3c1.2,0.8,2.2,2,2.8,3.6c0.7,1.7,0.8,3.4,0.3,5c-0.5,1.6-1.4,3-2.7,4.3c-1.3,1.2-3,2.3-5,3.1L156.6,168.2z
		 M166.8,155.5c0.8-0.3,1.4-0.7,1.8-1.2c0.4-0.5,0.7-1,0.9-1.6c0.1-0.6,0.1-1.3-0.2-2c-0.3-0.7-0.7-1.3-1.2-1.6
		c-0.5-0.3-1.1-0.5-1.8-0.6c-0.7,0-1.4,0.1-2.1,0.4l-3.5,1.4l2.6,6.5L166.8,155.5z M162.2,145.7c1.1-0.4,1.8-1,2.2-1.8
		c0.4-0.8,0.4-1.6,0.1-2.6c-0.4-0.9-0.9-1.5-1.8-1.7c-0.8-0.2-1.8-0.1-2.9,0.3L157,141l2.3,5.9L162.2,145.7z"/>
	<path class="st3" d="M184.6,157c-0.2-1.6-0.7-3.6-1.4-5.9c-0.7-2.3-1.5-4.6-2.3-6.7l-2.5-6.3c-0.8-2.1-1.8-4.2-2.9-6.4
		c-1.1-2.2-2.1-4-3-5.3l10.8-4.3c0.2,1.6,0.7,3.6,1.4,5.9c0.7,2.3,1.5,4.6,2.3,6.7l0.3,0.9l6.7-2.7l-0.3-0.9
		c-0.8-2.1-1.8-4.2-2.9-6.4c-1.1-2.2-2.1-3.9-3-5.3l10.7-4.3c0.3,1.6,0.7,3.5,1.4,5.9c0.7,2.3,1.4,4.6,2.3,6.7l2.5,6.3
		c0.8,2.1,1.8,4.3,2.9,6.4c1.1,2.2,2.1,3.9,3,5.2l-10.7,4.3c-0.3-1.6-0.8-3.5-1.5-5.9c-0.7-2.4-1.4-4.6-2.3-6.7l-0.5-1.2l-6.7,2.7
		l0.5,1.2c0.8,2.1,1.8,4.3,2.9,6.5c1.1,2.2,2.1,3.9,3,5.2L184.6,157z"/>
	<path class="st3" d="M227.7,140.5c-2.5,1-4.8,1.4-6.9,1.3c-2.1-0.1-4.1-0.9-5.8-2.2c-1.7-1.4-3.1-3.4-4.2-6l-2.8-7.1
		c-0.8-2.1-1.8-4.2-2.9-6.4c-1.1-2.2-2.1-3.9-3.1-5.3l10.8-4.3c0.2,1.6,0.7,3.6,1.4,5.9c0.7,2.3,1.5,4.6,2.3,6.7l2.1,5.3
		c0.4,1.1,0.9,1.9,1.5,2.6c0.6,0.7,1.2,1.1,1.9,1.3c0.7,0.2,1.4,0.1,2.2-0.2c0.8-0.3,1.3-0.8,1.7-1.4c0.4-0.6,0.5-1.3,0.5-2.2
		c0-0.9-0.3-1.8-0.7-2.9l-2.1-5.3c-0.8-2.1-1.8-4.3-2.9-6.5c-1.1-2.2-2.1-3.9-3-5.2l10.9-4.3c0.2,1.6,0.7,3.6,1.4,5.9
		c0.7,2.3,1.5,4.5,2.3,6.6l2.8,7.1c1,2.5,1.4,4.9,1.1,7.1c-0.3,2.2-1.1,4.1-2.6,5.7C232.3,138.1,230.3,139.4,227.7,140.5z"/>
	<path class="st3" d="M244.2,133.2c-0.2-1.6-0.7-3.6-1.4-6c-0.7-2.4-1.4-4.6-2.3-6.6l-2.5-6.3c-0.8-2.1-1.8-4.2-2.9-6.4
		c-1.1-2.2-2.1-3.9-3.1-5.3l14.4-5.7c1.9-0.8,3.8-1.2,5.5-1.3c1.8-0.1,3.3,0.2,4.7,1c1.4,0.8,2.4,1.9,3.1,3.6
		c0.6,1.5,0.7,2.9,0.4,4.2c-0.3,1.4-1,2.6-2,3.6c-1,1.1-2.3,1.9-3.9,2.6l-0.1,0l0.2,0.5l0.5-0.2c1.7-0.7,3.4-1,4.9-0.9
		c1.6,0,3,0.5,4.2,1.3c1.2,0.8,2.2,2,2.8,3.6c0.7,1.7,0.8,3.4,0.3,5c-0.5,1.6-1.4,3-2.7,4.3c-1.3,1.2-3,2.3-5,3.1L244.2,133.2z
		 M254.4,120.6c0.8-0.3,1.4-0.7,1.8-1.2c0.4-0.5,0.7-1,0.9-1.6c0.1-0.6,0.1-1.3-0.2-2c-0.3-0.7-0.7-1.3-1.2-1.6
		c-0.5-0.3-1.1-0.5-1.8-0.6c-0.7,0-1.4,0.1-2.1,0.4l-3.5,1.4l2.6,6.5L254.4,120.6z M249.8,110.8c1.1-0.4,1.8-1,2.2-1.8
		c0.4-0.8,0.4-1.6,0.1-2.6c-0.4-0.9-0.9-1.5-1.8-1.7c-0.8-0.3-1.8-0.1-2.9,0.3l-2.8,1.1l2.3,5.9L249.8,110.8z"/>
	<path class="st3" d="M100.3,240c-2.7,1.1-5.3,1.4-7.9,1c-2.6-0.4-5-1.5-7.2-3.4c-2.2-1.9-3.9-4.5-5.3-7.8c-1.3-3.2-1.8-6.3-1.4-9.2
		c0.3-2.9,1.3-5.4,3-7.6c1.7-2.2,3.9-3.8,6.7-4.9c1.8-0.7,3.5-1.2,5.1-1.4c1.5-0.2,2.9-0.3,4.1-0.2l3.5,8.8
		c-0.9-0.4-2.1-0.6-3.4-0.5c-1.3,0.1-2.6,0.4-3.9,0.9c-1.7,0.7-2.9,1.5-3.9,2.6c-0.9,1-1.5,2.2-1.6,3.6c-0.2,1.4,0.1,2.8,0.7,4.4
		c0.6,1.6,1.4,2.9,2.3,3.8c0.9,0.9,1.9,1.4,3,1.6c1.1,0.2,2.2,0,3.4-0.4c0.4-0.2,0.8-0.3,1.1-0.5c0.3-0.2,0.6-0.4,0.9-0.6
		c0.3-0.2,0.5-0.4,0.6-0.6l-2.1-5.1l-1.3,0.5c-0.4,0.2-0.9,0.4-1.5,0.7c-0.6,0.3-1,0.6-1.4,0.9l-1.5-4.3l12.6-5l5.7,14.3
		c-0.6,1.2-1.4,2.4-2.4,3.4c-1,1.1-2.2,2-3.6,2.9C103.2,238.7,101.8,239.4,100.3,240z"/>
	<path class="st3" d="M114.9,233.6c-0.3-1.6-0.7-3.5-1.4-5.9c-0.7-2.4-1.5-4.6-2.3-6.7l-2.5-6.3c-0.8-2.1-1.8-4.2-2.9-6.4
		c-1.1-2.2-2.1-3.9-3-5.3l10.8-4.3c0.3,1.6,0.8,3.5,1.5,5.9c0.7,2.3,1.4,4.6,2.3,6.7l2.5,6.3c0.8,2.1,1.8,4.3,2.9,6.4
		c1.1,2.2,2.1,3.9,3,5.3L114.9,233.6z"/>
	<path class="st3" d="M129.1,227.9c-0.2-1.6-0.7-3.6-1.4-5.9c-0.7-2.3-1.5-4.6-2.3-6.7l-2.5-6.3c-0.8-2.1-1.8-4.2-2.9-6.4
		c-1.1-2.2-2.1-3.9-3-5.3l20.6-8.2l5.2,9.1c-0.7-0.2-1.5-0.2-2.6,0c-1.1,0.2-2.5,0.7-4.2,1.4l-5.9,2.4l2,5l3.8-1.5
		c2.2-0.9,3.8-1.6,4.9-2.1l1.9,4.7c-1.2,0.3-2.9,0.9-5.2,1.8l-3.6,1.4l0.4,0.9c0.8,2,1.7,4.1,2.8,6.2c1.1,2.1,2.1,3.8,3,5.1
		L129.1,227.9z"/>
	<path class="st3" d="M159.1,216c-0.2-1.6-0.7-3.6-1.4-5.9c-0.7-2.3-1.5-4.6-2.3-6.7l-3.9-9.7l-2.4,1c-1.1,0.4-2,0.9-2.8,1.4
		s-1.4,1.2-1.9,1.9l-2.7-10.5l21.1-8.4l5.4,9.4c-0.9-0.2-1.8-0.2-2.8,0c-1,0.2-2,0.5-3,0.9l-2.2,0.9l3.9,9.7
		c0.8,2.1,1.8,4.3,2.9,6.5c1.1,2.2,2.1,3.9,3,5.3L159.1,216z"/>
	<path class="st3" d="M191.8,203.6c-2.6,1-5.2,1.4-7.8,1.1c-2.6-0.3-5.1-1.3-7.4-3.2c-2.3-1.8-4.1-4.5-5.5-8
		c-1.4-3.5-1.9-6.8-1.5-9.7c0.4-2.9,1.5-5.4,3.2-7.4c1.7-2,3.9-3.6,6.4-4.6c1.6-0.6,3.2-1.1,4.7-1.4c1.5-0.3,2.9-0.4,4-0.2l3.8,9.5
		c-1-0.4-2.2-0.6-3.6-0.5c-1.4,0.1-2.7,0.3-3.9,0.8c-1.4,0.5-2.5,1.3-3.4,2.2c-0.9,0.9-1.4,2-1.6,3.2c-0.2,1.3,0.1,2.8,0.7,4.5
		c0.7,1.7,1.5,2.9,2.6,3.7c1,0.8,2.2,1.2,3.4,1.2c1.3,0,2.6-0.2,4-0.8c1.5-0.6,2.9-1.4,4-2.4c1.1-1,2-2.1,2.6-3.4l3.9,9.9
		c-1.3,1.2-2.6,2.2-4,3C195.3,202,193.6,202.8,191.8,203.6z"/>
	<path class="st3" d="M201.3,199.1c0.1-1.7,0-3.8-0.2-6.4c-0.2-2.6-0.5-5-0.8-7.2l-0.9-6.9c-0.4-2.2-0.9-4.5-1.5-6.9
		c-0.6-2.4-1.2-4.3-1.8-5.8l15.4-6.1l0.1,0.2c0.6,1.5,1.5,3.3,2.6,5.4c1.2,2.1,2.4,4.1,3.6,5.9l4.1,5.6c1.3,1.9,2.7,3.8,4.3,5.8
		c1.6,2,3,3.6,4.3,4.8l-10.8,4.3c-0.4-1.1-0.9-2.2-1.6-3.5c-0.7-1.3-1.4-2.7-2.3-4.1l-0.5-0.6l-5.7,2.3l0.1,0.8
		c0.1,0.6,0.4,1.8,0.9,3.6c0.6,2,1.1,3.6,1.5,4.6L201.3,199.1z M212.9,179.8l-2.2-2.9c-0.5-0.7-1-1.5-1.5-2.3
		c-0.5-0.8-0.9-1.5-1.4-2.3c-0.1-0.1-0.1-0.3-0.2-0.5c-0.1-0.2-0.2-0.3-0.2-0.5l-0.5,0.2c0.1,0.3,0.1,0.6,0.2,0.8
		c0.1,0.2,0.1,0.5,0.2,0.8c0.2,0.7,0.4,1.5,0.6,2.3c0.2,0.8,0.3,1.6,0.5,2.4l0.3,3.7L212.9,179.8z"/>
	<path class="st3" d="M253.2,179.2c-1.6,0.6-3.1,0.8-4.3,0.4c-1.2-0.4-2.3-1-3.2-2c-0.9-0.9-1.9-2.2-2.9-3.8c-0.8-1.2-1.5-2.1-2-2.7
		c-0.6-0.6-1.2-1.1-1.9-1.5c-0.7-0.3-1.5-0.3-2.3,0c-0.2,0.1-0.3,0.2-0.5,0.3c-0.2,0.1-0.3,0.2-0.4,0.4l0.6,1.4l0.2,0.5
		c0.8,2,1.7,4,2.7,5.9c0.9,1.9,1.9,3.6,2.8,4.9l-10.5,4.2c-0.3-1.7-0.8-3.6-1.5-5.7c-0.7-2.1-1.5-4.4-2.5-6.9l-2.4-5.9
		c-1-2.6-2-4.9-3-7c-1-2.1-1.9-3.7-2.7-4.9l13.9-5.5c2.1-0.8,4.1-1.3,5.9-1.4c1.9-0.1,3.5,0.3,4.9,1.1c1.4,0.8,2.5,2.1,3.1,3.8
		c0.7,1.7,0.8,3.3,0.4,4.7c-0.4,1.5-1.2,2.8-2.5,3.9c-1.3,1.1-2.9,2.1-4.8,2.9l-0.2,0.1l0.1,0.3l0.3-0.1c0.8-0.3,1.6-0.4,2.2-0.3
		c0.7,0.1,1.2,0.4,1.6,0.7c0.4,0.3,0.9,0.8,1.5,1.4c0.4,0.3,0.7,0.6,1.1,0.8c0.4,0.2,0.8,0.3,1.2,0.3c0.4,0,0.8-0.1,1.2-0.2
		c1.1-0.4,1.9-1.1,2.4-2c0.5-0.9,0.8-1.9,0.8-3.1l4.4,10.9c-0.1,0.8-0.4,1.7-1.1,2.5C255,178.2,254.2,178.8,253.2,179.2z
		 M237.2,165.6c0.7-0.3,1.2-0.6,1.7-1c0.4-0.4,0.7-0.9,0.8-1.5c0.1-0.6,0-1.2-0.3-1.8c-0.2-0.6-0.6-1.1-1.1-1.4
		c-0.5-0.3-1-0.5-1.6-0.5c-0.6,0-1.2,0.1-1.9,0.4l-3.1,1.2l2.3,5.9L237.2,165.6z"/>
	<path class="st3" d="M260,175.7c-0.2-1.6-0.7-3.6-1.4-6c-0.7-2.3-1.4-4.6-2.3-6.7l-2.5-6.3c-0.8-2.1-1.8-4.2-2.9-6.4
		c-1.1-2.2-2.1-3.9-3.1-5.3l11.4-4.6c2.8-1.1,5.5-1.5,8.1-1.2c2.6,0.3,4.8,1.4,6.9,3.2c2,1.8,3.7,4.4,5,7.7c1.3,3.4,1.9,6.4,1.7,9.1
		c-0.2,2.7-1.1,5.1-2.7,7.1c-1.6,2-3.9,3.6-6.7,4.7L260,175.7z M268.4,162.5c0.8-0.3,1.5-0.9,2-1.7c0.5-0.8,0.7-1.7,0.7-2.9
		c0-1.2-0.3-2.5-0.9-4.1c-0.6-1.5-1.3-2.7-2.1-3.5c-0.8-0.9-1.6-1.4-2.5-1.6c-0.9-0.2-1.8-0.2-2.6,0.2l-2.2,0.9l5.4,13.6
		L268.4,162.5z"/>
	<path class="st3" d="M292.6,163.5c-1.3,0.5-2.6,0.6-3.7,0.1c-1.1-0.5-1.9-1.3-2.4-2.5c-0.5-1.2-0.4-2.3,0.1-3.4
		c0.5-1.1,1.4-2,2.7-2.5c1.4-0.6,2.7-0.6,3.8-0.1c1.1,0.5,2,1.3,2.4,2.5c0.5,1.2,0.5,2.4,0,3.5C294.9,162.1,294,162.9,292.6,163.5z
		 M275.4,134.2l9.7-3.9l6.4,20.6l-6.7,2.7L275.4,134.2z"/>
</g>
</svg>
