<svg width="144" height="133" viewBox="0 0 144 133" fill="none" xmlns="http://www.w3.org/2000/svg">
<path d="M108.584 113.661C101.861 120.938 94.886 124.167 87.2523 123.539L85.4071 123.386L83.8757 124.427C78.7152 127.962 73.0263 130.372 66.9698 131.612C55.615 133.923 43.7549 131.757 33.5715 125.514L31.9866 124.542L30.1413 124.794C26.6805 125.261 22.967 124.733 19.4143 123.249C12.0793 120.188 5.80081 113.462 3.02144 105.703C-0.531252 95.7943 -0.95238 85.5257 1.76573 75.2035C2.95252 70.7042 5.47921 66.2739 9.06253 62.3868C12.6382 58.5227 17.0255 55.4467 21.7496 53.4878L23.2963 52.8527L24.1768 51.4371C25.6928 49.0192 27.4156 46.7466 29.3144 44.696C35.524 37.9777 43.8238 33.1265 54.6809 29.8669C72.3984 24.5489 89.1282 19.5293 102.673 8.49553L103.155 8.10533C107.037 4.92986 112.91 0.124547 121.156 0.00211871C132.258 -0.158568 142.036 8.83989 143.414 20.4858C144.448 29.1782 141.385 37.4574 134.318 45.1091C130.474 49.2717 125.367 53.2659 119.158 56.9923L115.934 58.9205L116.746 62.5857C118.285 69.5488 117.68 76.2058 114.946 82.3655L114.12 84.2172L114.763 86.1378C117.887 95.4193 116.715 103.614 111.264 110.501C110.375 111.633 109.472 112.697 108.584 113.661Z" fill="white"/>
<path d="M79.4733 51.7049C90.4759 54.5055 101.639 53.0363 111.486 47.3893C120.122 42.4387 132.664 33.226 131.317 21.9091C130.712 16.836 126.416 12.0689 121.309 12.1454C117.09 12.2067 113.607 15.2444 110.337 17.9072C94.9627 30.4408 76.8317 35.9041 58.1648 41.5051C48.2954 44.4664 39.7352 49.0957 34.1535 58.3696C31.2746 63.1519 29.8505 67.8501 31.1521 73.2905" stroke="#12284C" stroke-width="4.5379" stroke-miterlimit="10" stroke-linecap="round" stroke-linejoin="round"/>
<path d="M30.7691 63.4733C21.3438 64.7511 14.5446 72.7472 12.7759 81.6768C11.0073 90.5987 12.9444 100.27 18.2505 107.693C20.8154 111.281 25.6927 114.319 30.0953 112.276C33.9236 110.501 35.6004 112.192 37.6295 113.646C54.7651 125.866 76.8392 121.007 88.2477 102.352" stroke="#12284C" stroke-width="4.5379" stroke-miterlimit="10" stroke-linecap="round" stroke-linejoin="round"/>
<path d="M93.4161 77.5678C96.05 81.2636 99.886 83.8499 102.16 87.8364C108.362 98.7096 96.8387 115.169 84.2817 110.493" stroke="#12284C" stroke-width="4.5379" stroke-miterlimit="10" stroke-linecap="round" stroke-linejoin="round"/>
<path d="M100.491 54.559C105.804 63.6799 108.155 72.8467 100.973 82.1819" stroke="#12284C" stroke-width="4.5379" stroke-miterlimit="10" stroke-linecap="round" stroke-linejoin="round"/>
<path d="M26.9712 93.162C28.135 99.2758 30.677 107.387 36.343 112.712" stroke="#12284C" stroke-width="4.5379" stroke-miterlimit="10" stroke-linecap="round" stroke-linejoin="round"/>
</svg>
