<svg width="417" height="127" viewBox="0 0 417 127" fill="none" xmlns="http://www.w3.org/2000/svg">
<path d="M390.861 62.5038L37.0932 125.975C19.9576 129.051 3.58003 117.665 0.50205 100.541C-2.57593 83.416 8.81718 67.0489 25.9528 63.9729L379.721 0.501728C396.857 -2.57427 413.234 8.81151 416.312 25.9361C419.383 43.0607 407.989 59.4278 390.861 62.5038Z" fill="#7AAFDB"/>
<path d="M41.2201 102.622C39.4207 102.943 37.2386 103.127 34.6583 103.18C32.078 103.226 29.9801 103.15 28.3569 102.936L27.308 95.4827C28.9005 96.2938 30.7841 96.7912 32.9509 96.9595C35.1177 97.1279 37.453 96.9901 39.9567 96.5463C40.9138 96.378 41.7101 96.1867 42.3609 95.9878C43.0117 95.7812 43.5018 95.5592 43.831 95.3067C44.1602 95.0542 44.298 94.7635 44.2368 94.4268C44.1755 94.0748 43.9076 93.8453 43.4482 93.7534C42.9888 93.6616 42.4145 93.631 41.733 93.654C41.0516 93.6846 40.1022 93.7764 38.8695 93.9371C36.5112 94.1666 34.5511 94.2891 32.9662 94.312C31.389 94.335 29.9648 94.0519 28.7015 93.4703C27.4381 92.8888 26.6648 91.8175 26.3891 90.2642C26.1441 88.8946 26.458 87.6856 27.3309 86.622C28.2038 85.5584 29.4901 84.6555 31.1899 83.9056C32.8897 83.1558 34.9034 82.5742 37.2233 82.1534C38.9843 81.8397 40.8143 81.656 42.7208 81.6178C44.6273 81.5719 46.2658 81.679 47.644 81.9315L48.8614 88.7186C47.5674 88.2748 45.9978 88.007 44.1679 87.9228C42.338 87.8386 40.4851 87.9687 38.6168 88.3207C37.721 88.4814 36.9323 88.665 36.2509 88.8716C35.5771 89.0782 35.0488 89.3154 34.6813 89.5756C34.3138 89.8357 34.1606 90.1342 34.2219 90.4709C34.2908 90.8611 34.5818 91.1136 35.0947 91.2284C35.6077 91.3355 36.2432 91.3737 37.0089 91.3355C37.7746 91.2972 38.8006 91.1901 40.0792 91.0141C42.3609 90.7234 44.2674 90.5703 45.7911 90.555C47.3148 90.5397 48.6929 90.7999 49.9257 91.3355C51.1584 91.8711 51.9087 92.8658 52.1691 94.3197C52.4141 95.6664 52.1308 96.883 51.3192 97.9772C50.5076 99.0714 49.2519 100.005 47.5368 100.785C45.837 101.558 43.7314 102.17 41.2201 102.622Z" fill="#12284C"/>
<path d="M55.2319 99.6454C55.362 98.7731 55.3927 97.6636 55.3161 96.3169C55.2396 94.9702 55.0864 93.6694 54.8644 92.4145L53.869 86.9205C53.647 85.7039 53.3407 84.449 52.9502 83.1635C52.552 81.8704 52.1386 80.8221 51.7021 80.011L73.2021 76.1545L75.4838 83.0411C75.0091 82.8575 74.2893 82.7656 73.3323 82.7733C72.3752 82.7809 71.2726 82.8957 70.0169 83.1253L61.0356 84.7398L61.4415 86.9817L68.0109 85.8034C69.5652 85.5279 70.7443 85.2601 71.5482 84.9999L72.1149 88.1448C71.3109 88.1907 70.1165 88.3591 68.5239 88.6422L61.9544 89.8206L62.3449 92.0089L71.1884 90.425C72.6891 90.1572 73.9295 89.8129 74.9325 89.3921C75.9279 88.9712 76.6782 88.5044 77.1836 87.9918L77.375 95.6894L55.2319 99.6454Z" fill="#12284C"/>
<path d="M80.7133 95.0696C80.8358 94.1591 80.8664 93.0419 80.7899 91.7105C80.7133 90.3791 80.5678 89.0936 80.3381 87.8387L79.3504 82.3371C79.1284 81.0822 78.8145 79.8197 78.424 78.5342C78.0335 77.2564 77.62 76.2157 77.1836 75.4276L91.7772 72.8107C93.722 72.4587 95.483 72.4434 97.0526 72.7495C98.6222 73.0555 99.9392 73.6983 101.003 74.6777C102.068 75.6571 102.742 76.9273 103.025 78.4959C103.316 80.1028 103.239 81.549 102.803 82.8192C102.366 84.097 101.593 85.1529 100.475 85.987C99.3573 86.821 97.9484 87.3949 96.2487 87.701C94.8858 87.9458 93.6224 87.9611 92.4739 87.7545C91.3254 87.5479 90.3454 87.15 89.5261 86.5762C88.7069 86.0023 88.056 85.2448 87.5813 84.3036L87.2751 84.3572L87.6885 86.6603C87.9182 87.9535 88.2322 89.2084 88.615 90.4479C88.9978 91.6799 89.396 92.6746 89.8018 93.4321L80.7133 95.0696ZM92.2442 83.768C92.9563 83.6379 93.6071 83.416 94.1967 83.1023C94.7862 82.7809 95.2303 82.3983 95.5213 81.9392C95.8122 81.4801 95.9118 80.9904 95.8199 80.4624C95.7357 79.9804 95.5136 79.5748 95.1691 79.2458C94.8245 78.9244 94.3345 78.7255 93.7143 78.649C93.0941 78.5801 92.3667 78.6184 91.5475 78.7637L90.6516 78.9244C89.84 79.0315 89.1127 79.1693 88.4695 79.3453C87.8264 79.5213 87.1679 79.7126 86.4864 79.9345L86.7161 81.2276C86.8769 81.8933 87.2138 82.4595 87.7268 82.911C88.2398 83.3624 88.8983 83.6685 89.6792 83.8062C90.4755 83.944 91.3254 83.9363 92.2442 83.768Z" fill="#12284C"/>
<path d="M113.216 89.2389C113.346 88.3437 113.369 87.2342 113.284 85.8951C113.2 84.5637 113.039 83.2629 112.817 82.0157L111.707 75.8484L108.675 76.3916C107.496 76.6059 106.501 76.8431 105.689 77.1033C104.877 77.3634 104.142 77.7077 103.484 78.1362L103.545 70.7141L124.877 66.8882L127.457 73.836C126.768 73.6523 125.987 73.5758 125.114 73.6217C124.241 73.66 123.223 73.7824 122.067 73.9966L119.065 74.5323L120.175 80.6996C120.397 81.9545 120.704 83.217 121.087 84.5025C121.469 85.788 121.868 86.821 122.281 87.6168L113.216 89.2389Z" fill="#12284C"/>
<path d="M137.112 80.1795L147.808 72.9639C148.712 72.2829 149.324 71.7166 149.661 71.2728C149.998 70.829 150.121 70.3776 150.044 69.9338C149.975 69.5436 149.707 69.2605 149.255 69.0921C148.804 68.9238 148.229 68.832 147.54 68.8243C146.851 68.809 146.078 68.8855 145.22 69.0386C144.325 69.1992 143.352 69.49 142.318 69.9032C141.285 70.3164 140.251 70.8214 139.225 71.4106C138.199 71.9998 137.296 72.6502 136.522 73.3694C136.522 73.3847 136.507 73.4153 136.461 73.4536C136.415 73.4919 136.392 73.5301 136.385 73.5684L135.152 66.8731C137.15 65.7406 138.965 64.8377 140.603 64.172C142.242 63.4987 144.072 62.986 146.093 62.6187C148.191 62.2438 150.09 62.152 151.797 62.3509C153.505 62.5499 154.906 63.009 156.001 63.7282C157.096 64.4475 157.754 65.4346 157.984 66.6895C158.214 67.9826 157.915 69.1763 157.081 70.2705C156.246 71.3647 154.891 72.39 153.015 73.3465L146.874 76.5602L146.928 76.8663L154.531 75.5043C155.672 75.2977 156.698 74.938 157.609 74.4177C158.52 73.8974 159.155 73.3082 159.523 72.6425L160.94 80.6998L137.947 84.8241L137.112 80.1795Z" fill="#12284C"/>
<path d="M175.441 78.5419C172.953 78.9704 170.694 79.1158 168.688 78.9857C166.674 78.8556 165.059 78.4424 163.834 77.7614C162.609 77.0728 161.897 76.1622 161.69 75.0145C161.529 74.1192 161.782 73.2775 162.44 72.4894C163.099 71.7013 164.048 70.9973 165.273 70.3775C166.506 69.7501 167.884 69.2221 169.408 68.7936L169.354 68.4875C167.854 68.6405 166.506 68.6482 165.304 68.5028C164.102 68.3651 163.129 68.0361 162.387 67.5157C161.644 66.9954 161.208 66.3374 161.054 65.511C160.863 64.4627 161.177 63.4527 161.989 62.4809C162.8 61.5091 164.041 60.6215 165.71 59.8257C167.379 59.0299 169.4 58.4255 171.758 58.0046C174.132 57.5761 176.245 57.446 178.09 57.6067C179.936 57.7674 181.406 58.1653 182.493 58.8004C183.58 59.4355 184.223 60.2772 184.407 61.3255C184.553 62.1519 184.369 62.9323 183.841 63.6669C183.32 64.4091 182.524 65.0519 181.467 65.6028C180.41 66.1537 179.139 66.6128 177.662 66.9954L177.715 67.3015C179.277 67.179 180.732 67.1944 182.087 67.355C183.442 67.5157 184.56 67.8524 185.456 68.3574C186.352 68.8624 186.873 69.5664 187.033 70.4617C187.24 71.6018 186.888 72.696 185.969 73.7519C185.058 74.8079 183.695 75.749 181.873 76.5907C180.051 77.4248 177.907 78.0751 175.441 78.5419ZM173.382 67.0949C174.147 66.9572 174.829 66.7506 175.418 66.4828C176.008 66.2149 176.444 65.9165 176.72 65.5952C177.003 65.2738 177.11 64.9447 177.049 64.6081C176.965 64.1413 176.521 63.8123 175.717 63.6286C174.913 63.445 173.933 63.4603 172.769 63.6669C171.59 63.8811 170.648 64.2102 169.936 64.6693C169.224 65.1284 168.91 65.5875 168.994 66.0543C169.056 66.3909 169.285 66.6587 169.691 66.8577C170.097 67.0566 170.61 67.1791 171.253 67.2326C171.889 67.2862 172.601 67.2403 173.382 67.0949ZM174.4 72.7648C175.319 72.5965 176.1 72.3746 176.743 72.0991C177.386 71.8237 177.853 71.5099 178.144 71.1809C178.435 70.8519 178.542 70.4846 178.473 70.0944C178.404 69.7194 178.167 69.4363 177.754 69.2374C177.34 69.0384 176.796 68.916 176.107 68.8701C175.426 68.8165 174.63 68.8778 173.734 69.0384C172.876 69.1915 172.118 69.4134 171.475 69.7041C170.832 69.9949 170.334 70.301 169.99 70.6377C169.645 70.9743 169.507 71.3263 169.576 71.7012C169.645 72.0915 169.883 72.3976 170.288 72.6042C170.694 72.8108 171.245 72.9332 171.95 72.9714C172.647 72.9944 173.466 72.9332 174.4 72.7648Z" fill="#12284C"/>
<path d="M188.389 66.6051L199.445 64.6233L200.157 68.6099L189.101 70.5917L188.389 66.6051Z" fill="#12284C"/>
<path d="M214.82 71.4717C212.668 71.8543 210.54 72.1068 208.434 72.2139C206.328 72.321 204.46 72.2981 202.829 72.1451L201.727 66.0007L201.819 66.039C203.396 66.4139 205.042 66.6205 206.765 66.6588C208.488 66.697 210.142 66.5746 211.711 66.2915C212.699 66.1155 213.602 65.8936 214.414 65.6334C215.226 65.3733 215.907 65.0213 216.443 64.5852C216.979 64.149 217.209 63.6976 217.124 63.2308C217.048 62.8023 216.81 62.5039 216.412 62.3279C216.014 62.1595 215.478 62.083 214.804 62.0983C214.131 62.1136 213.273 62.2131 212.224 62.4044L206.581 63.4144L206.107 60.7516L211.749 59.7416C212.745 59.6039 213.572 59.4202 214.23 59.1983C214.889 58.9764 215.363 58.7163 215.654 58.4179C215.953 58.1271 216.06 57.7904 215.999 57.4155C215.892 56.7957 215.264 56.459 214.123 56.3902C212.982 56.3289 211.612 56.4361 210.027 56.7192C208.733 56.9487 207.362 57.339 205.907 57.8975C204.453 58.4485 203.159 59.0759 202.033 59.7799C202.002 59.8028 201.972 59.8258 201.941 59.8411C201.918 59.8564 201.895 59.8717 201.88 59.8946L200.831 54.064C202.186 53.4366 203.764 52.8397 205.57 52.2888C207.37 51.7379 209.2 51.2941 211.053 50.9574C213.189 50.5901 215.149 50.4524 216.933 50.5366C218.717 50.6208 220.202 50.9804 221.405 51.6155C222.599 52.2506 223.303 53.1688 223.518 54.3625C223.671 55.2194 223.495 56.0229 222.982 56.7574C222.469 57.4996 221.68 58.1501 220.608 58.7163C219.544 59.2825 218.304 59.6957 216.902 59.9482L215.608 60.1777L215.67 60.5144L216.481 60.369C218.127 60.0706 219.59 59.9788 220.861 60.0859C222.132 60.1931 223.166 60.4991 223.954 61.0118C224.743 61.5168 225.217 62.2208 225.378 63.116C225.608 64.3862 225.271 65.5952 224.36 66.7276C223.449 67.8601 222.14 68.8472 220.424 69.6659C218.709 70.4923 216.841 71.0891 214.82 71.4717Z" fill="#12284C"/>
<path d="M241.005 66.7505C238.532 67.1943 236.235 67.1943 234.107 66.7429C231.978 66.2914 230.194 65.4038 228.747 64.0724C227.3 62.741 226.381 60.9887 225.991 58.8156C225.608 56.7038 225.868 54.7679 226.756 53.0003C227.644 51.2404 229.015 49.7789 230.853 48.6312C232.69 47.4834 234.849 46.6876 237.315 46.2438C239.765 45.8 242.062 45.8153 244.198 46.2668C246.334 46.7259 248.134 47.6135 249.589 48.9296C251.043 50.2534 251.97 52.0056 252.36 54.194C252.743 56.3059 252.475 58.2418 251.579 59.994C250.683 61.7463 249.298 63.2001 247.452 64.3555C245.607 65.5109 243.456 66.3067 241.005 66.7505ZM239.911 60.6597C241.388 60.3919 242.667 60.0017 243.754 59.4814C244.834 58.9611 245.668 58.3259 246.25 57.5837C246.832 56.8415 247.039 56.0075 246.87 55.0663C246.717 54.2246 246.243 53.5513 245.431 53.0386C244.627 52.5259 243.624 52.2275 242.43 52.128C241.235 52.0362 239.895 52.1204 238.417 52.3805C236.955 52.6407 235.669 53.0386 234.543 53.5666C233.425 54.0945 232.591 54.722 232.055 55.4489C231.519 56.1758 231.335 57.0022 231.503 57.9357C231.657 58.7927 232.116 59.4737 232.882 59.9711C233.647 60.4684 234.643 60.7745 235.868 60.8816C237.108 61.0041 238.448 60.9199 239.911 60.6597Z" fill="#12284C"/>
<path d="M260.943 42.441L263.608 41.9666L267.451 63.3685L264.787 63.8429L260.943 42.441Z" fill="#12284C"/>
<path d="M276.532 53.5665L284.365 52.1586L283.324 46.3815C282.244 47.0166 281.111 47.5523 279.932 47.9731C278.753 48.394 277.535 48.7306 276.287 48.9755L275.261 43.2826C276.333 42.9918 277.375 42.6169 278.385 42.1425C279.404 41.6681 280.338 41.1248 281.195 40.5127C282.053 39.9005 282.749 39.2119 283.285 38.4543L288.14 37.582C288.086 38.3472 288.193 39.495 288.469 41.0253L290.276 51.095L296.593 49.9626L297.703 56.1299L277.635 59.7338L276.532 53.5665Z" fill="#12284C"/>
<path d="M298.055 46.9249L309.112 44.9431L309.824 48.9297L298.767 50.9115L298.055 46.9249Z" fill="#12284C"/>
<path d="M324.478 51.799C322.326 52.1816 320.198 52.4341 318.092 52.5412C315.987 52.6483 314.119 52.6254 312.488 52.4723L311.385 46.328L311.477 46.3662C313.047 46.7412 314.7 46.9478 316.423 46.986C318.146 47.0243 319.8 46.9019 321.369 46.6187C322.357 46.4428 323.261 46.2209 324.072 45.9607C324.884 45.7005 325.565 45.3486 326.101 44.9124C326.645 44.4763 326.867 44.0248 326.783 43.558C326.706 43.1295 326.469 42.8311 326.071 42.6551C325.672 42.4868 325.136 42.4103 324.463 42.4256C323.789 42.4409 322.931 42.5404 321.882 42.7317L316.239 43.7417L315.765 41.0789L321.408 40.0689C322.403 39.9311 323.23 39.7475 323.888 39.5256C324.547 39.3037 325.022 39.0435 325.313 38.7451C325.611 38.4543 325.726 38.1177 325.657 37.7427C325.55 37.1229 324.922 36.7863 323.781 36.7174C322.64 36.6485 321.27 36.7633 319.685 37.0464C318.391 37.276 317.02 37.6662 315.566 38.2171C314.111 38.7681 312.817 39.3955 311.691 40.0995C311.661 40.1224 311.63 40.1454 311.6 40.1607C311.577 40.176 311.554 40.1913 311.538 40.2142L310.489 34.3836C311.844 33.7562 313.422 33.1593 315.229 32.6084C317.028 32.0575 318.858 31.6137 320.711 31.277C322.847 30.9097 324.807 30.772 326.591 30.8562C328.375 30.9403 329.861 31.3 331.055 31.9351C332.25 32.5702 332.954 33.4884 333.168 34.682C333.321 35.539 333.145 36.3425 332.632 37.077C332.119 37.8192 331.331 38.4697 330.259 39.0359C329.195 39.6021 327.962 40.0153 326.553 40.2678L325.259 40.4973L325.32 40.834L326.132 40.6886C327.778 40.3902 329.24 40.2984 330.511 40.4055C331.782 40.5127 332.816 40.8187 333.605 41.3237C334.393 41.8288 334.868 42.5327 335.029 43.428C335.259 44.6982 334.922 45.9071 334.011 47.0396C333.107 48.1797 331.79 49.1591 330.075 49.9779C328.368 50.8196 326.499 51.4164 324.478 51.799Z" fill="#12284C"/>
<path d="M339.164 54.4925C339.294 53.582 339.309 52.4801 339.225 51.1793C339.141 49.8785 338.98 48.593 338.743 47.2999L337.778 41.9131C337.556 40.6582 337.249 39.388 336.874 38.0949C336.499 36.8017 336.086 35.7228 335.642 34.8582L344.569 33.2589C344.401 33.8328 344.286 34.422 344.24 35.0418C344.186 35.6616 344.209 36.2278 344.301 36.7558L344.347 37.0083L344.768 36.9318C345.082 35.5851 345.794 34.4373 346.905 33.4961C348.007 32.555 349.431 31.9275 351.169 31.6138C352.8 31.3231 354.27 31.3919 355.595 31.8204C356.919 32.2489 357.991 32.9682 358.818 33.9782C359.645 34.9882 360.189 36.2125 360.449 37.651C360.709 39.1125 360.633 40.4592 360.22 41.6912C359.806 42.9231 359.048 43.9637 357.953 44.8207C356.858 45.6701 355.48 46.2516 353.818 46.55C352.08 46.8637 350.534 46.7643 349.171 46.2516C347.816 45.7389 346.744 44.9202 345.963 43.7878L345.572 43.8566L345.963 46.0144C346.185 47.2693 346.491 48.5242 346.882 49.7714C347.272 51.0263 347.678 52.0669 348.091 52.901L339.164 54.4925ZM350.005 42.7624C350.848 42.6094 351.56 42.3416 352.134 41.959C352.708 41.5764 353.145 41.1173 353.42 40.5817C353.704 40.046 353.788 39.4645 353.673 38.8294C353.566 38.2173 353.283 37.7123 352.838 37.3144C352.394 36.9241 351.828 36.6487 351.154 36.5033C350.48 36.3502 349.722 36.3579 348.88 36.5033C348.053 36.6487 347.356 36.9088 346.774 37.2684C346.192 37.6281 345.764 38.0948 345.503 38.6381C345.235 39.189 345.151 39.7553 345.258 40.3291C345.366 40.9489 345.649 41.4693 346.093 41.8901C346.537 42.311 347.104 42.5941 347.793 42.7395C348.482 42.8848 349.217 42.9002 350.005 42.7624Z" fill="#12284C"/>
<path d="M363.611 44.3156C363.719 43.3133 363.765 42.3797 363.742 41.5074C363.719 40.6428 363.604 39.6328 363.397 38.4697L363.014 36.1665C362.807 35.0111 362.539 33.9552 362.218 33.0064C361.896 32.0652 361.521 31.1546 361.092 30.2823L369.875 28.7061C369.721 29.1575 369.63 29.6855 369.591 30.29C369.553 30.8945 369.584 31.476 369.691 32.0422L369.767 32.4631L370.104 32.4019C370.372 30.9863 370.969 29.8309 371.903 28.9509C372.838 28.071 374.063 27.4971 375.579 27.2216C377.301 26.9156 378.733 27.0304 379.874 27.5813C381.015 28.1322 381.903 28.9892 382.539 30.1675L382.876 30.1063C383.021 29.1958 383.373 28.3694 383.925 27.6272C384.476 26.8926 385.15 26.2958 385.938 25.8367C386.727 25.3776 387.63 25.0562 388.664 24.8726C390.869 24.4747 392.622 24.7654 393.916 25.7372C395.21 26.709 396.037 28.1781 396.39 30.1446L396.719 31.9657C396.933 33.1441 397.194 34.223 397.523 35.2101C397.844 36.1971 398.235 37.1306 398.702 38.0106L389.751 39.6175C389.881 38.6074 389.927 37.6433 389.897 36.7251C389.866 35.7992 389.751 34.7663 389.537 33.6032L389.292 32.2335C389.131 31.3383 388.786 30.642 388.266 30.1599C387.745 29.6779 387.025 29.5172 386.107 29.6779C385.509 29.785 384.989 30.0222 384.537 30.3818C384.093 30.7414 383.771 31.2006 383.58 31.7668C383.389 32.333 383.366 32.9222 383.488 33.5343L383.664 34.5138C383.871 35.6692 384.131 36.7175 384.445 37.6433C384.759 38.5692 385.134 39.4797 385.586 40.3597L376.743 41.9436C376.842 41.0177 376.888 40.1072 376.857 39.2196C376.834 38.3243 376.704 37.2378 376.475 35.9446L376.23 34.575C376.069 33.6797 375.732 32.9834 375.219 32.5013C374.706 32.0116 373.971 31.8586 373.021 32.0269C372.363 32.1417 371.827 32.3789 371.398 32.7385C370.969 33.0905 370.663 33.542 370.479 34.0776C370.296 34.6132 370.265 35.233 370.395 35.9446L370.594 37.0388C370.778 38.0489 371.038 39.0742 371.375 40.1148C371.72 41.1555 372.087 42.0278 372.485 42.7241L363.611 44.3156Z" fill="#12284C"/>
</svg>
