<svg width="161" height="161" viewBox="0 0 161 161" fill="none" xmlns="http://www.w3.org/2000/svg">
<path d="M109.766 5.53222L117.047 21.8916L134.949 21.2183L135.822 39.1004L152.758 44.931L147.115 61.9255L160.797 73.4797L149.397 87.2834L157.98 103L142.353 111.754L144.673 129.506L126.94 132.023L122.69 149.423L105.241 145.368L94.9885 160.052L80.1805 149.974L65.319 159.967L55.1509 145.222L37.6784 149.178L33.5285 131.763L15.8034 129.138L18.2305 111.402L2.65684 102.556L11.3319 86.8855L0 73.0206L13.7513 61.5429L8.20025 44.5178L25.1751 38.779L26.1552 20.9046L44.0488 21.6851L51.4221 5.36388L67.838 12.5489L80.6093 0L93.3117 12.6254L109.766 5.53222Z" fill="#BFDCE1"/>
<path d="M50.1742 56.5233L69.5455 53.6463C71.5516 53.2101 72.9604 52.774 73.7567 52.3379C74.5606 51.9017 75.0966 51.3431 75.3646 50.6468C75.6479 49.9199 75.6019 49.2313 75.2267 48.5809C74.8439 47.9381 74.2467 47.326 73.4121 46.7521C72.5852 46.1782 71.5898 45.6656 70.426 45.2141C69.132 44.7091 67.6696 44.3495 66.0541 44.1352C64.4308 43.921 62.7235 43.8903 60.9318 44.0281C59.1325 44.1658 57.4097 44.5101 55.7406 45.0458C55.6946 45.0687 55.6334 45.0993 55.5568 45.1452C55.4802 45.1911 55.4113 45.1988 55.3424 45.1758L59.9211 33.3156C63.5733 33.1703 66.6742 33.2238 69.2163 33.4763C71.7583 33.7212 74.4764 34.4098 77.363 35.5423C80.2495 36.6671 82.6384 38.0903 84.5372 39.8043C86.4284 41.5183 87.7148 43.4159 88.3962 45.4972C89.0777 47.5785 89.0088 49.6444 88.2048 51.7028C87.286 54.0595 85.6551 55.8117 83.3122 56.9595C80.9693 58.1073 77.9602 58.6352 74.285 58.5434L65.8167 58.9107L65.6559 59.4769L74.9664 63.1115C76.8576 63.8537 78.611 64.2363 80.2189 64.2746C81.8268 64.3128 83.2127 64.022 84.3765 63.4022L78.8406 77.1295L46.9736 64.6878L50.1742 56.5233Z" fill="#12284C"/>
<path d="M97.2778 85.1791C93.8935 83.8554 91.0988 81.9501 88.8936 79.4709C86.6885 76.9841 85.3103 74.0688 84.7667 70.7174C84.2231 67.3659 84.6978 63.7695 86.2061 59.9207C87.6992 56.1102 89.7895 53.1337 92.4693 51.0141C95.1568 48.8869 98.1506 47.6703 101.451 47.3489C104.751 47.0275 108.097 47.5326 111.481 48.8563C114.934 50.203 117.759 52.1083 119.949 54.5722C122.147 57.036 123.51 59.9513 124.053 63.3104C124.597 66.6772 124.114 70.2812 122.606 74.13C121.113 77.9482 119.038 80.9094 116.373 83.0213C113.709 85.1332 110.723 86.3575 107.415 86.6941C104.108 87.0385 100.731 86.5258 97.2778 85.1791ZM101.497 74.3825C103.518 75.1707 105.432 75.6144 107.231 75.7063C109.031 75.7981 110.616 75.4614 111.986 74.6962C113.357 73.9311 114.352 72.7527 114.972 71.1611C115.593 69.5696 115.654 68.0469 115.156 66.5854C114.651 65.1316 113.717 63.8078 112.346 62.6218C110.976 61.4358 109.276 60.4487 107.247 59.6606C105.218 58.8725 103.304 58.4439 101.489 58.3904C99.6743 58.3368 98.1046 58.6658 96.7647 59.3851C95.4325 60.1044 94.4448 61.2827 93.8093 62.9049C93.1891 64.4965 93.1048 66.0268 93.5719 67.4883C94.0313 68.9498 94.9654 70.2659 96.3589 71.4442C97.7601 72.6073 99.4752 73.5944 101.497 74.3825Z" fill="#12284C"/>
<path d="M35.0369 95.2259L54.4082 92.3488C56.4143 91.9127 57.8231 91.4766 58.6194 91.0404C59.4233 90.6043 59.9593 90.0457 60.2273 89.3494C60.5106 88.6224 60.4646 87.9338 60.0894 87.2834C59.7066 86.6406 59.1094 86.0285 58.2748 85.4546C57.4479 84.8807 56.4525 84.3681 55.2887 83.9166C53.9947 83.4116 52.5323 83.052 50.9167 82.8377C49.2935 82.6235 47.5861 82.5929 45.7945 82.7306C43.9952 82.8683 42.2724 83.2127 40.6033 83.7483C40.5573 83.7712 40.4961 83.8018 40.4195 83.8478C40.3429 83.8937 40.274 83.9013 40.2051 83.8783L44.7838 72.0182C48.436 71.8728 51.5369 71.9263 54.0789 72.1789C56.621 72.4237 59.3391 73.1124 62.2256 74.2448C65.1122 75.3696 67.5011 76.7929 69.3999 78.5069C71.2911 80.2208 72.5775 82.1185 73.2589 84.1997C73.9403 86.281 73.8714 88.347 73.0675 90.4053C72.1487 92.762 70.5178 94.5143 68.1749 95.662C65.8319 96.8098 62.8228 97.3378 59.1476 97.246L50.6794 97.6132L50.5186 98.1794L59.8291 101.814C61.7203 102.556 63.4737 102.939 65.0816 102.977C66.6894 103.015 68.0753 102.725 69.2392 102.105L63.7034 115.832L31.8364 103.39L35.0369 95.2259Z" fill="#12284C"/>
<path d="M82.1482 123.889C78.764 122.566 75.9693 120.66 73.7641 118.181C71.559 115.694 70.1809 112.779 69.6373 109.428C69.0937 106.076 69.5684 102.48 71.0767 98.6309C72.5698 94.8204 74.66 91.8438 77.3398 89.7243C80.0273 87.5971 83.021 86.3805 86.3211 86.0591C89.6211 85.7378 92.967 86.2427 96.3512 87.5665C99.8044 88.9132 102.63 90.8185 104.82 93.2824C107.017 95.7462 108.38 98.6615 108.924 102.021C109.467 105.387 108.985 108.991 107.476 112.84C105.983 116.658 103.908 119.62 101.244 121.732C98.5793 123.843 95.5933 125.068 92.2856 125.404C88.9779 125.741 85.5937 125.236 82.1482 123.889ZM86.367 113.085C88.3884 113.873 90.3026 114.317 92.1019 114.409C93.9012 114.501 95.4861 114.164 96.8566 113.399C98.2272 112.634 99.2225 111.455 99.8427 109.864C100.463 108.272 100.524 106.749 100.026 105.288C99.5211 103.834 98.587 102.51 97.2165 101.324C95.8459 100.138 94.1462 99.1512 92.1172 98.3631C90.0882 97.575 88.174 97.1465 86.3594 97.0929C84.5448 97.0394 82.9751 97.3684 81.6352 98.0876C80.3029 98.8069 79.3152 99.9853 78.6797 101.607C78.0595 103.199 77.9754 104.729 78.4424 106.191C78.9018 107.652 79.8359 108.968 81.2294 110.147C82.6305 111.318 84.338 112.297 86.367 113.085Z" fill="#12284C"/>
</svg>
