<?xml version="1.0" encoding="utf-8"?>
<!-- Generator: Adobe Illustrator 23.0.6, SVG Export Plug-In . SVG Version: 6.00 Build 0)  -->
<svg version="1.1" id="Layer_1" xmlns="http://www.w3.org/2000/svg" xmlns:xlink="http://www.w3.org/1999/xlink" x="0px" y="0px"
	 viewBox="0 0 263.4 149.3" style="enable-background:new 0 0 263.4 149.3;" xml:space="preserve">
<style type="text/css">
	.st0{fill:#7AAFDB;}
	.st1{fill:none;stroke:#12284C;stroke-width:3;stroke-miterlimit:10;stroke-dasharray:9.93,9.93;}
	.st2{fill:#12284C;}
</style>
<path class="st0" d="M261.6,125.4c11.8-30.3-36.7-77.5-108.5-105.5C81.4-8.1,13.6-6.3,1.8,23.9c-11.8,30.3,36.7,77.5,108.5,105.5
	C182,157.5,249.8,155.6,261.6,125.4z"/>
<path class="st0" d="M261.6,125.4c11.8-30.3-36.7-77.5-108.5-105.5C81.4-8.1,13.6-6.3,1.8,23.9c-11.8,30.3,36.7,77.5,108.5,105.5
	C182,157.5,249.8,155.6,261.6,125.4z"/>
<path class="st1" d="M114.6,118.4C81.1,105.3,52,87.7,32.4,68.7C16.2,52.9,8.3,37.3,12,27.9s20-15.5,42.7-16.1
	c27.2-0.7,60.7,6.1,94.1,19.1C182.3,44,211.4,61.6,231,80.6c16.2,15.8,24.1,31.4,20.4,40.8s-20,15.5-42.7,16.1
	C181.5,138.2,148.1,131.5,114.6,118.4z"/>
<path class="st2" d="M69,66.5c-1.5-0.6-2.9-1.2-4.1-1.9c-1.2-0.7-2.6-1.5-4.3-2.4c-1.9-1.1-3.6-2-4.9-2.8c-1.4-0.7-3-1.5-4.9-2.2
	c-2.4-0.9-4.6-1.6-6.5-2.1c-2-0.5-3.6-0.7-4.7-0.7l3.5-9.1l26.7-2.8l0.2-0.4l-12.9-5c-2.1-0.8-3.9-1.4-5.5-1.7c-1.5-0.3-2.9-0.3-4,0
	l6.5-10.8l32.6,12.7l-3.5,8.9l-26.4,2.9l-0.1,0.4l13.3,5.2c1.9,0.7,3.9,1.2,5.9,1.5c2.1,0.3,3.7,0.2,5.1,0L76,67.8c0,0-0.1,0-0.2,0
	c-0.1,0-0.2,0-0.2,0c-0.9,0-1.9-0.1-3-0.3C71.5,67.3,70.3,67,69,66.5z"/>
<path class="st2" d="M97.6,77.1c-3.9-1.5-7.2-3.5-9.8-5.9c-2.6-2.4-4.3-5.1-5-8.2c-0.8-3-0.5-6.2,0.8-9.5c1.3-3.2,3.2-5.7,5.9-7.4
	c2.6-1.7,5.7-2.6,9.2-2.6c3.5,0,7.3,0.7,11.2,2.3c3.9,1.5,7.1,3.5,9.7,5.9c2.6,2.4,4.2,5.1,5,8.2c0.8,3.1,0.5,6.2-0.7,9.4
	c-1.3,3.3-3.3,5.8-5.9,7.5c-2.7,1.7-5.7,2.6-9.2,2.6C105.2,79.4,101.5,78.7,97.6,77.1z M101,68.4c1.7,0.7,3.3,0.9,4.8,0.9
	c1.5-0.1,2.9-0.5,4-1.2c1.1-0.8,2-1.9,2.5-3.3c0.6-1.4,0.7-2.8,0.4-4.1c-0.3-1.3-1-2.5-2.1-3.6c-1.1-1.1-2.5-1.9-4.2-2.6
	c-1.7-0.7-3.3-1-4.9-1c-1.5,0-2.9,0.4-4,1.2c-1.1,0.8-2,1.9-2.5,3.3c-0.6,1.4-0.7,2.8-0.4,4.1c0.3,1.3,1,2.5,2.1,3.6
	C97.9,66.9,99.3,67.7,101,68.4z"/>
<path class="st2" d="M139.7,93.6c-3.9-1.5-7.2-3.5-9.8-5.9c-2.6-2.4-4.3-5.1-5-8.2c-0.8-3-0.5-6.2,0.8-9.5c1.3-3.2,3.2-5.7,5.9-7.4
	c2.6-1.7,5.7-2.6,9.2-2.6c3.5,0,7.3,0.7,11.2,2.3c3.9,1.5,7.1,3.5,9.7,5.9c2.6,2.4,4.2,5.1,5,8.2c0.8,3.1,0.5,6.2-0.7,9.4
	c-1.3,3.3-3.3,5.8-5.9,7.5c-2.7,1.7-5.7,2.6-9.2,2.6C147.3,95.9,143.6,95.1,139.7,93.6z M143.1,84.9c1.7,0.7,3.3,0.9,4.8,0.9
	c1.5-0.1,2.9-0.5,4-1.2c1.1-0.8,2-1.9,2.5-3.3c0.6-1.4,0.7-2.8,0.4-4.1c-0.3-1.3-1-2.5-2.1-3.6c-1.1-1.1-2.5-1.9-4.1-2.6
	c-1.7-0.7-3.3-1-4.9-1c-1.5,0-2.9,0.4-4,1.2c-1.1,0.8-2,1.9-2.5,3.3c-0.6,1.4-0.7,2.8-0.4,4.1c0.3,1.3,1,2.5,2.1,3.6
	C140,83.3,141.4,84.2,143.1,84.9z"/>
<path class="st2" d="M163.4,102.1c0.9-1.1,1.9-2.6,2.9-4.5c1-1.9,1.9-3.8,2.7-5.8l3.3-8.4c0.7-1.9,1.4-3.8,1.9-6
	c0.5-2.1,0.9-3.9,0.9-5.4l15,5.9l1.9,14.6c0.1,0.4,0.2,0.8,0.2,1.2c0.1,0.4,0.1,0.8,0.2,1.2c0,0.7,0,1.4,0,2.2c0,0.8,0,1.7,0,2.6
	l0.5,0.2c0.7-0.9,1.3-1.6,1.9-2.1c0.6-0.6,1.2-1.2,2-2c0.2-0.1,0.4-0.3,0.6-0.4s0.5-0.3,0.7-0.6l11.3-9.3l14.7,5.7
	c-0.9,1.1-1.9,2.7-2.9,4.6c-1,1.9-1.9,3.8-2.6,5.7l-3.3,8.4c-0.8,1.9-1.4,3.9-1.9,6.1c-0.5,2.1-0.9,3.9-1,5.3l-13.9-5.4
	c0.8-1.1,1.7-2.6,2.8-4.7c1.1-2.1,2.1-4.1,2.8-5.9l2.4-6.1l-0.6-0.2l-16.6,13.4l-3-1.2l-3-21.1l-0.4-0.2l-2.4,6.1
	c-0.8,2-1.4,4.1-2,6.3c-0.6,2.3-0.9,4-1,5.3L163.4,102.1z"/>
</svg>
