<svg width="1440" height="810" viewBox="0 0 1440 810" fill="none" xmlns="http://www.w3.org/2000/svg">
<path d="M1032.39 172.638C1097.78 172.638 1150.79 119.665 1150.79 54.3189C1150.79 -11.0268 1097.78 -64 1032.39 -64C967.007 -64 914 -11.0268 914 54.3189C914 119.665 967.007 172.638 1032.39 172.638Z" fill="#00609C"/>
<path d="M1072.55 130.178C1073.72 126.284 1050.01 115.725 1019.59 106.594C989.176 97.4616 963.568 93.215 962.398 97.1084C961.228 101.002 984.937 111.561 1015.36 120.693C1045.77 129.825 1071.38 134.071 1072.55 130.178Z" fill="#1C122D"/>
<path d="M1016.51 110.773L1016.54 110.781C1016.48 110.911 1016.44 111.041 1016.39 111.171C1015.73 113.352 1051.62 124.133 1052.28 121.945C1053.64 117.408 1043.02 110.2 1034.43 107.621C1031.68 106.795 1029 106.397 1026.55 106.381L1033.79 82.3243L1025.79 79.9216L1016.51 110.773Z" fill="#FFCD00" stroke="#160E23" stroke-width="1.5907" stroke-miterlimit="10" stroke-linecap="round" stroke-linejoin="round"/>
<path d="M1088.55 41.9208L998.32 14.8325L982.651 66.9571L1072.88 94.0454L1088.55 41.9208Z" fill="#FFCD00" stroke="#160E23" stroke-width="1.5907" stroke-miterlimit="10" stroke-linecap="round" stroke-linejoin="round"/>
<path d="M1088.56 41.9385L998.323 14.8436L988.591 1.56787L1078.82 28.655L1088.56 41.9385Z" fill="#FFCD00" stroke="#160E23" stroke-width="1.5907" stroke-miterlimit="10" stroke-linecap="round" stroke-linejoin="round"/>
<path d="M972.918 53.6839L982.65 66.9673L998.323 14.8436L988.591 1.56787L972.918 53.6839Z" fill="#160E23" stroke="#160E23" stroke-width="1.5907" stroke-miterlimit="10" stroke-linecap="round" stroke-linejoin="round"/>
<path d="M1016.51 110.774L1016.49 110.766C1016.47 110.904 1016.44 111.034 1016.39 111.172C1015.73 113.352 979.847 102.579 980.506 100.398C981.868 95.8604 994.701 95.6997 1003.3 98.2784C1006.05 99.1047 1008.51 100.253 1010.56 101.584L1017.79 77.5269L1025.79 79.9295L1016.51 110.774Z" fill="#FFCD00" stroke="#160E23" stroke-width="1.5907" stroke-miterlimit="10" stroke-linecap="round" stroke-linejoin="round"/>
<path d="M1015.67 66.1111C1025.42 66.1111 1033.33 58.2112 1033.33 48.4662C1033.33 38.7212 1025.42 30.8213 1015.67 30.8213C1005.92 30.8213 998.017 38.7212 998.017 48.4662C998.017 58.2112 1005.92 66.1111 1015.67 66.1111Z" fill="white" stroke="#160E23" stroke-width="1.5907" stroke-miterlimit="10" stroke-linecap="round" stroke-linejoin="round"/>
<path d="M1015.67 55.0305C1019.3 55.0305 1022.24 52.0912 1022.24 48.4653C1022.24 44.8395 1019.3 41.9001 1015.67 41.9001C1012.04 41.9001 1009.1 44.8395 1009.1 48.4653C1009.1 52.0912 1012.04 55.0305 1015.67 55.0305Z" fill="#160E23"/>
<path d="M998.759 43.3924C1001.56 34.0572 1011.42 28.7622 1020.75 31.5704C1030.09 34.3709 1035.39 44.2187 1032.58 53.5462L998.759 43.3924Z" fill="#FFCD00" stroke="#160E23" stroke-width="1.5907" stroke-miterlimit="10" stroke-linecap="round" stroke-linejoin="round"/>
<path d="M1055.53 78.0784C1065.28 78.0784 1073.19 70.1785 1073.19 60.4335C1073.19 50.6885 1065.28 42.7886 1055.53 42.7886C1045.78 42.7886 1037.88 50.6885 1037.88 60.4335C1037.88 70.1785 1045.78 78.0784 1055.53 78.0784Z" fill="white" stroke="#160E23" stroke-width="1.5907" stroke-miterlimit="10" stroke-linecap="round" stroke-linejoin="round"/>
<path d="M1055.53 66.9978C1059.16 66.9978 1062.1 64.0585 1062.1 60.4326C1062.1 56.8068 1059.16 53.8674 1055.53 53.8674C1051.91 53.8674 1048.96 56.8068 1048.96 60.4326C1048.96 64.0585 1051.91 66.9978 1055.53 66.9978Z" fill="#160E23"/>
<path d="M1038.62 55.3596C1041.43 46.0245 1051.28 40.7295 1060.61 43.5377C1069.95 46.3459 1075.25 56.186 1072.44 65.5135L1038.62 55.3596Z" fill="#FFCD00" stroke="#160E23" stroke-width="1.5907" stroke-miterlimit="10" stroke-linecap="round" stroke-linejoin="round"/>
<path d="M1037.2 73.6396C1037.2 73.6396 1033.63 74.5731 1029.89 73.4483C1026.16 72.3312 1023.69 69.5842 1023.69 69.5842" fill="#FFCD00"/>
<path d="M1037.2 73.6396C1037.2 73.6396 1033.63 74.5731 1029.89 73.4483C1026.16 72.3312 1023.69 69.5842 1023.69 69.5842" stroke="#160E23" stroke-width="1.5907" stroke-miterlimit="10" stroke-linecap="round" stroke-linejoin="round"/>
<path d="M985.506 136.415L991.378 135.053C991.983 134.869 992.404 134.701 992.642 134.547C992.879 134.394 993.025 134.211 993.093 133.989C993.162 133.759 993.132 133.545 993.002 133.361C992.871 133.17 992.672 133.002 992.397 132.849C992.129 132.696 991.807 132.558 991.44 132.451C991.026 132.329 990.574 132.252 990.077 132.229C989.571 132.206 989.051 132.237 988.499 132.321C987.956 132.405 987.427 132.558 986.93 132.757C986.915 132.765 986.899 132.78 986.876 132.795C986.853 132.811 986.83 132.818 986.815 132.811L987.925 129.061C989.043 128.931 989.992 128.87 990.781 128.878C991.57 128.885 992.42 129.031 993.331 129.306C994.242 129.582 995.015 129.956 995.635 130.439C996.256 130.921 996.7 131.464 996.96 132.091C997.22 132.711 997.251 133.346 997.06 133.997C996.838 134.739 996.378 135.32 995.689 135.734C995 136.147 994.089 136.376 992.963 136.437L990.375 136.759L990.337 136.935L993.285 137.822C993.882 138.006 994.433 138.075 994.923 138.052C995.421 138.021 995.835 137.899 996.179 137.685L994.824 142.031L984.74 139.001L985.506 136.415Z" fill="#FFCD00"/>
<path d="M1001.29 144.227C1000.22 143.905 999.318 143.393 998.583 142.681C997.848 141.977 997.351 141.113 997.098 140.103C996.845 139.093 996.906 137.975 997.274 136.759C997.634 135.55 998.2 134.593 998.974 133.874C999.747 133.155 1000.64 132.703 1001.64 132.527C1002.64 132.351 1003.68 132.42 1004.75 132.742C1005.84 133.071 1006.76 133.583 1007.5 134.287C1008.23 134.991 1008.72 135.848 1008.97 136.866C1009.23 137.884 1009.16 139.001 1008.8 140.217C1008.44 141.426 1007.87 142.383 1007.11 143.102C1006.34 143.821 1005.45 144.265 1004.45 144.449C1003.43 144.625 1002.38 144.556 1001.29 144.227ZM1002.32 140.814C1002.96 141.005 1003.56 141.097 1004.11 141.074C1004.67 141.059 1005.15 140.914 1005.54 140.646C1005.94 140.378 1006.22 139.988 1006.37 139.49C1006.52 138.985 1006.5 138.519 1006.32 138.083C1006.13 137.646 1005.8 137.264 1005.35 136.935C1004.9 136.606 1004.36 136.346 1003.71 136.154C1003.07 135.963 1002.47 135.879 1001.91 135.909C1001.35 135.94 1000.88 136.078 1000.49 136.33C1000.1 136.583 999.824 136.965 999.67 137.486C999.517 137.991 999.533 138.457 999.709 138.894C999.885 139.33 1000.21 139.712 1000.66 140.041C1001.13 140.363 1001.68 140.623 1002.32 140.814Z" fill="#FFCD00"/>
<path d="M1008.41 143.293L1014.28 141.931C1014.88 141.748 1015.31 141.579 1015.54 141.426C1015.78 141.273 1015.93 141.09 1015.99 140.868C1016.06 140.638 1016.03 140.424 1015.9 140.24C1015.77 140.049 1015.57 139.881 1015.3 139.728C1015.02 139.575 1014.71 139.437 1014.34 139.33C1013.93 139.207 1013.48 139.131 1012.97 139.108C1012.46 139.085 1011.94 139.116 1011.39 139.2C1010.84 139.284 1010.32 139.437 1009.83 139.644C1009.82 139.651 1009.8 139.659 1009.78 139.674C1009.75 139.689 1009.73 139.697 1009.72 139.689L1010.83 135.94C1011.94 135.81 1012.89 135.749 1013.68 135.756C1014.47 135.772 1015.32 135.917 1016.23 136.185C1017.14 136.453 1017.92 136.835 1018.54 137.317C1019.16 137.8 1019.6 138.35 1019.86 138.97C1020.12 139.59 1020.15 140.225 1019.96 140.876C1019.74 141.618 1019.28 142.199 1018.59 142.612C1017.9 143.026 1016.99 143.255 1015.86 143.324L1013.28 143.645L1013.24 143.821L1016.19 144.709C1016.78 144.885 1017.33 144.962 1017.82 144.931C1018.32 144.9 1018.74 144.778 1019.08 144.564L1017.72 148.91L1007.65 145.88L1008.41 143.293Z" fill="#FFCD00"/>
<path d="M1024.19 151.106C1023.12 150.784 1022.22 150.272 1021.48 149.56C1020.75 148.849 1020.25 147.992 1020 146.981C1019.75 145.971 1019.81 144.854 1020.18 143.638C1020.53 142.429 1021.1 141.472 1021.87 140.753C1022.65 140.034 1023.54 139.582 1024.54 139.406C1025.54 139.23 1026.58 139.299 1027.66 139.621C1028.75 139.95 1029.66 140.462 1030.4 141.166C1031.13 141.87 1031.62 142.727 1031.87 143.745C1032.13 144.763 1032.07 145.88 1031.7 147.096C1031.34 148.305 1030.77 149.262 1030.01 149.981C1029.24 150.693 1028.35 151.144 1027.35 151.328C1026.33 151.504 1025.28 151.427 1024.19 151.106ZM1025.22 147.685C1025.86 147.877 1026.46 147.969 1027.01 147.953C1027.56 147.938 1028.05 147.793 1028.44 147.525C1028.84 147.257 1029.12 146.867 1029.27 146.369C1029.42 145.864 1029.4 145.398 1029.22 144.961C1029.03 144.525 1028.7 144.143 1028.26 143.814C1027.81 143.485 1027.27 143.225 1026.62 143.033C1025.98 142.842 1025.38 142.758 1024.82 142.788C1024.26 142.819 1023.79 142.957 1023.4 143.209C1023.01 143.462 1022.73 143.852 1022.58 144.365C1022.43 144.87 1022.44 145.336 1022.62 145.773C1022.79 146.209 1023.12 146.591 1023.57 146.92C1024.03 147.234 1024.58 147.494 1025.22 147.685Z" fill="#FFCD00"/>
<path d="M933.287 32.2281C933.601 31.8838 933.961 31.4323 934.374 30.8814C934.78 30.3305 935.155 29.7949 935.492 29.2745L937.161 26.9714C937.491 26.4587 937.782 25.9154 938.057 25.3415C938.325 24.7677 938.54 24.2626 938.7 23.8188L944.068 25.4257V25.4793C943.953 25.9613 943.846 26.5123 943.754 27.1244C943.662 27.7442 943.616 28.3334 943.616 28.9073L943.754 31.7461C943.746 32.3659 943.761 33.0163 943.8 33.6973C943.83 34.3783 943.884 34.9521 943.96 35.4113L940.347 34.3247C940.4 34.0722 940.454 33.7738 940.507 33.4294C940.561 33.0851 940.599 32.6872 940.63 32.2358L940.607 31.945L938.027 31.1722L937.835 31.417C937.743 31.5548 937.598 31.8302 937.383 32.2434C937.154 32.6872 937.001 33.0469 936.916 33.307L933.287 32.2281ZM940.653 30.5524L940.546 28.9455C940.53 28.7236 940.53 28.5017 940.553 28.2798C940.576 28.0656 940.607 27.8437 940.645 27.6141C940.637 27.5529 940.63 27.4917 940.645 27.4381C940.653 27.3769 940.66 27.308 940.66 27.2392L940.5 27.1933C940.461 27.2851 940.423 27.3693 940.392 27.4305C940.362 27.4993 940.324 27.5606 940.285 27.6294C940.193 27.8131 940.102 27.989 940.002 28.1574C939.91 28.3257 939.795 28.5094 939.665 28.6854L938.693 29.9709L940.653 30.5524Z" fill="#FFCD00"/>
<path d="M948.7 37.0717C948.049 36.8804 947.306 36.5667 946.464 36.1458C945.622 35.725 944.925 35.3118 944.359 34.9139L945.53 31.5012C945.913 32.121 946.472 32.6643 947.184 33.1234C947.904 33.5825 948.654 33.9268 949.443 34.164C949.764 34.2635 950.063 34.3324 950.331 34.363C950.599 34.4012 950.821 34.3936 951.005 34.3477C951.188 34.3018 951.296 34.2023 951.349 34.0416C951.387 33.9039 951.349 33.7661 951.227 33.6437C951.096 33.5213 950.928 33.4065 950.698 33.2917C950.476 33.1846 950.147 33.0316 949.711 32.8479C948.922 32.5189 948.271 32.2052 947.751 31.9221C947.23 31.639 946.809 31.2564 946.503 30.782C946.189 30.3076 946.135 29.7337 946.342 29.0603C946.525 28.4405 946.885 27.9738 947.414 27.6524C947.934 27.3387 948.577 27.1703 949.335 27.1627C950.093 27.155 950.913 27.2775 951.786 27.5453C952.413 27.7366 953.049 27.9891 953.692 28.3181C954.328 28.6395 954.848 28.9608 955.254 29.2593L954.259 32.5725C953.952 32.1822 953.501 31.7997 952.911 31.4171C952.314 31.0345 951.686 30.7437 951.02 30.5371C950.698 30.4376 950.4 30.3764 950.132 30.3458C949.864 30.3152 949.642 30.3305 949.466 30.3841C949.29 30.4376 949.182 30.5295 949.144 30.6595C949.09 30.8432 949.136 31.0115 949.274 31.1722C949.42 31.3329 949.619 31.4783 949.887 31.616C950.155 31.7537 950.522 31.9144 950.989 32.1057C951.778 32.4271 952.413 32.7332 952.896 33.0086C953.378 33.2841 953.761 33.6514 954.052 34.1105C954.343 34.5619 954.397 35.0976 954.213 35.702C954.021 36.3295 953.661 36.7962 953.133 37.087C952.605 37.3778 951.969 37.5232 951.219 37.5155C950.469 37.5079 949.634 37.3472 948.7 37.0717Z" fill="#FFCD00"/>
<path d="M960.732 36.1133C962.308 30.8682 956.469 24.4793 947.689 21.8435C938.909 19.2076 930.513 21.3229 928.937 26.568C927.36 31.8132 933.199 38.202 941.979 40.8378C950.759 43.4737 959.155 41.3585 960.732 36.1133Z" stroke="#FFCD00" stroke-width="1.8921" stroke-miterlimit="10"/>
<path d="M967.482 7.78875C966.31 9.48744 964.879 10.8801 963.179 11.959C961.479 13.0378 959.649 13.5888 957.674 13.6194C955.706 13.65 953.761 13.0072 951.855 11.6988C949.925 10.375 948.631 8.79113 947.965 6.93941C947.299 5.08769 947.169 3.17475 947.559 1.20825C947.957 -0.765899 948.738 -2.60231 949.91 -4.301C950.714 -5.47172 951.594 -6.53531 952.536 -7.47647C953.478 -8.42529 954.343 -9.15986 955.132 -9.68018L960.943 -5.54823C960.17 -5.31868 959.32 -4.84428 958.393 -4.10971C957.467 -3.37514 956.694 -2.56406 956.073 -1.66115C955.354 -0.620516 954.848 0.39717 954.557 1.3919C954.266 2.38662 954.213 3.28953 954.412 4.10827C954.603 4.927 955.063 5.58506 955.782 6.08242C956.525 6.58743 957.314 6.77107 958.164 6.61804C959.014 6.465 959.833 6.06711 960.621 5.41671C961.41 4.76631 962.145 3.94758 962.834 2.9452C963.653 1.75918 964.235 0.519601 964.58 -0.781195C964.924 -2.07434 965.047 -3.28331 964.94 -4.40047L971.272 -0.0542821C970.828 1.31538 970.322 2.61617 969.771 3.84045C969.22 5.05708 968.454 6.37318 967.482 7.78875Z" fill="#FFCD00"/>
<path d="M972.26 0.986358C971.785 0.221183 971.103 -0.681717 970.208 -1.72235C969.312 -2.76299 968.408 -3.73476 967.474 -4.65297L963.386 -8.66249C962.459 -9.5807 961.464 -10.4683 960.407 -11.3406C959.35 -12.2129 958.439 -12.8786 957.666 -13.3377L963.255 -19.0229C963.73 -18.2578 964.419 -17.3625 965.323 -16.3372C966.226 -15.3119 967.145 -14.3401 968.079 -13.4295L972.168 -9.42002C973.102 -8.50181 974.082 -7.60656 975.123 -6.71895C976.164 -5.83135 977.076 -5.15799 977.849 -4.69888L972.26 0.986358Z" fill="#FFCD00"/>
<path d="M1081.66 -10.1087C1082.6 -10.4224 1083.73 -10.8815 1085.07 -11.486C1086.4 -12.0829 1087.65 -12.695 1088.81 -13.3071L1094.31 -15.8705C1095.45 -16.4903 1096.57 -17.1942 1097.65 -17.9823C1098.75 -18.7705 1099.67 -19.4897 1100.42 -20.1401L1108.73 -11.5931L1108.67 -11.4937C1107.96 -10.7208 1107.19 -9.81029 1106.38 -8.762C1105.57 -7.71371 1104.87 -6.65777 1104.27 -5.59418L1101.59 -0.176744C1100.94 0.971017 1100.29 2.19529 1099.64 3.50374C1099 4.81219 1098.5 5.92935 1098.16 6.85521L1092.56 1.09345C1092.93 0.687905 1093.33 0.182885 1093.79 -0.406299C1094.25 -0.995483 1094.74 -1.69944 1095.26 -2.50287L1095.52 -3.07675L1091.53 -7.18573L1090.92 -6.92557C1090.62 -6.76489 1090.06 -6.40526 1089.23 -5.85434C1088.34 -5.2575 1087.68 -4.76013 1087.26 -4.35459L1081.66 -10.1087ZM1097.09 -5.58652L1098.56 -8.68548C1098.76 -9.12163 1099 -9.53482 1099.26 -9.91741C1099.53 -10.3 1099.82 -10.6826 1100.13 -11.0652C1100.16 -11.1876 1100.23 -11.3024 1100.3 -11.4018C1100.38 -11.5013 1100.46 -11.6238 1100.55 -11.7615L1100.3 -12.014C1100.13 -11.8763 1099.99 -11.7691 1099.85 -11.6773C1099.72 -11.5931 1099.58 -11.509 1099.44 -11.4248C1099.08 -11.1799 1098.72 -10.9504 1098.37 -10.7285C1098.02 -10.5066 1097.62 -10.2923 1097.19 -10.0934L1094.05 -8.71608L1097.09 -5.58652Z" fill="#FFCD00"/>
<path d="M1101.19 13.9177C1100.08 12.043 1099.45 10.1377 1099.31 8.20184C1099.18 6.26595 1099.54 4.4678 1100.43 2.80737C1101.31 1.13929 1102.68 -0.238033 1104.52 -1.32458C1106.35 -2.41113 1108.22 -2.92379 1110.14 -2.87022C1112.06 -2.81666 1113.85 -2.25809 1115.51 -1.1792C1117.17 -0.1003 1118.55 1.36883 1119.65 3.2282C1120.48 4.62082 1121.11 5.92927 1121.53 7.15355C1121.96 8.37783 1122.25 9.47203 1122.39 10.4285L1116.68 13.7417C1116.77 12.9842 1116.65 12.0736 1116.3 11.01C1115.96 9.94644 1115.5 8.93641 1114.93 7.97994C1114.22 6.77862 1113.46 5.8298 1112.66 5.1488C1111.86 4.46779 1111.04 4.0699 1110.22 3.94747C1109.39 3.82504 1108.59 3.99338 1107.82 4.45249C1107.15 4.85038 1106.66 5.3707 1106.37 6.0211C1106.08 6.67149 1105.98 7.41371 1106.09 8.2401C1106.2 9.06649 1106.51 9.93114 1107.04 10.8187C1107.28 11.2243 1107.54 11.5916 1107.81 11.9206C1108.09 12.2573 1108.37 12.5327 1108.66 12.7546C1108.95 12.9765 1109.23 13.1525 1109.48 13.2749L1111.04 12.3491L1110.19 10.9182C1110 10.5968 1109.77 10.2449 1109.48 9.86227C1109.2 9.47969 1108.98 9.17361 1108.82 8.94406L1111.23 7.62031L1116.63 16.7182L1109.18 21.1256C1108.18 20.8119 1107.19 20.2992 1106.21 19.58C1105.23 18.8607 1104.31 18.019 1103.47 17.0473C1102.61 16.0831 1101.86 15.0348 1101.19 13.9177Z" fill="#FFCD00"/>
<path d="M1106.56 22.3654C1107.47 22.2889 1108.6 22.1205 1109.94 21.8451C1111.28 21.5696 1112.57 21.2482 1113.8 20.881L1119.28 19.2282C1120.49 18.8609 1121.74 18.4171 1123.02 17.9044C1124.3 17.3841 1125.34 16.9021 1126.14 16.4583L1131.11 32.9019L1124.29 35.9932C1124.47 35.5723 1124.52 34.9908 1124.44 34.2562C1124.35 33.5216 1124.11 32.4504 1123.68 31.0501L1121.95 25.3496L1119.66 26.0382L1121.01 30.5145C1121.46 31.9836 1121.84 33.1237 1122.16 33.9195L1119.25 34.7995C1119.14 34.019 1118.85 32.8559 1118.38 31.3103L1117.02 26.834L1114.96 27.4615L1116.45 32.4121C1117.04 34.371 1117.57 35.7636 1118.02 36.6053C1118.48 37.447 1118.93 38.0362 1119.38 38.3882L1111.76 39.6201L1106.56 22.3654Z" fill="#FFCD00"/>
<path d="M1112.58 40.0179C1113.46 40.2092 1114.57 40.3546 1115.94 40.4694C1117.3 40.5765 1118.63 40.6301 1119.94 40.6224L1125.67 40.5918C1126.95 40.5842 1128.29 40.5229 1129.66 40.4005C1131.03 40.2781 1132.15 40.1174 1133.03 39.9185L1133.07 49.0623L1124.99 52.3755C1124.82 52.475 1124.64 52.5591 1124.46 52.628C1124.27 52.6968 1124.11 52.7581 1123.95 52.8193C1123.5 52.98 1123.03 53.1483 1122.53 53.3243C1122.03 53.5003 1121.48 53.661 1120.88 53.7987V54.1201C1121.66 54.2731 1122.3 54.4261 1122.8 54.5945C1123.29 54.7552 1123.91 54.9771 1124.66 55.2449C1124.73 55.3061 1124.8 55.3444 1124.86 55.3597C1124.93 55.3826 1124.98 55.4056 1125.04 55.4438L1133.13 58.7341L1133.17 67.7019C1132.29 67.5106 1131.17 67.3576 1129.81 67.2351C1128.45 67.1127 1127.11 67.0592 1125.81 67.0668L1120.08 67.0974C1118.77 67.1051 1117.44 67.174 1116.07 67.304C1114.71 67.4341 1113.59 67.6024 1112.71 67.8014L1112.67 59.8283C1113.56 59.9966 1114.68 60.142 1116.05 60.2644C1117.42 60.3869 1118.75 60.4404 1120.04 60.4328L1124.9 60.4098V60.0578L1112.65 54.8011L1112.64 52.9035L1124.83 47.5549V47.2641L1119.99 47.2871C1118.66 47.2947 1117.32 47.3636 1115.97 47.4937C1114.61 47.6238 1113.5 47.7921 1112.62 47.991L1112.58 40.0179Z" fill="#FFCD00"/>
<path d="M1111.96 67.7708C1112.77 68.1992 1113.82 68.666 1115.09 69.1557C1116.37 69.6454 1117.63 70.0663 1118.87 70.4182L1124.38 71.9792C1125.6 72.3235 1126.89 72.622 1128.24 72.8745C1129.6 73.127 1130.74 73.28 1131.65 73.3336L1126.97 89.8613L1119.56 88.7977C1119.93 88.5376 1120.29 88.0785 1120.62 87.4128C1120.94 86.7471 1121.31 85.7141 1121.71 84.3062L1123.33 78.575L1121.03 77.9246L1119.76 82.4238C1119.34 83.9006 1119.05 85.0637 1118.89 85.913L1115.97 85.0866C1116.29 84.3674 1116.67 83.2349 1117.12 81.674L1118.39 77.1747L1116.3 76.5856L1114.9 81.5592C1114.34 83.5257 1114.03 84.9872 1113.96 85.936C1113.89 86.8848 1113.95 87.6347 1114.15 88.1703L1107.06 85.1019L1111.96 67.7708Z" fill="#FFCD00"/>
<path d="M1107.04 85.783C1107.69 86.3951 1108.57 87.1067 1109.68 87.9101C1110.79 88.7136 1111.9 89.4481 1113.03 90.1138L1117.95 93.0368C1119.08 93.7025 1120.26 94.33 1121.49 94.9191C1122.72 95.5083 1123.77 95.9368 1124.63 96.2199L1120.91 102.41L1107.97 103.152L1107.77 103.481L1110.77 105.257C1111.77 105.899 1112.94 106.534 1114.29 107.162C1115.64 107.789 1116.66 108.218 1117.38 108.432L1113.26 115.365C1112.61 114.73 1111.73 114.018 1110.63 113.207C1109.52 112.403 1108.4 111.669 1107.28 111.003L1096.03 104.323L1099.24 98.921L1112.77 98.1864L1112.97 97.8345L1110.03 96.0899C1108.93 95.4318 1107.66 94.7584 1106.22 94.0698C1104.79 93.3735 1103.69 92.9144 1102.95 92.6772L1107.04 85.783Z" fill="#FFCD00"/>
<path d="M1091.77 108.432C1092.25 109.19 1092.93 110.1 1093.81 111.164C1094.69 112.227 1095.58 113.214 1096.49 114.125L1100.98 118.64L1102.91 116.727C1103.44 116.191 1103.89 115.655 1104.24 115.112C1104.6 114.569 1104.86 113.941 1105.03 113.222L1109.66 119.497L1097.18 131.885L1090.95 127.194C1091.59 127.056 1092.2 126.804 1092.8 126.437C1093.39 126.069 1093.95 125.626 1094.46 125.121L1096.27 123.33L1091.78 118.816C1090.86 117.89 1089.87 116.987 1088.82 116.107C1087.78 115.227 1086.87 114.546 1086.11 114.064L1091.77 108.432Z" fill="#FFCD00"/>
<path d="M444.328 658.953L421.641 782.452C419.382 794.733 407.484 802.936 395.195 800.686L379.055 797.725C375.464 797.067 371.781 798.176 369.155 800.709L349.217 819.922C343.635 825.302 334.424 823.611 331.116 816.602L319.302 791.557C317.748 788.26 314.693 785.91 311.109 785.252L203.618 765.534C191.329 763.277 183.121 751.386 185.372 739.105L208.058 615.606C210.317 603.325 222.216 595.122 234.505 597.371L426.09 632.524C438.371 634.781 446.586 646.672 444.328 658.953Z" fill="#BFDCE1"/>
<path d="M444.328 658.953L421.641 782.452C419.382 794.733 407.484 802.936 395.195 800.686L379.055 797.725C375.464 797.067 371.781 798.176 369.155 800.709L349.217 819.923C343.635 825.302 334.424 823.611 331.116 816.602L319.302 791.565C317.748 788.267 314.693 785.918 311.109 785.26L203.618 765.542C191.329 763.284 183.121 751.394 185.372 739.113L208.058 615.613C210.317 603.332 222.216 595.13 234.505 597.379L426.09 632.531C438.371 634.781 446.586 646.672 444.328 658.953Z" fill="white"/>
<path d="M332.18 785.482C328.666 778.037 321.775 772.734 313.674 771.25L206.182 751.531C201.596 750.689 198.533 746.251 199.376 741.676L222.062 618.177C222.905 613.593 227.346 610.532 231.924 611.374L423.509 646.526C428.095 647.368 431.158 651.806 430.316 656.382L407.629 779.881C406.787 784.464 402.346 787.525 397.767 786.683L381.627 783.722C373.519 782.238 365.196 784.747 359.262 790.463L347.501 801.795C344.929 804.275 340.679 803.494 339.156 800.265L332.18 785.482Z" stroke="#12284C" stroke-width="3" stroke-miterlimit="10"/>
<path d="M229.673 658.823C230.194 657.644 230.715 656.106 231.228 654.216C231.741 652.326 232.162 650.49 232.491 648.715L233.471 643.389C233.8 641.614 234.053 639.754 234.244 637.818C234.436 635.875 234.497 634.253 234.436 632.944L251.901 636.15L251.548 644.537C251.188 644.116 250.607 643.756 249.795 643.45C248.983 643.152 247.835 642.861 246.357 642.593L241.327 641.667L240.553 645.883L243.769 646.473C245.645 646.817 247.046 647.024 247.98 647.092L247.245 651.087C246.327 650.796 244.887 650.459 242.912 650.1L239.88 649.541L239.734 650.314C239.42 652.043 239.168 653.849 238.984 655.739C238.8 657.629 238.762 659.22 238.854 660.514L229.673 658.823Z" fill="#12284C"/>
<path d="M268.646 666.551C267.267 666.298 266.234 665.77 265.552 664.967C264.871 664.164 264.427 663.268 264.228 662.274C264.029 661.279 263.906 660.001 263.86 658.44C263.814 657.308 263.738 656.412 263.63 655.739C263.523 655.073 263.301 654.469 262.964 653.933C262.627 653.398 262.107 653.068 261.387 652.938C261.242 652.908 261.081 652.9 260.912 652.908C260.744 652.915 260.598 652.931 260.461 652.961L260.239 654.178L260.154 654.622C259.863 656.328 259.626 658.042 259.435 659.764C259.243 661.485 259.174 662.977 259.228 664.24L250.346 662.61C250.836 661.325 251.296 659.817 251.732 658.088C252.169 656.359 252.574 654.43 252.965 652.311L253.891 647.284C254.297 645.088 254.611 643.068 254.833 641.224C255.055 639.38 255.147 637.88 255.109 636.724L266.877 638.882C268.653 639.211 270.185 639.747 271.479 640.489C272.773 641.231 273.722 642.188 274.342 643.343C274.955 644.499 275.139 645.799 274.871 647.223C274.61 648.653 274.028 649.778 273.125 650.589C272.221 651.408 271.103 651.936 269.771 652.173C268.439 652.41 266.931 652.38 265.254 652.074L265.108 652.043L265.062 652.303L265.323 652.349C266.012 652.479 266.555 652.724 266.946 653.084C267.336 653.451 267.612 653.834 267.765 654.247C267.918 654.66 268.048 655.188 268.163 655.846C268.27 656.221 268.424 656.558 268.607 656.848C268.799 657.139 269.021 657.369 269.281 657.545C269.541 657.721 269.848 657.836 270.192 657.904C271.126 658.073 271.961 657.973 272.681 657.598C273.4 657.223 274.028 656.634 274.557 655.838L272.887 665.128C272.482 665.663 271.884 666.069 271.096 666.344C270.299 666.643 269.488 666.704 268.646 666.551ZM263.592 650.559C264.159 650.666 264.679 650.666 265.162 650.559C265.637 650.452 266.027 650.237 266.333 649.893C266.64 649.556 266.846 649.105 266.946 648.531C267.038 648.011 266.999 647.544 266.823 647.131C266.647 646.718 266.364 646.381 265.973 646.136C265.583 645.883 265.108 645.707 264.542 645.608L261.915 645.126L261.004 650.084L263.592 650.559Z" fill="#12284C"/>
<path d="M274.671 667.079C275.2 665.877 275.728 664.332 276.249 662.457C276.769 660.575 277.198 658.754 277.52 656.978L278.5 651.653C278.821 649.9 279.074 648.049 279.25 646.098C279.426 644.146 279.487 642.509 279.426 641.2L296.707 644.368L296.279 652.739C295.949 652.318 295.383 651.966 294.586 651.66C293.79 651.362 292.626 651.071 291.095 650.788L286.287 649.908L285.598 653.642L289.265 654.316C291.118 654.652 292.534 654.851 293.515 654.905L292.818 658.715C291.853 658.409 290.459 658.088 288.637 657.759L284.97 657.085L284.181 661.378L288.4 662.151C290.421 662.518 291.953 662.702 292.986 662.687C294.02 662.671 294.847 662.518 295.459 662.22L292.619 670.377L274.671 667.079Z" fill="#12284C"/>
<path d="M296.202 671.035C296.73 669.833 297.259 668.295 297.779 666.413C298.3 664.531 298.729 662.71 299.05 660.934L300.03 655.609C300.352 653.857 300.605 652.005 300.781 650.054C300.965 648.102 301.018 646.465 300.957 645.156L318.238 648.324L317.809 656.695C317.48 656.282 316.913 655.923 316.117 655.616C315.321 655.318 314.157 655.027 312.626 654.744L307.81 653.864L307.121 657.598L310.788 658.272C312.641 658.608 314.057 658.807 315.038 658.861L314.341 662.671C313.376 662.365 311.983 662.044 310.16 661.715L306.493 661.042L305.704 665.334L309.923 666.107C311.944 666.474 313.476 666.658 314.509 666.643C315.543 666.627 316.37 666.474 316.982 666.183L314.142 674.34L296.202 671.035Z" fill="#12284C"/>
<path d="M233.984 696.974C231.718 696.561 229.78 695.666 228.188 694.288C226.595 692.911 225.454 691.128 224.773 688.924C224.091 686.721 224.015 684.203 224.536 681.372C225.033 678.663 226.006 676.383 227.453 674.547C228.9 672.71 230.653 671.417 232.713 670.675C234.773 669.933 236.978 669.772 239.321 670.208C240.875 670.491 242.223 670.889 243.371 671.387C244.512 671.892 245.469 672.427 246.227 673.001L244.857 680.469C244.397 679.773 243.693 679.176 242.736 678.686C241.779 678.197 240.76 677.845 239.673 677.646C238.264 677.386 237.031 677.416 235.967 677.73C234.903 678.044 234.022 678.633 233.333 679.482C232.644 680.339 232.169 681.441 231.924 682.795C231.672 684.173 231.664 685.351 231.909 686.331C232.154 687.302 232.606 688.083 233.28 688.664C233.953 689.246 234.765 689.621 235.73 689.804C236.074 689.866 236.404 689.912 236.702 689.927C237.001 689.942 237.292 689.942 237.567 689.912C237.843 689.881 238.057 689.827 238.233 689.728L238.991 685.397L237.92 685.198C237.598 685.137 237.177 685.083 236.648 685.022C236.128 684.961 235.691 684.969 235.347 685.03L236.143 681.51L246.801 683.469L244.581 695.559C243.662 696.132 242.628 696.561 241.48 696.844C240.331 697.127 239.114 697.28 237.82 697.303C236.518 697.311 235.247 697.204 233.984 696.974Z" fill="#12284C"/>
<path d="M264.725 702.69C263.347 702.437 262.314 701.909 261.632 701.106C260.951 700.31 260.507 699.407 260.308 698.42C260.108 697.426 259.986 696.148 259.94 694.587C259.894 693.454 259.818 692.559 259.71 691.886C259.603 691.212 259.381 690.615 259.044 690.08C258.707 689.544 258.187 689.215 257.467 689.085C257.321 689.055 257.161 689.047 256.992 689.055C256.824 689.062 256.678 689.077 256.54 689.108L256.318 690.332L256.234 690.776C255.943 692.482 255.706 694.196 255.514 695.918C255.323 697.64 255.254 699.132 255.308 700.387L246.426 698.757C246.916 697.471 247.375 695.964 247.812 694.235C248.241 692.505 248.654 690.577 249.045 688.458L249.971 683.431C250.377 681.234 250.691 679.214 250.913 677.37C251.135 675.526 251.227 674.027 251.188 672.871L262.957 675.029C264.733 675.358 266.264 675.894 267.558 676.636C268.845 677.386 269.802 678.334 270.414 679.49C271.027 680.645 271.211 681.946 270.943 683.369C270.682 684.8 270.093 685.925 269.197 686.736C268.301 687.547 267.176 688.083 265.843 688.32C264.511 688.557 263.003 688.527 261.326 688.22L261.18 688.19L261.134 688.45L261.395 688.496C262.084 688.626 262.628 688.871 263.018 689.231C263.409 689.598 263.684 689.98 263.837 690.394C263.99 690.807 264.121 691.335 264.235 691.993C264.343 692.368 264.496 692.704 264.679 692.995C264.871 693.286 265.093 693.516 265.353 693.691C265.614 693.867 265.92 693.99 266.264 694.051C267.199 694.219 268.033 694.12 268.753 693.745C269.473 693.37 270.093 692.781 270.629 691.985L268.96 701.274C268.554 701.81 267.957 702.216 267.168 702.491C266.372 702.782 265.56 702.843 264.725 702.69ZM259.664 686.698C260.231 686.805 260.752 686.805 261.234 686.698C261.709 686.591 262.099 686.376 262.405 686.032C262.712 685.695 262.911 685.244 263.018 684.67C263.11 684.15 263.072 683.683 262.896 683.27C262.719 682.857 262.436 682.52 262.046 682.275C261.655 682.023 261.18 681.847 260.614 681.747L257.988 681.265L257.076 686.223L259.664 686.698Z" fill="#12284C"/>
<path d="M281.907 705.766C279.809 705.383 278.063 704.687 276.67 703.677C275.276 702.667 274.281 701.343 273.691 699.691C273.102 698.038 273.017 696.079 273.431 693.814L274.541 687.784C274.87 686.009 275.115 684.15 275.299 682.206C275.475 680.263 275.537 678.633 275.468 677.324L284.648 679.008C284.127 680.186 283.607 681.724 283.094 683.614C282.581 685.504 282.16 687.341 281.838 689.116L281.011 693.63C280.843 694.541 280.812 695.337 280.919 696.018C281.026 696.699 281.264 697.25 281.647 697.663C282.029 698.076 282.565 698.351 283.254 698.474C283.898 698.589 284.472 698.527 284.977 698.275C285.483 698.022 285.904 697.602 286.241 696.997C286.577 696.4 286.838 695.643 286.999 694.732L287.826 690.218C288.155 688.419 288.415 686.552 288.606 684.609C288.798 682.665 288.859 681.059 288.79 679.765L298.009 681.456C297.458 682.658 296.922 684.196 296.416 686.078C295.903 687.96 295.49 689.789 295.161 691.564L294.05 697.594C293.66 699.736 292.91 701.496 291.799 702.858C290.689 704.22 289.311 705.146 287.634 705.628C285.957 706.118 284.051 706.156 281.907 705.766Z" fill="#12284C"/>
<path d="M296.133 707.878C296.661 706.676 297.19 705.123 297.733 703.225C298.277 701.328 298.706 699.507 299.02 697.785L300 692.459C300.329 690.684 300.574 688.825 300.735 686.881C300.896 684.938 300.949 683.308 300.888 682L313.1 684.241C314.731 684.54 316.163 685.03 317.403 685.718C318.644 686.407 319.57 687.295 320.183 688.389C320.795 689.483 320.979 690.73 320.719 692.138C320.497 693.37 319.984 694.38 319.187 695.161C318.391 695.949 317.419 696.477 316.27 696.767C315.122 697.05 313.866 697.073 312.511 696.821L312.404 696.798L312.327 697.204L312.771 697.288C314.226 697.555 315.466 698.038 316.5 698.734C317.533 699.43 318.291 700.325 318.782 701.404C319.272 702.491 319.394 703.692 319.149 705.024C318.881 706.477 318.253 707.648 317.265 708.536C316.27 709.423 315.06 710.005 313.636 710.28C312.204 710.556 310.642 710.533 308.943 710.219L296.133 707.878ZM308.422 703.639C309.088 703.761 309.678 703.753 310.183 703.616C310.688 703.478 311.117 703.233 311.469 702.873C311.814 702.514 312.044 702.039 312.151 701.45C312.266 700.838 312.212 700.302 312.005 699.859C311.791 699.415 311.477 699.032 311.048 698.726C310.619 698.42 310.084 698.206 309.44 698.091L306.515 697.556L305.497 703.103L308.422 703.639ZM309.502 695.038C310.413 695.206 311.178 695.115 311.791 694.77C312.403 694.426 312.786 693.844 312.932 693.033C313.07 692.268 312.916 691.633 312.465 691.113C312.013 690.592 311.316 690.256 310.382 690.08L307.978 689.636L307.067 694.594L309.502 695.038Z" fill="#12284C"/>
<path d="M319.884 712.239C320.405 711.061 320.926 709.523 321.439 707.633C321.952 705.743 322.373 703.907 322.702 702.131L323.682 696.806C324.011 695.031 324.264 693.171 324.463 691.212C324.662 689.254 324.716 687.639 324.647 686.354L333.827 688.037C333.306 689.215 332.786 690.746 332.273 692.628C331.76 694.51 331.339 696.347 331.009 698.153L330.872 698.895L336.568 699.943L336.706 699.201C337.035 697.426 337.28 695.559 337.449 693.6C337.617 691.641 337.686 690.026 337.671 688.749L346.774 690.417C346.277 691.603 345.764 693.125 345.228 695.008C344.692 696.882 344.255 698.726 343.926 700.525L342.946 705.85C342.617 707.648 342.364 709.523 342.203 711.467C342.043 713.41 341.974 715.025 342.02 716.31L332.916 714.642C333.391 713.456 333.896 711.918 334.432 710.028C334.968 708.138 335.404 706.309 335.726 704.534L335.91 703.539L330.213 702.491L330.029 703.486C329.7 705.284 329.44 707.159 329.248 709.095C329.057 711.038 328.996 712.645 329.065 713.938L319.884 712.239Z" fill="#12284C"/>
<path d="M356.138 719.386C354.04 719.004 352.295 718.307 350.901 717.297C349.508 716.287 348.512 714.963 347.923 713.311C347.333 711.658 347.249 709.699 347.662 707.434L348.773 701.405C349.102 699.629 349.347 697.77 349.531 695.826C349.707 693.883 349.768 692.253 349.699 690.945L358.879 692.628C358.359 693.806 357.838 695.344 357.325 697.234C356.812 699.124 356.391 700.961 356.069 702.736L355.242 707.25C355.074 708.161 355.043 708.957 355.151 709.638C355.25 710.319 355.495 710.87 355.878 711.283C356.261 711.696 356.797 711.972 357.486 712.094C358.129 712.209 358.703 712.148 359.209 711.895C359.714 711.643 360.135 711.222 360.48 710.617C360.816 710.02 361.077 709.263 361.238 708.352L362.065 703.838C362.394 702.04 362.654 700.173 362.846 698.229C363.037 696.286 363.098 694.679 363.029 693.385L372.24 695.077C371.689 696.278 371.161 697.816 370.648 699.698C370.135 701.581 369.721 703.409 369.392 705.184L368.282 711.214C367.891 713.357 367.141 715.116 366.031 716.478C364.92 717.84 363.535 718.766 361.865 719.248C360.189 719.73 358.282 719.776 356.138 719.386Z" fill="#12284C"/>
<path d="M370.357 721.498C370.885 720.296 371.413 718.743 371.957 716.846C372.501 714.94 372.929 713.127 373.243 711.405L374.223 706.08C374.553 704.304 374.798 702.445 374.958 700.501C375.119 698.558 375.173 696.928 375.112 695.62L387.324 697.862C388.955 698.16 390.387 698.65 391.627 699.338C392.867 700.027 393.794 700.915 394.406 702.009C395.019 703.103 395.203 704.35 394.942 705.758C394.72 706.99 394.207 708 393.411 708.788C392.615 709.569 391.642 710.104 390.494 710.395C389.345 710.678 388.09 710.701 386.734 710.449L386.627 710.426L386.551 710.831L386.995 710.915C388.449 711.183 389.69 711.665 390.723 712.362C391.757 713.058 392.515 713.953 393.005 715.032C393.495 716.111 393.618 717.32 393.373 718.651C393.105 720.105 392.477 721.276 391.482 722.163C390.486 723.051 389.276 723.633 387.852 723.908C386.42 724.184 384.858 724.161 383.159 723.847L370.357 721.498ZM382.653 717.251C383.319 717.374 383.909 717.366 384.414 717.228C384.92 717.09 385.348 716.846 385.701 716.486C386.045 716.126 386.275 715.652 386.382 715.063C386.497 714.443 386.443 713.915 386.237 713.471C386.022 713.027 385.708 712.645 385.28 712.339C384.851 712.033 384.315 711.818 383.672 711.704L380.747 711.168L379.728 716.715L382.653 717.251ZM383.733 708.658C384.644 708.827 385.41 708.735 386.022 708.39C386.635 708.046 387.018 707.465 387.163 706.653C387.301 705.888 387.148 705.253 386.696 704.733C386.244 704.213 385.548 703.876 384.606 703.7L382.202 703.256L381.29 708.214L383.733 708.658Z" fill="#12284C"/>
<path d="M227.438 732.631C225.171 732.218 223.234 731.323 221.641 729.945C220.049 728.568 218.908 726.785 218.227 724.581C217.545 722.378 217.469 719.86 217.989 717.029C218.487 714.32 219.459 712.04 220.906 710.204C222.354 708.367 224.107 707.074 226.174 706.332C228.234 705.59 230.439 705.429 232.782 705.865C234.336 706.148 235.684 706.546 236.832 707.051C237.973 707.556 238.93 708.092 239.688 708.666L238.318 716.134C237.858 715.438 237.154 714.841 236.197 714.351C235.24 713.854 234.221 713.509 233.134 713.31C231.725 713.05 230.493 713.081 229.428 713.395C228.364 713.708 227.483 714.29 226.794 715.147C226.105 716.004 225.631 717.106 225.378 718.46C225.125 719.837 225.118 721.016 225.363 721.995C225.6 722.967 226.059 723.747 226.733 724.329C227.407 724.91 228.219 725.293 229.183 725.469C229.528 725.53 229.849 725.576 230.156 725.591C230.454 725.607 230.745 725.607 231.021 725.576C231.297 725.546 231.519 725.492 231.687 725.393L232.445 721.062L231.373 720.863C231.051 720.801 230.63 720.748 230.102 720.687C229.574 720.626 229.145 720.633 228.8 720.694L229.597 717.175L240.255 719.133L238.034 731.223C237.116 731.797 236.082 732.218 234.933 732.509C233.785 732.792 232.567 732.945 231.274 732.968C229.972 732.968 228.693 732.861 227.438 732.631Z" fill="#12284C"/>
<path d="M240.033 734.445C240.53 733.259 241.043 731.728 241.572 729.831C242.1 727.941 242.521 726.104 242.85 724.329L243.83 719.004C244.16 717.228 244.412 715.361 244.588 713.41C244.772 711.459 244.833 709.837 244.795 708.551L253.937 710.227C253.463 711.413 252.957 712.943 252.421 714.826C251.885 716.7 251.449 718.544 251.12 720.343L250.139 725.668C249.81 727.466 249.558 729.341 249.397 731.285C249.228 733.228 249.159 734.843 249.175 736.12L240.033 734.445Z" fill="#12284C"/>
<path d="M252.13 736.671C252.651 735.493 253.172 733.955 253.685 732.065C254.198 730.175 254.619 728.339 254.948 726.563L255.928 721.238C256.257 719.463 256.51 717.603 256.701 715.667C256.893 713.731 256.954 712.102 256.893 710.793L274.358 713.999L274.005 722.386C273.653 721.965 273.064 721.605 272.252 721.299C271.44 720.993 270.292 720.71 268.814 720.442L263.784 719.516L263.01 723.732L266.226 724.322C268.102 724.666 269.503 724.872 270.437 724.941L269.702 728.936C268.784 728.637 267.344 728.308 265.369 727.948L262.337 727.39L262.191 728.17C261.877 729.9 261.625 731.705 261.441 733.595C261.257 735.485 261.219 737.077 261.311 738.37L252.13 736.671Z" fill="#12284C"/>
<path d="M277.482 741.316C278.025 740.145 278.553 738.615 279.066 736.733C279.579 734.85 280.001 733.014 280.33 731.208L281.846 722.96L279.809 722.585C278.898 722.416 278.063 722.34 277.305 722.355C276.547 722.37 275.835 722.531 275.169 722.845L277.826 714.619L295.658 717.894L295.299 726.541C294.778 726.036 294.142 725.638 293.4 725.332C292.649 725.025 291.845 724.796 290.98 724.643L289.127 724.306L287.611 732.555C287.282 734.353 287.029 736.228 286.846 738.171C286.67 740.115 286.601 741.729 286.647 743.007L277.482 741.316Z" fill="#12284C"/>
<path d="M304.923 746.848C302.748 746.45 300.834 745.593 299.18 744.285C297.519 742.976 296.309 741.216 295.536 739.013C294.77 736.809 294.655 734.215 295.207 731.231C295.758 728.224 296.807 725.829 298.346 724.046C299.885 722.263 301.669 721.046 303.698 720.404C305.727 719.761 307.832 719.631 309.999 720.029C311.354 720.281 312.618 720.633 313.782 721.085C314.945 721.544 315.872 722.064 316.553 722.646L315.076 730.711C314.57 730.007 313.827 729.379 312.855 728.828C311.883 728.277 310.88 727.91 309.846 727.719C308.69 727.504 307.618 727.512 306.646 727.742C305.673 727.971 304.854 728.476 304.188 729.257C303.522 730.037 303.055 731.154 302.787 732.608C302.526 734.039 302.58 735.24 302.947 736.212C303.315 737.184 303.92 737.949 304.762 738.492C305.604 739.043 306.623 739.426 307.802 739.64C309.111 739.877 310.359 739.908 311.554 739.717C312.748 739.525 313.82 739.143 314.769 738.546L313.223 746.94C311.852 747.177 310.52 747.284 309.226 747.277C307.94 747.292 306.5 747.139 304.923 746.848Z" fill="#12284C"/>
<path d="M313.223 747.873C313.996 746.741 314.854 745.264 315.818 743.435C316.783 741.607 317.618 739.862 318.33 738.179L320.68 733.106C321.369 731.422 322.005 729.647 322.579 727.78C323.153 725.913 323.567 724.337 323.827 723.059L336.889 725.454V725.645C336.629 726.923 336.453 728.53 336.369 730.458C336.284 732.386 336.254 734.23 336.292 735.967L336.683 741.545C336.729 743.367 336.882 745.295 337.127 747.345C337.372 749.388 337.655 751.08 337.977 752.411L328.796 750.728C328.988 749.848 329.126 748.822 329.225 747.674C329.325 746.519 329.394 745.272 329.439 743.925L329.325 743.29L324.516 742.41L324.256 743.015C324.095 743.497 323.781 744.43 323.322 745.823C322.847 747.445 322.526 748.685 322.372 749.549L313.223 747.873ZM329.332 739.747L329.103 736.84C329.08 736.12 329.064 735.401 329.064 734.674C329.057 733.947 329.08 733.228 329.133 732.524C329.156 732.402 329.172 732.264 329.172 732.111C329.172 731.958 329.202 731.812 329.256 731.667L328.85 731.591C328.758 731.828 328.681 732.042 328.62 732.233C328.559 732.425 328.498 732.631 328.429 732.845C328.245 733.427 328.046 734.024 327.832 734.644C327.617 735.263 327.388 735.876 327.15 736.465L325.749 739.074L329.332 739.747Z" fill="#12284C"/>
<path d="M356.935 756.466C355.556 756.214 354.523 755.686 353.841 754.882C353.16 754.087 352.716 753.184 352.517 752.197C352.318 751.202 352.195 749.924 352.149 748.363C352.103 747.231 352.027 746.335 351.92 745.662C351.812 744.989 351.59 744.392 351.253 743.856C350.917 743.321 350.396 742.992 349.676 742.862C349.531 742.831 349.37 742.823 349.201 742.831C349.033 742.839 348.88 742.854 348.75 742.884L348.528 744.101L348.443 744.545C348.152 746.251 347.915 747.965 347.724 749.687C347.532 751.409 347.463 752.901 347.517 754.163L338.635 752.533C339.125 751.248 339.592 749.74 340.021 748.011C340.45 746.282 340.863 744.354 341.254 742.234L342.18 737.207C342.586 735.011 342.9 732.991 343.122 731.147C343.344 729.303 343.436 727.803 343.398 726.647L355.166 728.805C356.942 729.134 358.474 729.67 359.768 730.412C361.062 731.162 362.011 732.111 362.624 733.266C363.236 734.422 363.42 735.715 363.152 737.146C362.892 738.577 362.302 739.701 361.406 740.512C360.503 741.331 359.385 741.859 358.053 742.096C356.72 742.334 355.212 742.303 353.535 741.997L353.39 741.966L353.344 742.226L353.604 742.272C354.293 742.402 354.837 742.647 355.227 743.007C355.618 743.374 355.893 743.757 356.046 744.17C356.2 744.583 356.33 745.111 356.445 745.769C356.552 746.144 356.705 746.481 356.896 746.772C357.08 747.062 357.31 747.292 357.57 747.468C357.83 747.644 358.137 747.759 358.481 747.828C359.415 747.996 360.25 747.896 360.97 747.521C361.689 747.146 362.31 746.557 362.846 745.762L361.176 755.051C360.771 755.586 360.173 755.992 359.385 756.267C358.588 756.566 357.769 756.627 356.935 756.466ZM351.874 740.482C352.44 740.589 352.961 740.589 353.443 740.482C353.926 740.375 354.308 740.16 354.615 739.816C354.921 739.479 355.12 739.028 355.227 738.454C355.319 737.934 355.281 737.467 355.105 737.054C354.929 736.641 354.645 736.304 354.255 736.059C353.864 735.807 353.39 735.631 352.823 735.531L350.197 735.049L349.286 740.007L351.874 740.482Z" fill="#12284C"/>
<path d="M362.953 757.002C363.481 755.801 364.009 754.263 364.545 752.38C365.081 750.506 365.51 748.677 365.839 746.902L366.819 741.576C367.148 739.801 367.394 737.942 367.554 735.998C367.715 734.054 367.769 732.425 367.707 731.116L377.401 732.899C379.79 733.335 381.788 734.208 383.388 735.508C384.988 736.809 386.076 738.508 386.658 740.62C387.24 742.732 387.278 745.172 386.765 747.958C386.244 750.796 385.333 753.084 384.047 754.837C382.753 756.589 381.13 757.79 379.177 758.456C377.225 759.122 375.042 759.229 372.654 758.785L362.953 757.002ZM374.3 751.669C375.02 751.799 375.701 751.707 376.359 751.393C377.018 751.08 377.592 750.521 378.082 749.725C378.572 748.922 378.94 747.874 379.177 746.565C379.407 745.31 379.445 744.216 379.277 743.298C379.116 742.38 378.779 741.653 378.258 741.125C377.745 740.597 377.14 740.268 376.451 740.145L374.598 739.809L372.477 751.347L374.3 751.669Z" fill="#12284C"/>
<path d="M390.272 762.588C389.139 762.381 388.289 761.876 387.722 761.065C387.156 760.262 386.972 759.343 387.156 758.303C387.339 757.316 387.845 756.55 388.672 756C389.499 755.449 390.471 755.28 391.573 755.479C392.76 755.693 393.641 756.206 394.215 757.017C394.789 757.828 394.996 758.724 394.812 759.711C394.621 760.744 394.115 761.539 393.289 762.09C392.462 762.634 391.459 762.802 390.272 762.588ZM391.099 735.409L399.314 736.916L394.904 753.612L389.208 752.564L391.099 735.409Z" fill="#12284C"/>
<path d="M-27.0954 383.262C-90.684 398.435 -129.924 462.259 -114.734 525.799C-113.371 531.491 -111.61 536.978 -109.504 542.265L-75.2405 552.733L-64.6283 597.143C-58.97 600.862 -53.0132 604.114 -46.796 606.815L-65.4706 528.668L-65.5088 528.676L-65.4858 528.591V528.584H-65.4782L-40.372 435.095L7.06861 488.688L12.3135 494.61L12.3058 494.595C12.3671 494.549 13.7912 496.523 16.4175 498.872C19.8936 501.267 23.9822 501.986 28.7523 500.846C33.0171 499.829 36.2176 497.564 38.3461 494.036C40.4824 490.516 41.0183 486.568 39.977 482.191C39.5559 480.431 38.928 478.878 38.0934 477.531C37.2512 476.185 36.1716 475.014 34.8393 474.035C33.5071 473.047 31.8916 472.213 30.0004 471.532C28.1015 470.851 25.9041 470.293 23.4003 469.857L13.7912 468.311C0.147014 466.031 -7.87713 459.856 -10.289 449.779C-11.9122 442.976 -10.6718 436.679 -6.56785 430.863C-2.47154 425.018 3.44702 421.161 11.1879 419.317C21.6239 416.822 30.9881 419.96 39.2802 428.721L29.763 437.926C26.8305 434.827 24.2962 432.952 22.16 432.31C19.9089 431.529 17.2367 431.499 14.151 432.241C10.3533 433.144 7.4668 434.972 5.48373 437.719C3.48534 440.42 2.87278 443.382 3.63844 446.58C4.69506 450.995 8.82971 453.765 16.0346 454.898L25.9423 456.436C34.0048 457.645 40.245 459.994 44.6706 463.452C49.0884 466.918 52.0439 471.754 53.5293 477.968C55.52 486.293 54.3869 493.83 50.1298 500.578C45.8497 507.381 39.5635 511.773 31.279 513.755C29.25 514.237 27.2745 514.543 25.3527 514.673L47.3886 606.899C52.5875 604.657 57.572 602.079 62.3114 599.171L44.2494 523.595L96.621 473.308L112.011 537.712C119.377 516.938 121.046 493.883 115.548 470.851C100.35 407.296 36.4932 368.089 -27.0954 383.262Z" fill="#00609C"/>
<path d="M9.2202 510.839C7.35963 509.699 5.62922 508.345 4.04429 506.753L0.935731 503.065L-6.27688 494.518L-11.514 495.766L-34.6295 501.282L-45.1574 503.792L-50.7467 525.141L-65.4706 528.653L-46.796 606.8C-24.071 616.694 1.93107 619.571 27.8948 613.373C34.6863 611.751 41.1791 609.547 47.381 606.876L25.3451 514.65C19.8323 515.025 14.7636 513.946 10.139 511.406C9.81738 511.237 9.52647 511.031 9.2202 510.839Z" fill="#12284C"/>
<path d="M44.2418 523.587L62.3038 599.164C85.626 584.87 103.045 562.994 112.003 537.705L96.6133 473.3L44.2418 523.587Z" fill="#12284C"/>
<path d="M-31.383 488.825L-42.0946 491.381L-34.3155 461.501L-14.5077 484.793L-19.7755 486.048L-31.383 488.825ZM44.663 463.437C40.2374 459.971 33.9972 457.629 25.9347 456.42L16.0271 454.882C8.81449 453.75 4.67985 450.98 3.63089 446.565C2.86522 443.366 3.48543 440.405 5.47617 437.704C7.45924 434.957 10.3535 433.136 14.1436 432.225C17.2292 431.491 19.9013 431.514 22.1524 432.294C24.2886 432.945 26.8229 434.812 29.7554 437.911L39.2727 428.706C30.9805 419.952 21.6164 416.815 11.1803 419.302C3.43946 421.146 -2.47909 425.002 -6.5754 430.848C-10.687 436.663 -11.9274 442.961 -10.2965 449.763C-7.88468 459.84 0.139458 466.023 13.7836 468.296L23.3928 469.841C25.8965 470.278 28.0939 470.836 29.9928 471.517C31.8916 472.198 33.4995 473.032 34.8318 474.019C36.164 474.999 37.2436 476.169 38.0858 477.516C38.9204 478.863 39.556 480.416 39.9694 482.176C41.0184 486.553 40.4748 490.501 38.3386 494.021C36.2024 497.548 33.0095 499.813 28.7448 500.831C23.9823 501.971 19.8937 501.244 16.4099 498.857C13.776 496.508 12.3595 494.526 12.2983 494.579L12.3059 494.595L7.06115 488.672L-40.3796 435.079L-65.4857 528.568V528.584L-65.5087 528.668L-65.4704 528.66L-50.7466 525.148L-45.1573 503.8L-34.6294 501.29L-11.5139 495.773L-6.27678 494.526L0.935821 503.073L4.04437 506.761C5.6293 508.353 7.35971 509.707 9.22028 510.847C9.52655 511.038 9.82512 511.245 10.139 511.421C14.7637 513.961 19.8324 515.04 25.3452 514.665C27.267 514.535 29.2425 514.237 31.2715 513.747C39.556 511.773 45.8421 507.381 50.1222 500.571C54.3716 493.814 55.5124 486.277 53.5217 477.96C52.0363 471.747 49.0809 466.903 44.663 463.437Z" fill="#FFCD00"/>
<path d="M6.24178 543.512L1.46405 544.645L2.1455 547.507L6.78538 546.397L7.18354 548.088L2.55133 549.19L3.50074 553.169L8.27081 552.029L8.67664 553.72L2.10718 555.288L-0.733398 543.39L5.83596 541.821L6.24178 543.512Z" fill="white"/>
<path d="M12.2446 551.08L13.0562 550.889C13.8602 550.697 14.5109 550.452 15.0086 550.154C15.4987 549.848 15.9122 549.442 16.2491 548.953C16.9382 547.935 17.1296 546.78 16.8234 545.487C16.5094 544.186 15.8203 543.229 14.756 542.625C13.7989 542.089 12.5509 542.005 11.0195 542.365L10.2079 542.556L12.2446 551.08ZM10.8434 553.199L8.00281 541.301L10.4989 540.704C11.6934 540.421 12.6734 540.314 13.4237 540.383C14.2277 540.436 14.9934 540.666 15.7361 541.079C17.2291 541.905 18.2016 543.229 18.6303 545.05C19.0668 546.879 18.7835 548.509 17.7728 549.947C17.2674 550.667 16.6855 551.218 16.0347 551.608C15.4298 551.983 14.5263 552.32 13.3165 552.61L10.8434 553.199Z" fill="white"/>
<path d="M31.1183 537.659L29.8702 538.868C29.4874 538.462 29.1506 538.217 28.8673 538.126C28.5687 538.026 28.2164 538.018 27.8106 538.118C27.313 538.24 26.9301 538.478 26.6698 538.837C26.4095 539.197 26.3252 539.579 26.4247 540C26.5626 540.582 27.1062 540.941 28.0556 541.094L29.3573 541.293C30.4139 541.454 31.2408 541.76 31.8151 542.219C32.397 542.678 32.7875 543.313 32.9789 544.124C33.2392 545.219 33.0937 546.213 32.5347 547.101C31.9682 547.996 31.1489 548.57 30.054 548.83C29.0203 549.075 28.0939 548.976 27.2746 548.524C26.463 548.073 25.8429 547.308 25.4141 546.236L27.1368 545.402C27.3895 546.083 27.6422 546.527 27.9178 546.749C28.4079 547.17 29.0127 547.3 29.7248 547.132C30.2837 547.002 30.7049 546.703 30.9882 546.236C31.2715 545.77 31.3403 545.257 31.2025 544.675C31.1489 544.446 31.0647 544.239 30.9575 544.063C30.8503 543.887 30.7048 543.734 30.5287 543.604C30.3526 543.474 30.1382 543.367 29.8932 543.275C29.6406 543.183 29.3573 543.114 29.028 543.053L27.7647 542.847C25.973 542.548 24.9164 541.737 24.6024 540.406C24.3881 539.511 24.5489 538.684 25.0925 537.919C25.6284 537.154 26.4095 536.641 27.4278 536.404C28.7984 536.098 30.0234 536.511 31.1183 537.659Z" fill="white"/>
<path d="M36.8915 536.197L39.3262 546.405L37.5346 546.833L35.0922 536.626L32.3587 537.276L31.9529 535.585L39.2191 533.856L39.6172 535.539L36.8915 536.197Z" fill="white"/>
<path d="M42.4271 533.091L44.1422 540.253C44.3872 541.278 44.7318 541.982 45.1759 542.372C45.8343 542.938 46.623 543.107 47.5265 542.892C48.4377 542.678 49.0578 542.166 49.3947 541.362C49.6168 540.827 49.6092 540.038 49.3642 538.998L47.649 531.836L49.4484 531.407L51.2783 539.067C51.5769 540.322 51.4314 541.446 50.8495 542.441C50.1834 543.558 49.2186 544.262 47.9323 544.568C46.6536 544.874 45.4669 544.675 44.3796 543.987C43.4072 543.359 42.7641 542.426 42.4655 541.171L40.6355 533.511L42.4271 533.091Z" fill="white"/>
<path d="M56.3394 540.559L57.1509 540.367C57.9549 540.176 58.6057 539.931 59.1034 539.633C59.5934 539.327 60.0069 538.921 60.3514 538.432C61.0405 537.414 61.2319 536.258 60.9257 534.965C60.6118 533.664 59.9226 532.708 58.8583 532.104C57.9013 531.568 56.6532 531.484 55.1219 531.843L54.3103 532.035L56.3394 540.559ZM54.9458 542.678L52.1052 530.78L54.6013 530.183C55.7957 529.9 56.7757 529.793 57.5261 529.862C58.33 529.915 59.0957 530.145 59.8384 530.558C61.3315 531.384 62.3039 532.708 62.7326 534.529C63.1691 536.358 62.8858 537.988 61.8751 539.426C61.3698 540.145 60.7878 540.696 60.137 541.087C59.5322 541.462 58.621 541.798 57.4189 542.089L54.9458 542.678Z" fill="white"/>
<path d="M70.351 528.209L65.5809 529.349L66.2624 532.203L70.8946 531.101L71.3004 532.785L66.6682 533.894L67.6176 537.865L72.3876 536.733L72.7935 538.416L66.2241 539.985L63.3759 528.086L69.9451 526.518L70.351 528.209Z" fill="white"/>
<path d="M74.9603 537.896L71.9207 525.194L82.7701 532.195L80.7947 523.931L82.5941 523.503L85.6108 536.121L74.7689 529.142L76.7596 537.467L74.9603 537.896Z" fill="white"/>
<path d="M88.9416 523.771L91.384 533.978L89.5847 534.407L87.1499 524.199L84.4088 524.85L84.0107 523.166L91.2692 521.429L91.6749 523.12L88.9416 523.771Z" fill="white"/>
<path d="M99.8214 521.261L98.5734 522.47C98.1905 522.065 97.8537 521.82 97.5704 521.728C97.2718 521.628 96.9196 521.621 96.5138 521.72C96.0161 521.843 95.6332 522.08 95.3729 522.439C95.1126 522.799 95.0283 523.182 95.1279 523.602C95.2657 524.184 95.8093 524.544 96.7587 524.697L98.0604 524.896C99.117 525.056 99.9363 525.362 100.518 525.821C101.1 526.281 101.491 526.916 101.682 527.734C101.942 528.829 101.797 529.823 101.238 530.711C100.671 531.606 99.852 532.18 98.7571 532.44C97.7235 532.685 96.797 532.586 95.9777 532.134C95.1661 531.683 94.546 530.918 94.1172 529.846L95.84 529.012C96.0926 529.693 96.3453 530.137 96.621 530.359C97.111 530.787 97.7159 530.91 98.4279 530.742C98.9869 530.611 99.408 530.313 99.6913 529.846C99.9746 529.38 100.043 528.867 99.9056 528.285C99.852 528.056 99.7678 527.849 99.6606 527.673C99.5534 527.497 99.4079 527.344 99.2318 527.214C99.0557 527.084 98.8414 526.977 98.5963 526.885C98.3513 526.793 98.0604 526.724 97.7311 526.663L96.4678 526.457C94.6761 526.158 93.6195 525.347 93.3056 524.016C93.0912 523.12 93.252 522.294 93.7956 521.529C94.3316 520.764 95.1126 520.251 96.1309 520.014C97.5015 519.7 98.7341 520.113 99.8214 521.261Z" fill="white"/>
<path d="M-0.128435 566.942L-0.993659 567.776C-1.26165 567.493 -1.49137 567.325 -1.68279 567.263C-1.88952 567.195 -2.12694 567.187 -2.41024 567.256C-2.7548 567.34 -3.01506 567.501 -3.19883 567.753C-3.38259 567.998 -3.43626 568.266 -3.36735 568.557C-3.27546 568.954 -2.90021 569.207 -2.24172 569.314L-1.33827 569.452C-0.610874 569.559 -0.0441989 569.773 0.361612 570.087C0.759767 570.401 1.03536 570.844 1.16552 571.403C1.34929 572.161 1.24207 572.842 0.859231 573.454C0.468733 574.074 -0.0978639 574.471 -0.855889 574.647C-1.56797 574.816 -2.21114 574.747 -2.77009 574.433C-3.32904 574.119 -3.75777 573.599 -4.05639 572.857L-2.86963 572.283C-2.69353 572.75 -2.51737 573.063 -2.3336 573.209C-1.9967 573.5 -1.57558 573.591 -1.0932 573.477C-0.702704 573.385 -0.41939 573.178 -0.220313 572.857C-0.0288927 572.535 0.0246601 572.176 -0.0748785 571.778C-0.113163 571.617 -0.166738 571.48 -0.243306 571.357C-0.319874 571.235 -0.419424 571.128 -0.541933 571.036C-0.664442 570.944 -0.80988 570.867 -0.97833 570.806C-1.15444 570.745 -1.35354 570.691 -1.57558 570.653L-2.44847 570.515C-3.68888 570.309 -4.41626 569.75 -4.63065 568.832C-4.77613 568.212 -4.66898 567.646 -4.29379 567.118C-3.91861 566.59 -3.38265 566.238 -2.68588 566.07C-1.73643 565.863 -0.88646 566.146 -0.128435 566.942Z" fill="white"/>
<path d="M6.60164 569.383L4.71812 566.881L4.10554 569.98L6.60164 569.383ZM7.38263 570.431L3.86823 571.273L3.43175 573.484L2.09949 573.806L4.08264 564.111L10.0931 571.9L8.73789 572.222L7.38263 570.431Z" fill="white"/>
<path d="M10.9737 571.678L8.87573 562.909L16.3639 567.745L15.0011 562.037L16.2415 561.739L18.3241 570.454L10.8435 565.633L12.2141 571.38L10.9737 571.678Z" fill="white"/>
<path d="M24.235 567.279L24.794 567.149C25.3529 567.019 25.797 566.85 26.1416 566.644C26.4785 566.429 26.7694 566.154 26.9991 565.817C27.4738 565.113 27.604 564.318 27.3973 563.422C27.1829 562.519 26.7082 561.861 25.9731 561.448C25.3147 561.081 24.4494 561.02 23.3928 561.272L22.8339 561.402L24.235 567.279ZM23.2779 568.74L21.3179 560.53L23.0406 560.117C23.8676 559.918 24.5414 559.849 25.0544 559.895C25.6056 559.933 26.1416 560.094 26.6469 560.377C27.6806 560.951 28.3467 561.861 28.6453 563.124C28.9439 564.386 28.7525 565.511 28.0557 566.506C27.7035 567.003 27.3054 567.386 26.8537 567.654C26.4326 567.914 25.8123 568.143 24.9777 568.342L23.2779 568.74Z" fill="white"/>
<path d="M30.3373 558.38L32.2974 566.59L31.057 566.888L29.0969 558.678L30.3373 558.38Z" fill="white"/>
<path d="M36.991 558.02L33.6986 558.808L34.1657 560.782L37.3662 560.017L37.6418 561.18L34.4489 561.945L35.0998 564.692L38.3998 563.904L38.6754 565.067L34.1428 566.146L32.1826 557.936L36.7154 556.857L36.991 558.02Z" fill="white"/>
<path d="M43.3766 559.428L46.7685 558.617L46.8298 558.892C46.9752 559.512 47.0365 560.071 47.0059 560.583C46.9676 561.058 46.8298 561.524 46.5848 561.991C46.0259 563.032 45.1606 563.69 43.9815 563.973C42.833 564.248 41.7458 564.065 40.7274 563.437C39.7091 562.802 39.0583 561.899 38.7826 560.729C38.4993 559.535 38.6755 558.426 39.311 557.4C39.9465 556.367 40.8576 555.709 42.052 555.426C42.6952 555.273 43.323 555.258 43.9432 555.388C44.5404 555.526 45.1607 555.824 45.8191 556.291L45.1377 557.347C44.2495 556.612 43.323 556.36 42.3506 556.589C41.4778 556.796 40.8269 557.27 40.3752 558.012C39.9234 558.739 39.8086 559.55 40.023 560.438C40.245 561.348 40.7504 562.029 41.5467 562.466C42.2894 562.871 43.0244 562.986 43.7365 562.81C44.349 562.665 44.8467 562.328 45.2296 561.8C45.62 561.272 45.7655 560.706 45.6889 560.117L43.6369 560.606L43.3766 559.428Z" fill="white"/>
<path d="M49.0733 558.219C49.2877 559.13 49.77 559.803 50.5203 560.239C51.2707 560.683 52.0364 560.805 52.8327 560.614C53.6979 560.407 54.3487 559.941 54.8005 559.198C55.2522 558.456 55.3671 557.653 55.1603 556.788C54.9536 555.916 54.4789 555.25 53.7592 554.799C53.0318 554.34 52.2431 554.217 51.3855 554.424C50.528 554.63 49.8772 555.097 49.4331 555.832C48.989 556.559 48.8665 557.354 49.0733 558.219ZM47.8176 558.502C47.5419 557.347 47.7257 556.253 48.3765 555.22C49.0197 554.187 49.9384 553.529 51.1252 553.245C52.2967 552.962 53.3993 553.146 54.433 553.781C55.4743 554.416 56.1327 555.319 56.416 556.497C56.6993 557.676 56.5156 558.778 55.8648 559.803C55.214 560.828 54.2875 561.486 53.0931 561.777C52.0288 562.03 50.9951 561.892 49.9691 561.356C48.8512 560.775 48.1315 559.818 47.8176 558.502Z" fill="white"/>
<path d="M1489.23 355.235C1501.06 324.975 1452.49 277.735 1380.75 249.722C1309 221.709 1241.25 223.531 1229.42 253.791C1217.59 284.051 1266.16 331.291 1337.91 359.304C1409.65 387.317 1477.4 385.495 1489.23 355.235Z" fill="#7AAFDB"/>
<path d="M1489.23 355.235C1501.06 324.975 1452.49 277.735 1380.75 249.722C1309 221.709 1241.25 223.531 1229.42 253.791C1217.59 284.051 1266.16 331.291 1337.91 359.304C1409.65 387.317 1477.4 385.495 1489.23 355.235Z" fill="#7AAFDB"/>
<path d="M1342.25 348.241C1308.79 335.18 1279.6 317.519 1260.08 298.528C1243.83 282.719 1236 267.102 1239.65 257.759C1243.3 248.416 1259.65 242.234 1282.32 241.629C1309.56 240.895 1342.99 247.69 1376.45 260.751C1409.91 273.813 1439.1 291.473 1458.62 310.464C1474.87 326.273 1482.7 341.89 1479.05 351.233C1475.4 360.576 1459.05 366.758 1436.38 367.363C1409.14 368.097 1375.71 361.31 1342.25 348.241Z" stroke="#12284C" stroke-width="3" stroke-miterlimit="10" stroke-dasharray="9.93 9.93"/>
<path d="M1296.65 296.324C1295.13 295.727 1293.77 295.1 1292.58 294.442C1291.38 293.776 1289.94 292.965 1288.23 292.001C1286.31 290.891 1284.68 289.973 1283.31 289.239C1281.95 288.504 1280.3 287.769 1278.38 287.02C1276 286.094 1273.82 285.397 1271.84 284.931C1269.85 284.472 1268.27 284.227 1267.09 284.196L1270.63 275.129L1297.32 272.321L1297.47 271.93L1284.61 266.911C1282.49 266.084 1280.66 265.526 1279.13 265.243C1277.61 264.96 1276.27 264.975 1275.12 265.289L1281.58 254.484L1314.22 267.232L1310.76 276.085L1284.34 279.001L1284.23 279.406L1297.52 284.594C1299.42 285.336 1301.38 285.834 1303.43 286.086C1305.49 286.339 1307.17 286.331 1308.5 286.055L1303.69 297.602C1303.65 297.617 1303.6 297.633 1303.53 297.64C1303.46 297.648 1303.37 297.648 1303.28 297.64C1302.42 297.633 1301.43 297.541 1300.29 297.365C1299.15 297.189 1297.94 296.829 1296.65 296.324Z" fill="#12284C"/>
<path d="M1325.25 306.991C1321.32 305.46 1318.07 303.486 1315.49 301.076C1312.91 298.666 1311.23 295.941 1310.45 292.911C1309.67 289.881 1309.93 286.706 1311.22 283.377C1312.48 280.141 1314.45 277.654 1317.09 275.932C1319.73 274.203 1322.81 273.338 1326.34 273.323C1329.86 273.308 1333.59 274.073 1337.51 275.603C1341.41 277.126 1344.65 279.085 1347.22 281.472C1349.79 283.859 1351.46 286.591 1352.22 289.644C1352.99 292.697 1352.74 295.85 1351.48 299.086C1350.19 302.384 1348.23 304.886 1345.57 306.593C1342.92 308.299 1339.84 309.171 1336.34 309.21C1332.85 309.256 1329.15 308.513 1325.25 306.991ZM1328.66 298.268C1330.32 298.918 1331.93 299.209 1333.47 299.155C1335.02 299.094 1336.35 298.688 1337.48 297.916C1338.6 297.15 1339.44 296.049 1340 294.618C1340.55 293.21 1340.67 291.848 1340.36 290.524C1340.06 289.2 1339.35 287.999 1338.25 286.928C1337.15 285.857 1335.77 284.992 1334.1 284.341C1332.38 283.668 1330.75 283.347 1329.22 283.377C1327.69 283.408 1326.37 283.814 1325.25 284.602C1324.13 285.39 1323.3 286.484 1322.75 287.884C1322.19 289.315 1322.06 290.692 1322.35 292.016C1322.65 293.34 1323.34 294.541 1324.44 295.628C1325.53 296.714 1326.94 297.594 1328.66 298.268Z" fill="#12284C"/>
<path d="M1367.36 323.434C1363.43 321.896 1360.18 319.93 1357.6 317.519C1355.02 315.109 1353.34 312.385 1352.56 309.355C1351.78 306.325 1352.04 303.149 1353.33 299.821C1354.6 296.584 1356.56 294.097 1359.2 292.376C1361.84 290.647 1364.93 289.782 1368.45 289.767C1371.97 289.751 1375.7 290.516 1379.63 292.047C1383.52 293.569 1386.76 295.528 1389.33 297.916C1391.89 300.303 1393.57 303.035 1394.33 306.088C1395.1 309.141 1394.86 312.293 1393.59 315.53C1392.31 318.828 1390.34 321.33 1387.68 323.036C1385.02 324.743 1381.95 325.615 1378.45 325.653C1374.96 325.699 1371.26 324.957 1367.36 323.434ZM1370.78 314.711C1372.44 315.362 1374.04 315.652 1375.58 315.599C1377.12 315.545 1378.46 315.132 1379.59 314.359C1380.71 313.594 1381.56 312.492 1382.11 311.061C1382.67 309.653 1382.79 308.291 1382.47 306.968C1382.16 305.644 1381.46 304.443 1380.36 303.364C1379.26 302.292 1377.88 301.428 1376.22 300.777C1374.5 300.104 1372.87 299.783 1371.34 299.813C1369.81 299.844 1368.49 300.249 1367.37 301.038C1366.25 301.826 1365.42 302.92 1364.87 304.32C1364.31 305.751 1364.17 307.128 1364.47 308.452C1364.76 309.776 1365.46 310.977 1366.56 312.064C1367.64 313.158 1369.05 314.038 1370.78 314.711Z" fill="#12284C"/>
<path d="M1391.01 331.928C1391.91 330.826 1392.88 329.311 1393.92 327.39C1394.97 325.47 1395.87 323.549 1396.62 321.628L1399.91 313.204C1400.64 311.344 1401.27 309.355 1401.82 307.235C1402.37 305.124 1402.68 303.318 1402.77 301.833L1417.79 307.695L1419.68 322.256C1419.79 322.661 1419.87 323.067 1419.92 323.465C1419.98 323.87 1420.03 324.261 1420.08 324.643C1420.08 325.332 1420.09 326.074 1420.13 326.87C1420.17 327.666 1420.15 328.523 1420.08 329.456L1420.6 329.655C1421.26 328.79 1421.89 328.079 1422.47 327.513C1423.05 326.946 1423.71 326.296 1424.43 325.554C1424.62 325.424 1424.82 325.294 1425.06 325.156C1425.3 325.018 1425.53 324.827 1425.76 324.582L1437.1 315.231L1451.77 320.955C1450.82 322.103 1449.85 323.633 1448.83 325.531C1447.82 327.436 1446.95 329.341 1446.19 331.262L1442.9 339.686C1442.15 341.607 1441.5 343.627 1440.96 345.739C1440.41 347.859 1440.09 349.618 1440 351.042L1426.11 345.617C1426.88 344.561 1427.83 343 1428.96 340.934C1430.08 338.86 1431.02 336.878 1431.75 334.988L1434.14 328.882L1433.54 328.645L1416.89 342.066L1413.88 340.888L1410.83 319.777L1410.41 319.608L1408.02 325.714C1407.25 327.666 1406.58 329.777 1405.99 332.058C1405.39 334.338 1405.06 336.105 1405 337.368L1391.01 331.928Z" fill="#12284C"/>
<path d="M1420.77 557.532L1428.05 573.892L1445.95 573.218L1446.82 591.1L1463.76 596.931L1458.12 613.926L1471.8 625.48L1460.4 639.283L1468.98 655L1453.35 663.754L1455.67 681.506L1437.94 684.023L1433.69 701.423L1416.24 697.368L1405.99 712.052L1391.18 701.974L1376.32 711.967L1366.15 697.222L1348.68 701.178L1344.53 683.763L1326.8 681.138L1329.23 663.402L1313.66 654.556L1322.33 638.886L1311 625.021L1324.75 613.543L1319.2 596.518L1336.18 590.779L1337.16 572.905L1355.05 573.685L1362.42 557.364L1378.84 564.549L1391.61 552L1404.31 564.625L1420.77 557.532Z" fill="#BFDCE1"/>
<path d="M1363.34 608.287L1382.71 605.41C1384.72 604.974 1386.12 604.538 1386.92 604.102C1387.72 603.666 1388.26 603.107 1388.53 602.411C1388.81 601.684 1388.77 600.995 1388.39 600.345C1388.01 599.702 1387.41 599.09 1386.58 598.516C1385.75 597.942 1384.75 597.43 1383.59 596.978C1382.3 596.473 1380.83 596.113 1379.22 595.899C1377.59 595.685 1375.89 595.654 1374.1 595.792C1372.3 595.93 1370.57 596.274 1368.9 596.81C1368.86 596.833 1368.8 596.863 1368.72 596.909C1368.64 596.955 1368.57 596.963 1368.51 596.94L1373.08 585.08C1376.74 584.934 1379.84 584.988 1382.38 585.24C1384.92 585.485 1387.64 586.174 1390.53 587.306C1393.41 588.431 1395.8 589.854 1397.7 591.568C1399.59 593.282 1400.88 595.18 1401.56 597.261C1402.24 599.343 1402.17 601.408 1401.37 603.467C1400.45 605.824 1398.82 607.576 1396.48 608.724C1394.13 609.871 1391.12 610.399 1387.45 610.307L1378.98 610.675L1378.82 611.241L1388.13 614.876C1390.02 615.618 1391.77 616 1393.38 616.039C1394.99 616.077 1396.38 615.786 1397.54 615.166L1392 628.893L1360.14 616.452L1363.34 608.287Z" fill="#12284C"/>
<path d="M1410.44 636.943C1407.06 635.619 1404.26 633.714 1402.06 631.235C1399.85 628.748 1398.47 625.833 1397.93 622.481C1397.39 619.13 1397.86 615.533 1399.37 611.685C1400.86 607.874 1402.95 604.898 1405.63 602.778C1408.32 600.651 1411.31 599.434 1414.61 599.113C1417.91 598.791 1421.26 599.296 1424.64 600.62C1428.1 601.967 1430.92 603.872 1433.11 606.336C1435.31 608.8 1436.67 611.715 1437.22 615.074C1437.76 618.441 1437.28 622.045 1435.77 625.894C1434.28 629.712 1432.2 632.673 1429.54 634.785C1426.87 636.897 1423.89 638.121 1420.58 638.458C1417.27 638.802 1413.89 638.29 1410.44 636.943ZM1414.66 626.146C1416.68 626.935 1418.6 627.378 1420.4 627.47C1422.19 627.562 1423.78 627.225 1425.15 626.46C1426.52 625.695 1427.52 624.517 1428.14 622.925C1428.76 621.333 1428.82 619.811 1428.32 618.349C1427.81 616.895 1426.88 615.572 1425.51 614.386C1424.14 613.2 1422.44 612.213 1420.41 611.425C1418.38 610.636 1416.47 610.208 1414.65 610.154C1412.84 610.101 1411.27 610.43 1409.93 611.149C1408.6 611.868 1407.61 613.047 1406.97 614.669C1406.35 616.26 1406.27 617.791 1406.74 619.252C1407.19 620.714 1408.13 622.03 1409.52 623.208C1410.92 624.371 1412.64 625.358 1414.66 626.146Z" fill="#12284C"/>
<path d="M1348.2 646.99L1367.57 644.113C1369.58 643.677 1370.99 643.24 1371.78 642.804C1372.59 642.368 1373.12 641.81 1373.39 641.113C1373.67 640.386 1373.63 639.698 1373.25 639.047C1372.87 638.405 1372.27 637.792 1371.44 637.219C1370.61 636.645 1369.62 636.132 1368.45 635.681C1367.16 635.176 1365.7 634.816 1364.08 634.602C1362.46 634.387 1360.75 634.357 1358.96 634.494C1357.16 634.632 1355.44 634.977 1353.77 635.512C1353.72 635.535 1353.66 635.566 1353.58 635.612C1353.51 635.658 1353.44 635.665 1353.37 635.642L1357.95 623.782C1361.6 623.637 1364.7 623.69 1367.24 623.943C1369.78 624.188 1372.5 624.876 1375.39 626.009C1378.28 627.134 1380.66 628.557 1382.56 630.271C1384.45 631.985 1385.74 633.882 1386.42 635.964C1387.1 638.045 1387.04 640.111 1386.23 642.169C1385.31 644.526 1383.68 646.278 1381.34 647.426C1379 648.574 1375.99 649.102 1372.31 649.01L1363.84 649.377L1363.68 649.943L1372.99 653.578C1374.88 654.32 1376.64 654.703 1378.25 654.741C1379.85 654.779 1381.24 654.488 1382.4 653.869L1376.87 667.596L1345 655.154L1348.2 646.99Z" fill="#12284C"/>
<path d="M1395.31 675.653C1391.93 674.33 1389.13 672.424 1386.93 669.945C1384.72 667.458 1383.34 664.543 1382.8 661.191C1382.26 657.84 1382.73 654.244 1384.24 650.395C1385.73 646.584 1387.82 643.608 1390.5 641.488C1393.19 639.361 1396.18 638.144 1399.48 637.823C1402.78 637.502 1406.13 638.007 1409.51 639.33C1412.97 640.677 1415.79 642.582 1417.98 645.046C1420.18 647.51 1421.54 650.425 1422.09 653.785C1422.63 657.151 1422.15 660.755 1420.64 664.604C1419.15 668.422 1417.07 671.384 1414.41 673.495C1411.74 675.607 1408.76 676.832 1405.45 677.168C1402.14 677.505 1398.76 677 1395.31 675.653ZM1399.53 664.849C1401.55 665.637 1403.47 666.081 1405.27 666.173C1407.06 666.265 1408.65 665.928 1410.02 665.163C1411.39 664.398 1412.39 663.219 1413.01 661.628C1413.63 660.036 1413.69 658.513 1413.19 657.052C1412.68 655.598 1411.75 654.274 1410.38 653.088C1409.01 651.902 1407.31 650.915 1405.28 650.127C1403.25 649.339 1401.34 648.91 1399.52 648.857C1397.71 648.803 1396.14 649.132 1394.8 649.852C1393.47 650.571 1392.48 651.749 1391.84 653.371C1391.22 654.963 1391.14 656.493 1391.61 657.955C1392.07 659.416 1393 660.732 1394.39 661.911C1395.79 663.081 1397.5 664.061 1399.53 664.849Z" fill="#12284C"/>
</svg>
