<svg width="375" height="609" viewBox="0 0 375 609" fill="none" xmlns="http://www.w3.org/2000/svg">
<path d="M40.5539 149.012C81.7289 149.012 115.108 115.655 115.108 74.506C115.108 33.3575 81.7289 0 40.5539 0C-0.621067 0 -34 33.3575 -34 74.506C-34 115.655 -0.621067 149.012 40.5539 149.012Z" fill="#00609C"/>
<path d="M65.8406 122.275C66.5776 119.823 51.6474 113.174 32.493 107.424C13.3387 101.673 -2.78639 98.9993 -3.52337 101.451C-4.26035 103.903 10.6699 110.552 29.8242 116.302C48.9785 122.053 65.1036 124.727 65.8406 122.275Z" fill="#1C122D"/>
<path d="M30.5543 110.056L30.5688 110.061C30.535 110.143 30.5061 110.225 30.4772 110.307C30.0626 111.68 52.6606 118.469 53.0753 117.091C53.9335 114.233 47.2462 109.695 41.8365 108.071C40.1056 107.55 38.4133 107.3 36.8752 107.29L41.4315 92.1414L36.3931 90.6284L30.5543 110.056Z" fill="#FFCD00" stroke="#160E23" stroke-width="1.00167" stroke-miterlimit="10" stroke-linecap="round" stroke-linejoin="round"/>
<path d="M75.9152 66.6988L19.0969 49.6411L9.23028 82.4642L66.0485 99.5219L75.9152 66.6988Z" fill="#FFCD00" stroke="#160E23" stroke-width="1.00167" stroke-miterlimit="10" stroke-linecap="round" stroke-linejoin="round"/>
<path d="M75.9192 66.7102L19.0985 49.6484L12.9705 41.2886L69.7912 58.3455L75.9192 66.7102Z" fill="#FFCD00" stroke="#160E23" stroke-width="1.00167" stroke-miterlimit="10" stroke-linecap="round" stroke-linejoin="round"/>
<path d="M3.10107 74.1063L9.22911 82.471L19.0986 49.6484L12.9705 41.2886L3.10107 74.1063Z" fill="#160E23" stroke="#160E23" stroke-width="1.00167" stroke-miterlimit="10" stroke-linecap="round" stroke-linejoin="round"/>
<path d="M30.5543 110.056L30.5398 110.051C30.5254 110.138 30.5061 110.22 30.4772 110.306C30.0625 111.68 7.46441 104.895 7.87905 103.522C8.73727 100.665 16.818 100.564 22.2325 102.187C23.9634 102.708 25.5159 103.431 26.8032 104.269L31.3595 89.1201L36.3979 90.6331L30.5543 110.056Z" fill="#FFCD00" stroke="#160E23" stroke-width="1.00167" stroke-miterlimit="10" stroke-linecap="round" stroke-linejoin="round"/>
<path d="M30.024 81.9326C36.1644 81.9326 41.1422 76.958 41.1422 70.8215C41.1422 64.685 36.1644 59.7104 30.024 59.7104C23.8836 59.7104 18.9058 64.685 18.9058 70.8215C18.9058 76.958 23.8836 81.9326 30.024 81.9326Z" fill="white" stroke="#160E23" stroke-width="1.00167" stroke-miterlimit="10" stroke-linecap="round" stroke-linejoin="round"/>
<path d="M30.024 74.9543C32.3087 74.9543 34.1608 73.1034 34.1608 70.8202C34.1608 68.5369 32.3087 66.686 30.024 66.686C27.7393 66.686 25.8872 68.5369 25.8872 70.8202C25.8872 73.1034 27.7393 74.9543 30.024 74.9543Z" fill="#160E23"/>
<path d="M19.3734 67.6255C21.1381 61.7471 27.3432 58.4128 33.2206 60.1812C39.1027 61.9447 42.4392 68.1459 40.6697 74.0194L19.3734 67.6255Z" fill="#FFCD00" stroke="#160E23" stroke-width="1.00167" stroke-miterlimit="10" stroke-linecap="round" stroke-linejoin="round"/>
<path d="M55.1242 89.4673C61.2647 89.4673 66.2425 84.4927 66.2425 78.3562C66.2425 72.2197 61.2647 67.2451 55.1242 67.2451C48.9838 67.2451 44.006 72.2197 44.006 78.3562C44.006 84.4927 48.9838 89.4673 55.1242 89.4673Z" fill="white" stroke="#160E23" stroke-width="1.00167" stroke-miterlimit="10" stroke-linecap="round" stroke-linejoin="round"/>
<path d="M55.1244 82.49C57.409 82.49 59.2611 80.6391 59.2611 78.3558C59.2611 76.0726 57.409 74.2217 55.1244 74.2217C52.8397 74.2217 50.9875 76.0726 50.9875 78.3558C50.9875 80.6391 52.8397 82.49 55.1244 82.49Z" fill="#160E23"/>
<path d="M44.4738 75.1614C46.2432 69.283 52.4436 65.9487 58.3209 67.717C64.2031 69.4854 67.5395 75.6818 65.77 81.5553L44.4738 75.1614Z" fill="#FFCD00" stroke="#160E23" stroke-width="1.00167" stroke-miterlimit="10" stroke-linecap="round" stroke-linejoin="round"/>
<path d="M43.5819 86.6724C43.5819 86.6724 41.3302 87.2602 38.9774 86.5519C36.6293 85.8484 35.072 84.1187 35.072 84.1187" fill="#FFCD00"/>
<path d="M43.5819 86.6724C43.5819 86.6724 41.3302 87.2602 38.9774 86.5519C36.6293 85.8484 35.072 84.1187 35.072 84.1187" stroke="#160E23" stroke-width="1.00167" stroke-miterlimit="10" stroke-linecap="round" stroke-linejoin="round"/>
<path d="M11.0276 126.202L14.7256 125.345C15.1065 125.229 15.3717 125.123 15.5212 125.027C15.6706 124.93 15.7622 124.815 15.8056 124.675C15.849 124.53 15.8297 124.395 15.7478 124.28C15.6658 124.159 15.5404 124.053 15.3669 123.957C15.1981 123.861 14.9956 123.774 14.7642 123.706C14.5038 123.629 14.2194 123.581 13.906 123.567C13.5877 123.552 13.2599 123.571 12.9127 123.624C12.5704 123.677 12.2377 123.774 11.9244 123.899C11.9147 123.904 11.9051 123.914 11.8906 123.923C11.8761 123.933 11.8617 123.938 11.852 123.933L12.5511 121.572C13.2551 121.49 13.8529 121.451 14.3495 121.456C14.8462 121.461 15.3813 121.553 15.9551 121.726C16.5288 121.899 17.0158 122.136 17.4063 122.439C17.7969 122.743 18.0765 123.085 18.2405 123.48C18.4044 123.87 18.4237 124.27 18.3031 124.68C18.1633 125.147 17.874 125.513 17.4401 125.773C17.0062 126.034 16.4324 126.178 15.7237 126.217L14.094 126.419L14.0699 126.53L15.9262 127.089C16.3022 127.204 16.6494 127.248 16.958 127.233C17.2713 127.214 17.5317 127.137 17.7487 127.002L16.8953 129.739L10.5454 127.831L11.0276 126.202Z" fill="#FFCD00"/>
<path d="M20.9694 131.122C20.2944 130.919 19.7254 130.597 19.2626 130.148C18.7997 129.705 18.4863 129.161 18.3272 128.525C18.1681 127.889 18.2067 127.185 18.4381 126.419C18.6647 125.658 19.0215 125.056 19.5085 124.603C19.9954 124.15 20.5547 123.865 21.1863 123.755C21.8179 123.644 22.4736 123.687 23.1486 123.889C23.8333 124.097 24.4119 124.42 24.8747 124.863C25.3376 125.306 25.6462 125.846 25.8053 126.487C25.9644 127.127 25.9258 127.831 25.6944 128.597C25.4678 129.358 25.111 129.961 24.6288 130.414C24.1467 130.866 23.5874 131.146 22.9558 131.262C22.3145 131.372 21.654 131.329 20.9694 131.122ZM21.6154 128.973C22.0204 129.093 22.3965 129.151 22.7436 129.137C23.0956 129.127 23.3945 129.035 23.6452 128.867C23.896 128.698 24.0695 128.452 24.166 128.139C24.2624 127.821 24.2479 127.527 24.1322 127.253C24.0117 126.978 23.8092 126.737 23.5247 126.53C23.2402 126.323 22.8979 126.159 22.4929 126.038C22.0879 125.918 21.7119 125.865 21.3599 125.884C21.0079 125.904 20.709 125.99 20.4631 126.149C20.2172 126.308 20.0436 126.549 19.9472 126.877C19.8508 127.195 19.8604 127.489 19.9713 127.763C20.0822 128.038 20.2847 128.279 20.5692 128.486C20.8681 128.689 21.2104 128.852 21.6154 128.973Z" fill="#FFCD00"/>
<path d="M25.4485 130.534L29.1466 129.676C29.5275 129.561 29.7926 129.455 29.9421 129.358C30.0916 129.262 30.1832 129.146 30.2266 129.007C30.27 128.862 30.2507 128.727 30.1687 128.612C30.0867 128.491 29.9614 128.385 29.7878 128.289C29.6142 128.192 29.4166 128.106 29.1851 128.038C28.9248 127.961 28.6403 127.913 28.3221 127.898C28.0039 127.884 27.676 127.903 27.3289 127.956C26.9817 128.009 26.6539 128.106 26.3453 128.236C26.3357 128.241 26.326 128.245 26.3116 128.255C26.2971 128.265 26.2826 128.269 26.273 128.265L26.9721 125.904C27.676 125.822 28.2739 125.783 28.7705 125.788C29.2671 125.798 29.8023 125.889 30.376 126.058C30.9498 126.226 31.4367 126.467 31.8273 126.771C32.2178 127.075 32.4975 127.421 32.6614 127.812C32.8253 128.202 32.8446 128.602 32.7241 129.011C32.5842 129.479 32.295 129.845 31.861 130.105C31.4271 130.365 30.8534 130.51 30.1446 130.553L28.515 130.756L28.4908 130.867L30.3471 131.425C30.7232 131.536 31.0703 131.584 31.3789 131.565C31.6923 131.546 31.9526 131.469 32.1696 131.334L31.3162 134.071L24.9712 132.163L25.4485 130.534Z" fill="#FFCD00"/>
<path d="M35.3902 135.453C34.7152 135.251 34.1463 134.928 33.6835 134.48C33.2206 134.032 32.9072 133.492 32.7481 132.856C32.589 132.22 32.6276 131.517 32.859 130.75C33.0856 129.989 33.4424 129.387 33.9293 128.934C34.4163 128.481 34.9756 128.197 35.6072 128.086C36.2388 127.975 36.8945 128.018 37.5695 128.221C38.259 128.428 38.8327 128.751 39.2956 129.194C39.7585 129.637 40.067 130.177 40.2261 130.818C40.3852 131.459 40.3467 132.162 40.1152 132.928C39.8886 133.69 39.5319 134.292 39.0497 134.745C38.5676 135.193 38.0083 135.477 37.3767 135.593C36.7354 135.704 36.0749 135.655 35.3902 135.453ZM36.0363 133.299C36.4413 133.42 36.8174 133.478 37.1645 133.468C37.5117 133.458 37.8154 133.367 38.0661 133.198C38.3168 133.03 38.4904 132.784 38.5868 132.471C38.6833 132.153 38.6688 131.859 38.5531 131.584C38.4326 131.309 38.2301 131.068 37.9504 130.861C37.666 130.654 37.3236 130.49 36.9186 130.37C36.5136 130.249 36.1376 130.196 35.7856 130.216C35.4336 130.235 35.1347 130.322 34.8888 130.481C34.6429 130.64 34.4693 130.885 34.3729 131.208C34.2765 131.526 34.2861 131.82 34.397 132.095C34.5079 132.369 34.7104 132.61 34.9949 132.817C35.2842 133.015 35.6313 133.179 36.0363 133.299Z" fill="#FFCD00"/>
<path d="M-0.322045 45.2058C-1.05973 46.2755 -1.96133 47.1525 -3.03169 47.8318C-4.10205 48.5112 -5.25438 48.8581 -6.49831 48.8774C-7.73742 48.8967 -8.96207 48.492 -10.1626 47.668C-11.3776 46.8344 -12.1924 45.837 -12.6119 44.671C-13.0314 43.505 -13.1133 42.3004 -12.8674 41.0621C-12.6167 39.8189 -12.1249 38.6625 -11.3873 37.5929C-10.881 36.8557 -10.3265 36.1859 -9.7335 35.5933C-9.14047 34.9958 -8.59564 34.5332 -8.09903 34.2056L-4.43956 36.8075C-4.92652 36.952 -5.4617 37.2508 -6.04509 37.7133C-6.62848 38.1759 -7.11545 38.6866 -7.50599 39.2552C-7.9592 39.9105 -8.27742 40.5513 -8.46064 41.1777C-8.64385 41.8041 -8.6776 42.3727 -8.55224 42.8882C-8.43171 43.4038 -8.14242 43.8182 -7.6892 44.1314C-7.22152 44.4494 -6.72492 44.565 -6.18974 44.4686C-5.65456 44.3723 -5.13867 44.1217 -4.64207 43.7122C-4.14546 43.3026 -3.68259 42.787 -3.24866 42.1558C-2.73277 41.409 -2.36634 40.6284 -2.14937 39.8093C-1.93241 38.995 -1.85527 38.2337 -1.92277 37.5302L2.06456 40.267C1.78491 41.1295 1.4667 41.9486 1.11956 42.7196C0.772416 43.4857 0.290277 44.3145 -0.322045 45.2058Z" fill="#FFCD00"/>
<path d="M2.6866 40.9222C2.38767 40.4404 1.95857 39.8718 1.39446 39.2165C0.830353 38.5612 0.26142 37.9493 -0.326795 37.3711L-2.90144 34.8463C-3.48483 34.2681 -4.11163 33.7092 -4.77698 33.1599C-5.44234 32.6106 -6.01609 32.1914 -6.50305 31.9023L-2.98341 28.3223C-2.68448 28.8041 -2.25055 29.3678 -1.68162 30.0135C-1.11269 30.6592 -0.534113 31.2711 0.0541024 31.8445L2.62875 34.3693C3.21696 34.9475 3.8341 35.5112 4.48981 36.0702C5.14553 36.6291 5.71928 37.0531 6.20624 37.3422L2.6866 40.9222Z" fill="#FFCD00"/>
<path d="M8.11549 35.5741C7.80209 35.179 7.38745 34.7116 6.86674 34.1719C6.34602 33.6323 5.81083 33.1119 5.26119 32.6156C5.17922 32.5385 5.10208 32.471 5.03941 32.4132C4.97673 32.3554 4.90922 32.2976 4.8369 32.2398L1.68369 30.0378C1.02315 29.4692 0.328858 28.9247 -0.399179 28.4044C-1.12722 27.884 -1.75883 27.4744 -2.29883 27.1805L1.83796 24.2365C2.08868 24.5882 2.38278 24.9496 2.7251 25.3206C3.06743 25.6916 3.43387 26.0482 3.82441 26.3903L7.26208 28.9344C7.38262 29.0452 7.50315 29.1512 7.62369 29.2524C7.74423 29.3536 7.85994 29.4644 7.97083 29.58C8.13476 29.7053 8.30352 29.845 8.47227 29.9992C8.64584 30.1582 8.80977 30.3124 8.96888 30.4714L9.14727 30.3413C9.07012 30.1245 8.98816 29.927 8.9062 29.7487C8.82423 29.5656 8.73745 29.3969 8.65066 29.2331C8.58316 29.0741 8.51566 28.9103 8.45298 28.7513C8.3903 28.5923 8.32762 28.4236 8.26012 28.2454L6.95352 24.1642C6.72691 23.6149 6.49066 23.1235 6.24477 22.6802C5.99887 22.2369 5.7819 21.8659 5.59387 21.5623L9.68727 18.6472C9.79816 19.2447 9.98139 19.9771 10.2417 20.8396C10.5021 21.702 10.7866 22.5308 11.1048 23.3306L12.1462 27.0119C12.4548 27.7876 12.8067 28.5586 13.1925 29.3391C13.583 30.1149 13.935 30.7364 14.2532 31.2038L8.11549 35.5741Z" fill="#FFCD00"/>
<path d="M16.5579 29.9753C16.4422 29.4212 16.2349 28.737 15.9311 27.9323C15.6274 27.1276 15.2995 26.3519 14.9475 25.6099L13.395 22.3527C13.0431 21.6106 12.6477 20.8686 12.209 20.1266C11.775 19.3846 11.3749 18.7919 11.0181 18.3534L15.555 16.1948C15.6708 16.7489 15.8829 17.4283 16.1963 18.233C16.5097 19.0328 16.8424 19.8038 17.1992 20.5458L18.7517 23.7982C19.1036 24.5402 19.4942 25.287 19.9184 26.0339C20.3427 26.7807 20.7333 27.3782 21.0949 27.8167L16.5579 29.9753Z" fill="#FFCD00"/>
<path d="M28.0953 25.8169C26.8418 26.1639 25.5882 26.2554 24.3346 26.0916C23.0762 25.9278 21.9673 25.4508 21.0078 24.6702C20.0435 23.8896 19.3685 22.7959 18.978 21.3889C18.5826 19.9723 18.6019 18.681 19.0262 17.5198C19.4553 16.3585 20.1641 15.3804 21.1525 14.5902C22.1409 13.8 23.2643 13.2314 24.5178 12.8845C25.3809 12.6436 26.2294 12.4894 27.0684 12.4123C27.9073 12.3401 28.6209 12.3352 29.2139 12.3979L30.347 16.7392C29.8841 16.5368 29.2814 16.426 28.5341 16.4019C27.7916 16.3778 27.0877 16.4597 26.4223 16.6428C25.6557 16.8548 25 17.1439 24.4551 17.5053C23.9103 17.8667 23.5246 18.2811 23.2835 18.7581C23.0473 19.2303 22.9991 19.7362 23.1485 20.2662C23.298 20.8107 23.6114 21.2154 24.0791 21.4853C24.5468 21.7551 25.106 21.8948 25.7521 21.8996C26.3982 21.9045 27.0877 21.8081 27.8205 21.6009C28.6932 21.36 29.4791 20.9938 30.1734 20.5071C30.8677 20.0205 31.4125 19.4905 31.8078 18.9074L33.1048 23.5668C32.3334 24.0486 31.5668 24.4726 30.805 24.8388C30.0432 25.205 29.1368 25.5278 28.0953 25.8169Z" fill="#FFCD00"/>
<path d="M36.3595 23.822C36.4993 23.2631 36.6247 22.5548 36.7356 21.7019C36.8416 20.8491 36.914 20.0155 36.9381 19.206L37.0586 15.6019C37.0827 14.8069 37.0731 13.9733 37.02 13.106C36.967 12.2387 36.8899 11.5208 36.7886 10.957L47.6031 11.3136L48.0756 16.0018C47.8587 15.8091 47.526 15.6646 47.0679 15.5634C46.6099 15.4622 45.9204 15.3947 45.0043 15.3658L41.2533 15.2405L41.2051 16.7487L44.1461 16.845C45.1152 16.8788 45.8674 16.8788 46.4122 16.845L46.3495 18.7579C45.8626 18.6664 45.1104 18.6086 44.0931 18.5748L41.152 18.4785L41.1086 19.8372L44.3631 19.9432C45.6504 19.9866 46.5906 19.9577 47.1836 19.8517C47.7767 19.7505 48.2251 19.5963 48.524 19.3988L47.7188 24.193L36.3595 23.822Z" fill="#FFCD00"/>
<path d="M48.0756 24.1497C48.3456 23.6534 48.6348 23.0029 48.9434 22.1982C49.252 21.3936 49.522 20.5986 49.7438 19.8083L50.7274 16.3391C50.9491 15.5489 51.142 14.7298 51.3011 13.8818C51.4554 13.0338 51.5518 12.3303 51.5856 11.7617L55.9538 13.0145L58.5043 20.7672L58.7358 20.8347L59.3336 18.729C59.5602 18.0159 59.7579 17.1968 59.9218 16.2765C60.0858 15.3562 60.1774 14.6624 60.1967 14.195L65.0856 15.5778C64.806 16.0741 64.5118 16.7198 64.1984 17.5245C63.8851 18.3291 63.6199 19.1241 63.3981 19.9144L61.1561 27.8405L57.3472 26.766L54.705 18.6616L54.4591 18.5893L53.8758 20.6612C53.654 21.4418 53.4515 22.3235 53.2586 23.3065C53.0706 24.2894 52.9645 25.0314 52.9404 25.5181L48.0756 24.1497Z" fill="#FFCD00"/>
<path d="M67.0865 31.8396C65.9149 31.1217 65.0085 30.24 64.3672 29.204C63.726 28.1681 63.403 27.055 63.403 25.8697C63.403 24.6844 63.7598 23.5184 64.4685 22.3668C65.1676 21.2297 66.0644 20.3913 67.1492 19.8564C68.234 19.3216 69.396 19.1096 70.6351 19.2252C71.8743 19.3409 73.0748 19.7552 74.2367 20.4684C75.1046 21.0032 75.8375 21.5477 76.4402 22.1018C77.0428 22.6607 77.5201 23.1859 77.8769 23.6774L75.6687 27.1996C75.5 26.7515 75.1625 26.2793 74.6562 25.7878C74.15 25.2963 73.6003 24.8675 73.0073 24.5013C72.2551 24.0387 71.556 23.7352 70.91 23.5906C70.2639 23.4461 69.6949 23.4605 69.1935 23.6388C68.6969 23.8171 68.3015 24.1447 68.0026 24.6218C67.7471 25.041 67.6314 25.4746 67.6555 25.9227C67.6796 26.3708 67.8483 26.8093 68.1521 27.2429C68.4558 27.6718 68.8849 28.0621 69.4394 28.3993C69.6901 28.5535 69.9408 28.6836 70.1964 28.7896C70.4471 28.8956 70.6882 28.9679 70.9148 29.0065C71.1414 29.045 71.3439 29.0643 71.5223 29.0546L72.1201 28.0862L71.2282 27.5369C71.0305 27.4164 70.7942 27.2863 70.5242 27.1562C70.2542 27.0261 70.0421 26.9201 69.8878 26.8382L70.8425 25.3927L76.5173 28.8812L73.663 33.5164C73.0121 33.6369 72.3082 33.6369 71.5512 33.5261C70.7942 33.4104 70.0373 33.2081 69.2803 32.919C68.5137 32.6299 67.7856 32.2685 67.0865 31.8396Z" fill="#FFCD00"/>
<path d="M71.5752 33.936C72.1682 33.7384 72.8818 33.4493 73.7207 33.0687C74.5597 32.6929 75.3456 32.3074 76.0784 31.9219L79.5402 30.3078C80.2586 29.9175 80.9626 29.4742 81.6472 28.9779C82.3367 28.4816 82.9152 28.0287 83.3926 27.6191L88.6238 33.0012L88.5853 33.0639C88.1369 33.5505 87.6547 34.1239 87.1437 34.784C86.6326 35.4441 86.189 36.1091 85.8129 36.7788L84.1254 40.1902C83.7156 40.9129 83.3058 41.6839 82.9008 42.5078C82.4958 43.3318 82.1824 44.0352 81.9654 44.6183L78.441 40.99C78.6724 40.7347 78.9279 40.4167 79.2172 40.0456C79.5065 39.6746 79.8102 39.2313 80.1429 38.7254L80.302 38.364L77.79 35.7766L77.4092 35.9404C77.2163 36.0416 76.8643 36.2681 76.3436 36.615C75.7843 36.9908 75.3697 37.304 75.1045 37.5594L71.5752 33.936ZM81.2952 36.7836L82.221 34.8322C82.3463 34.5576 82.4958 34.2974 82.6597 34.0564C82.8285 33.8155 83.0117 33.5746 83.2045 33.3337C83.2287 33.2566 83.2672 33.1843 83.3154 33.1217C83.3636 33.059 83.4167 32.982 83.4697 32.8952L83.3154 32.7362C83.2094 32.8229 83.1177 32.8904 83.0309 32.9482C82.949 33.0012 82.8622 33.0542 82.7754 33.1072C82.5488 33.2614 82.3222 33.406 82.1004 33.5457C81.8786 33.6854 81.6279 33.8204 81.3579 33.9456L79.3811 34.8129L81.2952 36.7836Z" fill="#FFCD00"/>
<path d="M83.8748 49.0653C83.1757 47.8848 82.7803 46.685 82.6935 45.466C82.6067 44.2469 82.8382 43.1146 83.3974 42.0691C83.9519 41.0187 84.8101 40.1514 85.9721 39.4671C87.1244 38.7829 88.3009 38.4601 89.511 38.4938C90.7212 38.5276 91.8494 38.8793 92.8909 39.5587C93.9371 40.2381 94.805 41.1632 95.4993 42.3341C96.02 43.211 96.4153 44.0349 96.6853 44.8059C96.9553 45.5768 97.1386 46.2658 97.2253 46.8681L93.6286 48.9545C93.6864 48.4775 93.6093 47.9041 93.3923 47.2343C93.1753 46.5646 92.886 45.9285 92.5293 45.3263C92.0809 44.5698 91.6036 43.9723 91.0973 43.5435C90.5959 43.1146 90.08 42.8641 89.5593 42.787C89.0386 42.7099 88.5323 42.8159 88.0502 43.105C87.6259 43.3556 87.3221 43.6832 87.1389 44.0928C86.9557 44.5023 86.893 44.9697 86.9605 45.4901C87.028 46.0105 87.2257 46.5549 87.5584 47.1139C87.7078 47.3692 87.8718 47.6005 88.0453 47.8077C88.2189 48.0197 88.3973 48.1932 88.5805 48.3329C88.7637 48.4726 88.9373 48.5835 89.0964 48.6605L90.08 48.0775L89.5448 47.1765C89.4243 46.9741 89.2748 46.7525 89.0964 46.5116C88.918 46.2707 88.7782 46.0779 88.6818 45.9334L90.1957 45.0998L93.5948 50.8288L88.9084 53.6042C88.2767 53.4066 87.6548 53.0838 87.0376 52.6309C86.4205 52.1779 85.8419 51.6479 85.3116 51.036C84.7716 50.4289 84.2942 49.7688 83.8748 49.0653Z" fill="#FFCD00"/>
<path d="M87.2546 54.3848C87.8284 54.3366 88.542 54.2306 89.3857 54.0572C90.2295 53.8837 91.0395 53.6813 91.8157 53.45L95.2679 52.4093C96.0297 52.178 96.8155 51.8985 97.6207 51.5757C98.4259 51.2481 99.0816 50.9445 99.5879 50.665L102.717 61.0197L98.4211 62.9663C98.532 62.7013 98.5657 62.3351 98.5127 61.8725C98.4597 61.4099 98.3054 60.7354 98.0354 59.8536L96.9505 56.264L95.5041 56.6976L96.3575 59.5163C96.6372 60.4415 96.8782 61.1594 97.0807 61.6605L95.2486 62.2146C95.1763 61.7231 94.993 60.9908 94.6989 60.0174L93.8455 57.1987L92.5438 57.5938L93.4839 60.7113C93.8552 61.9448 94.1879 62.8217 94.4723 63.3517C94.7616 63.8818 95.0461 64.2528 95.3305 64.4744L90.5284 65.2502L87.2546 54.3848Z" fill="#FFCD00"/>
<path d="M91.0442 65.5006C91.5987 65.6211 92.3026 65.7126 93.1608 65.7849C94.019 65.8524 94.8579 65.8861 95.6824 65.8813L99.2889 65.862C100.099 65.8572 100.938 65.8186 101.801 65.7415C102.664 65.6645 103.373 65.5633 103.922 65.438L103.951 71.1959L98.8646 73.2822C98.7537 73.3449 98.6428 73.3979 98.5271 73.4412C98.4113 73.4846 98.3053 73.5232 98.204 73.5617C97.9244 73.6629 97.6254 73.7689 97.3121 73.8797C96.9987 73.9905 96.6515 74.0917 96.2755 74.1784V74.3808C96.7672 74.4772 97.1674 74.5736 97.4808 74.6796C97.7942 74.7807 98.1847 74.9205 98.6524 75.0891C98.7006 75.1277 98.744 75.1518 98.7826 75.1614C98.8212 75.1758 98.8549 75.1903 98.8935 75.2144L103.985 77.2863L104.014 82.9334C103.459 82.8129 102.755 82.7165 101.897 82.6395C101.039 82.5624 100.195 82.5286 99.3756 82.5334L95.7692 82.5527C94.9448 82.5575 94.1058 82.6009 93.2476 82.6828C92.3894 82.7647 91.6854 82.8707 91.131 82.996L91.1069 77.9753C91.6613 78.0813 92.3701 78.1729 93.2331 78.25C94.0962 78.327 94.9351 78.3608 95.7451 78.356L98.8019 78.3415V78.1199L91.0924 74.8097L91.0876 73.6147L98.7633 70.2467V70.0636L95.7113 70.0781C94.8772 70.0829 94.0335 70.1262 93.1801 70.2081C92.3267 70.2901 91.6276 70.3961 91.0731 70.5213L91.0442 65.5006Z" fill="#FFCD00"/>
<path d="M90.6584 82.9766C91.1695 83.2464 91.8252 83.5403 92.6304 83.8487C93.4356 84.1571 94.2263 84.4221 95.0074 84.6437L98.4788 85.6267C99.2454 85.8435 100.055 86.0314 100.909 86.1904C101.762 86.3494 102.481 86.4458 103.054 86.4795L100.108 96.8871L95.4413 96.2174C95.6775 96.0536 95.8993 95.7645 96.1066 95.3453C96.3139 94.9261 96.5454 94.2756 96.7961 93.389L97.8183 89.7801L96.367 89.3705L95.5666 92.2037C95.3014 93.1336 95.1231 93.866 95.0218 94.4009L93.18 93.8805C93.3825 93.4276 93.6236 92.7144 93.9032 91.7315L94.7036 88.8983L93.3922 88.5273L92.505 91.6592C92.1531 92.8975 91.9602 93.8178 91.9168 94.4153C91.8734 95.0128 91.912 95.485 92.0325 95.8223L87.5679 93.8901L90.6584 82.9766Z" fill="#FFCD00"/>
<path d="M87.5584 94.3193C87.9682 94.7048 88.5227 95.1529 89.2218 95.6588C89.9209 96.1648 90.62 96.6273 91.3287 97.0465L94.4289 98.8871C95.1377 99.3063 95.8802 99.7014 96.6564 100.072C97.4327 100.443 98.0932 100.713 98.6332 100.892L96.2948 104.79L88.1418 105.257L88.0212 105.464L89.9064 106.582C90.538 106.987 91.2757 107.387 92.1243 107.782C92.9729 108.177 93.6189 108.447 94.0673 108.582L91.4734 112.947C91.0684 112.547 90.5139 112.099 89.8196 111.588C89.1205 111.082 88.4166 110.62 87.7127 110.201L80.6251 105.994L82.6453 102.592L91.1648 102.13L91.295 101.908L89.4435 100.81C88.7492 100.395 87.9489 99.9712 87.0425 99.5376C86.1409 99.0991 85.4514 98.81 84.9837 98.6607L87.5584 94.3193Z" fill="#FFCD00"/>
<path d="M77.9443 108.581C78.248 109.058 78.6723 109.632 79.2268 110.301C79.7813 110.971 80.3406 111.593 80.9143 112.166L83.7397 115.009L84.9546 113.804C85.2922 113.467 85.5766 113.13 85.7984 112.788C86.0202 112.446 86.1841 112.05 86.2902 111.598L89.2072 115.549L81.3482 123.35L77.4284 120.396C77.8286 120.309 78.2143 120.15 78.5904 119.919C78.9616 119.688 79.3136 119.408 79.6366 119.09L80.7745 117.963L77.9491 115.12C77.3705 114.537 76.7486 113.968 76.088 113.414C75.4275 112.86 74.8585 112.431 74.3812 112.128L77.9443 108.581Z" fill="#FFCD00"/>
<path d="M416.094 151.382C423.543 132.327 392.958 102.58 347.78 84.9397C302.602 67.2999 259.938 68.4471 252.489 87.5022C245.039 106.557 275.624 136.304 320.802 153.944C365.981 171.584 408.644 170.437 416.094 151.382Z" fill="#7AAFDB"/>
<path d="M416.094 151.382C423.543 132.327 392.958 102.58 347.78 84.9397C302.602 67.2999 259.938 68.4471 252.489 87.5022C245.039 106.557 275.624 136.304 320.802 153.944C365.981 171.584 408.644 170.437 416.094 151.382Z" fill="#7AAFDB"/>
<path d="M323.536 146.978C302.466 138.753 284.087 127.632 271.792 115.673C261.561 105.718 256.629 95.884 258.928 90.0008C261.228 84.1176 271.522 80.2244 285.798 79.8438C302.953 79.3812 324.003 83.6599 345.073 91.8848C366.143 100.11 384.522 111.23 396.817 123.19C407.048 133.144 411.98 142.979 409.68 148.862C407.381 154.745 397.087 158.638 382.811 159.019C365.661 159.481 344.61 155.207 323.536 146.978Z" stroke="#12284C" stroke-width="1.88912" stroke-miterlimit="10" stroke-dasharray="6.25 6.25"/>
<path d="M294.824 114.286C293.865 113.91 293.011 113.515 292.259 113.1C291.507 112.681 290.596 112.17 289.52 111.563C288.315 110.865 287.283 110.286 286.425 109.824C285.567 109.361 284.53 108.899 283.32 108.427C281.821 107.844 280.447 107.405 279.198 107.111C277.949 106.822 276.951 106.668 276.208 106.649L278.441 100.939L295.244 99.1705L295.34 98.9248L287.24 95.764C285.904 95.2436 284.757 94.8918 283.793 94.7136C282.833 94.5353 281.989 94.5449 281.266 94.7425L285.331 87.939L305.889 95.9663L303.71 101.541L287.071 103.377L287.004 103.632L295.374 106.899C296.565 107.367 297.804 107.68 299.096 107.839C300.388 107.998 301.449 107.993 302.288 107.819L299.255 115.09C299.231 115.1 299.197 115.11 299.154 115.114C299.11 115.119 299.057 115.119 298.999 115.114C298.459 115.11 297.833 115.052 297.114 114.941C296.396 114.83 295.639 114.604 294.824 114.286Z" fill="#12284C"/>
<path d="M312.832 121.002C310.359 120.039 308.31 118.796 306.685 117.278C305.06 115.76 304.004 114.045 303.512 112.137C303.021 110.229 303.184 108.229 303.999 106.133C304.795 104.095 306.029 102.529 307.692 101.445C309.356 100.356 311.299 99.8113 313.517 99.8017C315.735 99.792 318.083 100.274 320.556 101.238C323.01 102.196 325.05 103.43 326.665 104.933C328.285 106.436 329.336 108.157 329.818 110.079C330.3 112.002 330.146 113.987 329.35 116.025C328.54 118.102 327.301 119.677 325.628 120.752C323.96 121.826 322.022 122.376 319.818 122.4C317.62 122.429 315.291 121.961 312.832 121.002ZM314.983 115.509C316.029 115.919 317.041 116.102 318.01 116.068C318.984 116.03 319.823 115.774 320.532 115.288C321.241 114.806 321.771 114.112 322.123 113.211C322.47 112.325 322.543 111.467 322.35 110.633C322.157 109.8 321.713 109.043 321.019 108.369C320.325 107.694 319.457 107.15 318.406 106.74C317.321 106.316 316.299 106.114 315.334 106.133C314.37 106.152 313.536 106.408 312.832 106.904C312.128 107.4 311.603 108.089 311.26 108.971C310.908 109.872 310.822 110.739 311.01 111.573C311.193 112.406 311.632 113.163 312.321 113.847C313.011 114.531 313.898 115.085 314.983 115.509Z" fill="#12284C"/>
<path d="M339.35 131.357C336.877 130.389 334.828 129.15 333.203 127.633C331.578 126.115 330.522 124.399 330.03 122.491C329.538 120.583 329.702 118.584 330.517 116.488C331.313 114.45 332.547 112.884 334.21 111.799C335.874 110.71 337.817 110.166 340.035 110.156C342.253 110.147 344.601 110.629 347.074 111.592C349.528 112.551 351.568 113.785 353.183 115.288C354.798 116.791 355.854 118.511 356.336 120.434C356.818 122.356 356.664 124.342 355.868 126.38C355.058 128.456 353.819 130.032 352.146 131.107C350.473 132.181 348.54 132.73 346.336 132.754C344.138 132.783 341.804 132.316 339.35 131.357ZM341.5 125.864C342.547 126.274 343.559 126.457 344.528 126.423C345.497 126.389 346.341 126.129 347.05 125.643C347.759 125.161 348.289 124.467 348.641 123.566C348.988 122.679 349.065 121.822 348.868 120.988C348.67 120.154 348.231 119.398 347.537 118.719C346.843 118.044 345.975 117.5 344.928 117.09C343.844 116.666 342.822 116.464 341.857 116.483C340.893 116.502 340.059 116.758 339.355 117.254C338.651 117.75 338.125 118.439 337.783 119.321C337.431 120.222 337.344 121.089 337.532 121.923C337.716 122.756 338.154 123.513 338.844 124.197C339.528 124.886 340.416 125.44 341.5 125.864Z" fill="#12284C"/>
<path d="M354.243 136.705C354.808 136.012 355.42 135.058 356.076 133.848C356.736 132.639 357.3 131.429 357.773 130.22L359.846 124.915C360.304 123.744 360.704 122.491 361.051 121.157C361.394 119.827 361.591 118.69 361.649 117.755L371.104 121.446L372.295 130.615C372.362 130.87 372.415 131.126 372.449 131.376C372.483 131.632 372.517 131.877 372.55 132.118C372.546 132.552 372.555 133.019 372.579 133.521C372.603 134.022 372.594 134.561 372.55 135.149L372.873 135.274C373.293 134.73 373.688 134.282 374.055 133.925C374.421 133.569 374.831 133.159 375.289 132.692C375.405 132.61 375.535 132.528 375.684 132.441C375.834 132.354 375.978 132.234 376.123 132.08L383.264 126.192L392.502 129.796C391.904 130.519 391.291 131.482 390.655 132.677C390.019 133.877 389.469 135.077 388.992 136.286L386.918 141.591C386.446 142.801 386.036 144.073 385.694 145.403C385.351 146.737 385.149 147.845 385.091 148.742L376.345 145.325C376.832 144.661 377.43 143.678 378.138 142.377C378.847 141.071 379.435 139.823 379.898 138.633L381.403 134.788L381.022 134.638L370.54 143.09L368.645 142.348L366.726 129.054L366.456 128.948L364.952 132.793C364.47 134.022 364.045 135.351 363.674 136.787C363.298 138.223 363.091 139.336 363.052 140.131L354.243 136.705Z" fill="#12284C"/>
<path d="M374.12 432.484L378.705 442.785L389.978 442.361L390.528 453.622L401.193 457.293L397.639 467.995L406.255 475.271L399.076 483.963L404.481 493.86L394.64 499.372L396.101 510.55L384.935 512.136L382.259 523.093L371.271 520.539L364.815 529.785L355.49 523.44L346.132 529.732L339.729 520.447L328.726 522.938L326.113 511.972L314.951 510.319L316.48 499.15L306.673 493.58L312.136 483.712L305 474.981L313.659 467.754L310.164 457.033L320.853 453.419L321.47 442.164L332.738 442.655L337.381 432.378L347.718 436.902L355.76 429L363.759 436.95L374.12 432.484Z" fill="#BFDCE1"/>
<path d="M337.957 464.444L350.156 462.633C351.419 462.358 352.306 462.083 352.807 461.809C353.314 461.534 353.651 461.182 353.82 460.744C353.998 460.286 353.969 459.853 353.733 459.443C353.492 459.038 353.116 458.653 352.59 458.291C352.07 457.93 351.443 457.607 350.71 457.323C349.895 457.005 348.974 456.779 347.957 456.644C346.935 456.509 345.86 456.489 344.731 456.576C343.598 456.663 342.514 456.88 341.462 457.217C341.434 457.231 341.395 457.251 341.347 457.28C341.299 457.309 341.255 457.313 341.212 457.299L344.095 449.83C346.395 449.739 348.347 449.773 349.948 449.932C351.549 450.086 353.261 450.519 355.078 451.233C356.896 451.941 358.4 452.837 359.596 453.916C360.787 454.996 361.597 456.191 362.026 457.501C362.455 458.812 362.412 460.113 361.905 461.409C361.327 462.893 360.3 463.996 358.824 464.719C357.349 465.442 355.454 465.774 353.14 465.717L347.807 465.948L347.706 466.304L353.569 468.593C354.76 469.06 355.864 469.301 356.877 469.325C357.889 469.35 358.762 469.166 359.495 468.776L356.009 477.42L335.942 469.586L337.957 464.444Z" fill="#12284C"/>
<path d="M367.619 482.489C365.488 481.656 363.728 480.456 362.339 478.895C360.951 477.329 360.083 475.493 359.74 473.382C359.398 471.272 359.697 469.007 360.647 466.584C361.587 464.184 362.903 462.31 364.591 460.975C366.283 459.636 368.168 458.87 370.246 458.667C372.324 458.465 374.431 458.783 376.562 459.616C378.737 460.464 380.516 461.664 381.895 463.216C383.279 464.767 384.137 466.603 384.479 468.718C384.822 470.838 384.518 473.108 383.568 475.531C382.628 477.936 381.321 479.8 379.643 481.13C377.965 482.46 376.085 483.231 374.002 483.443C371.919 483.66 369.793 483.337 367.619 482.489ZM370.275 475.69C371.548 476.187 372.754 476.466 373.887 476.524C375.02 476.582 376.018 476.37 376.881 475.888C377.744 475.406 378.371 474.664 378.761 473.662C379.152 472.66 379.19 471.701 378.877 470.781C378.559 469.865 377.97 469.031 377.107 468.285C376.244 467.538 375.174 466.916 373.896 466.42C372.619 465.924 371.413 465.654 370.27 465.62C369.128 465.586 368.139 465.794 367.296 466.246C366.457 466.699 365.835 467.441 365.435 468.463C365.044 469.465 364.991 470.429 365.285 471.349C365.574 472.269 366.163 473.098 367.04 473.84C367.922 474.573 369.002 475.194 370.275 475.69Z" fill="#12284C"/>
<path d="M328.425 488.816L340.623 487.004C341.887 486.729 342.774 486.455 343.275 486.18C343.782 485.905 344.119 485.554 344.288 485.115C344.466 484.657 344.437 484.224 344.201 483.814C343.96 483.409 343.584 483.024 343.058 482.663C342.538 482.301 341.911 481.978 341.178 481.694C340.363 481.376 339.442 481.15 338.425 481.015C337.403 480.88 336.328 480.86 335.199 480.947C334.066 481.034 332.982 481.251 331.93 481.588C331.902 481.603 331.863 481.622 331.815 481.651C331.767 481.68 331.723 481.684 331.68 481.67L334.563 474.202C336.863 474.11 338.815 474.144 340.416 474.303C342.017 474.457 343.728 474.891 345.546 475.604C347.364 476.312 348.868 477.208 350.064 478.288C351.255 479.367 352.065 480.562 352.494 481.872C352.923 483.183 352.88 484.484 352.373 485.78C351.795 487.264 350.768 488.367 349.292 489.09C347.817 489.813 345.922 490.145 343.608 490.088L338.275 490.319L338.174 490.675L344.037 492.964C345.228 493.432 346.332 493.672 347.345 493.697C348.357 493.721 349.23 493.538 349.963 493.147L346.477 501.791L326.41 493.957L328.425 488.816Z" fill="#12284C"/>
<path d="M358.092 506.865C355.96 506.032 354.201 504.832 352.812 503.271C351.423 501.705 350.556 499.869 350.213 497.759C349.871 495.648 350.17 493.384 351.12 490.96C352.06 488.56 353.376 486.686 355.064 485.351C356.756 484.012 358.641 483.246 360.719 483.043C362.797 482.841 364.904 483.159 367.035 483.993C369.21 484.841 370.989 486.04 372.368 487.592C373.752 489.143 374.61 490.979 374.952 493.094C375.294 495.215 374.991 497.484 374.041 499.908C373.101 502.312 371.794 504.177 370.116 505.507C368.438 506.836 366.558 507.607 364.475 507.819C362.392 508.031 360.261 507.713 358.092 506.865ZM360.748 500.062C362.021 500.558 363.226 500.838 364.359 500.895C365.492 500.953 366.49 500.741 367.354 500.259C368.217 499.778 368.843 499.036 369.234 498.033C369.624 497.031 369.663 496.072 369.35 495.152C369.031 494.236 368.443 493.403 367.58 492.656C366.717 491.909 365.647 491.288 364.369 490.791C363.091 490.295 361.886 490.025 360.743 489.991C359.601 489.958 358.612 490.165 357.768 490.618C356.93 491.071 356.308 491.813 355.907 492.834C355.517 493.837 355.464 494.8 355.758 495.72C356.047 496.641 356.635 497.47 357.513 498.212C358.395 498.949 359.47 499.566 360.748 500.062Z" fill="#12284C"/>
<path d="M12.2431 461.054C-27.7989 470.609 -52.5088 510.799 -42.9431 550.81C-42.0849 554.395 -40.9759 557.85 -39.6501 561.179L-18.0741 567.771L-11.3915 595.736C-7.82849 598.078 -4.07745 600.126 -0.162441 601.827L-11.9219 552.617L-11.946 552.622L-11.9315 552.569V552.564H-11.9268L3.88276 493.694L33.7564 527.441L37.0591 531.171L37.0543 531.161C37.0929 531.132 37.9896 532.375 39.6434 533.854C41.8323 535.363 44.407 535.815 47.4107 535.098C50.0963 534.457 52.1116 533.03 53.452 530.809C54.7972 528.593 55.1347 526.107 54.479 523.35C54.2138 522.242 53.8184 521.264 53.2929 520.416C52.7625 519.568 52.0827 518.831 51.2438 518.214C50.4048 517.593 49.3875 517.067 48.1966 516.638C47.0009 516.21 45.6172 515.858 44.0405 515.583L37.9896 514.61C29.3978 513.174 24.345 509.286 22.8262 502.94C21.8041 498.656 22.5851 494.691 25.1694 491.029C27.7489 487.348 31.4758 484.919 36.3503 483.758C42.9219 482.187 48.8186 484.163 54.0402 489.68L48.0471 495.476C46.2005 493.525 44.6047 492.344 43.2595 491.94C41.842 491.448 40.1592 491.429 38.2162 491.896C35.8248 492.465 34.0071 493.616 32.7584 495.346C31.5 497.047 31.1142 498.912 31.5964 500.926C32.2617 503.706 34.8653 505.45 39.4023 506.163L45.6412 507.132C50.7182 507.893 54.6477 509.372 57.4345 511.55C60.2165 513.733 62.0775 516.778 63.0129 520.691C64.2665 525.933 63.5529 530.679 60.8722 534.929C58.177 539.212 54.2186 541.978 49.0018 543.226C47.7241 543.53 46.4802 543.722 45.27 543.804L59.1461 601.88C62.4199 600.468 65.5586 598.844 68.5431 597.013L57.1693 549.423L90.148 517.756L99.8391 558.312C104.477 545.231 105.528 530.713 102.067 516.21C92.496 476.188 52.2852 451.499 12.2431 461.054Z" fill="#00609C"/>
<path d="M35.1111 541.391C33.9395 540.673 32.8498 539.82 31.8518 538.818L29.8943 536.495L25.3525 531.113L22.0546 531.898L7.49866 535.372L0.869179 536.953L-2.65044 550.396L-11.9221 552.608L-0.162617 601.817C14.1474 608.048 30.5211 609.859 46.8706 605.956C51.1472 604.935 55.2357 603.547 59.1411 601.866L45.265 543.79C41.7936 544.026 38.6018 543.347 35.6896 541.747C35.4871 541.641 35.3039 541.511 35.1111 541.391Z" fill="#12284C"/>
<path d="M16.8524 525.784L20.1696 524.989L7.69646 510.322L2.79785 529.137L9.54306 527.528L16.8524 525.784Z" fill="#12284C"/>
<path d="M57.1644 549.418L68.5382 597.009C83.2243 588.008 94.193 574.232 99.8341 558.308L90.1431 517.752L57.1644 549.418Z" fill="#12284C"/>
<path d="M9.54308 527.528L2.79789 529.137L7.69649 510.322L20.1695 524.989L16.8524 525.779L9.54308 527.528ZM57.4296 511.541C54.6428 509.358 50.7133 507.883 45.6364 507.122L39.3974 506.154C34.8556 505.441 32.252 503.696 31.5915 500.916C31.1094 498.902 31.4999 497.037 32.7535 495.337C34.0022 493.607 35.8248 492.46 38.2114 491.887C40.1544 491.424 41.8371 491.438 43.2546 491.93C44.5998 492.339 46.1956 493.515 48.0422 495.467L54.0353 489.67C48.8137 484.158 42.917 482.182 36.3454 483.748C31.471 484.91 27.744 487.338 25.1645 491.019C22.5754 494.681 21.7944 498.647 22.8213 502.93C24.3401 509.276 29.3929 513.169 37.9847 514.6L44.0357 515.574C45.6123 515.848 46.996 516.2 48.1917 516.629C49.3875 517.058 50.3999 517.583 51.2389 518.204C52.0778 518.821 52.7576 519.558 53.288 520.406C53.8135 521.254 54.2137 522.232 54.4741 523.341C55.1346 526.097 54.7923 528.583 53.4471 530.799C52.1019 533.021 50.0914 534.447 47.4058 535.088C44.4069 535.806 41.8323 535.348 39.6385 533.845C37.9799 532.365 37.088 531.117 37.0494 531.151L37.0542 531.161L33.7516 527.431L3.87789 493.684L-11.9316 552.554V552.564L-11.946 552.617L-11.922 552.612L-2.6503 550.4L0.869315 536.957L7.49879 535.377L22.0547 531.903L25.3526 531.117L29.8944 536.5L31.8519 538.822C32.8499 539.824 33.9396 540.677 35.1112 541.395C35.304 541.515 35.492 541.646 35.6897 541.756C38.6019 543.356 41.7937 544.035 45.2651 543.799C46.4753 543.717 47.7193 543.53 48.9969 543.221C54.2137 541.978 58.1721 539.212 60.8673 534.924C63.5432 530.669 64.2616 525.923 63.008 520.686C62.0726 516.773 60.2116 513.723 57.4296 511.541Z" fill="#FFCD00"/>
<path d="M0.570358 572.575C0.768036 573.404 1.2116 574.016 1.89142 574.416C2.57124 574.816 3.27517 574.931 3.99838 574.758C4.78427 574.57 5.38211 574.141 5.79193 573.466C6.20175 572.787 6.31268 572.055 6.12464 571.264C5.93179 570.465 5.50748 569.862 4.84213 569.448C4.18159 569.029 3.45839 568.918 2.67732 569.101C1.89625 569.289 1.30324 569.718 0.898241 570.387C0.493241 571.057 0.382323 571.785 0.570358 572.575ZM-0.572316 572.83C-0.82303 571.775 -0.654252 570.778 -0.0612171 569.838C0.526996 568.899 1.3659 568.296 2.4459 568.041C3.51625 567.786 4.51912 567.949 5.46894 568.528C6.41876 569.111 7.02143 569.935 7.27697 571.004C7.5325 572.083 7.36856 573.086 6.77552 574.02C6.18249 574.96 5.33874 575.558 4.24428 575.818C3.27517 576.049 2.32534 575.924 1.39963 575.437C0.367844 574.897 -0.287852 574.03 -0.572316 572.83Z" fill="white"/>
<path d="M13.3135 566.017L13.6317 567.356C12.8458 566.966 12.1033 566.855 11.4042 567.019C10.6327 567.202 10.0493 567.636 9.65399 568.315C9.25381 568.99 9.14778 569.727 9.34064 570.522C9.52868 571.307 9.95291 571.91 10.6135 572.319C11.274 572.734 11.9876 572.849 12.759 572.666C13.1592 572.57 13.4823 572.425 13.7282 572.228C13.868 572.127 14.0078 572.001 14.1476 571.852C14.2874 571.703 14.4321 571.529 14.5816 571.327L14.9094 572.69C14.3501 573.211 13.7137 573.558 13.0001 573.726C11.9297 573.982 10.9269 573.827 9.99153 573.259C9.05616 572.686 8.46309 571.866 8.20755 570.802C7.98094 569.848 8.09187 568.922 8.54509 568.026C9.10438 566.928 10.0011 566.229 11.2306 565.935C11.9056 565.776 12.5999 565.805 13.3135 566.017Z" fill="white"/>
<path d="M15.6567 565.034L17.4454 572.527L16.3172 572.797L14.5237 565.304L15.6567 565.034Z" fill="white"/>
<path d="M22.3826 568.301L20.6614 566.017L20.1069 568.841L22.3826 568.301ZM23.0961 569.255L19.8899 570.021L19.4897 572.04L18.2699 572.329L20.0779 563.483L25.5599 570.59L24.3208 570.884L23.0961 569.255Z" fill="white"/>
<path d="M26.4905 563.574L28.0238 570.002L26.8955 570.272L25.3575 563.844L23.6361 564.254L23.3806 563.189L27.9515 562.1L28.207 563.16L26.4905 563.574Z" fill="white"/>
<path d="M33.2357 561.965L30.2271 562.678L30.6562 564.48L33.578 563.781L33.8287 564.846L30.9118 565.54L31.5096 568.046L34.5134 567.328L34.7689 568.392L30.6321 569.38L28.8434 561.888L32.9801 560.9L33.2357 561.965Z" fill="white"/>
<path d="M37.0158 566.73L37.5269 566.61C38.0331 566.489 38.4429 566.335 38.7563 566.147C39.0649 565.954 39.3253 565.699 39.5375 565.391C39.9714 564.75 40.0919 564.022 39.8991 563.208C39.7014 562.389 39.2674 561.787 38.5972 561.406C37.9946 561.069 37.2087 561.016 36.2444 561.242L35.7333 561.363L37.0158 566.73ZM36.1335 568.065L34.3447 560.572L35.9165 560.197C36.6687 560.018 37.2858 559.951 37.7583 559.994C38.2646 560.028 38.7467 560.172 39.2144 560.433C40.1546 560.953 40.7669 561.787 41.0369 562.933C41.3118 564.085 41.1334 565.111 40.4969 566.017C40.1787 566.47 39.8123 566.817 39.4025 567.063C39.0216 567.299 38.4526 567.511 37.6908 567.694L36.1335 568.065Z" fill="white"/>
<path d="M48.9005 558.279L48.1147 559.04C47.8736 558.785 47.6615 558.63 47.4831 558.573C47.295 558.51 47.0732 558.505 46.8177 558.568C46.5043 558.645 46.2632 558.794 46.0993 559.021C45.9354 559.247 45.8823 559.488 45.945 559.753C46.0318 560.119 46.3741 560.346 46.972 560.442L47.7917 560.567C48.457 560.668 48.9777 560.861 49.3393 561.15C49.7057 561.439 49.9517 561.839 50.0722 562.35C50.2361 563.039 50.1445 563.666 49.7925 564.224C49.4357 564.788 48.9198 565.15 48.2304 565.313C47.5795 565.468 46.9961 565.405 46.4802 565.121C45.9691 564.836 45.5786 564.355 45.3086 563.68L46.3934 563.155C46.5525 563.584 46.7116 563.863 46.8852 564.003C47.1938 564.268 47.5747 564.35 48.0231 564.244C48.375 564.162 48.6402 563.974 48.8186 563.68C48.997 563.386 49.0404 563.063 48.9536 562.697C48.9198 562.552 48.8668 562.422 48.7993 562.312C48.7318 562.201 48.6402 562.104 48.5293 562.022C48.4184 561.941 48.2834 561.873 48.1291 561.815C47.97 561.757 47.7916 561.714 47.5843 561.676L46.7888 561.545C45.6605 561.358 44.9952 560.847 44.7975 560.008C44.6625 559.445 44.7637 558.924 45.1061 558.442C45.4436 557.961 45.9354 557.638 46.5766 557.488C47.4397 557.296 48.2111 557.556 48.9005 558.279Z" fill="white"/>
<path d="M52.5359 557.358L54.0691 563.786L52.9409 564.056L51.4029 557.628L49.6816 558.038L49.426 556.973L54.0016 555.884L54.2523 556.944L52.5359 557.358Z" fill="white"/>
<path d="M56.0218 555.402L57.1018 559.912C57.2561 560.558 57.473 561.001 57.7526 561.247C58.1673 561.603 58.6639 561.709 59.2329 561.574C59.8066 561.439 60.1971 561.117 60.4093 560.611C60.5491 560.273 60.5443 559.777 60.39 559.122L59.31 554.612L60.4431 554.342L61.5954 559.165C61.7834 559.955 61.6918 560.664 61.3254 561.29C60.9059 561.994 60.2984 562.437 59.4884 562.63C58.6832 562.822 57.9359 562.697 57.2513 562.263C56.6389 561.868 56.2339 561.28 56.0459 560.49L54.8936 555.667L56.0218 555.402Z" fill="white"/>
<path d="M64.7824 560.105L65.2934 559.985C65.7996 559.864 66.2095 559.71 66.5229 559.522C66.8314 559.329 67.0918 559.074 67.3088 558.765C67.7427 558.125 67.8632 557.397 67.6704 556.583C67.4727 555.764 67.0387 555.161 66.3686 554.781C65.7659 554.443 64.98 554.39 64.0157 554.617L63.5047 554.737L64.7824 560.105ZM63.9048 561.44L62.1161 553.947L63.6879 553.571C64.44 553.393 65.0571 553.326 65.5296 553.369C66.0359 553.403 66.518 553.547 66.9857 553.807C67.9259 554.328 68.5382 555.161 68.8082 556.308C69.083 557.46 68.9047 558.486 68.2682 559.392C67.95 559.845 67.5836 560.192 67.1738 560.437C66.7929 560.674 66.2191 560.886 65.4621 561.069L63.9048 561.44Z" fill="white"/>
<path d="M73.6056 552.328L70.6019 553.046L71.031 554.843L73.948 554.149L74.2035 555.209L71.2866 555.908L71.8844 558.409L74.8881 557.696L75.1437 558.756L71.0069 559.743L69.2134 552.251L73.3501 551.263L73.6056 552.328Z" fill="white"/>
<path d="M76.5081 558.428L74.594 550.43L81.426 554.838L80.1821 549.635L81.3151 549.365L83.2148 557.31L76.3876 552.916L77.6411 558.158L76.5081 558.428Z" fill="white"/>
<path d="M85.3121 549.533L86.8501 555.961L85.7171 556.231L84.1839 549.803L82.4578 550.213L82.2072 549.153L86.7778 548.059L87.0333 549.124L85.3121 549.533Z" fill="white"/>
<path d="M92.1632 547.953L91.3773 548.714C91.1363 548.459 90.9242 548.305 90.7458 548.247C90.5577 548.184 90.3359 548.18 90.0804 548.242C89.767 548.319 89.5259 548.469 89.362 548.695C89.1981 548.922 89.145 549.162 89.2077 549.427C89.2945 549.794 89.6368 550.02 90.2347 550.116L91.0543 550.242C91.7197 550.343 92.2356 550.536 92.602 550.825C92.9684 551.114 93.2143 551.514 93.3349 552.029C93.4988 552.718 93.4072 553.345 93.0552 553.904C92.6985 554.467 92.1825 554.829 91.493 554.993C90.8422 555.147 90.2588 555.084 89.7429 554.8C89.2318 554.516 88.8413 554.034 88.5713 553.359L89.6561 552.834C89.8152 553.263 89.9743 553.542 90.1479 553.682C90.4565 553.952 90.8374 554.029 91.2858 553.923C91.6377 553.841 91.9029 553.653 92.0813 553.359C92.2597 553.065 92.303 552.742 92.2163 552.376C92.1825 552.232 92.1295 552.102 92.062 551.991C91.9945 551.88 91.9029 551.784 91.792 551.702C91.6811 551.62 91.5461 551.552 91.3918 551.495C91.2375 551.437 91.0543 551.393 90.847 551.355L90.0514 551.225C88.9232 551.037 88.2579 550.526 88.0602 549.688C87.9252 549.124 88.0264 548.604 88.3688 548.122C88.7063 547.64 89.1981 547.317 89.8393 547.168C90.7024 546.97 91.4786 547.23 92.1632 547.953Z" fill="white"/>
<path d="M15.1457 579.263L15.8882 582.375C15.9943 582.819 16.1437 583.127 16.3366 583.296C16.6259 583.541 16.9634 583.614 17.3588 583.522C17.7541 583.426 18.0241 583.204 18.1687 582.857C18.2652 582.621 18.2603 582.279 18.1543 581.831L17.4118 578.718L18.1929 578.53L18.9884 581.86C19.1185 582.404 19.0559 582.896 18.8004 583.329C18.5111 583.811 18.0916 584.124 17.5323 584.254C16.9779 584.389 16.4619 584.303 15.9894 583.999C15.5652 583.729 15.2904 583.32 15.1602 582.775L14.3646 579.446L15.1457 579.263Z" fill="white"/>
<path d="M23.241 577.624L23.4628 578.55C22.9228 578.28 22.4069 578.203 21.9247 578.318C21.3944 578.444 20.9894 578.742 20.7193 579.21C20.4445 579.677 20.3722 580.183 20.5023 580.732C20.6325 581.272 20.9267 581.686 21.3799 581.975C21.8331 582.26 22.3297 582.342 22.8601 582.211C23.1349 582.144 23.3567 582.048 23.5303 581.913C23.6267 581.84 23.7231 581.754 23.8196 581.653C23.916 581.551 24.0172 581.431 24.1185 581.291L24.3452 582.231C23.9594 582.592 23.5206 582.828 23.0288 582.944C22.2911 583.122 21.5969 583.011 20.9508 582.621C20.3047 582.226 19.8948 581.662 19.7213 580.925C19.5621 580.265 19.6441 579.629 19.9527 579.007C20.3384 578.246 20.9556 577.764 21.809 577.562C22.2719 577.456 22.7492 577.475 23.241 577.624Z" fill="white"/>
<path d="M29.2244 576.718L28.6795 577.244C28.5108 577.065 28.3661 576.959 28.2456 576.921C28.1154 576.877 27.9659 576.873 27.7875 576.916C27.5705 576.969 27.4067 577.07 27.2909 577.229C27.1752 577.383 27.1414 577.552 27.1848 577.735C27.2427 577.986 27.479 578.145 27.8936 578.212L28.4625 578.299C28.9206 578.366 29.2774 578.501 29.533 578.699C29.7837 578.896 29.9572 579.176 30.0392 579.528C30.1549 580.005 30.0874 580.433 29.8463 580.819C29.6004 581.209 29.2436 581.46 28.7663 581.571C28.3179 581.677 27.9129 581.633 27.5609 581.436C27.2089 581.238 26.939 580.91 26.7509 580.443L27.4982 580.082C27.6091 580.376 27.7201 580.573 27.8358 580.665C28.0479 580.848 28.3131 580.906 28.6169 580.833C28.8628 580.776 29.0412 580.645 29.1665 580.443C29.2871 580.241 29.3208 580.014 29.2581 579.764C29.234 579.662 29.2003 579.576 29.152 579.499C29.1038 579.422 29.0411 579.354 28.964 579.296C28.8869 579.238 28.7953 579.19 28.6892 579.152C28.5783 579.113 28.4529 579.079 28.3131 579.055L27.7634 578.969C26.9824 578.839 26.5243 578.487 26.3893 577.909C26.2977 577.518 26.3652 577.162 26.6014 576.829C26.8377 576.497 27.1752 576.275 27.6139 576.169C28.2118 576.039 28.747 576.217 29.2244 576.718Z" fill="white"/>
<path d="M33.4622 578.256L32.2762 576.68L31.8904 578.631L33.4622 578.256ZM33.954 578.916L31.741 579.446L31.4661 580.838L30.6272 581.041L31.876 574.936L35.6608 579.841L34.8074 580.043L33.954 578.916Z" fill="white"/>
<path d="M36.2154 579.701L34.8943 574.179L39.6096 577.225L38.7515 573.63L39.5325 573.442L40.844 578.93L36.1334 575.895L36.9964 579.513L36.2154 579.701Z" fill="white"/>
<path d="M44.5661 576.931L44.918 576.849C45.27 576.767 45.5497 576.661 45.7666 576.531C45.9788 576.396 46.162 576.222 46.3066 576.01C46.6056 575.567 46.6875 575.066 46.5574 574.502C46.4224 573.934 46.1234 573.519 45.6606 573.259C45.2459 573.028 44.7011 572.989 44.0357 573.148L43.6838 573.23L44.5661 576.931ZM43.9634 577.851L42.7291 572.681L43.814 572.421C44.3347 572.295 44.759 572.252 45.082 572.281C45.4292 572.305 45.7666 572.406 46.0849 572.584C46.7358 572.946 47.1552 573.519 47.3433 574.314C47.5313 575.109 47.4108 575.817 46.972 576.444C46.7502 576.757 46.4995 576.998 46.2151 577.167C45.9499 577.33 45.5593 577.475 45.0338 577.6L43.9634 577.851Z" fill="white"/>
<path d="M48.4086 571.327L49.6429 576.497L48.8618 576.685L47.6276 571.515L48.4086 571.327Z" fill="white"/>
<path d="M52.5987 571.1L50.5254 571.596L50.8195 572.84L52.8349 572.358L53.0085 573.09L50.9979 573.572L51.4078 575.302L53.4858 574.805L53.6594 575.538L50.8051 576.217L49.5708 571.047L52.4251 570.368L52.5987 571.1Z" fill="white"/>
<path d="M56.6196 571.987L58.7556 571.476L58.7941 571.649C58.8857 572.04 58.9243 572.391 58.905 572.714C58.8809 573.013 58.7941 573.307 58.6399 573.601C58.2879 574.256 57.7431 574.67 57.0006 574.849C56.2773 575.022 55.5927 574.907 54.9514 574.511C54.3102 574.112 53.9004 573.543 53.7268 572.806C53.5484 572.054 53.6593 571.355 54.0595 570.71C54.4597 570.059 55.0334 569.645 55.7855 569.467C56.1905 569.37 56.5859 569.361 56.9764 569.443C57.3525 569.529 57.7431 569.717 58.1577 570.011L57.7286 570.676C57.1693 570.214 56.5859 570.055 55.9736 570.199C55.4239 570.329 55.0141 570.628 54.7296 571.095C54.4452 571.553 54.3729 572.064 54.5079 572.623C54.6477 573.196 54.9659 573.625 55.4673 573.9C55.935 574.155 56.3978 574.227 56.8462 574.116C57.232 574.025 57.5454 573.813 57.7865 573.48C58.0323 573.148 58.1239 572.791 58.0757 572.42L56.7836 572.729L56.6196 571.987Z" fill="white"/>
<path d="M60.207 571.226C60.342 571.799 60.6457 572.223 61.1182 572.498C61.5907 572.777 62.0728 572.854 62.5743 572.734C63.1191 572.604 63.529 572.31 63.8134 571.842C64.0979 571.375 64.1702 570.869 64.04 570.325C63.9098 569.775 63.6109 569.356 63.1577 569.072C62.6997 568.783 62.203 568.706 61.663 568.836C61.123 568.966 60.7132 569.26 60.4336 569.722C60.1539 570.18 60.0768 570.681 60.207 571.226ZM59.4162 571.404C59.2427 570.676 59.3584 569.987 59.7682 569.337C60.1732 568.686 60.7518 568.272 61.4991 568.094C62.2368 567.916 62.9311 568.031 63.582 568.431C64.2377 568.831 64.6524 569.4 64.8307 570.142C65.0091 570.884 64.8934 571.577 64.4836 572.223C64.0738 572.869 63.4904 573.283 62.7382 573.466C62.0681 573.625 61.4171 573.539 60.771 573.201C60.0671 572.835 59.6139 572.233 59.4162 571.404Z" fill="white"/>
</svg>
