<svg width="241" height="1160" viewBox="0 0 241 1160" fill="none" xmlns="http://www.w3.org/2000/svg">
<path d="M306.232 156.235C318.063 125.975 269.492 78.7349 197.747 50.722C126.002 22.7091 58.2511 24.5309 46.4208 54.7912C34.5904 85.0515 83.1609 132.291 154.906 160.304C226.651 188.317 294.402 186.495 306.232 156.235Z" fill="#7AAFDB"/>
<path d="M306.232 156.235C318.063 125.975 269.492 78.7349 197.747 50.722C126.002 22.7091 58.2511 24.5309 46.4208 54.7912C34.5904 85.0515 83.1609 132.291 154.906 160.304C226.651 188.317 294.402 186.495 306.232 156.235Z" fill="#7AAFDB"/>
<path d="M159.246 149.241C125.787 136.18 96.5997 118.519 77.0752 99.5277C60.8278 83.7192 52.995 68.102 56.6472 58.7592C60.2995 49.4164 76.6464 43.2338 99.3178 42.6293C126.56 41.8948 159.989 48.6895 193.449 61.751C226.908 74.8126 256.096 92.4728 275.62 111.464C291.867 127.273 299.7 142.89 296.048 152.233C292.396 161.576 276.049 167.758 253.377 168.363C226.143 169.097 192.714 162.31 159.246 149.241Z" stroke="#12284C" stroke-width="3" stroke-miterlimit="10" stroke-dasharray="9.93 9.93"/>
<path d="M113.651 97.3241C112.127 96.7273 110.772 96.0998 109.578 95.4418C108.383 94.7761 106.936 93.965 105.229 93.0009C103.315 91.8914 101.676 90.9732 100.313 90.2386C98.9503 89.504 97.3041 88.7695 95.3823 88.0196C93.0011 87.0937 90.819 86.3974 88.8359 85.9307C86.8528 85.4716 85.2679 85.2267 84.0887 85.1961L87.6338 76.1288L114.317 73.3206L114.47 72.9304L101.607 67.9108C99.4863 67.0844 97.664 66.5258 96.1327 66.2427C94.609 65.9596 93.2691 65.975 92.1206 66.2887L98.5752 55.4844L131.223 68.2322L127.762 77.0853L101.339 80.0006L101.232 80.4061L114.524 85.594C116.415 86.3362 118.383 86.8336 120.435 87.0861C122.487 87.3386 124.171 87.3309 125.504 87.0555L120.688 98.6019C120.649 98.6172 120.596 98.6325 120.527 98.6402C120.458 98.6478 120.374 98.6478 120.282 98.6402C119.424 98.6325 118.429 98.5407 117.288 98.3647C116.147 98.1888 114.945 97.8291 113.651 97.3241Z" fill="#12284C"/>
<path d="M142.249 107.991C138.321 106.46 135.067 104.486 132.487 102.076C129.906 99.6655 128.229 96.9415 127.448 93.9114C126.668 90.8813 126.928 87.7058 128.222 84.3773C129.485 81.1406 131.445 78.6538 134.087 76.9322C136.728 75.2029 139.814 74.3383 143.336 74.323C146.858 74.3077 150.587 75.0728 154.515 76.6032C158.412 78.1259 161.651 80.0847 164.216 82.4721C166.788 84.8594 168.458 87.5911 169.223 90.6441C169.989 93.6971 169.744 96.8497 168.481 100.086C167.194 103.384 165.226 105.886 162.57 107.593C159.92 109.299 156.842 110.171 153.343 110.21C149.852 110.256 146.154 109.513 142.249 107.991ZM145.664 99.2676C147.325 99.918 148.933 100.209 150.472 100.155C152.019 100.094 153.351 99.6885 154.477 98.9156C155.602 98.1505 156.444 97.0486 157.003 95.6177C157.554 94.2098 157.669 92.8478 157.363 91.5241C157.057 90.2003 156.352 88.999 155.25 87.9277C154.147 86.8565 152.769 85.9919 151.1 85.3415C149.377 84.6681 147.754 84.3467 146.223 84.3773C144.691 84.4079 143.367 84.8135 142.249 85.6016C141.131 86.3898 140.296 87.4839 139.753 88.8842C139.194 90.3151 139.056 91.6924 139.355 93.0162C139.646 94.3399 140.342 95.5412 141.437 96.6278C142.532 97.7143 143.941 98.5943 145.664 99.2676Z" fill="#12284C"/>
<path d="M184.36 124.434C180.433 122.896 177.178 120.93 174.598 118.519C172.018 116.109 170.341 113.385 169.56 110.355C168.779 107.325 169.039 104.149 170.333 100.821C171.597 97.5843 173.557 95.0975 176.198 93.3758C178.84 91.6465 181.926 90.7819 185.448 90.7666C188.97 90.7513 192.698 91.5164 196.626 93.0468C200.524 94.5695 203.762 96.5283 206.327 98.9157C208.892 101.303 210.569 104.035 211.335 107.088C212.1 110.141 211.855 113.293 210.592 116.53C209.306 119.828 207.338 122.33 204.681 124.036C202.024 125.743 198.954 126.615 195.455 126.653C191.963 126.699 188.258 125.957 184.36 124.434ZM187.775 115.711C189.437 116.362 191.045 116.652 192.584 116.599C194.123 116.545 195.463 116.132 196.588 115.359C197.714 114.594 198.556 113.492 199.115 112.061C199.666 110.653 199.789 109.291 199.475 107.968C199.161 106.644 198.464 105.443 197.361 104.364C196.259 103.292 194.881 102.428 193.219 101.777C191.496 101.104 189.873 100.783 188.342 100.813C186.811 100.844 185.486 101.249 184.368 102.038C183.25 102.826 182.416 103.92 181.872 105.32C181.313 106.751 181.175 108.128 181.474 109.452C181.765 110.776 182.462 111.977 183.556 113.064C184.644 114.158 186.053 115.038 187.775 115.711Z" fill="#12284C"/>
<path d="M208.012 132.928C208.908 131.826 209.88 130.311 210.921 128.39C211.97 126.47 212.866 124.549 213.616 122.628L216.909 114.204C217.636 112.344 218.272 110.355 218.823 108.235C219.367 106.124 219.68 104.318 219.772 102.833L234.787 108.695L236.678 123.256C236.785 123.661 236.87 124.067 236.923 124.465C236.977 124.87 237.03 125.261 237.084 125.643C237.076 126.332 237.092 127.074 237.13 127.87C237.168 128.666 237.153 129.523 237.084 130.456L237.597 130.655C238.263 129.79 238.891 129.079 239.473 128.513C240.055 127.946 240.706 127.296 241.433 126.554C241.617 126.424 241.824 126.294 242.061 126.156C242.298 126.018 242.528 125.827 242.758 125.582L254.097 116.231L268.767 121.955C267.818 123.103 266.846 124.633 265.835 126.531C264.824 128.436 263.951 130.341 263.193 132.262L259.901 140.686C259.151 142.607 258.5 144.627 257.956 146.739C257.412 148.859 257.091 150.618 256.999 152.042L243.11 146.617C243.883 145.561 244.833 144 245.958 141.934C247.084 139.86 248.018 137.878 248.753 135.988L251.142 129.882L250.537 129.645L233.891 143.066L230.882 141.888L227.835 120.777L227.406 120.608L225.017 126.714C224.252 128.666 223.578 130.777 222.988 133.058C222.391 135.338 222.062 137.105 222 138.368L208.012 132.928Z" fill="#12284C"/>
<path d="M109.766 1004.53L117.047 1020.89L134.949 1020.22L135.822 1038.1L152.758 1043.93L147.115 1060.93L160.797 1072.48L149.397 1086.28L157.98 1102L142.353 1110.75L144.673 1128.51L126.94 1131.02L122.69 1148.42L105.241 1144.37L94.9885 1159.05L80.1805 1148.97L65.319 1158.97L55.1509 1144.22L37.6784 1148.18L33.5285 1130.76L15.8034 1128.14L18.2305 1110.4L2.65684 1101.56L11.3319 1085.89L0 1072.02L13.7513 1060.54L8.20025 1043.52L25.1751 1037.78L26.1552 1019.9L44.0488 1020.69L51.4221 1004.36L67.838 1011.55L80.6093 999L93.3117 1011.63L109.766 1004.53Z" fill="#BFDCE1"/>
<path d="M52.3376 1055.29L71.709 1052.41C73.715 1051.97 75.1239 1051.54 75.9202 1051.1C76.7241 1050.67 77.26 1050.11 77.528 1049.41C77.8113 1048.68 77.7653 1048 77.3902 1047.34C77.0073 1046.7 76.4101 1046.09 75.5755 1045.52C74.7486 1044.94 73.7532 1044.43 72.5894 1043.98C71.2955 1043.47 69.8331 1043.11 68.2175 1042.9C66.5943 1042.68 64.8869 1042.65 63.0953 1042.79C61.2959 1042.93 59.5732 1043.27 57.904 1043.81C57.8581 1043.83 57.7968 1043.86 57.7203 1043.91C57.6437 1043.96 57.5748 1043.96 57.5059 1043.94L62.0845 1032.08C65.7367 1031.93 68.8377 1031.99 71.3797 1032.24C73.9217 1032.49 76.6398 1033.17 79.5264 1034.31C82.413 1035.43 84.8018 1036.85 86.7007 1038.57C88.5919 1040.28 89.8782 1042.18 90.5597 1044.26C91.2411 1046.34 91.1722 1048.41 90.3683 1050.47C89.4495 1052.82 87.8186 1054.58 85.4756 1055.72C83.1327 1056.87 80.1236 1057.4 76.4484 1057.31L67.9801 1057.67L67.8193 1058.24L77.1299 1061.88C79.0211 1062.62 80.7744 1063 82.3823 1063.04C83.9902 1063.08 85.3761 1062.79 86.5399 1062.17L81.0041 1075.89L49.1371 1063.45L52.3376 1055.29Z" fill="#12284C"/>
<path d="M99.4413 1083.94C96.0571 1082.62 93.2623 1080.71 91.0572 1078.23C88.8521 1075.75 87.4739 1072.83 86.9303 1069.48C86.3866 1066.13 86.8613 1062.53 88.3697 1058.68C89.8628 1054.87 91.9531 1051.9 94.6329 1049.78C97.3204 1047.65 100.314 1046.43 103.614 1046.11C106.914 1045.79 110.26 1046.3 113.644 1047.62C117.098 1048.97 119.923 1050.87 122.113 1053.34C124.31 1055.8 125.673 1058.72 126.217 1062.07C126.76 1065.44 126.278 1069.05 124.77 1072.89C123.277 1076.71 121.202 1079.67 118.537 1081.79C115.873 1083.9 112.886 1085.12 109.579 1085.46C106.271 1085.8 102.894 1085.29 99.4413 1083.94ZM103.66 1073.15C105.682 1073.93 107.596 1074.38 109.395 1074.47C111.194 1074.56 112.779 1074.23 114.15 1073.46C115.52 1072.69 116.516 1071.52 117.136 1069.93C117.756 1068.33 117.817 1066.81 117.32 1065.35C116.814 1063.9 115.88 1062.57 114.51 1061.39C113.139 1060.2 111.439 1059.21 109.41 1058.42C107.381 1057.64 105.467 1057.21 103.653 1057.15C101.838 1057.1 100.268 1057.43 98.9283 1058.15C97.596 1058.87 96.6083 1060.05 95.9728 1061.67C95.3526 1063.26 95.2684 1064.79 95.7354 1066.25C96.1948 1067.71 97.129 1069.03 98.5225 1070.21C99.9236 1071.37 101.639 1072.36 103.66 1073.15Z" fill="#12284C"/>
<path d="M37.2004 1093.99L56.5718 1091.11C58.5778 1090.68 59.9867 1090.24 60.783 1089.8C61.5869 1089.37 62.1229 1088.81 62.3908 1088.11C62.6741 1087.39 62.6281 1086.7 62.253 1086.05C61.8701 1085.4 61.2729 1084.79 60.4383 1084.22C59.6114 1083.64 58.616 1083.13 57.4522 1082.68C56.1583 1082.18 54.6959 1081.82 53.0803 1081.6C51.4571 1081.39 49.7497 1081.36 47.9581 1081.49C46.1587 1081.63 44.436 1081.98 42.7668 1082.51C42.7209 1082.54 42.6596 1082.57 42.5831 1082.61C42.5065 1082.66 42.4376 1082.67 42.3687 1082.64L46.9473 1070.78C50.5996 1070.64 53.7005 1070.69 56.2425 1070.94C58.7845 1071.19 61.5027 1071.88 64.3892 1073.01C67.2758 1074.13 69.6646 1075.56 71.5635 1077.27C73.4547 1078.99 74.741 1080.88 75.4225 1082.96C76.1039 1085.05 76.035 1087.11 75.2311 1089.17C74.3123 1091.53 72.6814 1093.28 70.3384 1094.43C67.9955 1095.57 64.9864 1096.1 61.3112 1096.01L52.843 1096.38L52.6822 1096.94L61.9927 1100.58C63.8839 1101.32 65.6372 1101.7 67.2451 1101.74C68.853 1101.78 70.2389 1101.49 71.4027 1100.87L65.867 1114.6L34 1102.15L37.2004 1093.99Z" fill="#12284C"/>
<path d="M84.3118 1122.65C80.9276 1121.33 78.1328 1119.42 75.9277 1116.95C73.7226 1114.46 72.3445 1111.54 71.8009 1108.19C71.2572 1104.84 71.732 1101.24 73.2403 1097.4C74.7334 1093.58 76.8236 1090.61 79.5034 1088.49C82.1909 1086.36 85.1846 1085.14 88.4846 1084.82C91.7846 1084.5 95.1306 1085.01 98.5148 1086.33C101.968 1087.68 104.793 1089.58 106.983 1092.05C109.181 1094.51 110.543 1097.43 111.087 1100.78C111.631 1104.15 111.148 1107.76 109.64 1111.6C108.147 1115.42 106.072 1118.38 103.407 1120.5C100.743 1122.61 97.7569 1123.83 94.4492 1124.17C91.1415 1124.51 87.7573 1124 84.3118 1122.65ZM88.5306 1111.85C90.552 1112.64 92.4661 1113.08 94.2654 1113.17C96.0648 1113.26 97.6496 1112.93 99.0202 1112.16C100.391 1111.4 101.386 1110.22 102.006 1108.63C102.626 1107.04 102.688 1105.51 102.19 1104.05C101.685 1102.6 100.751 1101.27 99.38 1100.09C98.0095 1098.9 96.3098 1097.92 94.2808 1097.13C92.2518 1096.34 90.3376 1095.91 88.523 1095.86C86.7083 1095.8 85.1387 1096.13 83.7988 1096.85C82.4665 1097.57 81.4788 1098.75 80.8433 1100.37C80.2231 1101.96 80.1389 1103.49 80.606 1104.96C81.0654 1106.42 81.9994 1107.73 83.3929 1108.91C84.7941 1110.08 86.5016 1111.06 88.5306 1111.85Z" fill="#12284C"/>
<path d="M140.252 272.133C150.023 270.503 156.549 266.441 160.211 259.714L161.095 258.087L162.805 257.377C168.591 255.001 173.727 251.566 178.085 247.181C186.245 238.954 190.939 227.849 191.303 215.91L191.359 214.051L192.583 212.647C194.871 210.009 196.466 206.614 197.173 202.829C198.637 195.017 196.456 186.079 191.493 179.499C185.155 171.094 176.8 165.11 166.678 161.722C162.265 160.246 157.175 159.929 151.959 160.794C146.767 161.664 141.788 163.646 137.56 166.522L136.18 167.467L134.514 167.427C131.66 167.368 128.815 167.563 126.059 168.026C117.036 169.533 108.427 173.813 99.747 181.104C85.5831 193.002 72.2104 204.238 55.5556 209.513L54.9647 209.702C50.1804 211.207 42.9414 213.482 38.3165 220.31C32.0931 229.505 34.2551 242.616 43.2374 250.156C49.9389 255.788 58.5415 257.767 68.8157 256.055C74.4044 255.123 80.5452 253.044 87.0668 249.895L90.4471 248.257L93.0667 250.946C98.0451 256.052 103.943 259.197 110.593 260.29L112.595 260.614L113.848 262.205C119.896 269.908 127.391 273.422 136.139 272.641C137.573 272.519 138.958 272.347 140.252 272.133Z" fill="white"/>
<path d="M104.41 213.812C100.718 224.548 93.3668 233.077 83.2447 238.213C74.3682 242.72 59.7863 248.154 51.0623 240.821C47.152 237.533 45.5217 231.327 48.3866 227.098C50.7515 223.604 55.2024 222.357 59.222 221.084C78.1345 215.102 92.6467 202.937 107.568 190.4C115.457 183.771 124.023 179.152 134.839 179.571C140.417 179.787 145.126 181.173 148.962 185.245" stroke="#12284C" stroke-width="4.5379" stroke-miterlimit="10" stroke-linecap="round" stroke-linejoin="round"/>
<path d="M140.963 179.541C147.2 172.36 157.616 171.06 166.052 174.479C174.483 177.893 181.508 184.817 184.804 193.325C186.398 197.438 186.263 203.182 182.14 205.743C178.556 207.97 179.051 210.3 179.154 212.794C179.974 233.825 163.804 249.618 141.948 248.926" stroke="#12284C" stroke-width="4.5379" stroke-miterlimit="10" stroke-linecap="round" stroke-linejoin="round"/>
<path d="M118.39 239.655C120.036 243.884 120.094 248.51 122.181 252.598C127.871 263.747 147.954 263.139 150.931 250.075" stroke="#12284C" stroke-width="4.5379" stroke-miterlimit="10" stroke-linecap="round" stroke-linejoin="round"/>
<path d="M95.27 232.952C99.9825 242.397 106.358 249.39 118.103 248.505" stroke="#12284C" stroke-width="4.5379" stroke-miterlimit="10" stroke-linecap="round" stroke-linejoin="round"/>
<path d="M167.871 192.648C172.345 196.974 177.733 203.548 179.078 211.206" stroke="#12284C" stroke-width="4.5379" stroke-miterlimit="10" stroke-linecap="round" stroke-linejoin="round"/>
<path d="M135.905 528.262C72.316 543.435 33.0757 607.259 48.2665 670.799C49.6294 676.491 51.3904 681.978 53.496 687.265L87.7595 697.733L98.3717 742.143C104.03 745.862 109.987 749.114 116.204 751.815L97.5294 673.668L97.4912 673.676L97.5142 673.591V673.584H97.5218L122.628 580.095L170.069 633.688L175.314 639.61L175.306 639.595C175.367 639.549 176.791 641.523 179.417 643.872C182.894 646.267 186.982 646.986 191.752 645.846C196.017 644.829 199.218 642.564 201.346 639.036C203.482 635.516 204.018 631.568 202.977 627.191C202.556 625.431 201.928 623.878 201.093 622.531C200.251 621.185 199.172 620.014 197.839 619.035C196.507 618.047 194.892 617.213 193 616.532C191.102 615.851 188.904 615.293 186.4 614.857L176.791 613.311C163.147 611.031 155.123 604.856 152.711 594.779C151.088 587.976 152.328 581.679 156.432 575.863C160.528 570.018 166.447 566.161 174.188 564.317C184.624 561.822 193.988 564.96 202.28 573.721L192.763 582.926C189.83 579.827 187.296 577.952 185.16 577.31C182.909 576.529 180.237 576.499 177.151 577.241C173.353 578.144 170.467 579.972 168.484 582.719C166.485 585.42 165.873 588.382 166.638 591.58C167.695 595.995 171.83 598.765 179.035 599.898L188.942 601.436C197.005 602.645 203.245 604.994 207.671 608.452C212.088 611.918 215.044 616.754 216.529 622.968C218.52 631.293 217.387 638.83 213.13 645.578C208.85 652.381 202.563 656.773 194.279 658.755C192.25 659.237 190.275 659.543 188.353 659.673L210.389 751.899C215.587 749.657 220.572 747.079 225.311 744.171L207.249 668.595L259.621 618.308L275.011 682.712C282.377 661.938 284.046 638.883 278.548 615.851C263.35 552.296 199.493 513.089 135.905 528.262Z" fill="#00609C"/>
<path d="M172.22 655.839C170.36 654.699 168.629 653.345 167.044 651.753L163.936 648.065L156.723 639.518L151.486 640.765L128.37 646.282L117.843 648.792L112.253 670.14L97.5294 673.652L116.204 751.8C138.929 761.693 164.931 764.57 190.895 758.373C197.686 756.75 204.179 754.547 210.381 751.876L188.345 659.65C182.832 660.025 177.764 658.946 173.139 656.405C172.817 656.237 172.526 656.03 172.22 655.839Z" fill="#12284C"/>
<path d="M97.5067 673.576L97.5146 673.584V673.576H97.5067Z" fill="#12284C"/>
<path d="M143.225 631.055L148.492 629.793L128.684 606.501L120.905 636.381L131.617 633.825L143.225 631.055Z" fill="#12284C"/>
<path d="M207.242 668.587L225.304 744.163C248.626 729.87 266.045 707.994 275.003 682.705L259.613 618.3L207.242 668.587Z" fill="#12284C"/>
<path d="M98.3718 742.136L87.7596 697.725L53.4961 687.257C62.6764 710.274 78.61 729.151 98.3718 742.136Z" fill="#12284C"/>
<path d="M131.617 633.826L120.905 636.381L128.685 606.501L148.492 629.793L143.225 631.048L131.617 633.826ZM207.663 608.437C203.237 604.971 196.997 602.629 188.935 601.42L179.027 599.882C171.814 598.75 167.68 595.98 166.631 591.565C165.865 588.367 166.485 585.405 168.476 582.704C170.459 579.957 173.354 578.136 177.144 577.226C180.229 576.491 182.901 576.514 185.152 577.295C187.289 577.945 189.823 579.812 192.755 582.911L202.273 573.706C193.98 564.952 184.616 561.815 174.18 564.302C166.439 566.146 160.521 570.002 156.425 575.848C152.313 581.664 151.073 587.961 152.703 594.763C155.115 604.841 163.139 611.023 176.784 613.296L186.393 614.842C188.896 615.278 191.094 615.836 192.993 616.517C194.892 617.198 196.5 618.032 197.832 619.019C199.164 619.999 200.244 621.17 201.086 622.516C201.92 623.863 202.556 625.416 202.969 627.176C204.018 631.553 203.475 635.501 201.339 639.021C199.202 642.549 196.01 644.813 191.745 645.831C186.982 646.971 182.894 646.244 179.41 643.857C176.776 641.508 175.36 639.526 175.298 639.58L175.306 639.595L170.061 633.673L122.62 580.08L97.5143 673.569V673.584L97.4913 673.668L97.5296 673.661L112.253 670.148L117.843 648.8L128.371 646.29L151.486 640.773L156.723 639.526L163.936 648.073L167.044 651.761C168.629 653.353 170.36 654.707 172.22 655.847C172.527 656.039 172.825 656.245 173.139 656.421C177.764 658.962 182.832 660.04 188.345 659.665C190.267 659.535 192.242 659.237 194.271 658.747C202.556 656.773 208.842 652.381 213.122 645.571C217.372 638.814 218.512 631.278 216.522 622.96C215.036 616.747 212.081 611.903 207.663 608.437Z" fill="#FFCD00"/>
<path d="M93.2112 712.608L90.4778 708.981L89.5973 713.465L93.2112 712.608ZM94.3444 714.115L89.2451 715.332L88.6096 718.538L86.6725 718.997L89.5437 704.948L98.2493 716.235L96.2815 716.701L94.3444 714.115Z" fill="white"/>
<path d="M103.862 704.198L102.614 705.407C102.231 705.002 101.894 704.757 101.611 704.665C101.312 704.566 100.96 704.558 100.554 704.657C100.056 704.78 99.6735 705.017 99.4132 705.377C99.1528 705.736 99.0686 706.119 99.1681 706.54C99.3059 707.121 99.8495 707.481 100.799 707.634L102.101 707.833C103.157 707.994 103.984 708.3 104.558 708.759C105.14 709.218 105.531 709.853 105.722 710.664C105.983 711.758 105.837 712.753 105.278 713.641C104.711 714.536 103.892 715.11 102.797 715.37C101.764 715.615 100.837 715.515 100.018 715.064C99.2064 714.612 98.5862 713.847 98.1575 712.776L99.8802 711.942C100.133 712.623 100.386 713.067 100.661 713.289C101.151 713.717 101.756 713.84 102.468 713.671C103.027 713.541 103.448 713.243 103.731 712.776C104.015 712.309 104.084 711.797 103.946 711.215C103.892 710.985 103.808 710.779 103.701 710.603C103.594 710.427 103.448 710.274 103.272 710.144C103.096 710.014 102.882 709.907 102.637 709.815C102.384 709.723 102.101 709.654 101.771 709.593L100.508 709.386C98.7164 709.088 97.6597 708.277 97.3382 706.953C97.1238 706.058 97.2846 705.231 97.8282 704.466C98.3642 703.701 99.1452 703.188 100.163 702.951C101.542 702.637 102.767 703.051 103.862 704.198Z" fill="white"/>
<path d="M112.873 702.048L111.625 703.257C111.243 702.852 110.906 702.607 110.622 702.515C110.324 702.416 109.972 702.408 109.566 702.508C109.068 702.63 108.685 702.867 108.425 703.227C108.165 703.586 108.08 703.969 108.18 704.39C108.318 704.971 108.861 705.331 109.811 705.484L111.112 705.683C112.169 705.844 112.996 706.15 113.57 706.609C114.152 707.068 114.543 707.703 114.734 708.514C114.994 709.608 114.849 710.603 114.29 711.491C113.723 712.386 112.904 712.96 111.809 713.22C110.776 713.465 109.849 713.365 109.03 712.914C108.218 712.462 107.598 711.697 107.169 710.626L108.892 709.792C109.145 710.473 109.397 710.917 109.673 711.139C110.163 711.567 110.768 711.69 111.48 711.521C112.039 711.391 112.46 711.093 112.743 710.626C113.027 710.159 113.095 709.647 112.958 709.065C112.904 708.836 112.82 708.629 112.713 708.453C112.605 708.277 112.46 708.124 112.284 707.994C112.108 707.864 111.893 707.757 111.648 707.665C111.396 707.573 111.112 707.504 110.783 707.443L109.52 707.236C107.728 706.938 106.672 706.127 106.35 704.803C106.136 703.908 106.296 703.081 106.84 702.316C107.376 701.551 108.157 701.038 109.175 700.801C110.554 700.487 111.786 700.901 112.873 702.048Z" fill="white"/>
<path d="M117.368 705.361C117.682 706.678 118.386 707.649 119.466 708.284C120.545 708.919 121.663 709.103 122.812 708.828C124.06 708.529 125.009 707.848 125.66 706.777C126.311 705.698 126.487 704.535 126.188 703.28C125.882 702.01 125.208 701.053 124.152 700.395C123.103 699.73 121.954 699.554 120.714 699.844C119.474 700.143 118.532 700.824 117.889 701.887C117.246 702.951 117.069 704.107 117.368 705.361ZM115.553 705.767C115.155 704.091 115.423 702.507 116.365 701.015C117.299 699.523 118.631 698.567 120.346 698.161C122.046 697.756 123.639 698.016 125.147 698.934C126.656 699.86 127.613 701.168 128.018 702.867C128.424 704.581 128.164 706.173 127.222 707.657C126.28 709.149 124.94 710.098 123.202 710.511C121.663 710.878 120.155 710.679 118.685 709.907C117.046 709.05 116.005 707.672 115.553 705.767Z" fill="white"/>
<path d="M137.605 694.948L138.11 697.075C136.862 696.455 135.683 696.279 134.572 696.539C133.347 696.83 132.421 697.519 131.793 698.598C131.158 699.669 130.989 700.839 131.295 702.102C131.594 703.349 132.268 704.306 133.317 704.956C134.366 705.614 135.499 705.798 136.724 705.507C137.36 705.354 137.873 705.124 138.263 704.811C138.485 704.65 138.707 704.451 138.929 704.214C139.151 703.977 139.381 703.701 139.618 703.38L140.139 705.545C139.251 706.372 138.24 706.923 137.107 707.19C135.407 707.596 133.815 707.351 132.329 706.448C130.844 705.538 129.902 704.237 129.496 702.546C129.136 701.031 129.312 699.562 130.032 698.138C130.92 696.394 132.344 695.284 134.297 694.818C135.369 694.565 136.471 694.611 137.605 694.948Z" fill="white"/>
<path d="M141.326 693.387L144.166 705.285L142.375 705.714L139.526 693.815L141.326 693.387Z" fill="white"/>
<path d="M152.007 698.575L149.273 694.948L148.393 699.432L152.007 698.575ZM153.14 700.09L148.048 701.306L147.413 704.512L145.476 704.971L148.347 690.923L157.052 702.209L155.085 702.676L153.14 700.09Z" fill="white"/>
<path d="M158.53 691.068L160.965 701.275L159.173 701.704L156.731 691.496L153.997 692.147L153.592 690.456L160.85 688.727L161.256 690.41L158.53 691.068Z" fill="white"/>
<path d="M169.242 688.512L164.464 689.645L165.146 692.507L169.785 691.397L170.184 693.088L165.551 694.19L166.501 698.169L171.271 697.029L171.677 698.72L165.107 700.288L162.267 688.39L168.836 686.821L169.242 688.512Z" fill="white"/>
<path d="M175.245 696.08L176.056 695.889C176.86 695.698 177.511 695.453 178.009 695.154C178.499 694.848 178.912 694.443 179.249 693.953C179.938 692.935 180.13 691.78 179.823 690.487C179.509 689.186 178.82 688.229 177.756 687.625C176.799 687.089 175.551 687.005 174.02 687.365L173.208 687.556L175.245 696.08ZM173.843 698.2L171.003 686.301L173.499 685.704C174.693 685.421 175.673 685.314 176.424 685.383C177.228 685.437 177.993 685.666 178.736 686.079C180.229 686.906 181.202 688.229 181.63 690.051C182.067 691.879 181.783 693.509 180.773 694.948C180.267 695.667 179.686 696.218 179.035 696.608C178.43 696.983 177.526 697.32 176.317 697.611L173.843 698.2Z" fill="white"/>
<path d="M194.118 682.659L192.87 683.868C192.487 683.462 192.151 683.217 191.867 683.125C191.569 683.026 191.216 683.018 190.811 683.118C190.313 683.24 189.93 683.477 189.67 683.837C189.409 684.197 189.325 684.579 189.425 685C189.563 685.581 190.106 685.941 191.056 686.094L192.357 686.293C193.414 686.454 194.241 686.76 194.815 687.219C195.397 687.678 195.787 688.313 195.979 689.124C196.239 690.218 196.094 691.213 195.535 692.101C194.968 692.996 194.149 693.57 193.054 693.83C192.02 694.075 191.094 693.975 190.275 693.524C189.463 693.073 188.843 692.307 188.414 691.236L190.137 690.402C190.39 691.083 190.642 691.527 190.918 691.749C191.408 692.17 192.013 692.3 192.725 692.131C193.284 692.001 193.705 691.703 193.988 691.236C194.271 690.769 194.34 690.257 194.202 689.675C194.149 689.446 194.065 689.239 193.958 689.063C193.85 688.887 193.705 688.734 193.529 688.604C193.353 688.474 193.138 688.367 192.893 688.275C192.641 688.183 192.357 688.114 192.028 688.053L190.765 687.846C188.973 687.548 187.916 686.737 187.602 685.406C187.388 684.51 187.549 683.684 188.092 682.919C188.628 682.154 189.409 681.641 190.428 681.404C191.798 681.098 193.023 681.511 194.118 682.659Z" fill="white"/>
<path d="M199.891 681.197L202.326 691.405L200.535 691.833L198.092 681.626L195.359 682.276L194.953 680.585L202.219 678.856L202.617 680.539L199.891 681.197Z" fill="white"/>
<path d="M205.427 678.091L207.142 685.253C207.387 686.278 207.732 686.982 208.176 687.372C208.834 687.938 209.623 688.107 210.527 687.892C211.438 687.678 212.058 687.166 212.395 686.362C212.617 685.827 212.609 685.038 212.364 683.998L210.649 676.836L212.448 676.407L214.278 684.067C214.577 685.322 214.431 686.446 213.85 687.441C213.183 688.558 212.219 689.262 210.932 689.568C209.654 689.874 208.467 689.675 207.38 688.987C206.407 688.359 205.764 687.426 205.465 686.171L203.635 678.511L205.427 678.091Z" fill="white"/>
<path d="M219.339 685.559L220.151 685.367C220.955 685.176 221.606 684.931 222.103 684.633C222.593 684.327 223.007 683.921 223.351 683.432C224.041 682.414 224.232 681.258 223.926 679.965C223.612 678.664 222.923 677.708 221.858 677.104C220.901 676.568 219.653 676.484 218.122 676.843L217.31 677.035L219.339 685.559ZM217.946 687.678L215.105 675.78L217.601 675.183C218.796 674.9 219.776 674.793 220.526 674.862C221.33 674.915 222.096 675.145 222.838 675.558C224.331 676.384 225.304 677.708 225.733 679.529C226.169 681.358 225.886 682.988 224.875 684.426C224.37 685.145 223.788 685.696 223.137 686.087C222.532 686.462 221.621 686.798 220.419 687.089L217.946 687.678Z" fill="white"/>
<path d="M233.351 673.209L228.581 674.349L229.262 677.203L233.895 676.101L234.3 677.785L229.668 678.894L230.618 682.866L235.388 681.733L235.793 683.417L229.224 684.985L226.376 673.087L232.945 671.518L233.351 673.209Z" fill="white"/>
<path d="M237.96 682.896L234.921 670.194L245.77 677.195L243.795 668.931L245.594 668.503L248.611 681.121L237.769 674.142L239.76 682.467L237.96 682.896Z" fill="white"/>
<path d="M140.514 715.982L141.693 720.925C141.862 721.629 142.099 722.119 142.405 722.386C142.865 722.777 143.401 722.891 144.029 722.746C144.656 722.593 145.085 722.241 145.315 721.69C145.468 721.315 145.46 720.772 145.292 720.06L144.113 715.117L145.353 714.819L146.616 720.106C146.823 720.971 146.724 721.751 146.318 722.44C145.858 723.205 145.192 723.703 144.304 723.909C143.424 724.123 142.604 723.986 141.854 723.504C141.18 723.075 140.744 722.425 140.537 721.56L139.274 716.273L140.514 715.982Z" fill="white"/>
<path d="M153.37 713.381L153.722 714.85C152.864 714.421 152.045 714.299 151.279 714.482C150.437 714.681 149.794 715.156 149.365 715.898C148.929 716.64 148.814 717.444 149.02 718.316C149.227 719.173 149.694 719.831 150.414 720.29C151.134 720.741 151.922 720.872 152.765 720.665C153.201 720.558 153.553 720.405 153.829 720.191C153.982 720.076 154.135 719.938 154.288 719.777C154.442 719.617 154.602 719.425 154.763 719.203L155.123 720.696C154.511 721.269 153.814 721.644 153.033 721.828C151.861 722.111 150.759 721.935 149.733 721.315C148.707 720.688 148.056 719.793 147.78 718.622C147.527 717.574 147.658 716.564 148.148 715.577C148.76 714.368 149.74 713.602 151.096 713.281C151.831 713.113 152.589 713.143 153.37 713.381Z" fill="white"/>
<path d="M162.872 711.942L162.006 712.776C161.738 712.493 161.509 712.324 161.317 712.263C161.11 712.194 160.873 712.187 160.59 712.256C160.245 712.34 159.985 712.5 159.801 712.753C159.617 712.998 159.564 713.266 159.633 713.556C159.725 713.954 160.1 714.207 160.758 714.314L161.662 714.452C162.389 714.559 162.956 714.773 163.362 715.087C163.76 715.4 164.035 715.844 164.166 716.403C164.349 717.16 164.242 717.841 163.859 718.453C163.469 719.073 162.902 719.471 162.144 719.647C161.432 719.815 160.789 719.747 160.23 719.433C159.671 719.119 159.242 718.599 158.944 717.857L160.13 717.283C160.306 717.749 160.483 718.063 160.666 718.209C161.003 718.499 161.424 718.591 161.907 718.476C162.297 718.385 162.581 718.178 162.78 717.857C162.971 717.535 163.025 717.176 162.925 716.778C162.887 716.617 162.833 716.479 162.757 716.357C162.68 716.234 162.581 716.127 162.458 716.036C162.336 715.944 162.19 715.867 162.022 715.806C161.846 715.745 161.646 715.691 161.424 715.653L160.552 715.515C159.311 715.309 158.584 714.75 158.369 713.832C158.224 713.212 158.331 712.646 158.706 712.118C159.081 711.59 159.617 711.238 160.314 711.07C161.264 710.863 162.114 711.146 162.872 711.942Z" fill="white"/>
<path d="M169.602 714.383L167.718 711.881L167.106 714.98L169.602 714.383ZM170.383 715.431L166.868 716.273L166.432 718.484L165.099 718.806L167.083 709.111L173.093 716.9L171.738 717.222L170.383 715.431Z" fill="white"/>
<path d="M173.974 716.678L171.876 707.909L179.364 712.745L178.001 707.037L179.241 706.739L181.324 715.454L173.843 710.633L175.214 716.38L173.974 716.678Z" fill="white"/>
<path d="M187.235 712.278L187.794 712.148C188.353 712.018 188.797 711.85 189.142 711.643C189.478 711.429 189.769 711.154 189.999 710.817C190.474 710.113 190.604 709.317 190.397 708.422C190.183 707.519 189.708 706.861 188.973 706.448C188.315 706.081 187.449 706.019 186.393 706.272L185.834 706.402L187.235 712.278ZM186.278 713.74L184.318 705.53L186.041 705.116C186.868 704.917 187.541 704.849 188.054 704.895C188.606 704.933 189.142 705.093 189.647 705.377C190.681 705.95 191.347 706.861 191.645 708.124C191.944 709.386 191.753 710.511 191.056 711.506C190.704 712.003 190.305 712.386 189.854 712.653C189.433 712.914 188.812 713.143 187.978 713.342L186.278 713.74Z" fill="white"/>
<path d="M193.337 703.38L195.297 711.59L194.057 711.889L192.097 703.678L193.337 703.38Z" fill="white"/>
<path d="M199.991 703.02L196.699 703.808L197.166 705.782L200.366 705.017L200.642 706.18L197.449 706.945L198.1 709.692L201.4 708.904L201.675 710.067L197.143 711.146L195.183 702.936L199.715 701.857L199.991 703.02Z" fill="white"/>
<path d="M206.377 704.428L209.769 703.617L209.83 703.892C209.975 704.512 210.036 705.071 210.006 705.583C209.968 706.058 209.83 706.524 209.585 706.991C209.026 708.032 208.161 708.69 206.982 708.973C205.833 709.248 204.746 709.065 203.727 708.437C202.709 707.802 202.058 706.899 201.783 705.729C201.499 704.535 201.675 703.426 202.311 702.4C202.946 701.367 203.858 700.709 205.052 700.426C205.695 700.273 206.323 700.258 206.943 700.388C207.54 700.526 208.161 700.824 208.819 701.291L208.138 702.347C207.25 701.612 206.323 701.36 205.351 701.589C204.478 701.796 203.827 702.27 203.375 703.012C202.923 703.739 202.809 704.55 203.023 705.438C203.245 706.348 203.75 707.029 204.547 707.466C205.289 707.871 206.024 707.986 206.736 707.81C207.349 707.665 207.847 707.328 208.23 706.8C208.62 706.272 208.766 705.706 208.689 705.117L206.637 705.606L206.377 704.428Z" fill="white"/>
<path d="M212.073 703.219C212.288 704.13 212.77 704.803 213.52 705.239C214.271 705.683 215.036 705.805 215.833 705.614C216.698 705.407 217.349 704.941 217.8 704.198C218.252 703.456 218.367 702.653 218.16 701.788C217.954 700.916 217.479 700.25 216.759 699.799C216.032 699.34 215.243 699.217 214.386 699.424C213.528 699.63 212.877 700.097 212.433 700.832C211.989 701.559 211.867 702.354 212.073 703.219ZM210.818 703.502C210.542 702.347 210.726 701.253 211.376 700.22C212.02 699.187 212.938 698.529 214.125 698.245C215.297 697.962 216.399 698.146 217.433 698.781C218.474 699.416 219.133 700.319 219.416 701.497C219.699 702.676 219.516 703.778 218.865 704.803C218.214 705.828 217.287 706.486 216.093 706.777C215.029 707.03 213.995 706.892 212.969 706.356C211.851 705.775 211.131 704.818 210.818 703.502Z" fill="white"/>
</svg>
