<?xml version="1.0" encoding="utf-8"?>
<!-- Generator: Adobe Illustrator 23.0.6, SVG Export Plug-In . SVG Version: 6.00 Build 0)  -->
<svg version="1.1" id="Layer_1" xmlns="http://www.w3.org/2000/svg" xmlns:xlink="http://www.w3.org/1999/xlink" x="0px" y="0px"
	 viewBox="0 0 289.7 288.6" style="enable-background:new 0 0 289.7 288.6;" xml:space="preserve">
<style type="text/css">
	.st0{clip-path:url(#SVGID_2_);}
	.st1{fill:#BFDCE1;}
	.st2{fill:#160E23;}
	.st3{fill:none;stroke:#000000;stroke-width:1.1367;stroke-linecap:round;stroke-linejoin:round;stroke-miterlimit:10;}
	.st4{fill:#FFFFFF;stroke:#000000;stroke-width:1.1367;stroke-linecap:round;stroke-linejoin:round;stroke-miterlimit:10;}
	.st5{fill:#160E23;stroke:#000000;stroke-width:1.1367;stroke-linecap:round;stroke-linejoin:round;stroke-miterlimit:10;}
	.st6{stroke:#000000;stroke-width:0.6479;stroke-linecap:round;stroke-linejoin:round;stroke-miterlimit:10;}
	.st7{fill:none;stroke:#000000;stroke-width:1.3694;stroke-linecap:round;stroke-linejoin:round;stroke-miterlimit:10;}
	.st8{fill:#FFFFFF;stroke:#000000;stroke-width:1.3694;stroke-linecap:round;stroke-linejoin:round;stroke-miterlimit:10;}
	.st9{fill:#160E23;stroke:#000000;stroke-width:1.3694;stroke-linecap:round;stroke-linejoin:round;stroke-miterlimit:10;}
	.st10{stroke:#000000;stroke-width:0.7805;stroke-linecap:round;stroke-linejoin:round;stroke-miterlimit:10;}
	.st11{fill:none;stroke:#000000;stroke-width:1.0962;stroke-linecap:round;stroke-linejoin:round;stroke-miterlimit:10;}
	.st12{fill:#FFFFFF;stroke:#000000;stroke-width:1.0962;stroke-linecap:round;stroke-linejoin:round;stroke-miterlimit:10;}
	.st13{fill:#160E23;stroke:#000000;stroke-width:1.0962;stroke-linecap:round;stroke-linejoin:round;stroke-miterlimit:10;}
	.st14{stroke:#000000;stroke-width:0.6248;stroke-linecap:round;stroke-linejoin:round;stroke-miterlimit:10;}
</style>
<g>
	<g>
		<defs>
			
				<rect id="SVGID_1_" x="3" y="-5.6" transform="matrix(0.2376 -0.9714 0.9714 0.2376 -23.7033 248.5862)" width="287" height="290"/>
		</defs>
		<clipPath id="SVGID_2_">
			<use xlink:href="#SVGID_1_"  style="overflow:visible;"/>
		</clipPath>
		<g class="st0">
			<path class="st1" d="M180.6,0l14.2,57.8L252,41.4l-19.3,56.3l57,17.1L243,151.7l38.7,45.2l-59.2,5.8l8.1,59l-53-27.1l-25.1,54
				l-29.9-51.5L72.3,269l2.7-59.5l-59.5-0.4l34.4-48.6L0,128.1l55.2-22.3L30.8,51.5l58.5,11.1l8.8-58.9l43.2,41L180.6,0z"/>
			<path class="st2" d="M81.9,116c-1,1.6-2.2,2.9-3.7,4c-1.5,1.1-3.1,1.6-4.9,1.8s-3.6-0.4-5.3-1.5c-1.8-1.1-3-2.5-3.7-4.1
				c-0.7-1.6-0.9-3.4-0.6-5.2c0.3-1.8,0.9-3.5,1.9-5.1c0.7-1.1,1.4-2.1,2.2-3c0.8-0.9,1.6-1.6,2.2-2.1l5.4,3.5
				c-0.7,0.2-1.4,0.7-2.2,1.4c-0.8,0.7-1.5,1.5-2,2.3c-0.6,1-1,1.9-1.2,2.8c-0.2,0.9-0.2,1.7,0,2.5c0.2,0.7,0.7,1.3,1.3,1.7
				c0.7,0.4,1.4,0.5,2.2,0.4c0.8-0.2,1.5-0.6,2.2-1.2c0.7-0.6,1.3-1.4,1.9-2.3c0.7-1.1,1.1-2.3,1.4-3.4c0.2-1.2,0.3-2.3,0.2-3.3
				l5.9,3.6c-0.3,1.3-0.7,2.5-1.2,3.6C83.4,113.4,82.7,114.6,81.9,116z"/>
			<path class="st2" d="M92.1,103.4c-1.3,1.3-2.8,2.2-4.4,2.8c-1.6,0.5-3.2,0.6-4.8,0.2c-1.6-0.4-3.2-1.4-4.6-2.8
				c-1.4-1.5-2.3-3-2.7-4.7c-0.4-1.7-0.3-3.3,0.3-4.8c0.6-1.6,1.5-3,2.8-4.3c1.3-1.3,2.8-2.2,4.4-2.7c1.6-0.5,3.2-0.6,4.8-0.2
				c1.7,0.4,3.2,1.4,4.6,2.8c1.4,1.5,2.4,3,2.7,4.7c0.4,1.6,0.3,3.3-0.3,4.8C94.4,100.7,93.4,102.1,92.1,103.4z M88.8,100.1
				c0.5-0.5,0.8-1.1,0.9-1.7c0.1-0.7,0-1.4-0.2-2.1c-0.3-0.8-0.8-1.5-1.5-2.2c-0.7-0.7-1.4-1.2-2.2-1.5c-0.8-0.3-1.5-0.4-2.1-0.3
				c-0.7,0.1-1.2,0.4-1.7,0.9c-0.5,0.5-0.8,1.1-1,1.7c-0.1,0.6,0,1.4,0.2,2.1c0.3,0.8,0.8,1.5,1.5,2.2c0.7,0.7,1.4,1.2,2.2,1.6
				c0.7,0.3,1.4,0.4,2.1,0.3C87.7,100.9,88.3,100.6,88.8,100.1z"/>
			<path class="st2" d="M98.1,96.4c-0.2-0.8-0.6-1.7-1-2.9c-0.5-1.1-1-2.2-1.5-3.3l-2.4-4.6c-0.5-1-1.1-2.1-1.8-3.1
				c-0.7-1.1-1.3-1.9-1.8-2.5l7.3-3.8l6,5.1c0.2,0.1,0.3,0.2,0.4,0.3c0.1,0.1,0.3,0.2,0.4,0.3c0.3,0.3,0.6,0.6,1,0.9
				c0.3,0.3,0.7,0.7,1.1,1.1l0.3-0.1c-0.2-0.7-0.3-1.3-0.4-1.7c-0.1-0.5-0.2-1.1-0.2-1.8c0-0.1,0-0.2,0-0.2c0-0.1,0-0.1,0-0.2
				l-0.7-7.9l7.2-3.7c0.2,0.8,0.5,1.7,1,2.9c0.5,1.1,1,2.2,1.5,3.3l2.4,4.6c0.5,1,1.2,2.1,1.8,3.1c0.7,1,1.3,1.9,1.8,2.5l-6.4,3.3
				c-0.2-0.8-0.6-1.7-1-2.9c-0.5-1.2-1-2.2-1.5-3.3l-2-3.9l-0.3,0.1l0.8,12l-1.5,0.8l-9.3-7.6l-0.2,0.1l2,3.9
				c0.6,1.1,1.2,2.1,1.8,3.1c0.7,1,1.3,1.9,1.8,2.5L98.1,96.4z"/>
			<path class="st2" d="M120.3,84.8c0.1-0.8,0.1-1.8,0-3.1c-0.1-1.2-0.2-2.4-0.3-3.6l-0.7-5.1c-0.2-1.2-0.4-2.3-0.7-3.5
				c-0.3-1.2-0.6-2.2-0.8-3l8.2-1.1l3.9,6.8c0.1,0.1,0.2,0.3,0.3,0.5c0.1,0.2,0.2,0.3,0.2,0.4c0.2,0.4,0.4,0.8,0.6,1.2
				c0.2,0.4,0.4,0.9,0.6,1.4l0.3,0c0-0.7,0.1-1.3,0.2-1.8c0.1-0.5,0.2-1,0.4-1.7c0-0.1,0.1-0.1,0.1-0.2s0-0.1,0.1-0.2l2-7.6l8-1.1
				c-0.1,0.8-0.1,1.8,0,3.1c0.1,1.2,0.2,2.4,0.3,3.6l0.7,5.1c0.2,1.2,0.4,2.4,0.7,3.6c0.3,1.2,0.6,2.2,0.9,2.9l-7.1,1
				c0.1-0.8,0-1.8,0-3.1c-0.1-1.2-0.2-2.4-0.3-3.6l-0.6-4.3l-0.3,0L133.5,83l-1.7,0.2l-6.3-10.3l-0.3,0l0.6,4.3
				c0.2,1.2,0.4,2.4,0.7,3.6c0.3,1.2,0.6,2.2,0.9,2.9L120.3,84.8z"/>
			<path class="st2" d="M154.6,83.8c-1.8-0.3-3.3-0.9-4.5-1.7c-1.2-0.8-2.1-1.9-2.7-3.2c-0.5-1.3-0.7-2.9-0.3-4.7l0.7-4
				c0.2-1.2,0.3-2.4,0.4-3.6c0.1-1.2,0.1-2.3,0.1-3.1l7.1,1.2c-0.3,0.8-0.6,1.8-0.9,2.9c-0.3,1.2-0.6,2.4-0.8,3.5l-0.4,2.3
				c-0.1,0.8-0.1,1.5,0,2.1s0.4,1.1,0.8,1.5c0.4,0.4,0.9,0.6,1.5,0.7c0.7,0.1,1.3,0.1,1.8-0.2c0.5-0.2,0.9-0.6,1.2-1.1
				c0.3-0.5,0.5-1.2,0.7-2l0.4-2.3c0.2-1.2,0.3-2.4,0.4-3.6c0.1-1.2,0.1-2.3,0.1-3.1l7.2,1.2c-0.3,0.7-0.6,1.7-1,2.9
				c-0.3,1.2-0.6,2.4-0.8,3.5l-0.7,4c-0.3,1.7-0.9,3.1-1.8,4.2c-0.9,1.1-2.1,1.8-3.5,2.2C158.2,84.1,156.5,84.1,154.6,83.8z"/>
			<path class="st2" d="M164.4,85c0.5-0.6,1.1-1.5,1.7-2.6c0.6-1.1,1.2-2.1,1.7-3.2l2.2-4.7c0.5-1.1,1-2.2,1.4-3.4
				c0.4-1.2,0.7-2.1,0.9-2.9l5.9,2.8l1.8,11.6l0.3,0.1l1.3-2.8c0.5-1,1-2.1,1.4-3.3c0.4-1.3,0.7-2.2,0.9-2.9l6.6,3.1
				c-0.5,0.6-1.1,1.5-1.7,2.6c-0.6,1.1-1.2,2.1-1.7,3.2l-5,10.7l-5.1-2.4L175,78.7l-0.3-0.2l-1.3,2.8c-0.5,1.1-1,2.3-1.5,3.6
				c-0.5,1.4-0.8,2.4-1,3.1L164.4,85z"/>
			<path class="st2" d="M182.6,94.3c0.6-0.5,1.3-1.3,2.2-2.2c0.8-0.9,1.6-1.9,2.3-2.8l3.1-4.2c0.7-0.9,1.4-2,2-3
				c0.6-1.1,1.1-2,1.4-2.7l5.8,4.3c-0.6,0.5-1.3,1.3-2.1,2.2c-0.8,0.9-1.5,1.9-2.2,2.8l-3.1,4.2c-0.7,1-1.4,1.9-2,3
				c-0.7,1-1.1,1.9-1.5,2.7L182.6,94.3z"/>
			<path class="st2" d="M192.3,101.8c0.7-0.4,1.5-1,2.5-1.8c1-0.8,1.9-1.6,2.7-2.4l4.1-4l-1.7-1.8c-0.5-0.5-1-0.9-1.5-1.2
				c-0.5-0.3-1.1-0.6-1.7-0.7l5.7-4.1l11.1,11.4l-4.3,5.6c-0.1-0.6-0.3-1.1-0.7-1.7c-0.3-0.5-0.7-1-1.2-1.5l-1.6-1.7l-4.1,4
				c-0.8,0.8-1.7,1.7-2.5,2.6c-0.8,0.9-1.4,1.7-1.9,2.4L192.3,101.8z"/>
			<path class="st2" d="M203.4,115.1c0.7-0.2,1.4-0.5,2.3-0.9c0.8-0.4,1.6-0.8,2.4-1.2l1.2-0.7l2.9-5.7c0.7-1.2,1.4-2.5,2-3.9
				c0.6-1.3,1.1-2.5,1.5-3.5l3.9,6.6c-0.4,0.5-0.9,1.1-1.4,1.8c-0.5,0.7-1,1.4-1.4,2.1l-1,2.1l0.2,0.2l2.3,0.1
				c0.8,0,1.6-0.1,2.4-0.2c0.8-0.1,1.6-0.2,2.3-0.4l3.9,6.7c-1-0.2-2.3-0.3-3.8-0.4c-1.5-0.1-2.9-0.2-4.3-0.2l-6.4-0.2l-1.2,0.7
				c-0.8,0.4-1.5,0.9-2.2,1.5c-0.7,0.5-1.3,1-1.9,1.6L203.4,115.1z"/>
			<path class="st2" d="M155,122.5c1,2.8,2.6,5.2,4,7.8c2,3.7,2.7,7.5,2,11.6c-0.8,4.5-2.6,8.8-3,13.4c-0.9,11.8,7.9,19.1,18.3,22.3
				c0.5,0.2,1.1,0.3,1.6,0.4c-1.3,0.2-2.6,0.3-3.9,0.3c-0.6,0-1.2,0-1.8-0.1c-2.8-0.2-5.6-0.9-8.3-2c-2.2-0.9-4.2-2-6.1-3.4
				c-3.8-2.8-6.9-6.4-8.6-10.5c-1.9-4.7-1.8-9.8-0.4-14.6c1.5-4.9,3.9-9.7,3.6-14.9c-0.2-3.3-1.9-6.1-2.9-9.1
				c-1-3.1-0.7-6.8,0.6-9.7c3.3-7.4,11.3-10.4,18.8-11.3c0.6-0.1,1.3-0.2,1.9-0.3"/>
			<path class="st3" d="M155,122.5c1,2.8,2.6,5.2,4,7.8c2,3.7,2.7,7.5,2,11.6c-0.8,4.5-2.6,8.8-3,13.4c-0.9,11.8,7.9,19.1,18.3,22.3
				c0.5,0.2,1.1,0.3,1.6,0.4c-1.3,0.2-2.6,0.3-3.9,0.3c-0.6,0-1.2,0-1.8-0.1c-2.8-0.2-5.6-0.9-8.3-2c-2.2-0.9-4.2-2-6.1-3.4
				c-3.8-2.8-6.9-6.4-8.6-10.5c-1.9-4.7-1.8-9.8-0.4-14.6c1.5-4.9,3.9-9.7,3.6-14.9c-0.2-3.3-1.9-6.1-2.9-9.1
				c-1-3.1-0.7-6.8,0.6-9.7c3.3-7.4,11.3-10.4,18.8-11.3c0.6-0.1,1.3-0.2,1.9-0.3"/>
			<path class="st4" d="M163.8,104.9c-2.9,1.6-5.3,3.8-7.2,6.7c-2.1,3.2-2.9,7.2-1.6,10.9c1,2.8,2.6,5.2,4,7.8c2,3.7,2.7,7.5,2,11.6
				c-0.8,4.5-2.6,8.8-3,13.4c0,0.4,0,0.7-0.1,1.1c0,0.5,0,1.1,0,1.6c0,0.5,0.1,1,0.1,1.5c0,0.2,0.1,0.3,0.1,0.5
				c0.1,0.5,0.2,1,0.3,1.5c0.1,0.3,0.2,0.6,0.3,0.9c0.1,0.3,0.2,0.6,0.3,0.9c0.2,0.4,0.3,0.9,0.5,1.3c0.3,0.6,0.6,1.1,0.9,1.7
				c3.2,5.5,9.2,9.3,15.9,11.4c0.5,0.2,1.1,0.3,1.6,0.4c13.6,3.1,28-6.6,30.2-20.5c0.5-3.2,0.3-6.6-0.9-9.6c-3.4-8.1-14-12-14-21.8
				c0-6.1,0-12.7-3.9-17.7c-2.5-3.3-6.4-5.4-10.5-6.1C173.7,101.5,168.3,102.4,163.8,104.9z M164.4,124.8c-0.1-0.2-0.1-0.3-0.2-0.5
				c-1.2-4,0.5-8,3.8-9c2-0.6,4.2,0.1,5.8,1.7c0.7-1.4,1.8-2.4,3.3-2.8c3.2-0.9,6.8,1.5,8,5.5c0.1,0.3,0.2,0.6,0.2,0.9
				c0.7,3.7-1,7.2-4,8.1c-2,0.6-4.2-0.1-5.8-1.7c-0.7,1.4-1.8,2.4-3.3,2.8C169.1,130.7,165.7,128.5,164.4,124.8z"/>
			<path class="st4" d="M181.3,128.7c-2,0.6-4.2-0.1-5.8-1.7c0.9-1.7,1.1-3.9,0.5-6.1c-0.1-0.2-0.1-0.4-0.2-0.6
				c3.3-0.2,7.5,0.1,9.5,0.3C185.9,124.3,184.3,127.8,181.3,128.7z"/>
			<path class="st4" d="M175.5,127c-0.7,1.4-1.8,2.4-3.3,2.8c-3.1,0.9-6.5-1.3-7.8-5c2.6-1.8,5.5-3.2,8.5-4c0.2-0.1,0.4-0.1,0.7-0.2
				c0.6-0.2,1.4-0.3,2.2-0.3c0.1,0.2,0.1,0.4,0.2,0.6C176.6,123.1,176.4,125.3,175.5,127z"/>
			<path class="st5" d="M176.7,152.2c5.4,1.3,10.9-2,12.2-7.4c1.3-5.4-2-10.9-7.4-12.2c-5.4-1.3-10.9,2-12.2,7.4
				C168,145.4,171.3,150.9,176.7,152.2z"/>
			<path class="st6" d="M188.7,146L188.7,146C188.6,146,188.6,146,188.7,146C188.6,146,188.6,146,188.7,146z"/>
			<path class="st4" d="M188.6,146C188.6,146,188.6,146,188.6,146c-1.8,4.7-6.9,7.5-11.9,6.3c-3.1-0.8-5.5-2.9-6.8-5.5
				c1.1-0.3,2.1-0.8,3.1-1c1-0.2,2.1-0.3,3.2,0c0.6,0.1,1.1,0.4,1.6,0.7c0.3,0.2,0.5,0.3,0.7,0.5c0.4,0.3,0.7,0.7,1,1.1
				c0.2,0.2,1.2,1.3,1.3,0.7c0-0.1,0-0.3-0.1-0.4c-0.3-0.5-0.7-0.8-1.1-1.2c-0.2-0.2-0.4-0.5-0.6-0.8c0,0,0,0,0-0.1
				c-0.1-0.1,0-0.3,0.1-0.4c1.4-1.2,3.5-1.8,5.4-1.6C186.2,144.5,187.4,145.1,188.6,146z"/>
			<path class="st2" d="M92.5,128.7c1.1,3.3,3.2,6.3,4.8,9.4c2.4,4.4,3.2,9,2.4,14c-0.9,5.4-3.2,10.6-3.6,16.2
				c-1.1,14.2,9.5,23,22,26.9c0.6,0.2,1.3,0.4,1.9,0.5c-1.6,0.3-3.1,0.4-4.7,0.4c-0.7,0-1.4,0-2.1-0.1c-3.4-0.3-6.8-1.1-10-2.5
				c-2.6-1.1-5.1-2.5-7.4-4.1c-4.6-3.3-8.3-7.7-10.4-12.7c-2.3-5.6-2.2-11.8-0.4-17.6c1.8-5.9,4.7-11.6,4.3-18
				c-0.3-4-2.3-7.4-3.5-11c-1.3-3.7-0.8-8.1,0.8-11.7c4-9,13.6-12.5,22.6-13.6c0.8-0.1,1.5-0.2,2.3-0.3"/>
			<path class="st7" d="M92.5,128.7c1.1,3.3,3.2,6.3,4.8,9.4c2.4,4.4,3.2,9,2.4,14c-0.9,5.4-3.2,10.6-3.6,16.2
				c-1.1,14.2,9.5,23,22,26.9c0.6,0.2,1.3,0.4,1.9,0.5c-1.6,0.3-3.1,0.4-4.7,0.4c-0.7,0-1.4,0-2.1-0.1c-3.4-0.3-6.8-1.1-10-2.5
				c-2.6-1.1-5.1-2.5-7.4-4.1c-4.6-3.3-8.3-7.7-10.4-12.7c-2.3-5.6-2.2-11.8-0.4-17.6c1.8-5.9,4.7-11.6,4.3-18
				c-0.3-4-2.3-7.4-3.5-11c-1.3-3.7-0.8-8.1,0.8-11.7c4-9,13.6-12.5,22.6-13.6c0.8-0.1,1.5-0.2,2.3-0.3"/>
			<path class="st8" d="M103.1,107.6c-3.4,1.9-6.4,4.6-8.6,8c-2.5,3.9-3.5,8.7-2,13.1c1.1,3.3,3.2,6.3,4.8,9.4c2.4,4.4,3.2,9,2.4,14
				c-0.9,5.4-3.2,10.6-3.6,16.2c0,0.4-0.1,0.9-0.1,1.3c0,0.6,0,1.3,0,1.9c0,0.6,0.1,1.2,0.2,1.8c0,0.2,0.1,0.4,0.1,0.6
				c0.1,0.6,0.2,1.2,0.3,1.8c0.1,0.4,0.2,0.8,0.3,1.1c0.1,0.4,0.2,0.7,0.4,1.1c0.2,0.5,0.4,1.1,0.6,1.6c0.3,0.7,0.7,1.4,1,2
				c3.9,6.7,11.1,11.2,19.2,13.7c0.6,0.2,1.3,0.4,1.9,0.5c16.4,3.8,33.7-7.9,36.3-24.7c0.6-3.9,0.4-7.9-1.1-11.6
				c-4.1-9.8-16.8-14.5-16.9-26.2c0-7.3-0.1-15.3-4.7-21.3c-3-3.9-7.7-6.5-12.6-7.3C115,103.5,108.5,104.6,103.1,107.6z
				 M103.8,131.5c-0.1-0.2-0.1-0.4-0.2-0.6c-1.4-4.8,0.6-9.7,4.5-10.8c2.4-0.7,5,0.2,6.9,2.1c0.9-1.7,2.2-2.9,4-3.4
				c3.9-1.1,8.2,1.8,9.6,6.7c0.1,0.3,0.2,0.7,0.3,1.1c0.9,4.4-1.2,8.7-4.8,9.7c-2.4,0.7-5-0.2-7-2.1c-0.9,1.7-2.2,2.9-4,3.4
				C109.5,138.6,105.4,135.9,103.8,131.5z"/>
			<path class="st8" d="M124.1,136.2c-2.4,0.7-5-0.2-6.9-2.1c1.1-2,1.3-4.7,0.6-7.4c-0.1-0.2-0.1-0.5-0.2-0.7
				c4-0.3,9.1,0.2,11.4,0.4C129.8,130.9,127.7,135.2,124.1,136.2z"/>
			<path class="st8" d="M128.9,126.5c-2.3-0.3-7.4-0.7-11.4-0.4c-0.6-1.5-1.4-2.9-2.5-3.9c0.9-1.7,2.2-2.9,4-3.4
				c3.9-1.1,8.2,1.8,9.6,6.7C128.8,125.8,128.8,126.1,128.9,126.5z"/>
			<path class="st8" d="M117.2,134.1c-0.9,1.7-2.2,2.9-4,3.4c-3.7,1.1-7.9-1.6-9.4-6.1c3.1-2.2,6.6-3.8,10.3-4.8
				c0.3-0.1,0.5-0.1,0.8-0.2c0.8-0.2,1.7-0.3,2.7-0.4c0.1,0.2,0.2,0.4,0.2,0.7C118.5,129.4,118.2,132.1,117.2,134.1z"/>
			<path d="M110.6,132.8c1.4,0.3,2.7-0.5,3.1-1.9c0.3-1.4-0.5-2.7-1.9-3.1c-1.4-0.3-2.7,0.5-3.1,1.9
				C108.4,131.1,109.2,132.5,110.6,132.8z"/>
			<path d="M122.1,131c1.4,0.3,2.7-0.5,3.1-1.9c0.3-1.4-0.5-2.7-1.9-3.1c-1.4-0.3-2.7,0.5-3.1,1.9
				C119.9,129.3,120.7,130.7,122.1,131z"/>
			<path class="st9" d="M118.7,164.5c6.5,1.6,13.1-2.4,14.7-8.9c1.6-6.5-2.4-13.1-9-14.7c-6.5-1.6-13.1,2.4-14.7,9
				C108.1,156.3,112.1,162.9,118.7,164.5z"/>
			<path class="st10" d="M133,157L133,157C132.9,157,133,157,133,157C133,157,133,157,133,157z"/>
			<path class="st8" d="M133,157C133,157,132.9,157,133,157c-2.2,5.7-8.3,9-14.3,7.5c-3.7-0.9-6.6-3.4-8.1-6.7
				c1.3-0.4,2.5-0.9,3.8-1.2c1.3-0.3,2.6-0.3,3.8,0c0.7,0.2,1.3,0.5,1.9,0.8c0.3,0.2,0.6,0.4,0.9,0.6c0.5,0.4,0.9,0.9,1.3,1.3
				c0.2,0.2,1.4,1.6,1.6,0.9c0-0.2,0-0.3-0.1-0.5c-0.3-0.6-0.9-1-1.3-1.5c-0.3-0.3-0.5-0.6-0.8-0.9c0,0,0,0,0-0.1
				c-0.1-0.1,0-0.4,0.1-0.5c1.7-1.5,4.2-2.1,6.5-1.9C130,155.2,131.5,156,133,157z"/>
			<path class="st8" d="M117.5,126.1c-1,0.1-1.9,0.2-2.7,0.4c-0.3,0.1-0.5,0.1-0.8,0.2c-3.7,1-7.2,2.6-10.3,4.8
				c-0.1-0.2-0.1-0.4-0.2-0.6c-1.4-4.8,0.6-9.7,4.5-10.8c2.4-0.7,5,0.2,6.9,2.1C116.1,123.2,117,124.5,117.5,126.1z"/>
			<path d="M169.7,125.3c1.1,0.3,2.2-0.4,2.5-1.5c0.3-1.1-0.4-2.2-1.5-2.5c-1.1-0.3-2.2,0.4-2.5,1.5
				C167.9,123.9,168.6,125,169.7,125.3z"/>
			<path d="M179.5,123.4c1.1,0.3,2.2-0.4,2.5-1.5c0.3-1.1-0.4-2.2-1.5-2.5c-1.1-0.3-2.2,0.4-2.5,1.5
				C177.7,122,178.4,123.1,179.5,123.4z"/>
			<path class="st4" d="M175.8,120.3c-0.8,0.1-1.6,0.2-2.2,0.3c-0.2,0.1-0.4,0.1-0.7,0.2c-3.1,0.8-6,2.2-8.5,4
				c-0.1-0.2-0.1-0.3-0.2-0.5c-1.2-4,0.5-8,3.8-9c2-0.6,4.2,0.1,5.8,1.7C174.6,117.9,175.3,119,175.8,120.3z"/>
			<path class="st4" d="M185.2,120.6c-1.9-0.2-6.2-0.6-9.5-0.3c-0.5-1.3-1.2-2.4-2-3.2c0.7-1.4,1.8-2.4,3.3-2.8
				c3.2-0.9,6.8,1.5,8,5.5C185.1,120.1,185.2,120.3,185.2,120.6z"/>
			<path class="st2" d="M146.3,155c0.2,2.8,1.2,5.5,1.9,8.3c0.9,3.9,0.7,7.6-1,11.3c-1.8,4-4.6,7.6-6,11.8
				c-3.7,10.8,2.7,19.7,11.7,25.3c0.5,0.3,0.9,0.5,1.4,0.8c-1.3-0.1-2.5-0.3-3.7-0.6c-0.5-0.1-1.1-0.3-1.6-0.5
				c-2.6-0.9-5-2.2-7.3-3.9c-1.8-1.3-3.5-2.9-4.9-4.6c-2.9-3.5-4.9-7.6-5.5-11.9c-0.6-4.8,0.7-9.6,3.2-13.7c2.6-4.2,6-8.1,6.9-13.1
				c0.6-3.1-0.3-6.2-0.5-9.2c-0.2-3.1,1-6.5,2.9-8.9c4.9-6.1,13-7,20.2-6.1c0.6,0.1,1.2,0.1,1.8,0.2"/>
			<path class="st11" d="M146.3,155c0.2,2.8,1.2,5.5,1.9,8.3c0.9,3.9,0.7,7.6-1,11.3c-1.8,4-4.6,7.6-6,11.8
				c-3.7,10.8,2.7,19.7,11.7,25.3c0.5,0.3,0.9,0.5,1.4,0.8c-1.3-0.1-2.5-0.3-3.7-0.6c-0.5-0.1-1.1-0.3-1.6-0.5
				c-2.6-0.9-5-2.2-7.3-3.9c-1.8-1.3-3.5-2.9-4.9-4.6c-2.9-3.5-4.9-7.6-5.5-11.9c-0.6-4.8,0.7-9.6,3.2-13.7c2.6-4.2,6-8.1,6.9-13.1
				c0.6-3.1-0.3-6.2-0.5-9.2c-0.2-3.1,1-6.5,2.9-8.9c4.9-6.1,13-7,20.2-6.1c0.6,0.1,1.2,0.1,1.8,0.2"/>
			<path class="st12" d="M158.7,140.7c-3.1,0.8-5.9,2.3-8.3,4.5c-2.7,2.5-4.4,6-4.1,9.8c0.2,2.8,1.2,5.5,1.9,8.3
				c0.9,3.9,0.7,7.6-1,11.3c-1.8,4-4.6,7.6-6,11.8c-0.1,0.3-0.2,0.7-0.3,1c-0.1,0.5-0.3,1-0.4,1.5c-0.1,0.5-0.2,1-0.2,1.5
				c0,0.2,0,0.3-0.1,0.5c0,0.5-0.1,1-0.1,1.4c0,0.3,0,0.6,0,0.9c0,0.3,0,0.6,0.1,0.9c0,0.5,0.1,0.9,0.2,1.4c0.1,0.6,0.2,1.2,0.4,1.8
				c1.7,5.9,6.4,10.9,12.1,14.4c0.5,0.3,0.9,0.5,1.4,0.8c11.9,6.2,27.7,0.6,33.1-11.9c1.2-2.9,1.9-6.1,1.4-9.2
				c-1.3-8.4-10.2-14.6-7.8-23.7c1.4-5.7,3-11.8,0.6-17.5c-1.6-3.7-4.7-6.6-8.3-8.2C168.7,139.9,163.5,139.5,158.7,140.7z
				 M154.5,159.4c0-0.2,0-0.3,0-0.5c-0.1-4,2.4-7.4,5.7-7.5c2-0.1,3.8,1.1,5,3c1-1.1,2.3-1.8,3.8-1.8c3.3-0.1,6,3.1,6.1,7.1
				c0,0.3,0,0.6,0,0.9c-0.2,3.6-2.6,6.5-5.7,6.6c-2,0.1-3.8-1.1-5-3c-1,1.1-2.3,1.8-3.8,1.8C157.4,166.1,154.8,163.2,154.5,159.4z"
				/>
			<path class="st12" d="M169.3,167.1c-2,0.1-3.8-1.1-5-3c1.2-1.4,2-3.4,1.9-5.6c0-0.2,0-0.4,0-0.6c3.1,0.6,7,1.9,8.7,2.6
				C174.7,164.2,172.3,167,169.3,167.1z"/>
			<path class="st12" d="M174.9,160.5c-1.7-0.7-5.6-2-8.7-2.6c-0.1-1.3-0.5-2.5-1.1-3.5c1-1.1,2.3-1.8,3.8-1.8
				c3.3-0.1,6,3.1,6.1,7.1C175,160,175,160.3,174.9,160.5z"/>
			<path class="st12" d="M164.3,164.1c-1,1.1-2.3,1.8-3.8,1.8c-3.1,0.1-5.8-2.8-6.1-6.6c2.8-1.1,5.9-1.7,8.9-1.7c0.2,0,0.4,0,0.7,0
				c0.6,0,1.4,0.1,2.1,0.2c0,0.2,0,0.4,0,0.6C166.3,160.7,165.5,162.8,164.3,164.1z"/>
			<path d="M159.7,161.5c1.1,0.3,2.2-0.4,2.5-1.5c0.3-1.1-0.4-2.2-1.5-2.5c-1.1-0.3-2.2,0.4-2.5,1.5S158.6,161.2,159.7,161.5z"/>
			<path d="M168.9,162.5c1.1,0.3,2.2-0.4,2.5-1.5c0.3-1.1-0.4-2.2-1.5-2.5c-1.1-0.3-2.2,0.4-2.5,1.5
				C167.2,161.1,167.8,162.2,168.9,162.5z"/>
			<path class="st13" d="M161.7,188.9c5.2,1.3,10.5-1.9,11.8-7.2c1.3-5.2-1.9-10.5-7.2-11.8c-5.2-1.3-10.5,1.9-11.8,7.2
				C153.2,182.3,156.4,187.6,161.7,188.9z"/>
			<path class="st14" d="M172,185.1L172,185.1C172,185,172,185,172,185.1C172,185,172,185,172,185.1z"/>
			<path class="st12" d="M172,185C172,185,172,185,172,185c-2.8,4-8.2,5.3-12.6,3c-2.7-1.4-4.5-4-5-6.8c1.1,0,2.1-0.2,3.2-0.2
				c1,0,2.1,0.3,3,0.8c0.5,0.3,0.9,0.6,1.3,1c0.2,0.2,0.4,0.4,0.6,0.7c0.3,0.4,0.5,0.8,0.7,1.3c0.1,0.2,0.8,1.5,1.1,1
				c0.1-0.1,0.1-0.2,0-0.4c-0.1-0.5-0.5-0.9-0.7-1.4c-0.1-0.3-0.3-0.6-0.4-0.9c0,0,0,0,0-0.1c0-0.1,0.1-0.3,0.2-0.3
				c1.6-0.8,3.7-0.8,5.4-0.2C170.1,183,171.1,183.9,172,185z"/>
			<path class="st12" d="M166.2,158c-0.8-0.1-1.5-0.2-2.1-0.2c-0.2,0-0.4,0-0.7,0c-3,0-6.1,0.6-8.9,1.7c0-0.2,0-0.3,0-0.5
				c-0.1-4,2.4-7.4,5.7-7.5c2-0.1,3.8,1.1,5,3C165.7,155.4,166.1,156.6,166.2,158z"/>
		</g>
	</g>
</g>
</svg>
