<svg width="242" height="291" viewBox="0 0 242 291" fill="none" xmlns="http://www.w3.org/2000/svg">
<g clip-path="url(#clip0)">
<path d="M241.52 290.6H0V120.76C0 54.07 54.07 0 120.76 0C187.45 0 241.52 54.07 241.52 120.76V290.6Z" fill="#00609C"/>
<path d="M223.05 121.39V163.06H18.47V121.39C18.47 64.9001 64.27 19.1001 120.76 19.1001C177.26 19.1001 223.05 64.9001 223.05 121.39Z" fill="#F15E4E"/>
<path d="M223.05 121.39V163.06H18.47V121.39C18.47 64.9001 64.27 19.1001 120.76 19.1001C177.26 19.1001 223.05 64.9001 223.05 121.39Z" fill="#7AAFDB"/>
<path d="M38.46 143.06V121.39C38.46 76.0101 75.38 39.1001 120.75 39.1001C166.12 39.1001 203.04 76.0201 203.04 121.39V143.06H38.46Z" fill="#F15E4E"/>
<path d="M38.47 163.06V121.39C38.47 76.0101 75.39 39.1001 120.76 39.1001C166.13 39.1001 203.05 76.0201 203.05 121.39V163.06H38.47Z" fill="white"/>
<path d="M58.46 123.06V121.39C58.46 87.0401 86.4 59.1001 120.75 59.1001C155.1 59.1001 183.04 87.0401 183.04 121.39V123.06H58.46Z" fill="#F15E4E"/>
<path d="M58.46 163.06V121.39C58.46 87.0401 86.4 59.1001 120.75 59.1001C155.1 59.1001 183.04 87.0401 183.04 121.39V163.06H58.46Z" fill="#7AAFDB"/>
<path d="M79.8201 163.06V117.42C79.8201 96.2901 98.1701 79.1001 120.72 79.1001C143.27 79.1001 161.62 96.2901 161.62 117.42V163.06H79.8201Z" fill="white"/>
<path d="M110.37 58.1702C109.77 54.8702 106.07 54.0202 103.22 54.3402C101.21 54.5702 99.1599 54.7902 97.2499 55.4602C96.1899 55.8402 95.1599 56.3002 94.1599 56.8202C94.2199 56.7102 94.2599 56.5802 94.3199 56.4702C94.4799 56.1202 94.6099 55.7502 94.7099 55.3802C99.4699 51.0502 104.76 46.4402 106.74 40.2702C107.45 38.0602 107.64 35.5702 106.63 33.4902C105.62 31.4002 103.16 29.9302 100.94 30.5902C97.8399 31.5102 96.1199 35.4702 95.1799 38.2502C94.2199 41.1002 93.4499 43.9102 91.7299 46.3402C89.7999 44.4802 87.1999 43.4502 84.3099 43.6802C82.1399 42.5602 79.1499 42.6302 76.6599 43.2202C75.1799 41.9202 73.0499 41.5502 70.4499 42.9502C68.0599 44.2402 65.9099 46.7002 64.7099 49.1202C62.4399 53.7102 62.5799 59.3302 65.4399 63.4902L65.0699 63.7302C49.7099 92.0002 73.4799 101.88 73.4799 101.88L79.6399 92.0502C79.6399 92.0502 65.1399 86.1102 74.3399 73.2002C76.6299 74.4602 79.2799 75.0602 81.8699 74.5102C85.4099 73.7602 88.5499 71.0102 91.4299 68.9802C94.6199 66.7402 97.8299 65.0502 101.74 64.5502C105.08 64.1302 111.2 62.7202 110.37 58.1702Z" fill="#7AAFDB"/>
<path d="M115.33 225.67C150.019 225.67 178.14 223.463 178.14 220.74C178.14 218.017 150.019 215.81 115.33 215.81C80.641 215.81 52.52 218.017 52.52 220.74C52.52 223.463 80.641 225.67 115.33 225.67Z" fill="black"/>
<path d="M171.29 140.83C173.02 135.62 173.95 130.06 173.95 124.28C173.95 95.2001 150.37 71.6201 121.29 71.6201C92.2001 71.6201 68.6201 95.2001 68.6201 124.28C68.6201 143.73 79.1601 160.71 94.8401 169.83C97.6001 171.44 100.53 172.81 103.58 173.9C104.71 174.3 105.85 174.67 107.01 174.99C99.1501 182.38 95.5201 191.12 116.61 194.39C119.01 193.26 121.78 192.76 124.46 192.65C129.09 192.45 134.63 193.4 139.25 195.71C140.78 195.7 142.37 195.68 144.01 195.65C144.01 195.65 150.51 192.34 145.12 187.6C138.38 186.46 113.38 188.79 114.24 183.81C113.69 182.26 116.92 179.41 120.29 176.95C120.63 176.96 120.97 176.96 121.31 176.96C141.27 176.96 158.63 165.86 167.57 149.49L171.29 140.83ZM117.55 103.88C113.27 107.78 107.47 108.73 103.4 105.8C100.52 103.73 99.1501 100.17 99.3801 96.3501C99.3901 96.1401 99.4101 95.9301 99.4301 95.7301C99.6501 93.5701 100.39 91.3301 101.65 89.2601C101.83 88.9701 102.02 88.6801 102.22 88.3901C104.56 85.0101 107.89 82.8601 111.22 82.2101C113.9 81.6901 116.59 82.1401 118.77 83.7101C123.47 87.0801 124.15 94.3801 120.47 100.36C120.31 100.62 120.13 100.88 119.96 101.14C119.24 102.16 118.43 103.08 117.55 103.88ZM140.34 109.7C140.18 109.96 140.01 110.22 139.83 110.48C139.28 111.27 138.68 112 138.04 112.65C133.73 117.04 127.59 118.23 123.35 115.16C120.41 113.03 119.05 109.35 119.36 105.42C119.37 105.3 119.38 105.19 119.39 105.07C119.61 102.9 120.35 100.67 121.6 98.5801C121.78 98.2801 121.97 97.9901 122.17 97.7001C124.5 94.3001 127.81 92.1601 131.13 91.5101C133.8 90.9901 136.47 91.4401 138.65 93.0101C143.32 96.3901 144.01 103.72 140.34 109.7Z" fill="#7AAFDB" stroke="#160E23" stroke-width="1.9855" stroke-miterlimit="10" stroke-linecap="round" stroke-linejoin="round"/>
<path d="M138.65 93.02C136.47 91.45 133.8 91 131.13 91.52C127.81 92.17 124.5 94.32 122.17 97.71C121.97 98 121.78 98.29 121.6 98.59C120.35 100.67 119.61 102.91 119.39 105.08C119.38 105.2 119.37 105.31 119.36 105.43C119.91 105.19 120.52 105 121.2 104.88C121.44 104.83 121.69 104.79 121.95 104.77C123.33 104.6 124.8 104.66 126.28 104.93C128.02 105.24 129.78 105.82 131.4 106.62C132.42 107.12 133.39 107.71 134.26 108.36C135.46 109.25 136.5 110.27 137.28 111.39C137.58 111.82 137.84 112.25 138.04 112.68C138.68 112.03 139.28 111.3 139.83 110.51C140 110.25 140.17 109.99 140.34 109.73C144.01 103.72 143.32 96.39 138.65 93.02ZM120.47 100.35C124.15 94.37 123.47 87.07 118.77 83.7C116.58 82.13 113.9 81.69 111.22 82.2C107.89 82.85 104.56 84.99 102.22 88.38C102.02 88.67 101.83 88.96 101.65 89.25C100.39 91.33 99.6499 93.56 99.4299 95.72C99.4099 95.93 99.3899 96.14 99.3799 96.34C99.7799 96.2 100.21 96.08 100.67 95.99C100.91 95.95 101.16 95.9 101.42 95.87C102.74 95.71 104.15 95.76 105.58 95.99C107.38 96.29 109.2 96.89 110.88 97.72C111.8 98.17 112.68 98.69 113.48 99.27C114.79 100.21 115.91 101.29 116.75 102.48C117.08 102.94 117.34 103.4 117.56 103.85C118.44 103.05 119.25 102.13 119.97 101.1C120.14 100.87 120.31 100.61 120.47 100.35Z" fill="#7AAFDB" stroke="#160E23" stroke-width="1.9855" stroke-miterlimit="10" stroke-linecap="round" stroke-linejoin="round"/>
<path d="M99.6999 177.95L80.7599 197.76C77.3099 196.3 76.0099 192.03 75.6499 190.48V190.47C75.6499 190.25 75.6499 190.03 75.6399 189.81L94.8399 169.82L92.6799 172.76C92.6799 172.77 93.9399 176.94 99.6999 177.95Z" fill="#7AAFDB" stroke="#160E23" stroke-width="1.9855" stroke-miterlimit="10" stroke-linecap="round" stroke-linejoin="round"/>
<path d="M75.5001 211.47C72.9601 213.4 68.8101 215.03 65.5801 214.14C64.2101 213.76 63.0601 212.85 61.9801 211.91C56.2801 207.01 51.4201 201.05 47.7101 194.52C45.0901 189.9 42.2601 185.23 41.0601 179.99C39.4601 173.06 41.2501 165.36 48.1601 162.25C53.8001 159.72 61.2001 160.49 66.1001 164.29C73.2001 169.8 75.3801 180.5 75.6401 189.8L75.5401 189.91C75.5401 189.91 75.5701 190.12 75.6501 190.47V190.48C76.0101 192.03 77.3101 196.29 80.7601 197.76C81.3401 203.04 79.8401 208.17 75.5001 211.47Z" fill="#7AAFDB" stroke="#160E23" stroke-width="1.9855" stroke-miterlimit="10" stroke-linecap="round" stroke-linejoin="round"/>
<path d="M75.65 190.49C75.68 192.46 75.64 194.36 75.53 196.13L75.65 190.49Z" fill="#7AAFDB"/>
<path d="M75.65 190.49C75.68 192.46 75.64 194.36 75.53 196.13" stroke="#160E23" stroke-width="1.9855" stroke-miterlimit="10" stroke-linecap="round" stroke-linejoin="round"/>
<path d="M46.1201 169.83C63.4201 169.36 72.1901 189.42 73.8601 203.92C74.2501 207.33 74.2601 210.91 71.6901 213.57" fill="#7AAFDB"/>
<path d="M46.1201 169.83C63.4201 169.36 72.1901 189.42 73.8601 203.92C74.2501 207.33 74.2601 210.91 71.6901 213.57" stroke="#160E23" stroke-width="1.9855" stroke-miterlimit="10" stroke-linecap="round" stroke-linejoin="round"/>
<path d="M120.27 176.93C123.67 174.45 127.21 172.35 127.21 172.35L120.27 176.93Z" fill="#7AAFDB"/>
<path d="M120.27 176.93C123.67 174.45 127.21 172.35 127.21 172.35" stroke="#160E23" stroke-width="1.9855" stroke-miterlimit="10" stroke-linecap="round" stroke-linejoin="round"/>
<path d="M103.58 173.89L99.6999 177.95C93.9399 176.94 92.6799 172.77 92.6799 172.77L94.8399 169.83C97.5999 171.44 100.52 172.8 103.58 173.89Z" fill="#1C122D" stroke="#160E23" stroke-width="1.9855" stroke-miterlimit="10" stroke-linecap="round" stroke-linejoin="round"/>
<path d="M107.01 174.98C113.77 168.63 123.65 163.28 123.65 163.28L107.01 174.98Z" fill="#7AAFDB"/>
<path d="M107.01 174.98C113.77 168.63 123.65 163.28 123.65 163.28" stroke="#160E23" stroke-width="1.9855" stroke-miterlimit="10" stroke-linecap="round" stroke-linejoin="round"/>
<path d="M157.66 209.69C154.8 214.9 149.12 217.93 143.4 218.85C135.9 220.06 126.93 219.73 119.64 217.57C116.76 216.71 113.9 215.4 111.91 213.15C107.9 208.61 108.82 201.26 112.86 197.03C113.93 195.91 115.2 195.04 116.59 194.39C118.99 193.26 121.76 192.76 124.44 192.65C129.07 192.45 134.61 193.4 139.23 195.71C140.76 195.7 142.35 195.68 143.99 195.65C143.99 195.65 150.49 192.34 145.1 187.6C145.69 187.45 146.35 186.82 146.9 186.55C149.34 185.37 151.85 185.17 154.16 186.8C155.74 187.92 156.85 189.61 157.59 191.4C159.88 197 160.69 204.19 157.66 209.69Z" fill="#7AAFDB" stroke="#160E23" stroke-width="1.9855" stroke-miterlimit="10" stroke-linecap="round" stroke-linejoin="round"/>
<path d="M146.81 202.4C145.11 199.48 142.39 197.27 139.23 195.7L146.81 202.4Z" fill="#7AAFDB"/>
<path d="M146.81 202.4C145.11 199.48 142.39 197.27 139.23 195.7" stroke="#160E23" stroke-width="1.9855" stroke-miterlimit="10" stroke-linecap="round" stroke-linejoin="round"/>
<path d="M90.81 101.52C88.48 127.46 117.63 149.31 144.73 120.64L90.81 101.52Z" fill="#7AAFDB"/>
<path d="M90.81 101.52C88.48 127.46 117.63 149.31 144.73 120.64" stroke="#160E23" stroke-width="1.9855" stroke-miterlimit="10" stroke-linecap="round" stroke-linejoin="round"/>
<path d="M86.1499 102.75C86.1499 102.75 90.8099 99.81 94.4799 102.75" stroke="#160E23" stroke-width="1.9855" stroke-miterlimit="10" stroke-linecap="round" stroke-linejoin="round"/>
<path d="M141.24 117.86C141.24 117.86 146.52 119.41 146.74 124.12" stroke="#160E23" stroke-width="1.9855" stroke-miterlimit="10" stroke-linecap="round" stroke-linejoin="round"/>
<path d="M140.34 109.7C140.18 109.96 140.01 110.22 139.83 110.48C139.28 111.27 138.68 112 138.04 112.65C137.84 112.22 137.58 111.8 137.28 111.36C136.5 110.25 135.47 109.23 134.26 108.33C133.38 107.68 132.42 107.09 131.4 106.59C129.78 105.79 128.03 105.21 126.28 104.9C124.8 104.64 123.33 104.57 121.95 104.74C121.69 104.77 121.45 104.81 121.2 104.85C120.52 104.98 119.91 105.17 119.36 105.4C119.37 105.28 119.38 105.17 119.39 105.05C119.61 102.88 120.35 100.65 121.6 98.56C121.78 98.26 121.97 97.97 122.17 97.68C124.5 94.28 127.81 92.14 131.13 91.49C133.8 90.97 136.47 91.42 138.65 92.99C143.32 96.39 144.01 103.72 140.34 109.7Z" fill="white" stroke="#160E23" stroke-width="1.9855" stroke-miterlimit="10" stroke-linecap="round" stroke-linejoin="round"/>
<path d="M120.47 100.35C120.31 100.61 120.13 100.87 119.96 101.13C119.24 102.17 118.42 103.09 117.55 103.88C117.34 103.43 117.07 102.97 116.74 102.51C115.91 101.32 114.78 100.23 113.47 99.3002C112.66 98.7202 111.79 98.2002 110.87 97.7502C109.19 96.9302 107.37 96.3302 105.57 96.0202C104.15 95.7902 102.74 95.7302 101.41 95.9002C101.15 95.9302 100.91 95.9702 100.66 96.0202C100.2 96.1102 99.7701 96.2202 99.3701 96.3702C99.3801 96.1602 99.4001 95.9502 99.4201 95.7502C99.6401 93.5902 100.38 91.3502 101.64 89.2802C101.82 88.9902 102.01 88.7002 102.21 88.4102C104.55 85.0302 107.88 82.8802 111.21 82.2302C113.89 81.7102 116.58 82.1602 118.76 83.7302C123.48 87.0702 124.16 94.3702 120.47 100.35Z" fill="white" stroke="#160E23" stroke-width="1.9855" stroke-miterlimit="10" stroke-linecap="round" stroke-linejoin="round"/>
<path d="M115.45 96.5398C114.97 97.6498 114.28 98.5898 113.48 99.2998C112.67 98.7198 111.8 98.1998 110.88 97.7498C109.2 96.9298 107.38 96.3298 105.58 96.0198C105.52 94.9198 105.72 93.7298 106.22 92.5798C107.62 89.3198 110.82 87.5698 113.37 88.6598C115.91 89.7398 116.85 93.2798 115.45 96.5398Z" fill="#160E23"/>
<path d="M136.68 105.28C136.13 106.57 135.27 107.62 134.26 108.34C133.38 107.69 132.42 107.1 131.4 106.6C129.78 105.8 128.03 105.22 126.28 104.91C126.11 103.69 126.27 102.34 126.83 101.05C128.23 97.7898 131.57 96.0998 134.29 97.2698C137.01 98.4298 138.08 102.02 136.68 105.28Z" fill="#160E23"/>
<path d="M138.04 112.65C133.73 117.04 127.59 118.23 123.35 115.16C120.41 113.03 119.05 109.35 119.36 105.42C119.91 105.18 120.52 104.99 121.2 104.87C121.44 104.82 121.69 104.78 121.95 104.76C123.33 104.59 124.8 104.65 126.28 104.92C128.02 105.23 129.78 105.81 131.4 106.61C132.42 107.11 133.39 107.7 134.26 108.35C135.46 109.24 136.5 110.26 137.28 111.38C137.58 111.8 137.83 112.23 138.04 112.65Z" fill="#7AAFDB" stroke="#160E23" stroke-width="1.9855" stroke-miterlimit="10" stroke-linecap="round" stroke-linejoin="round"/>
<path d="M117.55 103.88C113.27 107.78 107.47 108.73 103.4 105.8C100.52 103.73 99.1501 100.17 99.3801 96.3498C99.7801 96.2098 100.21 96.0898 100.67 95.9998C100.91 95.9598 101.16 95.9098 101.42 95.8798C102.74 95.7198 104.15 95.7698 105.58 95.9998C107.38 96.2998 109.2 96.8998 110.88 97.7298C111.8 98.1798 112.68 98.6998 113.48 99.2798C114.79 100.22 115.91 101.3 116.75 102.49C117.07 102.97 117.34 103.43 117.55 103.88Z" fill="#7AAFDB" stroke="#160E23" stroke-width="1.9855" stroke-miterlimit="10" stroke-linecap="round" stroke-linejoin="round"/>
<path d="M188.78 170.01C211.25 124.48 160.35 144.09 159.32 143.87L157.24 154.11C157.24 154.11 195.8 133.17 180.28 163.73C180 164.07 176.14 162.86 175.49 162.77C171.77 162.26 167.42 163.52 165.21 166.71C162.6 170.47 163.92 174.63 165.73 178.4L165.91 178.53C164.58 183.2 163.64 188.02 164.67 192.67C165.17 194.93 166.26 197.18 168.18 198.47C170.1 199.76 172.97 199.79 174.56 198.1C176.77 195.74 176.26 191.46 175.66 188.58C175.43 187.45 175.17 186.35 174.96 185.24L179.26 184.99C181.75 186.03 183.33 185.65 184.33 184.7L184.79 184.67C194.5 186.68 191.55 171.81 188.78 170.01Z" fill="#7AAFDB"/>
<path d="M159.32 143.87C160.35 144.09 211.24 124.48 188.78 170.01C191.56 171.81 194.5 186.68 184.81 184.66" stroke="#160E23" stroke-width="1.9855" stroke-miterlimit="10" stroke-linecap="round" stroke-linejoin="round"/>
<path d="M157.24 154.1C157.24 154.1 195.8 133.16 180.28 163.72C180 164.06 176.14 162.85 175.49 162.76C171.77 162.25 167.42 163.51 165.21 166.7C162.6 170.46 163.92 174.62 165.73 178.39" stroke="#160E23" stroke-width="1.9855" stroke-miterlimit="10" stroke-linecap="round" stroke-linejoin="round"/>
<path d="M168.19 171.07C166.19 177.87 163.08 185.48 164.67 192.65C165.17 194.91 166.26 197.16 168.18 198.45C170.1 199.74 172.97 199.77 174.56 198.08C176.77 195.72 176.26 191.44 175.66 188.56C174.95 185.14 174.04 181.9 174.77 178.38" stroke="#160E23" stroke-width="1.9855" stroke-miterlimit="10" stroke-linecap="round" stroke-linejoin="round"/>
<path d="M181.19 178.38C181.35 178.78 182.21 186.63 174.97 185.23" stroke="#160E23" stroke-width="1.9855" stroke-miterlimit="10" stroke-linecap="round" stroke-linejoin="round"/>
<path d="M186.12 179.15C185.99 178.63 186.68 188.34 178.95 184.84" stroke="#160E23" stroke-width="1.9855" stroke-miterlimit="10" stroke-linecap="round" stroke-linejoin="round"/>
<path d="M106.74 40.2702C104.76 46.4302 99.47 51.0502 94.71 55.3802C95.14 53.7002 94.96 51.8402 94.31 50.2102C93.71 48.7002 92.83 47.3802 91.73 46.3302C93.46 43.9002 94.22 41.0902 95.18 38.2402C96.12 35.4602 97.84 31.5002 100.94 30.5802C103.16 29.9202 105.62 31.4002 106.63 33.4802C107.64 35.5702 107.45 38.0602 106.74 40.2702Z" fill="#7AAFDB" stroke="#160E23" stroke-width="1.9855" stroke-miterlimit="10" stroke-linecap="round" stroke-linejoin="round"/>
<path d="M94.16 56.82C95.16 56.3 96.19 55.84 97.25 55.46C99.16 54.78 101.21 54.56 103.22 54.34C106.07 54.02 109.76 54.87 110.37 58.17C111.2 62.72 105.08 64.13 101.75 64.55C97.84 65.05 94.64 66.73 91.44 68.98C88.55 71.01 85.41 73.76 81.88 74.51C78.21 75.29 74.42 73.76 71.7 71.33" fill="#7AAFDB"/>
<path d="M94.16 56.82C95.16 56.3 96.19 55.84 97.25 55.46C99.16 54.78 101.21 54.56 103.22 54.34C106.07 54.02 109.76 54.87 110.37 58.17C111.2 62.72 105.08 64.13 101.75 64.55C97.84 65.05 94.64 66.73 91.44 68.98C88.55 71.01 85.41 73.76 81.88 74.51C78.21 75.29 74.42 73.76 71.7 71.33" stroke="#160E23" stroke-width="1.9855" stroke-miterlimit="10" stroke-linecap="round" stroke-linejoin="round"/>
<path d="M82.8101 64.1501C84.9101 62.8901 86.9001 61.4501 88.9201 60.0601L82.8101 64.1501Z" fill="#7AAFDB"/>
<path d="M82.8101 64.1501C84.9101 62.8901 86.9001 61.4501 88.9201 60.0601" stroke="#160E23" stroke-width="1.9855" stroke-miterlimit="10" stroke-linecap="round" stroke-linejoin="round"/>
<path d="M73.5 101.87C73.5 101.87 49.73 91.9802 65.09 63.7202L73.5 101.87Z" fill="#7AAFDB"/>
<path d="M73.5 101.87C73.5 101.87 49.73 91.9802 65.09 63.7202" stroke="#160E23" stroke-width="1.9855" stroke-miterlimit="10" stroke-linecap="round" stroke-linejoin="round"/>
<path d="M67.37 65.6798C62.71 61.4898 62.02 54.5798 64.72 49.1098C65.91 46.6898 68.07 44.2298 70.46 42.9398C76.53 39.6498 80.08 46.0798 78.65 51.4198C78.14 53.3198 77.24 55.2298 75.61 56.3398C70.44 59.8398 67.57 52.5398 69 48.5198" fill="#7AAFDB"/>
<path d="M67.37 65.6798C62.71 61.4898 62.02 54.5798 64.72 49.1098C65.91 46.6898 68.07 44.2298 70.46 42.9398C76.53 39.6498 80.08 46.0798 78.65 51.4198C78.14 53.3198 77.24 55.2298 75.61 56.3398C70.44 59.8398 67.57 52.5398 69 48.5198" stroke="#160E23" stroke-width="1.9855" stroke-miterlimit="10" stroke-linecap="round" stroke-linejoin="round"/>
<path d="M76.95 55.0698C77.85 58.3998 81.7 59.7498 84.31 57.2998L76.95 55.0698Z" fill="#7AAFDB"/>
<path d="M76.95 55.0698C77.85 58.3998 81.7 59.7498 84.31 57.2998" stroke="#160E23" stroke-width="1.9855" stroke-miterlimit="10" stroke-linecap="round" stroke-linejoin="round"/>
<path d="M84.3199 43.6698C82.1499 42.5498 79.1599 42.6198 76.6699 43.2098L84.3199 43.6698Z" fill="#7AAFDB"/>
<path d="M84.3199 43.6698C82.1499 42.5498 79.1599 42.6198 76.6699 43.2098" stroke="#160E23" stroke-width="1.9855" stroke-miterlimit="10" stroke-linecap="round" stroke-linejoin="round"/>
<path d="M94.7101 55.38C94.5801 55.88 94.4101 56.37 94.1701 56.83C94.1101 56.95 94.0401 57.07 93.9701 57.19C92.9901 58.83 90.9301 59.93 88.9301 60.07C86.9701 60.21 85.0801 59.42 84.3201 57.31C85.7201 56.01 86.3801 54.1 86.8101 52.25C87.1301 50.88 87.3501 49.48 87.2001 48.08C86.9701 45.86 85.8501 44.47 84.3101 43.68C87.2001 43.45 89.8001 44.49 91.7301 46.34C92.8301 47.39 93.7101 48.71 94.3101 50.22C94.9501 51.84 95.1301 53.69 94.7101 55.38Z" fill="#7AAFDB" stroke="#160E23" stroke-width="1.9855" stroke-miterlimit="10" stroke-linecap="round" stroke-linejoin="round"/>
<path d="M79.65 92.0399C79.65 92.0399 65.15 86.0999 74.35 73.1899" stroke="#160E23" stroke-width="1.9855" stroke-miterlimit="10" stroke-linecap="round" stroke-linejoin="round"/>
<path d="M156.35 38.4401C156.02 36.1501 155.76 34.1601 155.43 32.1801C155.4 32.0201 154.98 31.8101 154.75 31.8201C150.14 32.0001 145.53 32.2101 140.92 32.4201C140.78 32.4301 140.65 32.5101 140.59 32.5301C140.99 35.8501 141.34 39.1101 141.77 42.3601C142.14 45.1301 142.6 47.8901 143.04 50.6601C143.71 54.9101 139.01 58.7601 135.24 58.0401C132.01 57.4301 129.43 55.8601 128.16 52.5201C126.72 48.7301 128.47 45.9501 131.25 44.2201C132.58 43.3901 134.33 42.9101 136.09 43.5001C137.06 43.8201 138.11 43.9201 139.31 44.1501C139.22 42.9001 139.18 41.8601 139.05 40.8301C138.86 39.3101 138.61 37.8001 138.39 36.2901C137.97 33.4101 137.54 30.5301 137.12 27.6601C137.11 27.6201 137.1 27.5901 137.09 27.5501C136.82 25.4801 136.82 25.5001 138.85 25.4601C144.12 25.3601 149.38 25.2301 154.65 25.1101C154.91 25.1001 155.18 25.0701 155.42 24.9901C156.95 24.4901 157.44 24.8301 157.62 26.4501C157.94 29.3201 158.26 32.1801 158.61 35.0501C158.86 37.1201 159.11 39.2001 159.43 41.2601C159.65 42.6501 160.25 44.0201 160.21 45.3901C160.15 47.1901 159.57 48.9401 158.13 50.2701C155.42 52.7501 152.31 52.8201 149.27 51.3801C145.94 49.8001 143.47 46.8101 144 42.4501C144.28 40.1701 145.69 38.6101 147.77 37.6201C150.2 36.4601 152.53 36.7601 154.85 37.9001C155.26 38.0701 155.7 38.1901 156.35 38.4401Z" fill="black"/>
<path d="M215.19 73.01C215.65 76.4 216.07 79.65 216.54 82.9C216.92 85.52 217.39 88.1199 217.75 90.7399C217.9 91.7799 217.92 92.84 217.94 93.8899C218 96.77 216.45 98.58 214 99.8C211.74 100.92 209.51 100.62 207.35 99.57C205.87 98.85 204.54 97.93 203.56 96.54C202.03 94.36 201.15 91.97 202.14 89.43C202.99 87.25 204.78 85.8899 207.15 85.2499C209.67 84.5699 211.75 85.7099 214.01 86.5699C214.07 86.3699 214.21 86.17 214.18 85.98C213.96 84.17 213.74 82.35 213.44 80.55C213.41 80.34 212.9 80.0599 212.62 80.0599C208.41 80.1199 204.19 80.2 199.98 80.33C199.08 80.36 198.47 80.74 198.65 81.9C199.18 85.25 199.62 88.62 200.08 91.98C200.35 93.94 200.31 95.9899 200.91 97.8499C201.54 99.8199 200.92 101.53 200.03 102.92C198.95 104.59 197.31 105.91 195.02 106.09C192.84 106.26 190.79 105.86 189.13 104.55C187.62 103.36 186.37 101.93 185.87 99.8099C185.31 97.3799 185.88 95.4499 187.44 93.7799C189.15 91.9399 192.32 90.7099 195.07 91.8899C195.71 92.17 196.37 92.43 197.23 92.79C197.16 91.68 197.14 90.8299 197.03 89.9899C196.83 88.4699 196.57 86.9599 196.35 85.4499C195.93 82.5399 195.51 79.6199 195.1 76.6999C195.08 76.5899 195.07 76.48 195.06 76.36C194.75 73.82 194.75 73.8 197.29 73.69C199.17 73.61 201.05 73.62 202.93 73.54C206.38 73.39 209.82 73.1899 213.27 73.0199C213.85 72.9899 214.41 73.01 215.19 73.01Z" fill="black"/>
<path d="M34.7099 266.83C32.1199 266.83 29.6499 266.33 27.2999 265.34C24.9499 264.35 23.0499 262.81 21.5899 260.74C20.1299 258.67 19.3999 256.12 19.3999 253.11C19.3999 250.04 20.1399 247.49 21.6099 245.46C23.0799 243.42 24.9899 241.9 27.3399 240.9C29.6899 239.9 32.1599 239.39 34.7499 239.39C36.6299 239.39 38.4199 239.54 40.0999 239.84C41.7799 240.14 43.1499 240.52 44.2099 240.97L44.1699 250.66C43.3199 250.01 42.1899 249.45 40.7999 249C39.4099 248.55 37.9899 248.32 36.5599 248.32C35.0299 248.32 33.6799 248.51 32.5099 248.89C31.3399 249.27 30.4199 249.8 29.7399 250.49C29.0599 251.18 28.7199 252.08 28.7199 253.19C28.7199 254.3 29.0899 255.19 29.8299 255.89C30.5699 256.58 31.5299 257.08 32.7099 257.4C33.8899 257.71 35.2099 257.87 36.6699 257.87C38.4499 257.87 40.1499 257.59 41.7599 257.02C43.3699 256.45 44.6899 255.72 45.7199 254.81V265.25C43.9599 265.78 42.2399 266.17 40.5499 266.44C38.8599 266.71 36.9199 266.83 34.7099 266.83Z" fill="black"/>
<path d="M70.7898 266.86C69.2298 266.86 67.9898 266.53 67.0598 265.88C66.1298 265.23 65.4298 264.44 64.9498 263.52C64.4698 262.6 63.9898 261.42 63.5198 259.96C63.1198 258.8 62.7598 257.9 62.4498 257.25C62.1398 256.6 61.6998 256.04 61.1498 255.59C60.5998 255.14 59.8798 254.91 58.9998 254.91C58.8198 254.91 58.6098 254.93 58.3598 254.97C58.1098 255.01 57.9298 255.04 57.8298 255.06V256.19V256.64C57.8498 258.4 57.9498 260.16 58.1098 261.92C58.2698 263.68 58.4698 265.14 58.6898 266.29H47.7898C48.0698 265.06 48.2898 263.51 48.4698 261.63C48.6498 259.76 48.7298 257.92 48.7298 256.11V250.08C48.7298 248.27 48.6398 246.42 48.4698 244.54C48.2898 242.66 48.0698 241.11 47.7898 239.9H63.7798C65.7898 239.9 67.5798 240.15 69.1298 240.65C70.6898 241.15 71.9298 241.91 72.8398 242.93C73.7598 243.95 74.2198 245.2 74.2198 246.68C74.2198 248.19 73.7798 249.45 72.8998 250.47C72.0198 251.49 70.8098 252.25 69.2598 252.75C67.7098 253.25 65.9898 253.5 64.0798 253.5H63.8198V253.73H63.8998C64.3498 253.73 64.7498 253.8 65.1098 253.94C65.4598 254.08 65.7798 254.24 66.0498 254.43C66.3298 254.62 66.6198 254.86 66.9198 255.17C67.2998 255.37 67.6498 255.55 67.9898 255.72C68.3298 255.88 68.6698 256.02 69.0098 256.12C69.3498 256.22 69.7298 256.27 70.1598 256.27C71.4898 256.27 72.5998 255.91 73.4798 255.18C74.3598 254.45 75.0398 253.46 75.5198 252.2L75.5998 264.15C75.2698 264.9 74.6398 265.55 73.6998 266.07C72.7298 266.6 71.7698 266.86 70.7898 266.86ZM62.0798 252.5C62.6298 252.5 63.1398 252.42 63.5898 252.25C64.0398 252.09 64.3798 251.87 64.6098 251.59C64.8398 251.31 64.9498 250.95 64.9498 250.5C64.9498 250.07 64.8398 249.71 64.6098 249.41C64.3798 249.11 64.0598 248.88 63.6498 248.73C63.2398 248.58 62.7498 248.5 62.1998 248.5H57.8298V252.5H62.0798Z" fill="black"/>
<path d="M77.1599 266.3C77.4099 265.07 77.6199 263.5 77.7999 261.59C77.9799 259.68 78.0599 257.86 78.0599 256.12V250.09C78.0599 248.36 77.9699 246.53 77.7999 244.62C77.6199 242.71 77.4099 241.14 77.1599 239.91H99.0999L100.5 250.09C99.9999 249.66 99.2599 249.35 98.2799 249.17C97.2999 248.98 95.8699 248.89 93.9799 248.89H87.1599V251.53H92.3599C94.4199 251.53 95.9999 251.49 97.1099 251.42V255.08C96.0499 254.96 94.4699 254.89 92.3599 254.89H87.1599V257.34H92.8199C95.5299 257.34 97.5199 257.21 98.7799 256.94C100.04 256.68 100.97 256.33 101.57 255.9L100.17 266.31H77.1599V266.3Z" fill="black"/>
<path d="M101.03 266.3C101.61 265.04 102.22 263.48 102.88 261.61C103.53 259.74 104.09 257.91 104.54 256.12L106.46 250.09C106.94 248.36 107.31 246.55 107.57 244.68C107.83 242.81 107.99 241.22 108.04 239.91H124.4L124.36 240.06C124.36 241.42 124.51 243.02 124.81 244.87C125.11 246.72 125.48 248.46 125.9 250.09L127.79 256.12C128.27 257.91 128.83 259.74 129.47 261.62C130.11 263.51 130.73 265.06 131.34 266.3H120.33C120.3 265.55 120.22 264.66 120.08 263.64C119.94 262.62 119.76 261.5 119.53 260.26L119.34 259.62H112.93L112.78 260.3C112.68 260.73 112.53 261.61 112.33 262.94C112.1 264.37 111.99 265.49 111.99 266.3H101.03ZM118.56 255.93L117.32 252.54C117.14 251.96 116.99 251.35 116.87 250.69C116.74 250.04 116.62 249.4 116.49 248.77C116.54 248.59 116.55 248.44 116.51 248.3C116.47 248.16 116.44 248.01 116.42 247.83H115.93C115.9 248.06 115.87 248.28 115.84 248.49C115.8 248.7 115.76 248.91 115.71 249.11C115.63 249.69 115.54 250.25 115.43 250.81C115.32 251.36 115.18 251.93 115.03 252.51L113.79 255.94H118.56V255.93Z" fill="black"/>
<path d="M135.38 266.3C135.66 265.07 135.88 263.5 136.06 261.61C136.24 259.71 136.32 257.88 136.32 256.12V249.07H133.23C132.25 249.07 131.34 249.17 130.5 249.37C129.66 249.57 128.82 249.91 127.99 250.39L129.5 239.91H151.97L153.48 250.39C152.73 249.94 151.9 249.6 150.99 249.39C150.09 249.18 149.17 249.07 148.24 249.07H145.41V256.12C145.41 257.91 145.49 259.75 145.66 261.64C145.82 263.54 146.06 265.09 146.36 266.3H135.38Z" fill="black"/>
<path d="M155.18 266.3C155.46 265.09 155.68 263.54 155.86 261.64C156.04 259.74 156.12 257.9 156.12 256.12V250.09C156.12 248.28 156.03 246.44 155.86 244.57C155.68 242.7 155.46 241.15 155.18 239.91H166.11C165.86 241.12 165.64 242.66 165.47 244.55C165.29 246.44 165.21 248.28 165.21 250.09V256.12C165.21 257.93 165.3 259.78 165.47 261.66C165.64 263.54 165.86 265.09 166.11 266.3H155.18Z" fill="black"/>
<path d="M173.27 266.3C173.22 265.17 173.09 263.8 172.87 262.19C172.66 260.58 172.36 258.97 171.98 257.36C171.93 257.18 171.89 256.99 171.85 256.78C171.81 256.57 171.77 256.35 171.72 256.12L169.76 250.09C169.38 248.28 168.87 246.43 168.23 244.55C167.59 242.67 166.98 241.12 166.4 239.91H177.37C177.39 240.84 177.46 241.87 177.58 242.98C177.69 244.1 177.87 245.22 178.13 246.36L180.24 253.64C180.32 253.99 180.4 254.34 180.49 254.68C180.58 255.02 180.65 255.35 180.7 255.68C180.8 256.16 180.9 256.61 181 257.04C181.1 257.47 181.18 257.92 181.23 258.4H181.72C181.77 257.92 181.83 257.48 181.91 257.06C181.99 256.65 182.06 256.26 182.14 255.91C182.22 255.53 182.29 255.16 182.37 254.8C182.45 254.44 182.53 254.05 182.63 253.65L184.74 246.37C184.99 245.06 185.18 243.86 185.31 242.75C185.44 241.64 185.5 240.7 185.5 239.92H196.43C195.85 241.15 195.25 242.7 194.64 244.58C194.02 246.45 193.5 248.29 193.08 250.1L191.16 256.13C190.73 257.89 190.37 259.71 190.07 261.6C189.77 263.48 189.63 265.06 189.65 266.31H173.27V266.3Z" fill="black"/>
<path d="M196.72 266.3C196.97 265.07 197.18 263.5 197.36 261.59C197.54 259.68 197.62 257.86 197.62 256.12V250.09C197.62 248.36 197.53 246.53 197.36 244.62C197.18 242.71 196.97 241.14 196.72 239.91H218.66L220.06 250.09C219.56 249.66 218.82 249.35 217.84 249.17C216.86 248.98 215.43 248.89 213.54 248.89H206.72V251.53H211.92C213.98 251.53 215.56 251.49 216.67 251.42V255.08C215.61 254.96 214.03 254.89 211.92 254.89H206.72V257.34H212.38C215.09 257.34 217.08 257.21 218.34 256.94C219.6 256.68 220.53 256.33 221.13 255.9L219.73 266.31H196.72V266.3Z" fill="black"/>
</g>
<defs>
<clipPath id="clip0">
<rect width="241.52" height="290.6" fill="white"/>
</clipPath>
</defs>
</svg>
