<svg width="269" height="269" viewBox="0 0 269 269" fill="none" xmlns="http://www.w3.org/2000/svg">
<path d="M253.039 0H15.961C7.14686 0 0 7.14686 0 15.961V253.039C0 261.853 7.14686 269 15.961 269H253.039C261.853 269 269 261.853 269 253.039V15.961C269 7.14686 261.853 0 253.039 0ZM76.0767 165.442C76.0851 165.442 76.0851 165.45 76.0851 165.45C77.0235 167.662 79.2187 169.22 81.7741 169.22C84.7234 169.22 87.1866 167.159 87.8066 164.403H93.06C92.0797 170.595 88.6026 175.144 84.4804 175.144C81.5563 175.144 78.9673 172.874 77.3587 169.363C77.1827 168.969 77.0068 168.575 76.8476 168.148L72.6416 174.608H72.6332C71.8707 174.951 71.0748 175.144 70.2537 175.144C65.8131 175.144 62.1517 169.908 61.4898 163.037L61.5065 163.054C62.026 165.324 63.7687 167.134 66.0142 167.729C66.542 167.88 67.095 167.955 67.6731 167.955C70.681 167.955 73.2029 165.852 73.8397 163.037H75.5908C75.5908 163.883 75.7667 164.704 76.0767 165.442Z" fill="#BFDCE1"/>
<path d="M40.4849 66.0388C40.929 64.6815 41.2558 62.9639 41.4736 60.886C41.6914 58.8082 41.8004 56.7387 41.8004 54.6943V44.2966C41.8004 42.3109 41.6747 40.2666 41.4233 38.1552C41.172 36.0438 40.8536 34.3095 40.4766 32.9521H68.3686C70.6056 32.9521 72.5997 33.2538 74.3508 33.8486C76.1019 34.4435 77.4676 35.34 78.4647 36.5214C79.4617 37.7028 79.956 39.1271 79.956 40.8028C79.956 42.445 79.4868 43.8358 78.5401 44.9837C77.5933 46.1315 76.303 47.0113 74.6608 47.6061C73.0186 48.201 71.2089 48.5026 69.2232 48.5026H68.3267V49.0221H70.0275C72.2311 49.0221 74.267 49.3572 76.1271 50.0108C77.9871 50.6727 79.4533 51.6194 80.5258 52.8511C81.5982 54.0827 82.1344 55.6244 82.1344 57.4844C82.1344 59.3109 81.5815 60.8609 80.4839 62.1428C79.3779 63.4164 77.8782 64.3883 75.9679 65.0502C74.0576 65.7121 71.8792 66.0388 69.4243 66.0388H40.4849ZM64.682 46.8018C65.8131 46.8018 66.7515 46.584 67.4972 46.1399C68.2345 45.6958 68.6116 45.0339 68.6116 44.1542C68.6116 43.3666 68.2513 42.755 67.5223 42.3361C66.7934 41.9088 65.855 41.6993 64.6904 41.6993H53.6727V46.8018H64.682ZM65.5366 57.1074C66.4834 57.1074 67.2961 56.99 67.9748 56.7555C68.6534 56.5209 69.1813 56.169 69.5583 55.7165C69.9354 55.2641 70.1281 54.7362 70.1281 54.133C70.1281 53.5046 69.927 52.9684 69.5332 52.5243C69.1394 52.0803 68.5948 51.7451 67.8994 51.5105C67.204 51.2759 66.4164 51.1586 65.5366 51.1586H53.6727V57.1157H65.5366V57.1074Z" fill="black"/>
<path d="M81.1792 66.0388C82.126 64.6815 83.1481 62.9639 84.2541 60.886C85.3601 58.8082 86.3822 56.7387 87.329 54.6943L92.5321 44.2966C93.3867 42.3109 94.1491 40.2917 94.8278 38.2474C95.5064 36.203 95.9505 34.4351 96.1767 32.9521H114.66V33.1449C114.978 34.72 115.447 36.5214 116.076 38.5574C116.704 40.5933 117.416 42.5036 118.204 44.2966L123.499 54.6943C124.412 56.7471 125.418 58.7914 126.498 60.8358C127.588 62.8885 128.618 64.6145 129.599 66.0388H114.71C114.676 65.2177 114.517 64.3212 114.241 63.341C113.956 62.3607 113.562 61.1793 113.059 59.7968L112.397 58.4228H98.4054L97.6932 59.8387C97.4083 60.7185 97.1067 61.682 96.7967 62.7209C96.3862 64.0112 96.1348 65.1172 96.0427 66.0304H81.1792V66.0388ZM109.968 53.2281L107.412 47.8407C107.127 47.1788 106.876 46.5337 106.658 45.9053C106.44 45.2769 106.264 44.6318 106.139 43.9699C106.047 43.6515 105.954 43.3582 105.879 43.0734C105.804 42.7885 105.745 42.4869 105.711 42.1769H105.1C105.1 42.3947 105.058 42.6042 104.983 42.7885C104.907 42.9812 104.815 43.1488 104.723 43.308C104.597 44.2212 104.43 45.0088 104.228 45.6707C104.019 46.3326 103.768 47.0615 103.449 47.8491L100.802 53.2365H109.968V53.2281Z" fill="black"/>
<path d="M150.101 66.7512C146.984 66.7512 143.264 66.416 138.941 65.7541C134.626 65.0922 131.157 64.3214 128.543 63.4417L129.012 51.6699C131.501 53.4629 134.508 54.8202 138.044 55.7335C141.572 56.6467 145.484 57.1075 149.766 57.1075C151.559 57.1075 153.067 57.0237 154.282 56.8478C155.497 56.6719 156.435 56.4205 157.097 56.0937C157.759 55.767 158.086 55.281 158.086 54.6526C158.086 53.9907 157.683 53.5048 156.879 53.1864C156.075 52.868 155.069 52.6083 153.854 52.4072C152.64 52.2061 150.93 52.0218 148.727 51.8626C144.755 51.5777 141.446 51.2091 138.798 50.7483C136.151 50.2958 133.847 49.4077 131.894 48.1006C129.942 46.7936 128.962 44.8163 128.962 42.1687C128.962 39.8646 129.842 37.9962 131.61 36.5467C133.377 35.0972 135.765 34.0164 138.798 33.3126C141.823 32.6004 145.333 32.2485 149.338 32.2485C152.304 32.2485 155.388 32.4831 158.605 32.9607C161.822 33.4299 164.495 34.0918 166.64 34.9464V45.6625C164.587 44.5314 162.057 43.6265 159.032 42.9479C156.008 42.2692 152.916 41.9508 149.766 41.976C148.124 41.9425 146.682 42.0179 145.442 42.1854C144.194 42.3614 143.205 42.6295 142.468 42.9898C141.731 43.35 141.354 43.8025 141.354 44.3387C141.354 45.0676 141.764 45.6206 142.585 46.0144C143.406 46.4082 144.479 46.6763 145.803 46.8187C147.126 46.9612 148.953 47.1287 151.282 47.3131C155.161 47.5309 158.379 47.8409 160.951 48.2347C163.523 48.6285 165.752 49.4663 167.637 50.7399C169.522 52.0134 170.469 53.9153 170.469 56.4373C170.469 58.6408 169.648 60.5176 168.014 62.0592C166.372 63.6009 164.034 64.7739 160.993 65.5531C157.96 66.3574 154.324 66.7512 150.101 66.7512Z" fill="black"/>
<path d="M173.401 66.0388C173.871 64.6815 174.214 62.9723 174.415 60.9112C174.616 58.8501 174.725 56.7722 174.725 54.6943V44.2966C174.725 42.2774 174.616 40.2247 174.39 38.1301C174.172 36.0354 173.837 34.3095 173.401 32.9521H188.106C187.662 34.3095 187.318 36.0354 187.067 38.1301C186.815 40.2247 186.69 42.2858 186.69 44.2966V54.6943C186.69 56.7722 186.807 58.8501 187.042 60.9112C187.276 62.9723 187.636 64.6815 188.106 66.0388H173.401Z" fill="black"/>
<path d="M215.093 66.7513C210.652 66.7513 206.622 66.1061 203.019 64.8158C199.408 63.5255 196.534 61.5985 194.389 59.0514C192.245 56.496 191.172 53.3122 191.172 49.4999C191.172 45.7212 192.211 42.5374 194.289 39.9485C196.367 37.3679 199.174 35.4324 202.701 34.1589C206.228 32.8854 210.2 32.2402 214.615 32.2402C217.832 32.2402 220.807 32.5167 223.547 33.0697C226.286 33.6227 228.666 34.3516 230.685 35.2649L229.646 46.182C228.322 45.051 226.462 44.1042 224.066 43.3501C221.67 42.5961 219.106 42.219 216.358 42.219C213.802 42.219 211.549 42.5123 209.596 43.0904C207.644 43.6769 206.086 44.5147 204.921 45.6207C203.757 46.7267 203.17 48.0505 203.17 49.5921C203.17 51.0751 203.773 52.3654 204.988 53.4713C206.203 54.5773 207.879 55.39 210.024 55.9262C212.169 56.4625 214.624 56.7306 217.397 56.7306C220.296 56.7306 223.002 56.3703 225.507 55.6414C228.012 54.9208 230.191 53.907 232.051 52.6167V64.4807C229.596 65.2096 226.973 65.7626 224.2 66.1564C221.444 66.5502 218.402 66.7513 215.093 66.7513Z" fill="black"/>
<path d="M25.0266 108.803C25.4036 107.479 25.722 105.778 25.9734 103.7C26.2247 101.623 26.3504 99.5447 26.3504 97.4585V87.0608C26.3504 84.9829 26.2415 82.9051 26.0237 80.8188C25.8058 78.7409 25.4707 77.0401 25.035 75.7163H38.7422L56.4711 93.9647H57.0827V86.7759C57.1498 84.7902 57.0241 82.7375 56.7308 80.6093C56.4292 78.4812 56.0773 76.8474 55.6668 75.7163H70.4129C69.9689 77.1071 69.6254 78.8331 69.374 80.9194C69.1226 82.9972 68.997 85.05 68.997 87.0608V108.803H58.2138L38.9265 89.3314H38.2646V96.5201C38.2646 98.5728 38.3987 100.818 38.6668 103.282C38.9349 105.736 39.2868 107.58 39.7309 108.811H25.0266V108.803Z" fill="black"/>
<path d="M75.2222 108.803C75.6662 107.446 75.993 105.736 76.2192 103.675C76.4371 101.614 76.546 99.5364 76.546 97.4585V87.0608C76.546 85.0751 76.4203 83.0391 76.1689 80.9361C75.9176 78.8415 75.5992 77.0988 75.2222 75.7163H112.046L113.654 86.8681C112.9 86.3654 111.761 85.9967 110.253 85.7537C108.745 85.5108 106.977 85.4018 104.957 85.4018H88.5105V89.7503H100.659C103.215 89.7503 105.184 89.6414 106.566 89.4235V95.0455C105.276 94.8277 103.307 94.7187 100.659 94.7187H88.5105V99.1174H104.957C107.228 99.1174 109.222 98.9331 110.94 98.5728C112.657 98.2126 114.048 97.6847 115.121 96.9893L113.043 108.803H75.2222Z" fill="black"/>
<path d="M118.145 108.803C118.589 107.446 118.916 105.736 119.134 103.675C119.352 101.614 119.461 99.5364 119.461 97.4585V87.0608C119.461 85.0751 119.335 83.0391 119.084 80.9361C118.832 78.8331 118.514 77.0988 118.137 75.7163H154.96L156.569 86.8681C155.815 86.3654 154.676 85.9967 153.167 85.7537C151.651 85.5191 149.891 85.4018 147.872 85.4018H131.425V89.7503H143.574C146.13 89.7503 148.098 89.6414 149.481 89.4235V95.0455C148.191 94.8277 146.222 94.7187 143.574 94.7187H131.425V99.1174H147.872C150.143 99.1174 152.137 98.9331 153.854 98.5728C155.572 98.2126 156.963 97.6847 158.035 96.9893L155.957 108.803H118.145Z" fill="black"/>
<path d="M161.068 108.803C161.512 107.446 161.847 105.745 162.082 103.7C162.317 101.656 162.434 99.5699 162.434 97.4585V87.0608C162.434 85.0164 162.3 82.9553 162.032 80.8942C161.764 78.8331 161.437 77.1071 161.06 75.7163H183.841C188.122 75.7163 191.801 76.3447 194.859 77.6098C197.917 78.8666 200.238 80.7518 201.83 83.257C203.421 85.7621 204.217 88.7616 204.217 92.2638C204.217 95.7912 203.413 98.7907 201.804 101.271C200.196 103.742 197.875 105.619 194.834 106.893C191.792 108.166 188.131 108.811 183.841 108.811H161.068V108.803ZM182.718 98.732C184.637 98.732 186.321 98.4891 187.754 97.9947C189.186 97.5088 190.292 96.7798 191.063 95.8247C191.834 94.8612 192.219 93.6714 192.219 92.2555C192.219 90.8981 191.817 89.7335 191.013 88.7616C190.209 87.7897 189.111 87.0524 187.729 86.5665C186.338 86.0805 184.654 85.8375 182.668 85.8375H174.256V98.7404H182.718V98.732Z" fill="black"/>
<path d="M227.149 109.515C224.033 109.515 220.312 109.18 215.998 108.518C211.683 107.856 208.214 107.086 205.6 106.206L206.069 94.434C208.557 96.227 211.565 97.5844 215.101 98.4976C218.628 99.4109 222.541 99.8717 226.823 99.8717C228.616 99.8717 230.124 99.7879 231.339 99.612C232.553 99.436 233.492 99.1847 234.154 98.8579C234.816 98.5311 235.151 98.0452 235.151 97.4168C235.151 96.7549 234.749 96.2689 233.944 95.9506C233.14 95.6322 232.135 95.3724 230.92 95.1714C229.705 94.9703 227.996 94.7859 225.792 94.6268C221.821 94.3419 218.511 93.9732 215.864 93.5124C213.216 93.06 210.912 92.1719 208.96 90.8648C207.007 89.5578 206.027 87.5804 206.027 84.9328C206.027 82.6288 206.907 80.7603 208.675 79.3109C210.443 77.8614 212.831 76.7806 215.864 76.0768C218.888 75.3646 222.399 75.0127 226.404 75.0127C229.37 75.0127 232.453 75.2473 235.67 75.7249C238.888 76.2024 241.56 76.856 243.705 77.7106V88.4434C241.653 87.3123 239.122 86.4075 236.098 85.7288C233.073 85.0501 229.981 84.7318 226.831 84.7569C225.189 84.7234 223.748 84.7988 222.508 84.9664C221.259 85.1423 220.271 85.4104 219.533 85.7707C218.796 86.131 218.419 86.5834 218.419 87.1196C218.419 87.8486 218.829 88.4015 219.651 88.7953C220.472 89.1891 221.544 89.4572 222.868 89.5997C224.192 89.7421 226.018 89.9097 228.347 90.094C232.227 90.3118 235.444 90.6218 238.016 91.0156C240.58 91.4094 242.817 92.2473 244.702 93.5208C246.596 94.7943 247.543 96.6962 247.543 99.2182C247.543 101.422 246.721 103.298 245.088 104.84C243.445 106.382 241.108 107.555 238.067 108.334C235 109.113 231.372 109.515 227.149 109.515Z" fill="black"/>
<path d="M130.068 245.959C185.725 245.959 230.844 242.872 230.844 239.063C230.844 235.255 185.725 232.168 130.068 232.168C74.4105 232.168 29.2913 235.255 29.2913 239.063C29.2913 242.872 74.4105 245.959 130.068 245.959Z" fill="black"/>
<path d="M92.842 235.729H92.8588C92.842 235.846 92.842 235.963 92.842 236.081C92.842 237.999 124.395 237.999 124.395 236.081C124.395 232.084 114.09 228.85 106.533 228.85C104.12 228.85 101.849 229.177 99.88 229.763V205.273H92.842V235.729Z" fill="#7AAFDB" stroke="#160E23" stroke-width="1.5277" stroke-miterlimit="10" stroke-linecap="round" stroke-linejoin="round"/>
<path d="M90.4208 235.729H90.4041C90.4208 235.846 90.4208 235.963 90.4208 236.081C90.4208 237.999 58.8674 237.999 58.8674 236.081C58.8674 232.084 69.173 228.85 76.7304 228.85C79.1434 228.85 81.414 229.177 83.3829 229.763V205.273H90.4208V235.729Z" fill="#7AAFDB" stroke="#160E23" stroke-width="1.5277" stroke-miterlimit="10" stroke-linecap="round" stroke-linejoin="round"/>
<path d="M121.321 122.385C120.986 122.837 120.6 123.256 120.19 123.658C116.595 127.16 111.225 128.082 106.206 128.124C104.773 128.132 103.324 128.09 101.899 128.35C96.8974 129.288 93.1522 134.6 93.9397 139.628C98.6903 139.276 102.871 136.352 107.53 135.363C113.478 134.098 119.796 136.142 124.63 139.837C127.563 142.074 130.152 144.931 132.271 148.115C134.542 151.491 136.276 155.245 137.324 159.015C137.776 160.632 138.103 162.308 138.304 163.934C138.631 166.598 138.631 169.329 138.848 172.002C138.874 172.354 138.79 172.689 138.765 173.016C138.639 174.935 138.79 176.862 138.438 178.764C137.449 184.101 135.849 190.267 133.469 196.174C133.469 196.182 133.469 196.182 133.469 196.182C130.244 204.276 125.56 211.9 119.05 216.266C115.598 218.578 111.426 219.801 107.278 219.734C104.12 219.684 101.02 218.905 97.9028 218.26C95.8081 217.816 93.7051 217.439 91.5938 217.388C90.9654 217.355 90.3286 217.372 89.7002 217.422C89.6081 217.43 89.5159 217.439 89.4237 217.455C87.2872 217.64 85.1926 218.218 83.1147 218.762C81.305 219.24 79.4785 219.692 77.6184 219.86C71.4435 220.405 65.3188 217.606 60.7609 213.417C44.1044 198.109 36.2622 164.755 50.8826 145.828C54.5189 141.127 59.4622 137.449 65.0088 135.313C68.2345 134.064 71.7619 133.344 75.1719 133.905C80.5174 134.785 85.0418 138.698 90.4124 139.368C90.7224 133.779 89.2897 128.115 86.3823 123.348C85.5445 121.974 84.5391 120.416 85.0334 118.891C85.7037 116.796 88.8708 116.536 90.5213 117.986C92.1803 119.435 92.6411 121.798 92.817 123.993C93.0013 126.188 93.0349 128.501 94.1324 130.403C95.6657 129.004 97.199 127.613 98.7322 126.23C94.5849 119.636 97.5676 110.479 103.324 105.234C109.08 99.9889 116.863 97.7183 124.354 95.6069C124.052 100.475 124.898 105.343 124.856 110.211C124.823 113.847 124.186 117.642 122.427 120.751V120.759C122.091 121.329 121.731 121.865 121.321 122.385Z" fill="#7AAFDB" stroke="#160E23" stroke-width="1.3692" stroke-miterlimit="10" stroke-linecap="round" stroke-linejoin="round"/>
<path d="M77.0571 168.81C77.0571 169.296 76.9985 169.765 76.8979 170.217C76.2612 173.032 73.7392 175.135 70.7314 175.135C70.1532 175.135 69.6003 175.06 69.0724 174.909C66.827 174.314 65.0843 172.505 64.5648 170.234C64.5648 170.234 64.5564 170.226 64.5564 170.217C64.548 170.2 64.548 170.184 64.5396 170.159C64.4475 169.723 64.3972 169.27 64.3972 168.81C64.3972 168.592 64.4056 168.374 64.4307 168.165C64.4307 168.165 64.4307 168.156 64.4307 168.148C64.7659 164.964 67.4554 162.484 70.7314 162.484C74.2252 162.484 77.0571 165.316 77.0571 168.81Z" fill="black" stroke="#160E23" stroke-miterlimit="10"/>
<path d="M91.024 170.218C91.024 170.687 90.9737 171.139 90.8648 171.583C90.2448 174.34 87.7815 176.401 84.8323 176.401C82.2768 176.401 80.0816 174.842 79.1433 172.631C79.1433 172.631 79.1433 172.622 79.1349 172.622C78.8249 171.885 78.6489 171.064 78.6489 170.218C78.6489 169.949 78.6657 169.69 78.7076 169.43V169.422C79.093 166.38 81.6903 164.026 84.8323 164.026C88.2507 164.026 91.024 166.799 91.024 170.218Z" fill="black" stroke="#160E23" stroke-miterlimit="10"/>
<path d="M78.7076 169.421C78.7244 169.69 78.7411 169.949 78.7746 170.217H64.548C64.548 170.201 64.5396 170.176 64.5396 170.159C64.4726 169.505 64.439 168.843 64.4307 168.165C64.4307 168.165 64.4307 168.156 64.4307 168.148V167.964C64.4307 160.046 68.4021 153.62 73.3119 153.62C76.2276 153.62 78.8165 155.89 80.4168 159.409C79.3025 161.797 78.6573 164.763 78.6573 167.964C78.6573 168.458 78.6741 168.944 78.7076 169.421Z" fill="#7AAFDB" stroke="#160E23" stroke-width="1.5277" stroke-miterlimit="10" stroke-linecap="round" stroke-linejoin="round"/>
<path d="M78.7747 170.217C78.8082 170.686 78.8668 171.139 78.9506 171.583C79.0093 171.935 79.0679 172.278 79.1349 172.622" stroke="#160E23" stroke-width="1.4729" stroke-miterlimit="10" stroke-linecap="round"/>
<path d="M96.4199 167.964C96.4199 169.22 96.3193 170.427 96.1183 171.583H78.9507C78.8669 171.139 78.8083 170.687 78.7748 170.217C78.758 170.033 78.7329 169.849 78.7245 169.664C78.7161 169.589 78.7077 169.505 78.7077 169.43V169.421C78.691 169.187 78.6742 168.944 78.6742 168.701C78.6575 168.458 78.6575 168.215 78.6575 167.964C78.6575 164.763 79.3026 161.797 80.417 159.409C82.0256 155.89 84.6146 153.62 87.5387 153.62C92.4401 153.62 96.4199 160.046 96.4199 167.964Z" fill="#7AAFDB" stroke="#160E23" stroke-width="1.5277" stroke-miterlimit="10" stroke-linecap="round" stroke-linejoin="round"/>
<path d="M96.1182 171.583C95.1379 177.775 91.6608 182.324 87.5386 182.324C84.6145 182.324 82.0255 180.054 80.4168 176.543C80.2409 176.149 80.0649 175.756 79.9058 175.328V175.32C79.5958 174.474 79.336 173.577 79.1433 172.63C80.0817 174.842 82.2769 176.401 84.8323 176.401C87.7815 176.401 90.2448 174.34 90.8648 171.583H96.1182Z" fill="white" stroke="#160E23" stroke-width="1.5277" stroke-miterlimit="10" stroke-linecap="round" stroke-linejoin="round"/>
<path d="M90.8649 171.583C90.2449 174.34 87.7816 176.401 84.8324 176.401C82.2769 176.401 80.0818 174.842 79.1434 172.63C79.1434 172.63 79.1434 172.622 79.135 172.622C79.068 172.278 79.0093 171.935 78.9507 171.583H90.8649Z" stroke="#160E23" stroke-width="1.4729" stroke-miterlimit="10" stroke-linecap="round"/>
<path d="M78.9512 171.583H78.9338" stroke="#160E23" stroke-width="1.4729" stroke-miterlimit="10" stroke-linecap="round"/>
<path d="M79.9059 175.32L75.6999 181.788H75.6915C74.9291 182.131 74.1331 182.324 73.312 182.324C68.8714 182.324 65.21 177.088 64.5481 170.217L64.5648 170.234C65.0843 172.505 66.827 174.314 69.0725 174.909C69.6003 175.06 70.1533 175.135 70.7314 175.135C73.7393 175.135 76.2612 173.032 76.898 170.217H78.6491C78.6491 171.064 78.8251 171.885 79.1351 172.622C79.1434 172.622 79.1434 172.63 79.1434 172.63C79.3361 173.577 79.5959 174.474 79.9059 175.32Z" fill="white" stroke="#160E23" stroke-width="1.5277" stroke-miterlimit="10" stroke-linecap="round" stroke-linejoin="round"/>
<path d="M82.1009 188.533L72.0132 187.435L75.6913 181.788" stroke="#160E23" stroke-width="1.4729" stroke-miterlimit="10" stroke-linecap="round"/>
<path d="M79.9145 175.32L79.9058 175.329" stroke="#160E23" stroke-width="1.4729" stroke-miterlimit="10" stroke-linecap="round"/>
<path d="M73.2617 200.305C80.1153 200.489 87.0779 201.369 93.8728 200.02C97.7604 199.249 101.556 197.674 104.472 194.993" stroke="#160E23" stroke-width="1.4729" stroke-miterlimit="10" stroke-linecap="round"/>
<path d="M170.134 235.729H170.151C170.134 235.847 170.134 235.964 170.134 236.081C170.134 238 201.687 238 201.687 236.081C201.687 232.085 191.382 228.851 183.824 228.851C181.411 228.851 179.141 229.177 177.172 229.764V205.273H170.134V235.729Z" fill="white" stroke="#160E23" stroke-width="1.5277" stroke-miterlimit="10" stroke-linecap="round" stroke-linejoin="round"/>
<path d="M167.712 235.729H167.696C167.712 235.847 167.712 235.964 167.712 236.081C167.712 238 136.159 238 136.159 236.081C136.159 232.085 146.464 228.851 154.022 228.851C156.435 228.851 158.705 229.177 160.674 229.764V205.273H167.712V235.729Z" fill="white" stroke="#160E23" stroke-width="1.5277" stroke-miterlimit="10" stroke-linecap="round" stroke-linejoin="round"/>
<path d="M131.526 105.276C145.585 98.2547 158.404 100.609 170.729 109.624C173.259 111.468 176.569 112.557 179.677 113.227C182.785 113.889 185.475 112.54 187.871 110.052C190.267 107.538 193.292 105.519 196.291 103.701C197.356 103.056 199.182 103.634 200.648 103.659C200.623 103.969 200.606 104.279 200.606 104.589C197.406 106.7 193.895 108.451 191.08 110.965C180.925 119.98 181.436 120.424 192.278 127.847C206.027 137.265 214.582 149.397 214.154 166.229C213.71 183.841 206.513 198.478 190.636 207.359C186.237 209.848 180.64 210.183 175.622 211.582C173.385 212.202 171.005 212.738 169.003 213.869C165.559 215.872 162.828 216.107 159.493 213.71C153.1 209.111 146.657 204.578 140.482 199.718C127.889 189.79 122.402 176.594 124.245 160.758C126.264 143.566 136.285 132.02 152.078 125.929C159.987 122.887 168.534 121.312 176.954 119.821C180.465 119.201 181.998 117.45 183.573 114.534C178.864 114.534 174.625 113.353 170.469 117.307C166.162 121.396 159.937 121.505 154.19 121.153C141.513 120.357 129.959 115.757 118.673 110.336C123.08 108.627 127.454 107.27 131.526 105.276Z" fill="white" stroke="#160E23" stroke-width="1.5277" stroke-miterlimit="10" stroke-linecap="round" stroke-linejoin="round"/>
<path d="M152.899 163.397C152.899 163.883 152.841 164.352 152.74 164.805C152.103 167.62 149.581 169.723 146.573 169.723C145.995 169.723 145.442 169.647 144.914 169.497C142.669 168.902 140.926 167.092 140.407 164.821C140.407 164.821 140.398 164.813 140.398 164.805C140.39 164.788 140.39 164.771 140.382 164.746C140.29 164.31 140.239 163.858 140.239 163.397C140.239 163.179 140.248 162.961 140.273 162.752C140.273 162.752 140.273 162.744 140.273 162.735C140.608 159.551 143.297 157.071 146.573 157.071C150.067 157.071 152.899 159.903 152.899 163.397Z" fill="black" stroke="#160E23" stroke-miterlimit="10"/>
<path d="M166.866 164.805C166.866 165.274 166.816 165.727 166.707 166.171C166.087 168.927 163.624 170.988 160.674 170.988C158.119 170.988 155.924 169.43 154.985 167.218C154.985 167.218 154.985 167.21 154.977 167.21C154.667 166.472 154.491 165.651 154.491 164.805C154.491 164.537 154.508 164.277 154.55 164.017V164.009C154.935 160.968 157.532 158.613 160.674 158.613C164.093 158.613 166.866 161.387 166.866 164.805Z" fill="black" stroke="#160E23" stroke-miterlimit="10"/>
<path d="M154.55 164.009C154.566 164.277 154.583 164.537 154.617 164.805H140.39C140.39 164.788 140.382 164.763 140.382 164.746C140.315 164.093 140.281 163.431 140.273 162.752C140.273 162.752 140.273 162.744 140.273 162.735V162.551C140.273 154.633 144.244 148.207 149.154 148.207C152.07 148.207 154.659 150.478 156.259 153.997C155.145 156.384 154.499 159.35 154.499 162.551C154.499 163.045 154.516 163.531 154.55 164.009Z" fill="white" stroke="#160E23" stroke-width="1.5277" stroke-miterlimit="10" stroke-linecap="round" stroke-linejoin="round"/>
<path d="M154.617 164.805C154.65 165.274 154.709 165.726 154.793 166.17C154.851 166.522 154.91 166.866 154.977 167.209" stroke="#160E23" stroke-width="1.4729" stroke-miterlimit="10" stroke-linecap="round"/>
<path d="M172.262 162.551C172.262 163.808 172.161 165.014 171.96 166.171H154.793C154.709 165.727 154.65 165.274 154.617 164.805C154.6 164.621 154.575 164.436 154.567 164.252C154.558 164.176 154.55 164.093 154.55 164.017V164.009C154.533 163.774 154.516 163.531 154.516 163.288C154.5 163.045 154.5 162.802 154.5 162.551C154.5 159.35 155.145 156.384 156.259 153.997C157.868 150.478 160.457 148.207 163.381 148.207C168.282 148.207 172.262 154.633 172.262 162.551Z" fill="white" stroke="#160E23" stroke-width="1.5277" stroke-miterlimit="10" stroke-linecap="round" stroke-linejoin="round"/>
<path d="M171.96 166.17C170.98 172.362 167.503 176.912 163.381 176.912C160.457 176.912 157.868 174.641 156.259 171.13C156.083 170.737 155.907 170.343 155.748 169.916V169.907C155.438 169.061 155.178 168.164 154.985 167.218C155.924 169.43 158.119 170.988 160.674 170.988C163.624 170.988 166.087 168.927 166.707 166.17H171.96Z" fill="white" stroke="#160E23" stroke-width="1.5277" stroke-miterlimit="10" stroke-linecap="round" stroke-linejoin="round"/>
<path d="M166.707 166.17C166.087 168.927 163.624 170.988 160.674 170.988C158.119 170.988 155.924 169.43 154.985 167.218C154.985 167.218 154.985 167.209 154.977 167.209C154.91 166.866 154.851 166.522 154.793 166.17H166.707Z" stroke="#160E23" stroke-width="1.4729" stroke-miterlimit="10" stroke-linecap="round"/>
<path d="M154.793 166.17H154.784" stroke="#160E23" stroke-width="1.4729" stroke-miterlimit="10" stroke-linecap="round"/>
<path d="M155.748 169.907L151.542 176.375H151.534C150.771 176.719 149.975 176.912 149.154 176.912C144.713 176.912 141.052 171.675 140.39 164.805L140.407 164.821C140.926 167.092 142.669 168.902 144.915 169.497C145.442 169.647 145.995 169.723 146.573 169.723C149.581 169.723 152.103 167.62 152.74 164.805H154.491C154.491 165.651 154.667 166.472 154.977 167.209C154.985 167.209 154.985 167.218 154.985 167.218C155.178 168.164 155.438 169.061 155.748 169.907Z" fill="white" stroke="#160E23" stroke-width="1.5277" stroke-miterlimit="10" stroke-linecap="round" stroke-linejoin="round"/>
<path d="M157.943 183.12L147.855 182.023L151.533 176.375" stroke="#160E23" stroke-width="1.4729" stroke-miterlimit="10" stroke-linecap="round"/>
<path d="M155.756 169.907L155.748 169.916" stroke="#160E23" stroke-width="1.4729" stroke-miterlimit="10" stroke-linecap="round"/>
<path d="M149.104 194.892C155.957 195.076 162.92 195.956 169.715 194.607C173.602 193.836 177.398 192.261 180.314 189.58" stroke="#160E23" stroke-width="1.4729" stroke-miterlimit="10" stroke-linecap="round"/>
</svg>
