<svg width="261" height="260" viewBox="0 0 261 260" fill="none" xmlns="http://www.w3.org/2000/svg">
<path d="M130.433 259.751C202.162 259.751 260.309 201.604 260.309 129.876C260.309 58.1473 202.162 0 130.433 0C58.705 0 0.557617 58.1473 0.557617 129.876C0.557617 201.604 58.705 259.751 130.433 259.751Z" fill="#00609C"/>
<path d="M133.508 205.031C168.349 205.031 196.593 201.413 196.593 196.951C196.593 192.488 168.349 188.871 133.508 188.871C98.6662 188.871 70.4218 192.488 70.4218 196.951C70.4218 201.413 98.6662 205.031 133.508 205.031Z" fill="#1C122D"/>
<path d="M131.584 194.229H131.609C131.593 194.38 131.584 194.531 131.584 194.683C131.584 197.185 172.69 197.185 172.69 194.683C172.69 189.483 159.259 185.259 149.416 185.259C146.274 185.259 143.318 185.687 140.748 186.443V158.869H131.584V194.229Z" fill="#FFCD00" stroke="#160E23" stroke-width="1.5907" stroke-miterlimit="10" stroke-linecap="round" stroke-linejoin="round"/>
<path d="M185.523 99.1348H82.1721V158.878H185.523V99.1348Z" fill="#FFCD00" stroke="#160E23" stroke-width="1.5907" stroke-miterlimit="10" stroke-linecap="round" stroke-linejoin="round"/>
<path d="M185.523 99.1349H82.1722L67.7509 88.2412H171.111L185.523 99.1349Z" fill="#FFCD00" stroke="#160E23" stroke-width="1.5907" stroke-miterlimit="10" stroke-linecap="round" stroke-linejoin="round"/>
<path d="M67.7509 147.984L82.1722 158.869V99.1349L67.7509 88.2412V147.984Z" fill="#160E23" stroke="#160E23" stroke-width="1.5907" stroke-miterlimit="10" stroke-linecap="round" stroke-linejoin="round"/>
<path d="M131.584 194.229H131.559C131.576 194.38 131.584 194.531 131.584 194.683C131.584 197.185 90.4789 197.185 90.4789 194.683C90.4789 189.483 103.909 185.259 113.753 185.259C116.894 185.259 119.851 185.687 122.421 186.443V158.869H131.584V194.229Z" fill="#FFCD00" stroke="#160E23" stroke-width="1.5907" stroke-miterlimit="10" stroke-linecap="round" stroke-linejoin="round"/>
<path d="M111.023 148.37C121.72 148.37 130.392 139.698 130.392 129.001C130.392 118.304 121.72 109.633 111.023 109.633C100.326 109.633 91.6548 118.304 91.6548 129.001C91.6548 139.698 100.326 148.37 111.023 148.37Z" fill="white" stroke="#160E23" stroke-width="1.5907" stroke-miterlimit="10" stroke-linecap="round" stroke-linejoin="round"/>
<path d="M111.023 136.208C115.003 136.208 118.23 132.981 118.23 129.001C118.23 125.021 115.003 121.795 111.023 121.795C107.043 121.795 103.817 125.021 103.817 129.001C103.817 132.981 107.043 136.208 111.023 136.208Z" fill="#160E23"/>
<path d="M91.6462 129.001C91.6462 118.301 100.323 109.633 111.015 109.633C121.715 109.633 130.383 118.309 130.383 129.001H91.6462Z" fill="#FFCD00" stroke="#160E23" stroke-width="1.5907" stroke-miterlimit="10" stroke-linecap="round" stroke-linejoin="round"/>
<path d="M156.681 148.37C167.378 148.37 176.049 139.698 176.049 129.001C176.049 118.304 167.378 109.633 156.681 109.633C145.984 109.633 137.312 118.304 137.312 129.001C137.312 139.698 145.984 148.37 156.681 148.37Z" fill="white" stroke="#160E23" stroke-width="1.5907" stroke-miterlimit="10" stroke-linecap="round" stroke-linejoin="round"/>
<path d="M156.681 136.208C160.661 136.208 163.887 132.981 163.887 129.001C163.887 125.021 160.661 121.795 156.681 121.795C152.701 121.795 149.474 125.021 149.474 129.001C149.474 132.981 152.701 136.208 156.681 136.208Z" fill="#160E23"/>
<path d="M137.312 129.001C137.312 118.301 145.989 109.633 156.681 109.633C167.373 109.633 176.049 118.309 176.049 129.001H137.312Z" fill="#FFCD00" stroke="#160E23" stroke-width="1.5907" stroke-miterlimit="10" stroke-linecap="round" stroke-linejoin="round"/>
<path d="M141.588 148.664C141.588 148.664 138.119 150.772 133.844 150.772C129.568 150.772 126.1 148.664 126.1 148.664" fill="#FFCD00"/>
<path d="M141.588 148.664C141.588 148.664 138.119 150.772 133.844 150.772C129.568 150.772 126.1 148.664 126.1 148.664" stroke="#160E23" stroke-width="1.5907" stroke-miterlimit="10" stroke-linecap="round" stroke-linejoin="round"/>
<path d="M107.109 230.976L112.846 227.692C113.425 227.306 113.812 226.995 114.013 226.76C114.215 226.525 114.307 226.281 114.307 226.029C114.307 225.769 114.206 225.55 114.013 225.399C113.812 225.24 113.551 225.122 113.215 225.047C112.888 224.971 112.51 224.929 112.09 224.929C111.619 224.929 111.115 224.996 110.586 225.131C110.049 225.265 109.511 225.458 108.965 225.727C108.419 225.996 107.915 226.306 107.462 226.684C107.453 226.693 107.437 226.718 107.42 226.735C107.403 226.76 107.378 226.768 107.361 226.768L107.344 222.476C108.478 221.981 109.452 221.62 110.284 221.384C111.115 221.149 112.048 221.032 113.098 221.032C114.147 221.032 115.071 221.183 115.878 221.494C116.684 221.804 117.322 222.241 117.793 222.812C118.263 223.383 118.498 224.039 118.498 224.786C118.498 225.643 118.204 226.39 117.608 227.046C117.012 227.692 116.13 228.23 114.962 228.65L112.35 229.809L112.367 230.01H115.743C116.432 230.01 117.028 229.918 117.541 229.733C118.053 229.548 118.448 229.288 118.742 228.952L118.691 233.95H107.143L107.109 230.976Z" fill="#FFCD00"/>
<path d="M126.158 234.209C124.932 234.209 123.815 233.957 122.824 233.445C121.824 232.933 121.035 232.185 120.447 231.202C119.859 230.22 119.573 229.027 119.573 227.633C119.573 226.247 119.867 225.063 120.447 224.063C121.026 223.064 121.824 222.316 122.815 221.812C123.815 221.308 124.923 221.056 126.15 221.056C127.401 221.056 128.518 221.308 129.509 221.812C130.501 222.316 131.29 223.064 131.87 224.055C132.449 225.046 132.743 226.238 132.743 227.633C132.743 229.019 132.458 230.203 131.878 231.194C131.298 232.185 130.509 232.941 129.518 233.445C128.535 233.949 127.41 234.209 126.158 234.209ZM126.158 230.295C126.889 230.295 127.544 230.203 128.124 230.01C128.703 229.816 129.157 229.514 129.493 229.111C129.829 228.699 129.997 228.212 129.997 227.633C129.997 227.053 129.829 226.566 129.493 226.171C129.157 225.776 128.703 225.474 128.124 225.273C127.544 225.071 126.889 224.97 126.158 224.97C125.427 224.97 124.764 225.071 124.193 225.281C123.613 225.482 123.16 225.785 122.832 226.171C122.505 226.566 122.337 227.053 122.337 227.641C122.337 228.221 122.496 228.708 122.824 229.111C123.151 229.514 123.605 229.816 124.184 230.01C124.764 230.194 125.427 230.295 126.158 230.295Z" fill="#FFCD00"/>
<path d="M133.34 230.976L139.076 227.692C139.656 227.305 140.042 226.995 140.244 226.759C140.445 226.524 140.538 226.281 140.538 226.029C140.538 225.76 140.437 225.55 140.244 225.399C140.042 225.239 139.782 225.122 139.446 225.046C139.118 224.97 138.74 224.928 138.32 224.928C137.85 224.928 137.346 224.996 136.817 225.13C136.279 225.264 135.742 225.458 135.196 225.726C134.65 225.995 134.146 226.306 133.692 226.684C133.676 226.692 133.667 226.717 133.65 226.734C133.634 226.759 133.608 226.768 133.592 226.768L133.575 222.476C134.709 221.98 135.683 221.619 136.514 221.384C137.346 221.149 138.278 221.031 139.328 221.031C140.378 221.031 141.302 221.182 142.108 221.493C142.915 221.804 143.553 222.241 144.023 222.812C144.494 223.383 144.729 224.047 144.729 224.786C144.729 225.642 144.435 226.39 143.838 227.045C143.242 227.692 142.36 228.229 141.193 228.649L138.581 229.8L138.597 230.002H141.974C142.663 230.002 143.259 229.909 143.771 229.724C144.284 229.54 144.687 229.279 144.972 228.943L144.922 233.941H133.373L133.34 230.976Z" fill="#FFCD00"/>
<path d="M152.389 234.209C151.163 234.209 150.045 233.957 149.054 233.445C148.055 232.933 147.265 232.185 146.686 231.202C146.098 230.22 145.812 229.027 145.812 227.633C145.812 226.247 146.106 225.063 146.686 224.063C147.265 223.064 148.063 222.316 149.054 221.804C150.054 221.3 151.163 221.048 152.389 221.048C153.64 221.048 154.757 221.3 155.757 221.804C156.748 222.308 157.537 223.055 158.117 224.046C158.697 225.037 158.991 226.23 158.991 227.624C158.991 229.01 158.705 230.195 158.125 231.186C157.546 232.177 156.756 232.933 155.765 233.437C154.757 233.949 153.64 234.209 152.389 234.209ZM152.389 230.295C153.12 230.295 153.775 230.203 154.354 230.01C154.934 229.817 155.387 229.514 155.723 229.111C156.059 228.699 156.227 228.212 156.227 227.633C156.227 227.053 156.059 226.566 155.723 226.171C155.387 225.777 154.934 225.474 154.354 225.273C153.775 225.071 153.12 224.962 152.389 224.962C151.658 224.962 151.003 225.063 150.423 225.264C149.844 225.466 149.39 225.768 149.063 226.155C148.735 226.549 148.567 227.036 148.567 227.624C148.567 228.204 148.727 228.691 149.054 229.094C149.382 229.497 149.835 229.8 150.415 229.993C150.995 230.194 151.65 230.295 152.389 230.295Z" fill="#FFCD00"/>
<path d="M19.3379 137.932C19.5563 137.47 19.7998 136.882 20.0518 136.176C20.3038 135.471 20.5306 134.79 20.7237 134.135L21.7484 131.187C21.9332 130.54 22.0676 129.877 22.1684 129.188C22.2692 128.499 22.3364 127.903 22.3616 127.391H28.5097L28.5265 127.449C28.5601 127.995 28.6189 128.6 28.7113 129.28C28.8037 129.961 28.9465 130.599 29.1229 131.204L30.1644 134.144C30.3575 134.799 30.5759 135.479 30.8279 136.185C31.0799 136.89 31.315 137.478 31.5334 137.94H27.3927C27.3759 137.663 27.3339 137.327 27.2835 136.949C27.2247 136.571 27.1491 136.134 27.0315 135.655L26.9139 135.353H23.9658L23.8482 135.672C23.7978 135.84 23.7306 136.176 23.6382 136.68C23.5375 137.226 23.4871 137.646 23.4871 137.948L19.3379 137.932ZM26.5527 133.85L25.9312 132.195C25.8388 131.968 25.7716 131.733 25.7296 131.498C25.6876 131.263 25.6456 131.019 25.6204 130.767C25.5868 130.708 25.57 130.641 25.5616 130.582C25.5532 130.515 25.5364 130.448 25.5196 130.364H25.3349C25.3265 130.473 25.3097 130.574 25.2929 130.649C25.2761 130.733 25.2593 130.809 25.2425 130.893C25.2005 131.111 25.1585 131.33 25.1165 131.54C25.0745 131.75 25.0073 131.977 24.9317 132.203L24.3186 133.858L26.5527 133.85Z" fill="#FFCD00"/>
<path d="M37.0599 138.157C36.3208 138.157 35.4389 138.065 34.4142 137.889C33.3979 137.712 32.5328 137.494 31.8188 137.259L31.97 133.303C32.5748 133.832 33.3223 134.227 34.221 134.487C35.1197 134.747 36.0184 134.873 36.9255 134.873C37.2951 134.873 37.631 134.848 37.9166 134.806C38.2106 134.764 38.4374 134.689 38.6137 134.579C38.7901 134.47 38.8741 134.327 38.8741 134.151C38.8741 133.991 38.7901 133.865 38.6221 133.773C38.4542 133.681 38.2274 133.614 37.9586 133.572C37.6898 133.53 37.2951 133.471 36.7827 133.412C35.8504 133.311 35.0609 133.194 34.431 133.059C33.7926 132.925 33.2383 132.656 32.7595 132.253C32.2808 131.85 32.0456 131.262 32.0456 130.489C32.0456 129.775 32.2724 129.17 32.726 128.675C33.1795 128.179 33.801 127.801 34.5906 127.549C35.3801 127.297 36.2788 127.171 37.2867 127.171C38.009 127.171 38.7565 127.239 39.5292 127.381C40.302 127.524 40.9487 127.684 41.4694 127.877V131.673C41.0243 131.363 40.4363 131.102 39.6888 130.884C38.9413 130.665 38.1854 130.556 37.4211 130.556C37.0515 130.556 36.7155 130.581 36.43 130.64C36.136 130.699 35.9092 130.775 35.7412 130.892C35.5733 131.001 35.4893 131.136 35.4893 131.287C35.4893 131.497 35.5901 131.665 35.7916 131.782C35.9932 131.9 36.2536 131.992 36.5728 132.051C36.8919 132.11 37.3287 132.169 37.883 132.219C38.8153 132.312 39.5796 132.429 40.176 132.564C40.7723 132.698 41.2847 132.967 41.7382 133.353C42.1834 133.74 42.4101 134.277 42.4101 134.974C42.4101 135.696 42.175 136.293 41.713 136.772C41.2511 137.25 40.6295 137.603 39.84 137.821C39.0505 138.04 38.1266 138.157 37.0599 138.157Z" fill="#FFCD00"/>
<path d="M31.1976 144.238C41.2543 144.238 49.4069 139.365 49.4069 133.353C49.4069 127.341 41.2543 122.468 31.1976 122.468C21.1409 122.468 12.9883 127.341 12.9883 133.353C12.9883 139.365 21.1409 144.238 31.1976 144.238Z" stroke="#FFCD00" stroke-width="1.8921" stroke-miterlimit="10"/>
<path d="M47.5506 101.445C46.8619 103.604 45.7952 105.519 44.3505 107.19C42.9059 108.862 41.1504 110.021 39.0927 110.676C37.0349 111.331 34.7923 111.264 32.365 110.491C29.9208 109.71 28.0562 108.45 26.7711 106.712C25.4861 104.973 24.7385 103.008 24.537 100.807C24.3354 98.6064 24.579 96.431 25.2677 94.2725C25.7464 92.7858 26.326 91.4 27.0231 90.1065C27.7202 88.813 28.3922 87.7715 29.0557 86.9736L36.4637 89.485C35.7246 89.9637 34.9855 90.7364 34.238 91.8031C33.4904 92.8698 32.9361 93.9701 32.5749 95.104C32.1466 96.4227 31.945 97.6573 31.945 98.7912C31.9534 99.9251 32.1886 100.891 32.6505 101.697C33.1125 102.495 33.8012 103.041 34.7167 103.335C35.6574 103.637 36.5393 103.57 37.3876 103.15C38.2275 102.722 38.9667 102.042 39.5882 101.109C40.2097 100.177 40.7305 99.0768 41.1336 97.8169C41.6124 96.3135 41.8392 94.8184 41.7888 93.3486C41.7468 91.8787 41.4864 90.5685 41.0245 89.4346L49.054 92.0047C49.0204 93.5837 48.9028 95.1124 48.7013 96.5738C48.5081 98.0269 48.1217 99.6563 47.5506 101.445Z" fill="#FFCD00"/>
<path d="M50.4146 92.7854C49.6755 92.1302 48.6676 91.3995 47.4077 90.5848C46.1479 89.7701 44.8796 89.0394 43.6113 88.3674L38.0511 85.4361C36.7828 84.7642 35.4558 84.1427 34.0783 83.5631C32.6925 82.9752 31.525 82.5636 30.5591 82.3285L34.6411 74.5845C35.3802 75.2396 36.3881 75.9619 37.6647 76.7598C38.9414 77.5494 40.2097 78.2801 41.4779 78.952L47.0382 81.8833C48.3064 82.5468 49.6251 83.1852 51.0026 83.7899C52.38 84.3946 53.5391 84.8146 54.505 85.0498L50.4146 92.7854Z" fill="#FFCD00"/>
<path d="M56.7896 81.136C56.0673 80.632 55.1434 80.0609 54.0011 79.4226C52.8588 78.7842 51.7082 78.1879 50.5407 77.6335C50.3643 77.5495 50.2047 77.474 50.0703 77.4068C49.936 77.3396 49.7932 77.2808 49.6504 77.222L43.2838 75.1222C41.898 74.5007 40.4617 73.9463 38.9919 73.434C37.522 72.93 36.2622 72.5605 35.2123 72.3421L40.6381 65.354C41.2261 65.816 41.9064 66.2695 42.6623 66.7231C43.4182 67.1766 44.2077 67.5882 45.0309 67.9577L52.0441 70.4775C52.3045 70.5951 52.5565 70.7127 52.8085 70.8302C53.0604 70.9394 53.304 71.0654 53.556 71.2082C53.8919 71.3342 54.2447 71.4854 54.6059 71.6618C54.9754 71.8381 55.3282 72.0145 55.6726 72.1993L55.9077 71.8969C55.6726 71.5778 55.4374 71.2838 55.2022 71.0234C54.9754 70.7631 54.7402 70.5195 54.5135 70.2843C54.3203 70.0491 54.1271 69.8139 53.9423 69.5788C53.7576 69.3436 53.5728 69.0916 53.3712 68.8313L49.1464 62.6663C48.4997 61.8684 47.853 61.1545 47.223 60.5413C46.5931 59.9282 46.0388 59.4158 45.5768 59.0043L50.9438 52.0918C51.431 53.0325 52.1029 54.1664 52.968 55.4682C53.8331 56.7785 54.7318 58.0216 55.6558 59.1975L59.2422 64.8249C60.1493 65.9588 61.1152 67.0758 62.1567 68.1845C63.1982 69.2848 64.0969 70.1499 64.8612 70.7715L56.7896 81.136Z" fill="#FFCD00"/>
<path d="M68.0612 67.5629C67.5908 66.6894 66.9021 65.6647 65.9866 64.4636C65.0795 63.2709 64.1388 62.1371 63.1813 61.0788L58.9649 56.4256C58.0074 55.3674 56.9744 54.3259 55.8741 53.3012C54.7738 52.2765 53.8163 51.487 52.9932 50.9326L59.4773 45.0532C59.9476 45.9267 60.6448 46.9514 61.5687 48.1273C62.4926 49.3116 63.4417 50.4287 64.3992 51.487L68.6155 56.1401C69.573 57.1984 70.5977 58.2483 71.6812 59.2897C72.7647 60.3228 73.7138 61.1208 74.5369 61.6751L68.0612 67.5629Z" fill="#FFCD00"/>
<path d="M85.2292 54.8382C83.3142 56.0477 81.2648 56.8288 79.0894 57.1816C76.914 57.5343 74.8227 57.2992 72.8237 56.476C70.8247 55.6529 69.1449 54.1663 67.7926 52.0161C66.4235 49.8491 65.802 47.6822 65.9364 45.532C66.0708 43.3734 66.7595 41.3912 68.011 39.577C69.2624 37.7628 70.8499 36.2509 72.7649 35.0415C74.0835 34.21 75.4274 33.5212 76.7881 32.9753C78.1487 32.4293 79.3414 32.0682 80.3577 31.875L84.4229 38.5607C83.5494 38.4599 82.4827 38.5691 81.2312 38.9051C79.9797 39.241 78.8458 39.7282 77.8295 40.3665C76.6537 41.1056 75.7046 41.9204 74.9822 42.7939C74.2599 43.6674 73.8148 44.5577 73.6552 45.4648C73.4956 46.3719 73.672 47.237 74.1843 48.0517C74.7135 48.8832 75.4358 49.404 76.3513 49.6224C77.2668 49.8407 78.2663 49.7903 79.3498 49.4712C80.4249 49.1604 81.5252 48.6481 82.6506 47.9425C83.9861 47.0942 85.1116 46.0947 86.0271 44.944C86.9426 43.785 87.5809 42.6259 87.9505 41.45L92.4524 48.5809C91.4109 49.7735 90.3442 50.8654 89.2524 51.8565C88.1605 52.8392 86.825 53.8387 85.2292 54.8382Z" fill="#FFCD00"/>
<path d="M98.0209 47.3627C97.9789 46.3548 97.8277 45.1118 97.5841 43.6335C97.3322 42.1553 97.0298 40.7274 96.6686 39.3668L95.056 33.2942C94.7032 31.9503 94.2581 30.5729 93.7457 29.145C93.225 27.7256 92.7378 26.5665 92.2759 25.6678L110.494 20.8467L113.635 28.4395C113.181 28.2295 112.543 28.1539 111.737 28.2127C110.922 28.2715 109.738 28.5067 108.192 28.9182L101.868 30.5897L102.54 33.1346L107.495 31.8243C109.125 31.396 110.384 31.018 111.275 30.6905L112.131 33.9157C111.275 34.0081 109.981 34.2853 108.268 34.7388L103.312 36.0491L103.917 38.3421L109.402 36.889C111.569 36.3179 113.123 35.7971 114.063 35.3268C115.004 34.8564 115.667 34.3861 116.071 33.8989L117.137 42.3065L98.0209 47.3627Z" fill="#FFCD00"/>
<path d="M117.734 42.0377C117.935 41.0718 118.086 39.8371 118.204 38.3421C118.322 36.8471 118.364 35.3772 118.338 33.9494L118.238 27.6668C118.212 26.239 118.12 24.7691 117.96 23.2825C117.793 21.7874 117.599 20.5611 117.373 19.6036L125.293 19.5113L133.432 31.1776L133.852 31.1692L133.793 27.356C133.818 26.0542 133.734 24.5927 133.541 22.9717C133.356 21.3507 133.163 20.1412 132.953 19.3601L141.797 19.2173C141.579 20.1832 141.411 21.4179 141.293 22.9129C141.176 24.4079 141.134 25.8778 141.159 27.3056L141.394 41.6682L134.507 41.7773L126.04 29.5734L125.595 29.5818L125.654 33.3278C125.679 34.7389 125.772 36.3179 125.956 38.0481C126.133 39.7868 126.326 41.0718 126.536 41.9033L117.734 42.0377Z" fill="#FFCD00"/>
<path d="M153.304 45.3467C150.994 44.7336 149.037 43.7173 147.441 42.3146C145.846 40.9036 144.754 39.2153 144.166 37.2332C143.578 35.251 143.578 33.126 144.182 30.8498C144.779 28.5988 145.854 26.751 147.391 25.3148C148.936 23.8785 150.767 22.9462 152.892 22.5179C155.017 22.0895 157.226 22.1735 159.519 22.7866C161.233 23.2402 162.728 23.7861 164.013 24.4077C165.298 25.0376 166.356 25.6759 167.205 26.3143L165.281 33.3024C164.769 32.6388 163.971 32.0173 162.887 31.4545C161.795 30.8918 160.662 30.4467 159.486 30.1359C157.999 29.7411 156.68 29.5815 155.53 29.6655C154.379 29.7495 153.438 30.0603 152.691 30.6062C151.952 31.1522 151.456 31.8997 151.196 32.8488C150.977 33.6719 151.003 34.453 151.271 35.1922C151.54 35.9229 152.036 36.578 152.758 37.1492C153.48 37.7203 154.387 38.1487 155.488 38.4342C155.983 38.5686 156.47 38.6526 156.941 38.703C157.411 38.7534 157.848 38.7534 158.251 38.703C158.654 38.6526 158.999 38.577 159.284 38.4846L159.796 36.5612L158.033 36.0909C157.638 35.9901 157.184 35.8893 156.664 35.8137C156.143 35.7297 155.74 35.6625 155.446 35.6037L156.311 32.7144L167.524 35.6961L165.088 44.868C164.063 45.3887 162.887 45.7499 161.569 45.943C160.242 46.1362 158.881 46.1782 157.47 46.069C156.084 45.9514 154.681 45.7079 153.304 45.3467Z" fill="#FFCD00"/>
<path d="M161.846 46.5985C162.736 45.9686 163.786 45.1287 164.996 44.0788C166.205 43.0289 167.322 41.9958 168.355 40.9795L173.319 36.5532C174.319 35.5453 175.268 34.4534 176.166 33.2775C177.065 32.1016 177.813 31.0517 178.392 30.1362L189.815 36.5028L189.781 36.6288C189.278 37.6702 188.757 38.8629 188.236 40.2236C187.707 41.5842 187.304 42.9197 187.018 44.2216L185.909 50.7561C185.59 52.1671 185.296 53.6622 185.028 55.2412C184.759 56.8203 184.591 58.1473 184.524 59.2392L176.822 54.9472C177.074 54.4013 177.351 53.7462 177.645 52.9819C177.939 52.2175 178.233 51.3272 178.527 50.3193L178.611 49.6306L173.126 46.5733L172.572 47.0353C172.303 47.304 171.824 47.85 171.135 48.6899C170.388 49.597 169.859 50.3277 169.548 50.8905L161.846 46.5985ZM179.493 46.4809L180.064 42.7601C180.131 42.2394 180.248 41.7354 180.408 41.2483C180.568 40.7611 180.752 40.274 180.954 39.77C180.962 39.6272 180.988 39.4929 181.038 39.3585C181.088 39.2241 181.13 39.0729 181.181 38.9049L180.845 38.7201C180.71 38.9133 180.593 39.0813 180.475 39.2157C180.366 39.3501 180.248 39.4845 180.131 39.6104C179.828 39.98 179.526 40.3328 179.224 40.6855C178.921 41.0299 178.577 41.3743 178.191 41.727L175.327 44.1712L179.493 46.4809Z" fill="#FFCD00"/>
<path d="M189.949 65.6815C188.186 64.0604 186.926 62.2546 186.178 60.264C185.422 58.2734 185.246 56.266 185.641 54.2418C186.035 52.2177 187.035 50.3363 188.631 48.606C190.21 46.8926 192.016 45.7587 194.048 45.2044C196.081 44.65 198.138 44.6752 200.221 45.2884C202.304 45.8931 204.219 47.0018 205.966 48.6144C207.277 49.8155 208.343 50.9914 209.192 52.1421C210.032 53.2927 210.678 54.351 211.124 55.3169L206.168 60.6084C206.025 59.7853 205.605 58.8698 204.908 57.8619C204.211 56.854 203.413 55.9385 202.514 55.1154C201.381 54.0739 200.289 53.3179 199.23 52.856C198.172 52.394 197.189 52.2261 196.282 52.3688C195.375 52.5032 194.586 52.9316 193.922 53.6623C193.343 54.2922 192.998 54.9894 192.897 55.7705C192.797 56.5432 192.931 57.3495 193.301 58.1894C193.679 59.0294 194.283 59.8273 195.115 60.6C195.493 60.9444 195.879 61.2551 196.274 61.5155C196.669 61.7759 197.055 61.9858 197.433 62.1286C197.811 62.2714 198.147 62.3638 198.458 62.4142L199.802 60.9528L198.458 59.7181C198.155 59.4409 197.794 59.1469 197.374 58.8362C196.954 58.517 196.627 58.2734 196.391 58.0803L198.5 55.9301L207.042 63.7917L200.616 70.7713C199.466 70.7545 198.264 70.5278 197.005 70.0826C195.745 69.6375 194.518 69.0327 193.326 68.2852C192.133 67.5125 191.008 66.6558 189.949 65.6815Z" fill="#FFCD00"/>
<path d="M198.256 72.8711C199.197 72.5016 200.322 71.964 201.649 71.2585C202.976 70.5446 204.228 69.8055 205.395 69.0243L210.636 65.5555C211.795 64.7912 212.963 63.9345 214.139 62.9854C215.315 62.0363 216.255 61.2047 216.961 60.4824L227.376 76.1972L221.186 81.6062C221.245 81.1107 221.11 80.4808 220.791 79.7332C220.472 78.9857 219.875 77.9358 218.985 76.6004L215.374 71.1493L213.181 72.6024L216.012 76.8775C216.944 78.2886 217.708 79.3553 218.296 80.0944L215.516 81.9338C215.147 81.1527 214.475 80.0188 213.501 78.5406L210.67 74.2654L208.696 75.5757L211.829 80.3044C213.064 82.1774 214.063 83.4792 214.802 84.2184C215.55 84.9575 216.213 85.4362 216.801 85.663L209.183 89.367L198.256 72.8711Z" fill="#FFCD00"/>
<path d="M210.158 89.5265C211.14 89.4509 212.367 89.2493 213.837 88.9386C215.306 88.6194 216.726 88.2583 218.095 87.8383L224.1 85.9989C225.453 85.5873 226.83 85.1002 228.233 84.5374C229.635 83.9747 230.769 83.4455 231.626 82.9668L234.566 92.5586L227.124 98.5892C226.973 98.7488 226.813 98.8915 226.637 99.0259C226.469 99.1603 226.309 99.2779 226.158 99.3871C225.738 99.6979 225.293 100.017 224.831 100.361C224.369 100.706 223.84 101.042 223.252 101.378L223.353 101.714C224.218 101.63 224.94 101.588 225.52 101.604C226.091 101.621 226.813 101.646 227.678 101.697C227.779 101.73 227.863 101.756 227.93 101.756C227.997 101.756 228.065 101.772 228.14 101.789L237.673 102.696L240.554 112.103C239.571 112.179 238.345 112.372 236.875 112.675C235.405 112.977 233.986 113.338 232.617 113.758L226.612 115.597C225.243 116.017 223.865 116.513 222.471 117.084C221.085 117.655 219.96 118.184 219.103 118.671L216.541 110.306C217.515 110.205 218.742 110.004 220.228 109.701C221.707 109.39 223.126 109.029 224.47 108.618L229.56 107.064L229.451 106.694L214.928 105.031L214.315 103.041L225.436 93.5749L225.343 93.2641L220.253 94.818C218.859 95.2463 217.482 95.7419 216.096 96.3046C214.718 96.8758 213.601 97.3965 212.745 97.8837L210.158 89.5265Z" fill="#FFCD00"/>
<path d="M218.28 118.898C219.262 119.1 220.505 119.251 222.009 119.369C223.504 119.486 224.965 119.528 226.368 119.503L232.651 119.402C234.036 119.377 235.489 119.285 236.993 119.125C238.496 118.965 239.739 118.764 240.722 118.537L241.024 137.385L232.903 138.603C233.213 138.216 233.44 137.62 233.583 136.814C233.717 136.007 233.776 134.806 233.751 133.202L233.642 126.659L231.013 126.701L231.097 131.833C231.122 133.521 231.189 134.831 231.29 135.772L227.955 135.823C228.073 134.966 228.115 133.647 228.081 131.875L227.997 126.743L225.629 126.785L225.721 132.454C225.755 134.697 225.889 136.335 226.124 137.351C226.351 138.376 226.654 139.14 227.032 139.644L218.616 138.661L218.28 118.898Z" fill="#FFCD00"/>
<path d="M218.792 139.392C219.674 139.837 220.825 140.299 222.244 140.795C223.664 141.29 225.066 141.71 226.452 142.055L232.55 143.575C233.936 143.919 235.38 144.205 236.867 144.432C238.354 144.658 239.588 144.784 240.571 144.81L238.631 152.486L225.259 157.349L225.159 157.753L228.863 158.676C230.114 159.038 231.55 159.332 233.171 159.567C234.784 159.802 236.002 159.928 236.817 159.928L234.675 168.512C233.801 168.05 232.651 167.571 231.231 167.076C229.812 166.58 228.409 166.16 227.023 165.816L213.089 162.347L214.752 155.661L228.728 150.613L228.837 150.177L225.201 149.269C223.831 148.925 222.286 148.623 220.556 148.346C218.826 148.068 217.541 147.926 216.684 147.909L218.792 139.392Z" fill="#FFCD00"/>
<path d="M209.906 168.017C210.653 168.663 211.653 169.402 212.913 170.242C214.173 171.082 215.424 171.838 216.659 172.51L222.798 175.845L224.218 173.224C224.613 172.493 224.915 171.788 225.117 171.099C225.318 170.41 225.394 169.671 225.343 168.873L232.189 174.005L222.992 190.971L214.97 188.007C215.592 187.662 216.155 187.2 216.667 186.629C217.171 186.058 217.616 185.42 217.994 184.722L219.321 182.27L213.181 178.935C211.922 178.255 210.603 177.617 209.225 177.029C207.84 176.441 206.681 176.004 205.731 175.735L209.906 168.017Z" fill="#FFCD00"/>
</svg>
